<svg width="449" height="314" viewBox="0 0 449 314" fill="none" xmlns="http://www.w3.org/2000/svg">
<g filter="url(#filter0_d_142652_1500)">
<rect x="4" y="4" width="436.218" height="301.809" rx="15" fill="white"/>
</g>
<rect x="365.21" y="155.654" width="15.6066" height="11.9409" rx="2.25" stroke="#091B35" stroke-width="1.5"/>
<path d="M388.898 155.515V150.74C388.898 147.979 386.66 145.74 383.898 145.74H382.901C380.14 145.74 377.901 147.979 377.901 150.74L377.901 155.515" stroke="#091B35" stroke-width="1.5"/>
<rect x="214.195" y="131.105" width="138.018" height="46.3759" rx="8.75" fill="#F6F6F6" stroke="#E5E5E5" stroke-width="2.5"/>
<rect x="70.0107" y="131.106" width="133.131" height="46.3759" rx="8.75" fill="#F6F6F6" stroke="#E5E5E5" stroke-width="2.5"/>
<path d="M45.7012 146.898V158.296H43.4512V149.492L40.748 150.351V148.578L45.459 146.898H45.7012Z" fill="#091B35"/>
<path d="M83.3877 152.764L85.9277 143.834H87.1582L86.4463 147.306L83.7129 156.631H82.4912L83.3877 152.764ZM80.7598 143.834L82.7812 152.588L83.3877 156.631H82.1748L79.0723 143.834H80.7598ZM90.4453 152.579L92.4229 143.834H94.1191L91.0254 156.631H89.8125L90.4453 152.579ZM87.3428 143.834L89.8125 152.764L90.709 156.631H89.4873L86.8506 147.306L86.1299 143.834H87.3428ZM99.4189 156.807C98.7568 156.807 98.1562 156.695 97.6172 156.473C97.084 156.244 96.624 155.925 96.2373 155.515C95.8564 155.104 95.5635 154.618 95.3584 154.056C95.1533 153.493 95.0508 152.878 95.0508 152.21V151.841C95.0508 151.067 95.165 150.379 95.3936 149.775C95.6221 149.166 95.9326 148.65 96.3252 148.228C96.7178 147.807 97.1631 147.487 97.6611 147.27C98.1592 147.054 98.6748 146.945 99.208 146.945C99.8877 146.945 100.474 147.062 100.966 147.297C101.464 147.531 101.871 147.859 102.188 148.281C102.504 148.697 102.738 149.189 102.891 149.758C103.043 150.32 103.119 150.935 103.119 151.603V152.333H96.0176V151.006H101.493V150.883C101.47 150.461 101.382 150.051 101.229 149.652C101.083 149.254 100.849 148.926 100.526 148.668C100.204 148.41 99.7646 148.281 99.208 148.281C98.8389 148.281 98.499 148.36 98.1885 148.518C97.8779 148.671 97.6113 148.899 97.3887 149.204C97.166 149.509 96.9932 149.881 96.8701 150.32C96.7471 150.76 96.6855 151.266 96.6855 151.841V152.21C96.6855 152.661 96.7471 153.086 96.8701 153.484C96.999 153.877 97.1836 154.223 97.4238 154.521C97.6699 154.82 97.9658 155.055 98.3115 155.224C98.6631 155.394 99.0615 155.479 99.5068 155.479C100.081 155.479 100.567 155.362 100.966 155.128C101.364 154.893 101.713 154.58 102.012 154.187L102.996 154.97C102.791 155.28 102.53 155.576 102.214 155.857C101.897 156.139 101.508 156.367 101.045 156.543C100.588 156.719 100.046 156.807 99.4189 156.807ZM106.784 147.121V156.631H105.149V147.121H106.784ZM105.026 144.599C105.026 144.335 105.105 144.112 105.264 143.931C105.428 143.749 105.668 143.658 105.984 143.658C106.295 143.658 106.532 143.749 106.696 143.931C106.866 144.112 106.951 144.335 106.951 144.599C106.951 144.85 106.866 145.067 106.696 145.249C106.532 145.425 106.295 145.513 105.984 145.513C105.668 145.513 105.428 145.425 105.264 145.249C105.105 145.067 105.026 144.85 105.026 144.599ZM115.556 147.121H117.032V156.429C117.032 157.266 116.862 157.981 116.522 158.573C116.183 159.165 115.708 159.613 115.099 159.918C114.495 160.228 113.798 160.384 113.007 160.384C112.679 160.384 112.292 160.331 111.847 160.225C111.407 160.126 110.974 159.953 110.546 159.707C110.124 159.467 109.77 159.141 109.482 158.731L110.335 157.765C110.733 158.245 111.149 158.579 111.583 158.766C112.022 158.954 112.456 159.048 112.884 159.048C113.399 159.048 113.845 158.951 114.22 158.758C114.595 158.564 114.885 158.277 115.09 157.896C115.301 157.521 115.406 157.058 115.406 156.508V149.213L115.556 147.121ZM109.008 151.981V151.797C109.008 151.07 109.093 150.411 109.263 149.819C109.438 149.222 109.688 148.709 110.01 148.281C110.338 147.853 110.733 147.525 111.196 147.297C111.659 147.062 112.181 146.945 112.761 146.945C113.358 146.945 113.88 147.051 114.325 147.262C114.776 147.467 115.157 147.768 115.468 148.167C115.784 148.559 116.033 149.034 116.215 149.591C116.396 150.147 116.522 150.777 116.593 151.48V152.289C116.528 152.986 116.402 153.613 116.215 154.17C116.033 154.726 115.784 155.201 115.468 155.594C115.157 155.986 114.776 156.288 114.325 156.499C113.874 156.704 113.347 156.807 112.743 156.807C112.175 156.807 111.659 156.686 111.196 156.446C110.739 156.206 110.347 155.869 110.019 155.435C109.69 155.002 109.438 154.492 109.263 153.906C109.093 153.314 109.008 152.673 109.008 151.981ZM110.634 151.797V151.981C110.634 152.456 110.681 152.901 110.774 153.317C110.874 153.733 111.023 154.099 111.223 154.416C111.428 154.732 111.688 154.981 112.005 155.163C112.321 155.339 112.699 155.427 113.139 155.427C113.678 155.427 114.123 155.312 114.475 155.084C114.826 154.855 115.104 154.554 115.31 154.179C115.521 153.804 115.685 153.396 115.802 152.957V150.839C115.737 150.516 115.638 150.206 115.503 149.907C115.374 149.602 115.204 149.333 114.993 149.099C114.788 148.858 114.533 148.668 114.229 148.527C113.924 148.387 113.566 148.316 113.156 148.316C112.711 148.316 112.327 148.41 112.005 148.598C111.688 148.779 111.428 149.031 111.223 149.353C111.023 149.67 110.874 150.039 110.774 150.461C110.681 150.877 110.634 151.322 110.634 151.797ZM121.128 143.131V156.631H119.502V143.131H121.128ZM120.741 151.516L120.064 151.489C120.07 150.839 120.167 150.238 120.354 149.687C120.542 149.131 120.806 148.647 121.146 148.237C121.485 147.827 121.89 147.511 122.358 147.288C122.833 147.059 123.357 146.945 123.932 146.945C124.4 146.945 124.822 147.01 125.197 147.139C125.572 147.262 125.892 147.461 126.155 147.736C126.425 148.012 126.63 148.369 126.771 148.808C126.911 149.242 126.981 149.772 126.981 150.399V156.631H125.347V150.382C125.347 149.884 125.273 149.485 125.127 149.186C124.98 148.882 124.767 148.662 124.485 148.527C124.204 148.387 123.858 148.316 123.448 148.316C123.044 148.316 122.675 148.401 122.341 148.571C122.013 148.741 121.729 148.975 121.488 149.274C121.254 149.573 121.069 149.916 120.935 150.303C120.806 150.683 120.741 151.088 120.741 151.516ZM133.397 147.121V148.369H128.256V147.121H133.397ZM129.996 144.809H131.622V154.275C131.622 154.598 131.672 154.841 131.771 155.005C131.871 155.169 132 155.277 132.158 155.33C132.316 155.383 132.486 155.409 132.668 155.409C132.803 155.409 132.943 155.397 133.09 155.374C133.242 155.345 133.356 155.321 133.433 155.304L133.441 156.631C133.312 156.672 133.143 156.71 132.932 156.745C132.727 156.786 132.478 156.807 132.185 156.807C131.786 156.807 131.42 156.727 131.086 156.569C130.752 156.411 130.485 156.147 130.286 155.778C130.093 155.403 129.996 154.899 129.996 154.266V144.809Z" fill="#9EA4AE"/>
<path d="M224.206 143.834H228.442C229.403 143.834 230.215 143.98 230.877 144.273C231.545 144.566 232.052 145 232.397 145.574C232.749 146.142 232.925 146.843 232.925 147.675C232.925 148.261 232.805 148.797 232.564 149.283C232.33 149.764 231.99 150.174 231.545 150.514C231.105 150.848 230.578 151.097 229.963 151.261L229.488 151.445H225.507L225.489 150.065H228.495C229.104 150.065 229.611 149.96 230.016 149.749C230.42 149.532 230.725 149.242 230.93 148.879C231.135 148.516 231.237 148.114 231.237 147.675C231.237 147.182 231.141 146.752 230.947 146.383C230.754 146.014 230.449 145.729 230.033 145.53C229.623 145.325 229.093 145.223 228.442 145.223H225.902V156.631H224.206V143.834ZM231.686 156.631L228.574 150.83L230.341 150.821L233.496 156.525V156.631H231.686ZM238.998 156.807C238.336 156.807 237.735 156.695 237.196 156.473C236.663 156.244 236.203 155.925 235.816 155.515C235.436 155.104 235.143 154.618 234.938 154.056C234.732 153.493 234.63 152.878 234.63 152.21V151.841C234.63 151.067 234.744 150.379 234.973 149.775C235.201 149.166 235.512 148.65 235.904 148.228C236.297 147.807 236.742 147.487 237.24 147.27C237.738 147.054 238.254 146.945 238.787 146.945C239.467 146.945 240.053 147.062 240.545 147.297C241.043 147.531 241.45 147.859 241.767 148.281C242.083 148.697 242.317 149.189 242.47 149.758C242.622 150.32 242.698 150.935 242.698 151.603V152.333H235.597V151.006H241.072V150.883C241.049 150.461 240.961 150.051 240.809 149.652C240.662 149.254 240.428 148.926 240.105 148.668C239.783 148.41 239.344 148.281 238.787 148.281C238.418 148.281 238.078 148.36 237.768 148.518C237.457 148.671 237.19 148.899 236.968 149.204C236.745 149.509 236.572 149.881 236.449 150.32C236.326 150.76 236.265 151.266 236.265 151.841V152.21C236.265 152.661 236.326 153.086 236.449 153.484C236.578 153.877 236.763 154.223 237.003 154.521C237.249 154.82 237.545 155.055 237.891 155.224C238.242 155.394 238.641 155.479 239.086 155.479C239.66 155.479 240.146 155.362 240.545 155.128C240.943 154.893 241.292 154.58 241.591 154.187L242.575 154.97C242.37 155.28 242.109 155.576 241.793 155.857C241.477 156.139 241.087 156.367 240.624 156.543C240.167 156.719 239.625 156.807 238.998 156.807ZM246.223 148.949V160.287H244.588V147.121H246.082L246.223 148.949ZM252.63 151.797V151.981C252.63 152.673 252.548 153.314 252.384 153.906C252.22 154.492 251.979 155.002 251.663 155.435C251.353 155.869 250.969 156.206 250.512 156.446C250.055 156.686 249.53 156.807 248.938 156.807C248.335 156.807 247.802 156.707 247.339 156.508C246.876 156.308 246.483 156.018 246.161 155.638C245.839 155.257 245.581 154.8 245.388 154.266C245.2 153.733 245.071 153.133 245.001 152.465V151.48C245.071 150.777 245.203 150.147 245.396 149.591C245.59 149.034 245.845 148.559 246.161 148.167C246.483 147.768 246.873 147.467 247.33 147.262C247.787 147.051 248.314 146.945 248.912 146.945C249.51 146.945 250.04 147.062 250.503 147.297C250.966 147.525 251.355 147.853 251.672 148.281C251.988 148.709 252.226 149.222 252.384 149.819C252.548 150.411 252.63 151.07 252.63 151.797ZM250.995 151.981V151.797C250.995 151.322 250.945 150.877 250.846 150.461C250.746 150.039 250.591 149.67 250.38 149.353C250.175 149.031 249.911 148.779 249.589 148.598C249.267 148.41 248.883 148.316 248.438 148.316C248.027 148.316 247.67 148.387 247.365 148.527C247.066 148.668 246.812 148.858 246.601 149.099C246.39 149.333 246.217 149.602 246.082 149.907C245.953 150.206 245.856 150.516 245.792 150.839V153.115C245.909 153.525 246.073 153.912 246.284 154.275C246.495 154.633 246.776 154.923 247.128 155.145C247.479 155.362 247.922 155.471 248.455 155.471C248.895 155.471 249.272 155.38 249.589 155.198C249.911 155.011 250.175 154.756 250.38 154.433C250.591 154.111 250.746 153.742 250.846 153.326C250.945 152.904 250.995 152.456 250.995 151.981ZM260.241 154.108C260.241 153.874 260.188 153.657 260.083 153.458C259.983 153.253 259.775 153.068 259.459 152.904C259.148 152.734 258.68 152.588 258.053 152.465C257.525 152.353 257.048 152.222 256.62 152.069C256.198 151.917 255.838 151.732 255.539 151.516C255.246 151.299 255.021 151.044 254.862 150.751C254.704 150.458 254.625 150.115 254.625 149.723C254.625 149.348 254.707 148.993 254.871 148.659C255.041 148.325 255.278 148.029 255.583 147.771C255.894 147.514 256.266 147.311 256.699 147.165C257.133 147.018 257.616 146.945 258.149 146.945C258.911 146.945 259.562 147.08 260.101 147.349C260.64 147.619 261.053 147.979 261.34 148.431C261.627 148.876 261.771 149.371 261.771 149.916H260.145C260.145 149.652 260.065 149.397 259.907 149.151C259.755 148.899 259.529 148.691 259.23 148.527C258.938 148.363 258.577 148.281 258.149 148.281C257.698 148.281 257.332 148.351 257.051 148.492C256.775 148.627 256.573 148.8 256.444 149.011C256.321 149.222 256.26 149.444 256.26 149.679C256.26 149.854 256.289 150.013 256.348 150.153C256.412 150.288 256.523 150.414 256.682 150.531C256.84 150.642 257.062 150.748 257.35 150.848C257.637 150.947 258.003 151.047 258.448 151.146C259.228 151.322 259.869 151.533 260.373 151.779C260.877 152.025 261.252 152.327 261.498 152.684C261.744 153.042 261.867 153.475 261.867 153.985C261.867 154.401 261.779 154.782 261.604 155.128C261.434 155.474 261.185 155.772 260.856 156.024C260.534 156.27 260.147 156.464 259.696 156.604C259.251 156.739 258.75 156.807 258.193 156.807C257.355 156.807 256.646 156.657 256.066 156.358C255.486 156.059 255.047 155.673 254.748 155.198C254.449 154.724 254.3 154.223 254.3 153.695H255.935C255.958 154.141 256.087 154.495 256.321 154.759C256.556 155.016 256.843 155.201 257.183 155.312C257.522 155.418 257.859 155.471 258.193 155.471C258.639 155.471 259.011 155.412 259.31 155.295C259.614 155.178 259.846 155.016 260.004 154.811C260.162 154.606 260.241 154.372 260.241 154.108Z" fill="#9EA4AE"/>
<path d="M411.503 215.388L398.673 228.218M398.673 215.388L411.503 228.218" stroke="#091B35" stroke-width="1.5"/>
<rect x="365.21" y="219.193" width="15.6066" height="11.9409" rx="2.25" stroke="#091B35" stroke-width="1.5"/>
<path d="M388.898 219.054V214.279C388.898 211.518 386.66 209.279 383.898 209.279H382.901C380.14 209.279 377.901 211.518 377.901 214.279L377.901 219.054" stroke="#091B35" stroke-width="1.5"/>
<rect x="214.195" y="194.644" width="138.018" height="46.3759" rx="8.75" fill="#F6F6F6" stroke="#E5E5E5" stroke-width="2.5"/>
<rect x="70.0107" y="194.644" width="133.131" height="46.3759" rx="8.75" fill="#F6F6F6" stroke="#E5E5E5" stroke-width="2.5"/>
<path d="M47.998 220.077V221.835H40.2168V220.335L43.8965 216.39C44.2663 215.978 44.5579 215.616 44.7715 215.304C44.985 214.986 45.1387 214.702 45.2324 214.452C45.3314 214.197 45.3809 213.955 45.3809 213.726C45.3809 213.382 45.3236 213.088 45.209 212.843C45.0944 212.593 44.9251 212.4 44.7012 212.265C44.4824 212.129 44.2116 212.062 43.8887 212.062C43.5449 212.062 43.248 212.145 42.998 212.312C42.7533 212.478 42.5658 212.71 42.4355 213.007C42.3105 213.304 42.248 213.64 42.248 214.015H39.9902C39.9902 213.338 40.1517 212.718 40.4746 212.155C40.7975 211.588 41.2533 211.137 41.8418 210.804C42.4303 210.465 43.1283 210.296 43.9355 210.296C44.7324 210.296 45.4043 210.426 45.9512 210.687C46.5033 210.942 46.9199 211.312 47.2012 211.796C47.4876 212.275 47.6309 212.848 47.6309 213.515C47.6309 213.89 47.571 214.257 47.4512 214.616C47.3314 214.97 47.1595 215.325 46.9355 215.679C46.7168 216.028 46.4512 216.382 46.1387 216.741C45.8262 217.101 45.4798 217.473 45.0996 217.859L43.123 220.077H47.998Z" fill="#091B35"/>
<path d="M83.3877 216.302L85.9277 207.373H87.1582L86.4463 210.844L83.7129 220.169H82.4912L83.3877 216.302ZM80.7598 207.373L82.7812 216.126L83.3877 220.169H82.1748L79.0723 207.373H80.7598ZM90.4453 216.118L92.4229 207.373H94.1191L91.0254 220.169H89.8125L90.4453 216.118ZM87.3428 207.373L89.8125 216.302L90.709 220.169H89.4873L86.8506 210.844L86.1299 207.373H87.3428ZM99.4189 220.345C98.7568 220.345 98.1562 220.234 97.6172 220.011C97.084 219.783 96.624 219.463 96.2373 219.053C95.8564 218.643 95.5635 218.157 95.3584 217.594C95.1533 217.032 95.0508 216.417 95.0508 215.749V215.379C95.0508 214.606 95.165 213.917 95.3936 213.314C95.6221 212.705 95.9326 212.189 96.3252 211.767C96.7178 211.345 97.1631 211.026 97.6611 210.809C98.1592 210.592 98.6748 210.484 99.208 210.484C99.8877 210.484 100.474 210.601 100.966 210.835C101.464 211.07 101.871 211.398 102.188 211.82C102.504 212.236 102.738 212.728 102.891 213.296C103.043 213.859 103.119 214.474 103.119 215.142V215.872H96.0176V214.544H101.493V214.421C101.47 214 101.382 213.589 101.229 213.191C101.083 212.792 100.849 212.464 100.526 212.207C100.204 211.949 99.7646 211.82 99.208 211.82C98.8389 211.82 98.499 211.899 98.1885 212.057C97.8779 212.209 97.6113 212.438 97.3887 212.743C97.166 213.047 96.9932 213.419 96.8701 213.859C96.7471 214.298 96.6855 214.805 96.6855 215.379V215.749C96.6855 216.2 96.7471 216.625 96.8701 217.023C96.999 217.416 97.1836 217.761 97.4238 218.06C97.6699 218.359 97.9658 218.593 98.3115 218.763C98.6631 218.933 99.0615 219.018 99.5068 219.018C100.081 219.018 100.567 218.901 100.966 218.667C101.364 218.432 101.713 218.119 102.012 217.726L102.996 218.508C102.791 218.819 102.53 219.115 102.214 219.396C101.897 219.677 101.508 219.906 101.045 220.082C100.588 220.257 100.046 220.345 99.4189 220.345ZM106.784 210.66V220.169H105.149V210.66H106.784ZM105.026 208.137C105.026 207.874 105.105 207.651 105.264 207.469C105.428 207.288 105.668 207.197 105.984 207.197C106.295 207.197 106.532 207.288 106.696 207.469C106.866 207.651 106.951 207.874 106.951 208.137C106.951 208.389 106.866 208.606 106.696 208.788C106.532 208.963 106.295 209.051 105.984 209.051C105.668 209.051 105.428 208.963 105.264 208.788C105.105 208.606 105.026 208.389 105.026 208.137ZM115.556 210.66H117.032V219.967C117.032 220.805 116.862 221.52 116.522 222.112C116.183 222.704 115.708 223.152 115.099 223.457C114.495 223.767 113.798 223.922 113.007 223.922C112.679 223.922 112.292 223.87 111.847 223.764C111.407 223.665 110.974 223.492 110.546 223.246C110.124 223.005 109.77 222.68 109.482 222.27L110.335 221.303C110.733 221.784 111.149 222.118 111.583 222.305C112.022 222.493 112.456 222.586 112.884 222.586C113.399 222.586 113.845 222.49 114.22 222.296C114.595 222.103 114.885 221.816 115.09 221.435C115.301 221.06 115.406 220.597 115.406 220.046V212.751L115.556 210.66ZM109.008 215.52V215.335C109.008 214.609 109.093 213.95 109.263 213.358C109.438 212.76 109.688 212.248 110.01 211.82C110.338 211.392 110.733 211.064 111.196 210.835C111.659 210.601 112.181 210.484 112.761 210.484C113.358 210.484 113.88 210.589 114.325 210.8C114.776 211.005 115.157 211.307 115.468 211.706C115.784 212.098 116.033 212.573 116.215 213.129C116.396 213.686 116.522 214.316 116.593 215.019V215.828C116.528 216.525 116.402 217.152 116.215 217.708C116.033 218.265 115.784 218.74 115.468 219.132C115.157 219.525 114.776 219.827 114.325 220.038C113.874 220.243 113.347 220.345 112.743 220.345C112.175 220.345 111.659 220.225 111.196 219.985C110.739 219.745 110.347 219.408 110.019 218.974C109.69 218.541 109.438 218.031 109.263 217.445C109.093 216.853 109.008 216.211 109.008 215.52ZM110.634 215.335V215.52C110.634 215.995 110.681 216.44 110.774 216.856C110.874 217.272 111.023 217.638 111.223 217.955C111.428 218.271 111.688 218.52 112.005 218.702C112.321 218.877 112.699 218.965 113.139 218.965C113.678 218.965 114.123 218.851 114.475 218.623C114.826 218.394 115.104 218.092 115.31 217.717C115.521 217.342 115.685 216.935 115.802 216.496V214.377C115.737 214.055 115.638 213.745 115.503 213.446C115.374 213.141 115.204 212.872 114.993 212.637C114.788 212.397 114.533 212.207 114.229 212.066C113.924 211.925 113.566 211.855 113.156 211.855C112.711 211.855 112.327 211.949 112.005 212.136C111.688 212.318 111.428 212.57 111.223 212.892C111.023 213.208 110.874 213.578 110.774 214C110.681 214.416 110.634 214.861 110.634 215.335ZM121.128 206.669V220.169H119.502V206.669H121.128ZM120.741 215.054L120.064 215.028C120.07 214.377 120.167 213.777 120.354 213.226C120.542 212.669 120.806 212.186 121.146 211.776C121.485 211.366 121.89 211.049 122.358 210.827C122.833 210.598 123.357 210.484 123.932 210.484C124.4 210.484 124.822 210.548 125.197 210.677C125.572 210.8 125.892 211 126.155 211.275C126.425 211.55 126.63 211.908 126.771 212.347C126.911 212.781 126.981 213.311 126.981 213.938V220.169H125.347V213.92C125.347 213.422 125.273 213.024 125.127 212.725C124.98 212.42 124.767 212.201 124.485 212.066C124.204 211.925 123.858 211.855 123.448 211.855C123.044 211.855 122.675 211.94 122.341 212.11C122.013 212.28 121.729 212.514 121.488 212.813C121.254 213.112 121.069 213.455 120.935 213.841C120.806 214.222 120.741 214.626 120.741 215.054ZM133.397 210.66V211.908H128.256V210.66H133.397ZM129.996 208.348H131.622V217.814C131.622 218.136 131.672 218.379 131.771 218.543C131.871 218.708 132 218.816 132.158 218.869C132.316 218.921 132.486 218.948 132.668 218.948C132.803 218.948 132.943 218.936 133.09 218.913C133.242 218.883 133.356 218.86 133.433 218.842L133.441 220.169C133.312 220.21 133.143 220.249 132.932 220.284C132.727 220.325 132.478 220.345 132.185 220.345C131.786 220.345 131.42 220.266 131.086 220.108C130.752 219.95 130.485 219.686 130.286 219.317C130.093 218.942 129.996 218.438 129.996 217.805V208.348Z" fill="#9EA4AE"/>
<path d="M224.206 207.373H228.442C229.403 207.373 230.215 207.519 230.877 207.812C231.545 208.105 232.052 208.539 232.397 209.113C232.749 209.681 232.925 210.381 232.925 211.213C232.925 211.799 232.805 212.335 232.564 212.822C232.33 213.302 231.99 213.712 231.545 214.052C231.105 214.386 230.578 214.635 229.963 214.799L229.488 214.984H225.507L225.489 213.604H228.495C229.104 213.604 229.611 213.499 230.016 213.288C230.42 213.071 230.725 212.781 230.93 212.417C231.135 212.054 231.237 211.653 231.237 211.213C231.237 210.721 231.141 210.291 230.947 209.921C230.754 209.552 230.449 209.268 230.033 209.069C229.623 208.864 229.093 208.761 228.442 208.761H225.902V220.169H224.206V207.373ZM231.686 220.169L228.574 214.369L230.341 214.36L233.496 220.064V220.169H231.686ZM238.998 220.345C238.336 220.345 237.735 220.234 237.196 220.011C236.663 219.783 236.203 219.463 235.816 219.053C235.436 218.643 235.143 218.157 234.938 217.594C234.732 217.032 234.63 216.417 234.63 215.749V215.379C234.63 214.606 234.744 213.917 234.973 213.314C235.201 212.705 235.512 212.189 235.904 211.767C236.297 211.345 236.742 211.026 237.24 210.809C237.738 210.592 238.254 210.484 238.787 210.484C239.467 210.484 240.053 210.601 240.545 210.835C241.043 211.07 241.45 211.398 241.767 211.82C242.083 212.236 242.317 212.728 242.47 213.296C242.622 213.859 242.698 214.474 242.698 215.142V215.872H235.597V214.544H241.072V214.421C241.049 214 240.961 213.589 240.809 213.191C240.662 212.792 240.428 212.464 240.105 212.207C239.783 211.949 239.344 211.82 238.787 211.82C238.418 211.82 238.078 211.899 237.768 212.057C237.457 212.209 237.19 212.438 236.968 212.743C236.745 213.047 236.572 213.419 236.449 213.859C236.326 214.298 236.265 214.805 236.265 215.379V215.749C236.265 216.2 236.326 216.625 236.449 217.023C236.578 217.416 236.763 217.761 237.003 218.06C237.249 218.359 237.545 218.593 237.891 218.763C238.242 218.933 238.641 219.018 239.086 219.018C239.66 219.018 240.146 218.901 240.545 218.667C240.943 218.432 241.292 218.119 241.591 217.726L242.575 218.508C242.37 218.819 242.109 219.115 241.793 219.396C241.477 219.677 241.087 219.906 240.624 220.082C240.167 220.257 239.625 220.345 238.998 220.345ZM246.223 212.488V223.826H244.588V210.66H246.082L246.223 212.488ZM252.63 215.335V215.52C252.63 216.211 252.548 216.853 252.384 217.445C252.22 218.031 251.979 218.541 251.663 218.974C251.353 219.408 250.969 219.745 250.512 219.985C250.055 220.225 249.53 220.345 248.938 220.345C248.335 220.345 247.802 220.246 247.339 220.046C246.876 219.847 246.483 219.557 246.161 219.176C245.839 218.795 245.581 218.338 245.388 217.805C245.2 217.272 245.071 216.671 245.001 216.003V215.019C245.071 214.316 245.203 213.686 245.396 213.129C245.59 212.573 245.845 212.098 246.161 211.706C246.483 211.307 246.873 211.005 247.33 210.8C247.787 210.589 248.314 210.484 248.912 210.484C249.51 210.484 250.04 210.601 250.503 210.835C250.966 211.064 251.355 211.392 251.672 211.82C251.988 212.248 252.226 212.76 252.384 213.358C252.548 213.95 252.63 214.609 252.63 215.335ZM250.995 215.52V215.335C250.995 214.861 250.945 214.416 250.846 214C250.746 213.578 250.591 213.208 250.38 212.892C250.175 212.57 249.911 212.318 249.589 212.136C249.267 211.949 248.883 211.855 248.438 211.855C248.027 211.855 247.67 211.925 247.365 212.066C247.066 212.207 246.812 212.397 246.601 212.637C246.39 212.872 246.217 213.141 246.082 213.446C245.953 213.745 245.856 214.055 245.792 214.377V216.654C245.909 217.064 246.073 217.451 246.284 217.814C246.495 218.171 246.776 218.461 247.128 218.684C247.479 218.901 247.922 219.009 248.455 219.009C248.895 219.009 249.272 218.918 249.589 218.737C249.911 218.549 250.175 218.294 250.38 217.972C250.591 217.65 250.746 217.281 250.846 216.865C250.945 216.443 250.995 215.995 250.995 215.52ZM260.241 217.647C260.241 217.413 260.188 217.196 260.083 216.997C259.983 216.792 259.775 216.607 259.459 216.443C259.148 216.273 258.68 216.126 258.053 216.003C257.525 215.892 257.048 215.76 256.62 215.608C256.198 215.456 255.838 215.271 255.539 215.054C255.246 214.837 255.021 214.583 254.862 214.29C254.704 213.997 254.625 213.654 254.625 213.261C254.625 212.886 254.707 212.532 254.871 212.198C255.041 211.864 255.278 211.568 255.583 211.31C255.894 211.052 256.266 210.85 256.699 210.704C257.133 210.557 257.616 210.484 258.149 210.484C258.911 210.484 259.562 210.619 260.101 210.888C260.64 211.158 261.053 211.518 261.34 211.969C261.627 212.415 261.771 212.91 261.771 213.455H260.145C260.145 213.191 260.065 212.936 259.907 212.69C259.755 212.438 259.529 212.23 259.23 212.066C258.938 211.902 258.577 211.82 258.149 211.82C257.698 211.82 257.332 211.89 257.051 212.031C256.775 212.166 256.573 212.338 256.444 212.549C256.321 212.76 256.26 212.983 256.26 213.217C256.26 213.393 256.289 213.551 256.348 213.692C256.412 213.827 256.523 213.953 256.682 214.07C256.84 214.181 257.062 214.287 257.35 214.386C257.637 214.486 258.003 214.585 258.448 214.685C259.228 214.861 259.869 215.072 260.373 215.318C260.877 215.564 261.252 215.866 261.498 216.223C261.744 216.581 261.867 217.014 261.867 217.524C261.867 217.94 261.779 218.321 261.604 218.667C261.434 219.012 261.185 219.311 260.856 219.563C260.534 219.809 260.147 220.002 259.696 220.143C259.251 220.278 258.75 220.345 258.193 220.345C257.355 220.345 256.646 220.196 256.066 219.897C255.486 219.598 255.047 219.211 254.748 218.737C254.449 218.262 254.3 217.761 254.3 217.234H255.935C255.958 217.679 256.087 218.034 256.321 218.297C256.556 218.555 256.843 218.74 257.183 218.851C257.522 218.957 257.859 219.009 258.193 219.009C258.639 219.009 259.011 218.951 259.31 218.833C259.614 218.716 259.846 218.555 260.004 218.35C260.162 218.145 260.241 217.911 260.241 217.647Z" fill="#9EA4AE"/>
<rect x="16.2188" y="14.9971" width="413.002" height="100.196" rx="15" fill="#867FF1"/>
<circle cx="74.8707" cy="65.0948" r="41.5445" fill="#A49AF4"/>
<path fill-rule="evenodd" clip-rule="evenodd" d="M55.0892 48.0305C55.0892 54.2158 56.0705 60.0929 57.1862 65.3017C57.9462 68.8517 58.7763 73.968 59.1021 77.8472C59.2499 79.6052 60.2337 83.7684 59.0019 85.0004C58.6917 85.3105 57.8798 85.532 57.3584 85.6808L51.8778 87.3006C50.266 87.7991 47.9893 88.041 47.9893 91.0293C47.9893 92.0604 49.0657 92.3726 49.9251 92.5793C50.8994 92.8139 51.747 93.1028 52.7375 93.3817C55.5338 94.1687 58.5254 94.8231 61.4691 95.2361C62.4798 95.3777 63.744 95.5594 64.7683 95.5516C65.9232 95.5424 67.1573 95.8541 67.9509 95.3723C70.1352 94.0457 68.7458 89.4568 68.6462 87.4113L68.1271 76.3091C68.1355 69.5157 68.5887 70.2665 70.1672 63.8874C72.6317 53.9267 72.1925 51.4964 70.4877 41.1498C70.1519 39.1116 69.7288 37.2706 69.3994 35.2654C69.256 34.3905 69.1808 33.0523 68.6196 32.5595C67.8741 31.9046 60.0864 32.1478 58.7037 32.1478C57.1287 32.1478 57.0226 33.5849 56.7161 34.9373C56.395 36.354 56.1565 37.6017 55.8744 39.0025C55.3511 41.601 55.0892 44.9551 55.0892 48.0305Z" fill="#484E68"/>
<path fill-rule="evenodd" clip-rule="evenodd" d="M77.5508 53.4538C77.5508 60.269 80.036 65.2625 81.038 71.1423C81.3099 72.7388 81.3034 74.2892 81.2935 76.1807C81.2884 77.1967 81.4308 77.6471 81.4254 78.6317C81.4184 79.8366 81.3792 82.8331 81.5175 83.8338L81.3701 89.0388C80.9483 91.9557 81.0291 94.6122 84.4718 95.47C86.8417 96.0603 96.1899 93.4038 99.2889 92.6299C99.7921 92.5041 100.319 92.4585 100.712 92.2454C102.216 91.4282 101.215 88.392 99.3427 87.8258C98.0091 87.4225 96.6162 87.0884 95.2636 86.7407C92.4179 86.0093 90.0727 85.9332 90.0727 81.2159C90.0727 77.42 91.5717 68.2227 92.3416 64.7625L93.698 56.8222C94.6887 48.1956 94.6245 43.5044 92.7322 35.1693C92.5756 34.479 92.4719 33.7777 92.2562 33.1919C92.0663 32.6754 91.5459 32.1479 90.8472 32.1479C89.5505 32.1479 81.6231 31.9439 80.8728 32.501C80.2168 32.9879 80.2098 34.2675 80.0368 35.1511C79.647 37.1447 79.2867 39.0394 78.9536 41.0402C78.3253 44.8135 77.5508 49.0732 77.5508 53.4538Z" fill="#484E68"/>
<path fill-rule="evenodd" clip-rule="evenodd" d="M62.3955 47.3849L62.3963 49.4507C62.3982 53.1257 62.7528 67.7548 66.5788 67.4052C69.3391 65.8016 69.19 53.2364 68.5931 49.6286C68.1804 47.1325 66.3609 40.0723 65.4629 37.3964C65.0846 36.2697 64.5909 34.3231 63.6098 34.1243C62.5296 34.9473 62.6617 38.6734 62.5895 40.2846C62.4842 42.6353 62.3942 45.0271 62.3955 47.3849Z" fill="#FE004F"/>
<path fill-rule="evenodd" clip-rule="evenodd" d="M80.2481 54.4867C80.2535 57.6385 80.3719 60.7486 81.0194 63.8061C81.6434 66.7544 82.8792 69.2489 84.6742 65.6121C87.4813 59.925 86.8733 44.2543 86.3986 36.9302C86.3309 35.8862 86.281 34.6308 85.5546 34.1216C84.0658 34.48 82.4539 41.7552 82.0456 43.363C81.0836 47.15 80.2411 50.2803 80.2481 54.4867Z" fill="#FE004F"/>
<path fill-rule="evenodd" clip-rule="evenodd" d="M61.4364 46.9973C61.439 44.8898 61.4839 42.7742 61.5387 40.6701C61.5752 39.2631 62.0244 35.4052 61.2851 34.5851C59.4868 34.8984 57.2958 43.4594 56.7924 45.8545C55.7597 50.7677 56.1205 55.4382 57.2187 60.2429C57.6305 62.0433 58.4816 64.731 59.4771 65.8515C60.1356 66.5926 61.4425 67.2684 61.9398 65.8617C62.6219 63.9323 61.7286 57.3606 61.5941 54.879C61.4509 52.2429 61.4447 49.6358 61.4364 46.9973Z" fill="#FE004F"/>
<path fill-rule="evenodd" clip-rule="evenodd" d="M87.8779 34.5894C87.1657 35.2711 87.5437 37.7637 87.5784 38.8611C87.7259 43.5212 87.8105 48.2885 87.6625 52.9357C87.5655 55.9789 87.2243 58.867 87.0046 61.8834C86.9199 63.0482 86.4517 67.9862 89.0503 66.3798C92.0204 64.5436 93.3265 53.3137 92.8685 48.7206C92.6194 46.2229 91.8119 43.213 91.0769 40.9579C90.5643 39.3857 89.2077 34.7769 87.8779 34.5894Z" fill="#FE004F"/>
<path d="M140.686 67.5985H141.998C141.93 68.2274 141.75 68.7902 141.458 69.287C141.166 69.7837 140.754 70.1779 140.221 70.4696C139.688 70.7567 139.022 70.9003 138.225 70.9003C137.641 70.9003 137.11 70.7909 136.632 70.5721C136.158 70.3534 135.75 70.0435 135.408 69.6425C135.066 69.2369 134.802 68.7515 134.615 68.1864C134.433 67.6167 134.342 66.9833 134.342 66.286V65.2948C134.342 64.5975 134.433 63.9663 134.615 63.4012C134.802 62.8316 135.069 62.344 135.415 61.9384C135.766 61.5328 136.188 61.2206 136.68 61.0018C137.172 60.7831 137.726 60.6737 138.341 60.6737C139.093 60.6737 139.729 60.815 140.248 61.0975C140.768 61.3801 141.171 61.772 141.458 62.2733C141.75 62.7701 141.93 63.3466 141.998 64.0028H140.686C140.622 63.538 140.503 63.1392 140.33 62.8065C140.157 62.4693 139.911 62.2095 139.592 62.0272C139.273 61.8449 138.856 61.7538 138.341 61.7538C137.899 61.7538 137.509 61.8381 137.172 62.0067C136.839 62.1753 136.559 62.4146 136.331 62.7245C136.108 63.0344 135.939 63.4058 135.825 63.8387C135.711 64.2717 135.654 64.7525 135.654 65.2811V66.286C135.654 66.7736 135.704 67.2316 135.805 67.66C135.91 68.0884 136.067 68.4644 136.276 68.788C136.486 69.1115 136.753 69.3667 137.076 69.5536C137.4 69.7359 137.783 69.827 138.225 69.827C138.785 69.827 139.232 69.7382 139.564 69.5604C139.897 69.3827 140.148 69.1275 140.316 68.7948C140.49 68.4621 140.613 68.0634 140.686 67.5985ZM148.13 69.0546V63.3671H149.401V70.7635H148.191L148.13 69.0546ZM148.369 67.496L148.896 67.4823C148.896 67.9745 148.843 68.4302 148.738 68.8495C148.638 69.2642 148.474 69.6242 148.246 69.9296C148.018 70.2349 147.72 70.4742 147.351 70.6473C146.981 70.816 146.533 70.9003 146.004 70.9003C145.644 70.9003 145.313 70.8479 145.013 70.743C144.716 70.6382 144.461 70.4764 144.247 70.2577C144.033 70.0389 143.867 69.7541 143.748 69.4032C143.634 69.0523 143.577 68.6307 143.577 68.1385V63.3671H144.842V68.1522C144.842 68.4849 144.878 68.7606 144.951 68.9794C145.029 69.1936 145.131 69.3645 145.259 69.4921C145.391 69.6151 145.537 69.7017 145.696 69.7518C145.86 69.802 146.029 69.827 146.202 69.827C146.74 69.827 147.166 69.7245 147.48 69.5194C147.795 69.3098 148.021 69.0295 148.157 68.6786C148.299 68.3231 148.369 67.9289 148.369 67.496ZM155.636 68.8016C155.636 68.6193 155.595 68.4507 155.513 68.2958C155.435 68.1363 155.273 67.9927 155.027 67.8651C154.786 67.733 154.421 67.619 153.934 67.5233C153.523 67.4367 153.152 67.3342 152.819 67.2157C152.491 67.0972 152.211 66.9537 151.979 66.785C151.751 66.6164 151.575 66.4182 151.452 66.1903C151.329 65.9624 151.268 65.6958 151.268 65.3905C151.268 65.0988 151.331 64.8231 151.459 64.5634C151.591 64.3036 151.776 64.0734 152.013 63.8729C152.254 63.6724 152.544 63.5152 152.881 63.4012C153.218 63.2873 153.594 63.2303 154.009 63.2303C154.601 63.2303 155.107 63.3352 155.526 63.5448C155.946 63.7544 156.267 64.0347 156.49 64.3856C156.714 64.732 156.825 65.1171 156.825 65.5409H155.561C155.561 65.3358 155.499 65.1376 155.376 64.9462C155.257 64.7502 155.082 64.5884 154.85 64.4608C154.622 64.3332 154.341 64.2694 154.009 64.2694C153.658 64.2694 153.373 64.3241 153.154 64.4335C152.94 64.5383 152.783 64.6727 152.683 64.8368C152.587 65.0009 152.539 65.174 152.539 65.3563C152.539 65.493 152.562 65.6161 152.607 65.7255C152.658 65.8303 152.744 65.9283 152.867 66.0194C152.99 66.106 153.163 66.188 153.387 66.2655C153.61 66.343 153.895 66.4205 154.241 66.4979C154.847 66.6346 155.346 66.7987 155.738 66.9901C156.13 67.1815 156.422 67.4162 156.613 67.6942C156.805 67.9722 156.9 68.3094 156.9 68.7059C156.9 69.0295 156.832 69.3257 156.695 69.5946C156.563 69.8635 156.369 70.0959 156.114 70.2919C155.864 70.4833 155.563 70.6337 155.212 70.743C154.866 70.8479 154.476 70.9003 154.043 70.9003C153.391 70.9003 152.84 70.7841 152.389 70.5516C151.938 70.3192 151.596 70.0184 151.363 69.6493C151.131 69.2802 151.015 68.8905 151.015 68.4803H152.286C152.304 68.8267 152.405 69.1024 152.587 69.3075C152.769 69.508 152.993 69.6516 153.257 69.7382C153.521 69.8202 153.783 69.8612 154.043 69.8612C154.389 69.8612 154.679 69.8156 154.911 69.7245C155.148 69.6333 155.328 69.508 155.451 69.3485C155.574 69.189 155.636 69.0067 155.636 68.8016ZM161.658 63.3671V64.3378H157.659V63.3671H161.658ZM159.013 61.5692H160.277V68.9315C160.277 69.1822 160.316 69.3713 160.394 69.4989C160.471 69.6265 160.571 69.7108 160.694 69.7518C160.817 69.7928 160.95 69.8134 161.091 69.8134C161.196 69.8134 161.305 69.8042 161.419 69.786C161.537 69.7632 161.626 69.745 161.686 69.7313L161.692 70.7635C161.592 70.7955 161.46 70.8251 161.296 70.8524C161.136 70.8843 160.943 70.9003 160.715 70.9003C160.405 70.9003 160.12 70.8387 159.86 70.7157C159.601 70.5927 159.393 70.3876 159.238 70.1005C159.088 69.8088 159.013 69.4169 159.013 68.9247V61.5692ZM162.67 67.1473V66.9901C162.67 66.4569 162.747 65.9624 162.902 65.5067C163.057 65.0464 163.281 64.6477 163.572 64.3104C163.864 63.9686 164.217 63.7043 164.632 63.5175C165.047 63.326 165.511 63.2303 166.026 63.2303C166.546 63.2303 167.013 63.326 167.428 63.5175C167.847 63.7043 168.202 63.9686 168.494 64.3104C168.79 64.6477 169.016 65.0464 169.171 65.5067C169.326 65.9624 169.403 66.4569 169.403 66.9901V67.1473C169.403 67.6805 169.326 68.175 169.171 68.6307C169.016 69.0865 168.79 69.4852 168.494 69.827C168.202 70.1643 167.849 70.4286 167.435 70.62C167.024 70.8068 166.56 70.9003 166.04 70.9003C165.521 70.9003 165.053 70.8068 164.639 70.62C164.224 70.4286 163.868 70.1643 163.572 69.827C163.281 69.4852 163.057 69.0865 162.902 68.6307C162.747 68.175 162.67 67.6805 162.67 67.1473ZM163.935 66.9901V67.1473C163.935 67.5165 163.978 67.8651 164.064 68.1932C164.151 68.5168 164.281 68.8039 164.454 69.0546C164.632 69.3052 164.853 69.5035 165.117 69.6493C165.382 69.7906 165.689 69.8612 166.04 69.8612C166.386 69.8612 166.689 69.7906 166.949 69.6493C167.214 69.5035 167.432 69.3052 167.605 69.0546C167.779 68.8039 167.909 68.5168 167.995 68.1932C168.086 67.8651 168.132 67.5165 168.132 67.1473V66.9901C168.132 66.6255 168.086 66.2815 167.995 65.9579C167.909 65.6298 167.776 65.3404 167.599 65.0897C167.425 64.8345 167.207 64.634 166.942 64.4882C166.683 64.3423 166.377 64.2694 166.026 64.2694C165.68 64.2694 165.375 64.3423 165.11 64.4882C164.851 64.634 164.632 64.8345 164.454 65.0897C164.281 65.3404 164.151 65.6298 164.064 65.9579C163.978 66.2815 163.935 66.6255 163.935 66.9901ZM172.247 64.8368V70.7635H170.976V63.3671H172.179L172.247 64.8368ZM171.987 66.785L171.399 66.7645C171.404 66.2587 171.47 65.7915 171.598 65.3632C171.725 64.9302 171.914 64.5542 172.165 64.2352C172.416 63.9162 172.728 63.6701 173.102 63.4969C173.475 63.3192 173.908 63.2303 174.4 63.2303C174.747 63.2303 175.066 63.2805 175.357 63.3807C175.649 63.4764 175.902 63.6291 176.116 63.8387C176.33 64.0484 176.497 64.3173 176.615 64.6454C176.734 64.9735 176.793 65.37 176.793 65.8348V70.7635H175.528V65.8964C175.528 65.509 175.462 65.1991 175.33 64.9667C175.202 64.7343 175.02 64.5656 174.783 64.4608C174.546 64.3514 174.268 64.2968 173.949 64.2968C173.576 64.2968 173.263 64.3628 173.013 64.495C172.762 64.6272 172.562 64.8094 172.411 65.0419C172.261 65.2743 172.151 65.5409 172.083 65.8417C172.019 66.1379 171.987 66.4524 171.987 66.785ZM176.779 66.0878L175.932 66.3475C175.936 65.9419 176.002 65.5523 176.13 65.1786C176.262 64.8049 176.451 64.4722 176.697 64.1805C176.948 63.8889 177.256 63.6587 177.62 63.4901C177.985 63.3169 178.402 63.2303 178.871 63.2303C179.268 63.2303 179.618 63.2828 179.924 63.3876C180.234 63.4924 180.493 63.6542 180.703 63.8729C180.917 64.0871 181.079 64.3628 181.188 64.7001C181.298 65.0373 181.353 65.4384 181.353 65.9032V70.7635H180.081V65.8895C180.081 65.4748 180.015 65.1535 179.883 64.9257C179.755 64.6932 179.573 64.5315 179.336 64.4403C179.104 64.3446 178.826 64.2968 178.502 64.2968C178.224 64.2968 177.978 64.3446 177.764 64.4403C177.549 64.536 177.369 64.6682 177.224 64.8368C177.078 65.0009 176.966 65.19 176.889 65.4042C176.816 65.6184 176.779 65.8462 176.779 66.0878ZM184.641 63.3671V70.7635H183.369V63.3671H184.641ZM183.273 61.4052C183.273 61.2001 183.335 61.0269 183.458 60.8856C183.586 60.7443 183.772 60.6737 184.019 60.6737C184.26 60.6737 184.445 60.7443 184.572 60.8856C184.704 61.0269 184.771 61.2001 184.771 61.4052C184.771 61.6011 184.704 61.7697 184.572 61.911C184.445 62.0477 184.26 62.1161 184.019 62.1161C183.772 62.1161 183.586 62.0477 183.458 61.911C183.335 61.7697 183.273 61.6011 183.273 61.4052ZM192.181 69.7245V70.7635H186.801V69.7245H192.181ZM191.982 64.2626L187.088 70.7635H186.315V69.8339L191.176 63.3671H191.982V64.2626ZM191.422 63.3671V64.413H186.37V63.3671H191.422ZM196.576 70.9003C196.061 70.9003 195.594 70.8137 195.175 70.6405C194.76 70.4628 194.402 70.2144 194.102 69.8954C193.805 69.5764 193.577 69.1981 193.418 68.7606C193.258 68.3231 193.179 67.8446 193.179 67.3251V67.038C193.179 66.4364 193.268 65.9009 193.445 65.4315C193.623 64.9576 193.865 64.5565 194.17 64.2284C194.475 63.9003 194.822 63.6519 195.209 63.4833C195.596 63.3147 195.997 63.2303 196.412 63.2303C196.941 63.2303 197.396 63.3215 197.779 63.5038C198.167 63.6861 198.483 63.9413 198.729 64.2694C198.976 64.593 199.158 64.9758 199.276 65.4178C199.395 65.8553 199.454 66.3339 199.454 66.8534V67.4208H193.931V66.3885H198.189V66.2928C198.171 65.9647 198.103 65.6457 197.984 65.3358C197.87 65.0259 197.688 64.7707 197.438 64.5702C197.187 64.3697 196.845 64.2694 196.412 64.2694C196.125 64.2694 195.861 64.3309 195.619 64.454C195.378 64.5725 195.17 64.7502 194.997 64.9872C194.824 65.2242 194.689 65.5135 194.594 65.8553C194.498 66.1971 194.45 66.5913 194.45 67.038V67.3251C194.45 67.676 194.498 68.0064 194.594 68.3163C194.694 68.6216 194.838 68.8905 195.024 69.1229C195.216 69.3553 195.446 69.5376 195.715 69.6698C195.988 69.802 196.298 69.868 196.645 69.868C197.091 69.868 197.469 69.7769 197.779 69.5946C198.089 69.4123 198.36 69.1685 198.593 68.8632L199.358 69.4716C199.199 69.7131 198.996 69.9432 198.75 70.162C198.504 70.3807 198.201 70.5585 197.841 70.6952C197.485 70.8319 197.064 70.9003 196.576 70.9003ZM206.481 69.9979L208.539 63.3671H209.893L206.926 71.9052C206.857 72.0874 206.766 72.2834 206.652 72.493C206.543 72.7072 206.402 72.91 206.229 73.1014C206.055 73.2928 205.846 73.4478 205.6 73.5663C205.358 73.6893 205.069 73.7509 204.731 73.7509C204.631 73.7509 204.504 73.7372 204.349 73.7098C204.194 73.6825 204.084 73.6597 204.021 73.6415L204.014 72.6161C204.05 72.6206 204.107 72.6252 204.185 72.6298C204.267 72.6389 204.324 72.6434 204.355 72.6434C204.643 72.6434 204.886 72.6047 205.087 72.5272C205.287 72.4543 205.456 72.329 205.593 72.1512C205.734 71.9781 205.855 71.7388 205.955 71.4335L206.481 69.9979ZM204.971 63.3671L206.892 69.1093L207.22 70.4423L206.311 70.9071L203.59 63.3671H204.971ZM210.59 67.1473V66.9901C210.59 66.4569 210.667 65.9624 210.822 65.5067C210.977 65.0464 211.201 64.6477 211.492 64.3104C211.784 63.9686 212.137 63.7043 212.552 63.5175C212.966 63.326 213.431 63.2303 213.946 63.2303C214.466 63.2303 214.933 63.326 215.348 63.5175C215.767 63.7043 216.122 63.9686 216.414 64.3104C216.71 64.6477 216.936 65.0464 217.091 65.5067C217.246 65.9624 217.323 66.4569 217.323 66.9901V67.1473C217.323 67.6805 217.246 68.175 217.091 68.6307C216.936 69.0865 216.71 69.4852 216.414 69.827C216.122 70.1643 215.769 70.4286 215.354 70.62C214.944 70.8068 214.479 70.9003 213.96 70.9003C213.44 70.9003 212.973 70.8068 212.559 70.62C212.144 70.4286 211.788 70.1643 211.492 69.827C211.201 69.4852 210.977 69.0865 210.822 68.6307C210.667 68.175 210.59 67.6805 210.59 67.1473ZM211.854 66.9901V67.1473C211.854 67.5165 211.898 67.8651 211.984 68.1932C212.071 68.5168 212.201 68.8039 212.374 69.0546C212.552 69.3052 212.773 69.5035 213.037 69.6493C213.301 69.7906 213.609 69.8612 213.96 69.8612C214.306 69.8612 214.609 69.7906 214.869 69.6493C215.133 69.5035 215.352 69.3052 215.525 69.0546C215.699 68.8039 215.828 68.5168 215.915 68.1932C216.006 67.8651 216.052 67.5165 216.052 67.1473V66.9901C216.052 66.6255 216.006 66.2815 215.915 65.9579C215.828 65.6298 215.696 65.3404 215.519 65.0897C215.345 64.8345 215.127 64.634 214.862 64.4882C214.603 64.3423 214.297 64.2694 213.946 64.2694C213.6 64.2694 213.295 64.3423 213.03 64.4882C212.771 64.634 212.552 64.8345 212.374 65.0897C212.201 65.3404 212.071 65.6298 211.984 65.9579C211.898 66.2815 211.854 66.6255 211.854 66.9901ZM223.435 69.0546V63.3671H224.706V70.7635H223.496L223.435 69.0546ZM223.674 67.496L224.2 67.4823C224.2 67.9745 224.148 68.4302 224.043 68.8495C223.943 69.2642 223.779 69.6242 223.551 69.9296C223.323 70.2349 223.024 70.4742 222.655 70.6473C222.286 70.816 221.837 70.9003 221.309 70.9003C220.949 70.9003 220.618 70.8479 220.317 70.743C220.021 70.6382 219.766 70.4764 219.552 70.2577C219.338 70.0389 219.171 69.7541 219.053 69.4032C218.939 69.0523 218.882 68.6307 218.882 68.1385V63.3671H220.146V68.1522C220.146 68.4849 220.183 68.7606 220.256 68.9794C220.333 69.1936 220.436 69.3645 220.563 69.4921C220.696 69.6151 220.841 69.7017 221.001 69.7518C221.165 69.802 221.334 69.827 221.507 69.827C222.045 69.827 222.471 69.7245 222.785 69.5194C223.1 69.3098 223.325 69.0295 223.462 68.6786C223.603 68.3231 223.674 67.9289 223.674 67.496ZM227.898 64.5292V70.7635H226.634V63.3671H227.864L227.898 64.5292ZM230.209 63.326L230.202 64.5018C230.097 64.479 229.997 64.4654 229.901 64.4608C229.81 64.4517 229.705 64.4471 229.587 64.4471C229.295 64.4471 229.038 64.4927 228.814 64.5839C228.591 64.675 228.402 64.8026 228.247 64.9667C228.092 65.1307 227.969 65.3267 227.878 65.5546C227.791 65.7779 227.734 66.024 227.707 66.2928L227.352 66.4979C227.352 66.0513 227.395 65.632 227.481 65.2401C227.573 64.8482 227.712 64.5018 227.898 64.201C228.085 63.8957 228.322 63.6587 228.609 63.4901C228.901 63.3169 229.247 63.2303 229.648 63.2303C229.74 63.2303 229.844 63.2417 229.963 63.2645C230.081 63.2828 230.163 63.3033 230.209 63.326ZM236.724 69.451L238.624 63.3671H239.458L239.294 64.577L237.359 70.7635H236.546L236.724 69.451ZM235.445 63.3671L237.065 69.5194L237.182 70.7635H236.327L234.181 63.3671H235.445ZM241.276 69.4716L242.821 63.3671H244.079L241.933 70.7635H241.085L241.276 69.4716ZM239.643 63.3671L241.502 69.3485L241.714 70.7635H240.907L238.918 64.5634L238.754 63.3671H239.643ZM245.043 67.1473V66.9901C245.043 66.4569 245.12 65.9624 245.275 65.5067C245.43 65.0464 245.654 64.6477 245.945 64.3104C246.237 63.9686 246.59 63.7043 247.005 63.5175C247.42 63.326 247.884 63.2303 248.399 63.2303C248.919 63.2303 249.386 63.326 249.801 63.5175C250.22 63.7043 250.576 63.9686 250.867 64.3104C251.163 64.6477 251.389 65.0464 251.544 65.5067C251.699 65.9624 251.776 66.4569 251.776 66.9901V67.1473C251.776 67.6805 251.699 68.175 251.544 68.6307C251.389 69.0865 251.163 69.4852 250.867 69.827C250.576 70.1643 250.222 70.4286 249.808 70.62C249.397 70.8068 248.933 70.9003 248.413 70.9003C247.894 70.9003 247.426 70.8068 247.012 70.62C246.597 70.4286 246.242 70.1643 245.945 69.827C245.654 69.4852 245.43 69.0865 245.275 68.6307C245.12 68.175 245.043 67.6805 245.043 67.1473ZM246.308 66.9901V67.1473C246.308 67.5165 246.351 67.8651 246.438 68.1932C246.524 68.5168 246.654 68.8039 246.827 69.0546C247.005 69.3052 247.226 69.5035 247.49 69.6493C247.755 69.7906 248.062 69.8612 248.413 69.8612C248.759 69.8612 249.062 69.7906 249.322 69.6493C249.587 69.5035 249.805 69.3052 249.979 69.0546C250.152 68.8039 250.282 68.5168 250.368 68.1932C250.459 67.8651 250.505 67.5165 250.505 67.1473V66.9901C250.505 66.6255 250.459 66.2815 250.368 65.9579C250.282 65.6298 250.149 65.3404 249.972 65.0897C249.799 64.8345 249.58 64.634 249.315 64.4882C249.056 64.3423 248.75 64.2694 248.399 64.2694C248.053 64.2694 247.748 64.3423 247.483 64.4882C247.224 64.634 247.005 64.8345 246.827 65.0897C246.654 65.3404 246.524 65.6298 246.438 65.9579C246.351 66.2815 246.308 66.6255 246.308 66.9901ZM254.627 64.5292V70.7635H253.362V63.3671H254.593L254.627 64.5292ZM256.938 63.326L256.931 64.5018C256.826 64.479 256.726 64.4654 256.63 64.4608C256.539 64.4517 256.434 64.4471 256.315 64.4471C256.024 64.4471 255.766 64.4927 255.543 64.5839C255.32 64.675 255.131 64.8026 254.976 64.9667C254.821 65.1307 254.698 65.3267 254.606 65.5546C254.52 65.7779 254.463 66.024 254.436 66.2928L254.08 66.4979C254.08 66.0513 254.123 65.632 254.21 65.2401C254.301 64.8482 254.44 64.5018 254.627 64.201C254.814 63.8957 255.051 63.6587 255.338 63.4901C255.63 63.3169 255.976 63.2303 256.377 63.2303C256.468 63.2303 256.573 63.2417 256.691 63.2645C256.81 63.2828 256.892 63.3033 256.938 63.326ZM259.378 60.2635V70.7635H258.106V60.2635H259.378ZM263.896 63.3671L260.67 66.8192L258.865 68.6923L258.763 67.3456L260.055 65.8007L262.352 63.3671H263.896ZM262.741 70.7635L260.103 67.2362L260.759 66.1083L264.231 70.7635H262.741ZM264.867 67.1473V66.9901C264.867 66.4569 264.945 65.9624 265.1 65.5067C265.255 65.0464 265.478 64.6477 265.77 64.3104C266.061 63.9686 266.414 63.7043 266.829 63.5175C267.244 63.326 267.709 63.2303 268.224 63.2303C268.743 63.2303 269.21 63.326 269.625 63.5175C270.044 63.7043 270.4 63.9686 270.691 64.3104C270.988 64.6477 271.213 65.0464 271.368 65.5067C271.523 65.9624 271.601 66.4569 271.601 66.9901V67.1473C271.601 67.6805 271.523 68.175 271.368 68.6307C271.213 69.0865 270.988 69.4852 270.691 69.827C270.4 70.1643 270.047 70.4286 269.632 70.62C269.222 70.8068 268.757 70.9003 268.237 70.9003C267.718 70.9003 267.251 70.8068 266.836 70.62C266.421 70.4286 266.066 70.1643 265.77 69.827C265.478 69.4852 265.255 69.0865 265.1 68.6307C264.945 68.175 264.867 67.6805 264.867 67.1473ZM266.132 66.9901V67.1473C266.132 67.5165 266.175 67.8651 266.262 68.1932C266.348 68.5168 266.478 68.8039 266.651 69.0546C266.829 69.3052 267.05 69.5035 267.314 69.6493C267.579 69.7906 267.886 69.8612 268.237 69.8612C268.584 69.8612 268.887 69.7906 269.146 69.6493C269.411 69.5035 269.63 69.3052 269.803 69.0546C269.976 68.8039 270.106 68.5168 270.192 68.1932C270.284 67.8651 270.329 67.5165 270.329 67.1473V66.9901C270.329 66.6255 270.284 66.2815 270.192 65.9579C270.106 65.6298 269.974 65.3404 269.796 65.0897C269.623 64.8345 269.404 64.634 269.14 64.4882C268.88 64.3423 268.575 64.2694 268.224 64.2694C267.877 64.2694 267.572 64.3423 267.308 64.4882C267.048 64.634 266.829 64.8345 266.651 65.0897C266.478 65.3404 266.348 65.6298 266.262 65.9579C266.175 66.2815 266.132 66.6255 266.132 66.9901ZM277.712 69.0546V63.3671H278.983V70.7635H277.773L277.712 69.0546ZM277.951 67.496L278.478 67.4823C278.478 67.9745 278.425 68.4302 278.32 68.8495C278.22 69.2642 278.056 69.6242 277.828 69.9296C277.6 70.2349 277.302 70.4742 276.933 70.6473C276.563 70.816 276.115 70.9003 275.586 70.9003C275.226 70.9003 274.896 70.8479 274.595 70.743C274.299 70.6382 274.043 70.4764 273.829 70.2577C273.615 70.0389 273.449 69.7541 273.33 69.4032C273.216 69.0523 273.159 68.6307 273.159 68.1385V63.3671H274.424V68.1522C274.424 68.4849 274.46 68.7606 274.533 68.9794C274.611 69.1936 274.713 69.3645 274.841 69.4921C274.973 69.6151 275.119 69.7017 275.278 69.7518C275.442 69.802 275.611 69.827 275.784 69.827C276.322 69.827 276.748 69.7245 277.062 69.5194C277.377 69.3098 277.603 69.0295 277.739 68.6786C277.881 68.3231 277.951 67.9289 277.951 67.496ZM284.008 63.3671V64.3378H280.009V63.3671H284.008ZM281.362 61.5692H282.627V68.9315C282.627 69.1822 282.666 69.3713 282.743 69.4989C282.821 69.6265 282.921 69.7108 283.044 69.7518C283.167 69.7928 283.299 69.8134 283.44 69.8134C283.545 69.8134 283.655 69.8042 283.769 69.786C283.887 69.7632 283.976 69.745 284.035 69.7313L284.042 70.7635C283.942 70.7955 283.81 70.8251 283.646 70.8524C283.486 70.8843 283.292 70.9003 283.064 70.9003C282.755 70.9003 282.47 70.8387 282.21 70.7157C281.95 70.5927 281.743 70.3876 281.588 70.1005C281.438 69.8088 281.362 69.4169 281.362 68.9247V61.5692ZM290.837 69.451L292.737 63.3671H293.571L293.407 64.577L291.473 70.7635H290.659L290.837 69.451ZM289.559 63.3671L291.179 69.5194L291.295 70.7635H290.44L288.294 63.3671H289.559ZM295.39 69.4716L296.935 63.3671H298.192L296.046 70.7635H295.198L295.39 69.4716ZM293.756 63.3671L295.615 69.3485L295.827 70.7635H295.021L293.031 64.5634L292.867 63.3671H293.756ZM300.865 63.3671V70.7635H299.594V63.3671H300.865ZM299.498 61.4052C299.498 61.2001 299.56 61.0269 299.683 60.8856C299.81 60.7443 299.997 60.6737 300.243 60.6737C300.485 60.6737 300.669 60.7443 300.797 60.8856C300.929 61.0269 300.995 61.2001 300.995 61.4052C300.995 61.6011 300.929 61.7697 300.797 61.911C300.669 62.0477 300.485 62.1161 300.243 62.1161C299.997 62.1161 299.81 62.0477 299.683 61.911C299.56 61.7697 299.498 61.6011 299.498 61.4052ZM305.992 63.3671V64.3378H301.993V63.3671H305.992ZM303.347 61.5692H304.611V68.9315C304.611 69.1822 304.65 69.3713 304.728 69.4989C304.805 69.6265 304.905 69.7108 305.028 69.7518C305.151 69.7928 305.284 69.8134 305.425 69.8134C305.53 69.8134 305.639 69.8042 305.753 69.786C305.871 69.7632 305.96 69.745 306.02 69.7313L306.026 70.7635C305.926 70.7955 305.794 70.8251 305.63 70.8524C305.47 70.8843 305.277 70.9003 305.049 70.9003C304.739 70.9003 304.454 70.8387 304.194 70.7157C303.935 70.5927 303.727 70.3876 303.572 70.1005C303.422 69.8088 303.347 69.4169 303.347 68.9247V61.5692ZM308.74 60.2635V70.7635H307.476V60.2635H308.74ZM308.439 66.785L307.913 66.7645C307.918 66.2587 307.993 65.7915 308.139 65.3632C308.285 64.9302 308.49 64.5542 308.754 64.2352C309.018 63.9162 309.333 63.6701 309.697 63.4969C310.066 63.3192 310.474 63.2303 310.921 63.2303C311.285 63.2303 311.614 63.2805 311.905 63.3807C312.197 63.4764 312.445 63.6314 312.65 63.8456C312.86 64.0598 313.02 64.3378 313.129 64.6796C313.238 65.0168 313.293 65.4292 313.293 65.9169V70.7635H312.021V65.9032C312.021 65.5158 311.965 65.2059 311.851 64.9735C311.737 64.7365 311.57 64.5656 311.352 64.4608C311.133 64.3514 310.864 64.2968 310.545 64.2968C310.23 64.2968 309.943 64.3628 309.684 64.495C309.428 64.6272 309.207 64.8094 309.021 65.0419C308.838 65.2743 308.695 65.5409 308.59 65.8417C308.49 66.1379 308.439 66.4524 308.439 66.785ZM321.756 63.3671V64.3378H317.757V63.3671H321.756ZM319.11 61.5692H320.375V68.9315C320.375 69.1822 320.414 69.3713 320.491 69.4989C320.569 69.6265 320.669 69.7108 320.792 69.7518C320.915 69.7928 321.047 69.8134 321.188 69.8134C321.293 69.8134 321.403 69.8042 321.517 69.786C321.635 69.7632 321.724 69.745 321.783 69.7313L321.79 70.7635C321.69 70.7955 321.558 70.8251 321.394 70.8524C321.234 70.8843 321.04 70.9003 320.812 70.9003C320.503 70.9003 320.218 70.8387 319.958 70.7157C319.698 70.5927 319.491 70.3876 319.336 70.1005C319.186 69.8088 319.11 69.4169 319.11 68.9247V61.5692ZM324.504 60.2635V70.7635H323.239V60.2635H324.504ZM324.203 66.785L323.677 66.7645C323.681 66.2587 323.757 65.7915 323.902 65.3632C324.048 64.9302 324.253 64.5542 324.518 64.2352C324.782 63.9162 325.096 63.6701 325.461 63.4969C325.83 63.3192 326.238 63.2303 326.685 63.2303C327.049 63.2303 327.377 63.2805 327.669 63.3807C327.961 63.4764 328.209 63.6314 328.414 63.8456C328.624 64.0598 328.783 64.3378 328.893 64.6796C329.002 65.0168 329.057 65.4292 329.057 65.9169V70.7635H327.785V65.9032C327.785 65.5158 327.728 65.2059 327.614 64.9735C327.5 64.7365 327.334 64.5656 327.115 64.4608C326.896 64.3514 326.628 64.2968 326.309 64.2968C325.994 64.2968 325.707 64.3628 325.447 64.495C325.192 64.6272 324.971 64.8094 324.784 65.0419C324.602 65.2743 324.458 65.5409 324.354 65.8417C324.253 66.1379 324.203 66.4524 324.203 66.785ZM332.324 63.3671V70.7635H331.053V63.3671H332.324ZM330.957 61.4052C330.957 61.2001 331.019 61.0269 331.142 60.8856C331.269 60.7443 331.456 60.6737 331.702 60.6737C331.944 60.6737 332.128 60.7443 332.256 60.8856C332.388 61.0269 332.454 61.2001 332.454 61.4052C332.454 61.6011 332.388 61.7697 332.256 61.911C332.128 62.0477 331.944 62.1161 331.702 62.1161C331.456 62.1161 331.269 62.0477 331.142 61.911C331.019 61.7697 330.957 61.6011 330.957 61.4052ZM338.661 68.8016C338.661 68.6193 338.62 68.4507 338.538 68.2958C338.461 68.1363 338.299 67.9927 338.053 67.8651C337.811 67.733 337.447 67.619 336.959 67.5233C336.549 67.4367 336.177 67.3342 335.845 67.2157C335.517 67.0972 335.236 66.9537 335.004 66.785C334.776 66.6164 334.601 66.4182 334.478 66.1903C334.354 65.9624 334.293 65.6958 334.293 65.3905C334.293 65.0988 334.357 64.8231 334.484 64.5634C334.617 64.3036 334.801 64.0734 335.038 63.8729C335.28 63.6724 335.569 63.5152 335.906 63.4012C336.243 63.2873 336.619 63.2303 337.034 63.2303C337.627 63.2303 338.132 63.3352 338.552 63.5448C338.971 63.7544 339.292 64.0347 339.516 64.3856C339.739 64.732 339.851 65.1171 339.851 65.5409H338.586C338.586 65.3358 338.524 65.1376 338.401 64.9462C338.283 64.7502 338.107 64.5884 337.875 64.4608C337.647 64.3332 337.367 64.2694 337.034 64.2694C336.683 64.2694 336.398 64.3241 336.18 64.4335C335.965 64.5383 335.808 64.6727 335.708 64.8368C335.612 65.0009 335.564 65.174 335.564 65.3563C335.564 65.493 335.587 65.6161 335.633 65.7255C335.683 65.8303 335.77 65.9283 335.893 66.0194C336.016 66.106 336.189 66.188 336.412 66.2655C336.635 66.343 336.92 66.4205 337.267 66.4979C337.873 66.6346 338.372 66.7987 338.764 66.9901C339.156 67.1815 339.447 67.4162 339.639 67.6942C339.83 67.9722 339.926 68.3094 339.926 68.7059C339.926 69.0295 339.857 69.3257 339.721 69.5946C339.589 69.8635 339.395 70.0959 339.14 70.2919C338.889 70.4833 338.588 70.6337 338.237 70.743C337.891 70.8479 337.501 70.9003 337.068 70.9003C336.417 70.9003 335.865 70.7841 335.414 70.5516C334.963 70.3192 334.621 70.0184 334.389 69.6493C334.156 69.2802 334.04 68.8905 334.04 68.4803H335.312C335.33 68.8267 335.43 69.1024 335.612 69.3075C335.795 69.508 336.018 69.6516 336.282 69.7382C336.547 69.8202 336.809 69.8612 337.068 69.8612C337.415 69.8612 337.704 69.8156 337.937 69.7245C338.174 69.6333 338.354 69.508 338.477 69.3485C338.6 69.189 338.661 69.0067 338.661 68.8016ZM138.792 84.8016C138.792 84.6193 138.751 84.4507 138.669 84.2958C138.591 84.1363 138.43 83.9927 138.184 83.8651C137.942 83.733 137.577 83.619 137.09 83.5233C136.68 83.4367 136.308 83.3342 135.976 83.2157C135.647 83.0972 135.367 82.9537 135.135 82.785C134.907 82.6164 134.731 82.4182 134.608 82.1903C134.485 81.9624 134.424 81.6958 134.424 81.3905C134.424 81.0988 134.488 80.8231 134.615 80.5634C134.747 80.3036 134.932 80.0734 135.169 79.8729C135.41 79.6724 135.7 79.5152 136.037 79.4012C136.374 79.2873 136.75 79.2303 137.165 79.2303C137.757 79.2303 138.263 79.3352 138.683 79.5448C139.102 79.7544 139.423 80.0347 139.646 80.3856C139.87 80.732 139.981 81.1171 139.981 81.5409H138.717C138.717 81.3358 138.655 81.1376 138.532 80.9462C138.414 80.7502 138.238 80.5884 138.006 80.4608C137.778 80.3332 137.498 80.2694 137.165 80.2694C136.814 80.2694 136.529 80.3241 136.311 80.4335C136.096 80.5383 135.939 80.6727 135.839 80.8368C135.743 81.0009 135.695 81.174 135.695 81.3563C135.695 81.493 135.718 81.6161 135.764 81.7255C135.814 81.8303 135.9 81.9283 136.023 82.0194C136.146 82.106 136.32 82.188 136.543 82.2655C136.766 82.343 137.051 82.4205 137.397 82.4979C138.004 82.6346 138.503 82.7987 138.895 82.9901C139.286 83.1815 139.578 83.4162 139.77 83.6942C139.961 83.9722 140.057 84.3094 140.057 84.7059C140.057 85.0295 139.988 85.3257 139.852 85.5946C139.719 85.8635 139.526 86.0959 139.271 86.2919C139.02 86.4833 138.719 86.6337 138.368 86.743C138.022 86.8479 137.632 86.9003 137.199 86.9003C136.548 86.9003 135.996 86.7841 135.545 86.5516C135.094 86.3192 134.752 86.0184 134.52 85.6493C134.287 85.2802 134.171 84.8905 134.171 84.4803H135.442C135.461 84.8267 135.561 85.1024 135.743 85.3075C135.925 85.508 136.149 85.6516 136.413 85.7382C136.677 85.8202 136.939 85.8612 137.199 85.8612C137.546 85.8612 137.835 85.8156 138.067 85.7245C138.304 85.6333 138.484 85.508 138.607 85.3485C138.73 85.189 138.792 85.0067 138.792 84.8016ZM144.787 86.9003C144.272 86.9003 143.805 86.8137 143.386 86.6405C142.971 86.4628 142.613 86.2144 142.312 85.8954C142.016 85.5764 141.788 85.1981 141.629 84.7606C141.469 84.3231 141.39 83.8446 141.39 83.3251V83.038C141.39 82.4364 141.479 81.9009 141.656 81.4315C141.834 80.9576 142.076 80.5565 142.381 80.2284C142.686 79.9003 143.033 79.6519 143.42 79.4833C143.807 79.3147 144.208 79.2303 144.623 79.2303C145.152 79.2303 145.607 79.3215 145.99 79.5038C146.378 79.6861 146.694 79.9413 146.94 80.2694C147.187 80.593 147.369 80.9758 147.487 81.4178C147.606 81.8553 147.665 82.3339 147.665 82.8534V83.4208H142.142V82.3885H146.4V82.2928C146.382 81.9647 146.314 81.6457 146.195 81.3358C146.081 81.0259 145.899 80.7707 145.648 80.5702C145.398 80.3697 145.056 80.2694 144.623 80.2694C144.336 80.2694 144.072 80.3309 143.83 80.454C143.589 80.5725 143.381 80.7502 143.208 80.9872C143.035 81.2242 142.9 81.5135 142.805 81.8553C142.709 82.1971 142.661 82.5913 142.661 83.038V83.3251C142.661 83.676 142.709 84.0064 142.805 84.3163C142.905 84.6216 143.049 84.8905 143.235 85.1229C143.427 85.3553 143.657 85.5376 143.926 85.6698C144.199 85.802 144.509 85.868 144.855 85.868C145.302 85.868 145.68 85.7769 145.99 85.5946C146.3 85.4123 146.571 85.1685 146.804 84.8632L147.569 85.4716C147.41 85.7131 147.207 85.9432 146.961 86.162C146.715 86.3807 146.412 86.5585 146.052 86.6952C145.696 86.8319 145.275 86.9003 144.787 86.9003ZM152.238 79.3671V80.3378H148.239V79.3671H152.238ZM149.593 77.5692H150.857V84.9315C150.857 85.1822 150.896 85.3713 150.974 85.4989C151.051 85.6265 151.151 85.7108 151.274 85.7518C151.397 85.7928 151.53 85.8134 151.671 85.8134C151.776 85.8134 151.885 85.8042 151.999 85.786C152.118 85.7632 152.206 85.745 152.266 85.7313L152.272 86.7635C152.172 86.7955 152.04 86.8251 151.876 86.8524C151.716 86.8843 151.523 86.9003 151.295 86.9003C150.985 86.9003 150.7 86.8387 150.44 86.7157C150.181 86.5927 149.973 86.3876 149.818 86.1005C149.668 85.8088 149.593 85.4169 149.593 84.9247V77.5692ZM158.247 85.0546V79.3671H159.519V86.7635H158.309L158.247 85.0546ZM158.486 83.496L159.013 83.4823C159.013 83.9745 158.96 84.4302 158.855 84.8495C158.755 85.2642 158.591 85.6242 158.363 85.9296C158.135 86.2349 157.837 86.4742 157.468 86.6473C157.099 86.816 156.65 86.9003 156.121 86.9003C155.761 86.9003 155.431 86.8479 155.13 86.743C154.834 86.6382 154.578 86.4764 154.364 86.2577C154.15 86.0389 153.984 85.7541 153.865 85.4032C153.751 85.0523 153.694 84.6307 153.694 84.1385V79.3671H154.959V84.1522C154.959 84.4849 154.995 84.7606 155.068 84.9794C155.146 85.1936 155.248 85.3645 155.376 85.4921C155.508 85.6151 155.654 85.7017 155.813 85.7518C155.978 85.802 156.146 85.827 156.319 85.827C156.857 85.827 157.283 85.7245 157.598 85.5194C157.912 85.3098 158.138 85.0295 158.274 84.6786C158.416 84.3231 158.486 83.9289 158.486 83.496ZM162.711 80.7889V89.6073H161.439V79.3671H162.602L162.711 80.7889ZM167.694 83.0038V83.1473C167.694 83.6851 167.631 84.1841 167.503 84.6444C167.375 85.1001 167.188 85.4966 166.942 85.8339C166.701 86.1711 166.402 86.4331 166.047 86.62C165.691 86.8068 165.284 86.9003 164.823 86.9003C164.354 86.9003 163.939 86.8228 163.579 86.6678C163.219 86.5129 162.914 86.2873 162.663 85.9911C162.412 85.6949 162.212 85.3394 162.062 84.9247C161.916 84.51 161.815 84.0428 161.761 83.5233V82.7577C161.815 82.2108 161.918 81.7209 162.068 81.288C162.219 80.855 162.417 80.4859 162.663 80.1805C162.914 79.8706 163.217 79.6359 163.572 79.4764C163.928 79.3124 164.338 79.2303 164.803 79.2303C165.268 79.2303 165.68 79.3215 166.04 79.5038C166.4 79.6815 166.703 79.9367 166.949 80.2694C167.195 80.6021 167.38 81.0009 167.503 81.4657C167.631 81.926 167.694 82.4387 167.694 83.0038ZM166.423 83.1473V83.0038C166.423 82.6346 166.384 82.2883 166.307 81.9647C166.229 81.6366 166.108 81.3495 165.944 81.1034C165.785 80.8527 165.58 80.6568 165.329 80.5155C165.078 80.3697 164.78 80.2968 164.434 80.2968C164.115 80.2968 163.837 80.3514 163.6 80.4608C163.367 80.5702 163.169 80.7183 163.005 80.9052C162.841 81.0874 162.706 81.2971 162.602 81.5341C162.501 81.7665 162.426 82.008 162.376 82.2587V84.0292C162.467 84.3482 162.595 84.649 162.759 84.9315C162.923 85.2095 163.142 85.4351 163.415 85.6083C163.688 85.7769 164.033 85.8612 164.447 85.8612C164.789 85.8612 165.083 85.7906 165.329 85.6493C165.58 85.5035 165.785 85.3052 165.944 85.0546C166.108 84.8039 166.229 84.5168 166.307 84.1932C166.384 83.8651 166.423 83.5165 166.423 83.1473ZM174.667 86.7635H173.402V78.5878C173.402 78.0546 173.498 77.6057 173.689 77.2411C173.885 76.8719 174.166 76.594 174.53 76.4071C174.895 76.2157 175.328 76.12 175.829 76.12C175.975 76.12 176.121 76.1291 176.267 76.1473C176.417 76.1656 176.563 76.1929 176.704 76.2294L176.636 77.2616C176.54 77.2388 176.431 77.2229 176.308 77.2137C176.189 77.2046 176.071 77.2001 175.952 77.2001C175.683 77.2001 175.451 77.2548 175.255 77.3641C175.063 77.469 174.918 77.6239 174.817 77.829C174.717 78.0341 174.667 78.287 174.667 78.5878V86.7635ZM176.239 79.3671V80.3378H172.233V79.3671H176.239ZM177.312 83.1473V82.9901C177.312 82.4569 177.39 81.9624 177.545 81.5067C177.7 81.0464 177.923 80.6477 178.215 80.3104C178.507 79.9686 178.86 79.7043 179.274 79.5175C179.689 79.326 180.154 79.2303 180.669 79.2303C181.188 79.2303 181.656 79.326 182.07 79.5175C182.49 79.7043 182.845 79.9686 183.137 80.3104C183.433 80.6477 183.659 81.0464 183.813 81.5067C183.968 81.9624 184.046 82.4569 184.046 82.9901V83.1473C184.046 83.6805 183.968 84.175 183.813 84.6307C183.659 85.0865 183.433 85.4852 183.137 85.827C182.845 86.1643 182.492 86.4286 182.077 86.62C181.667 86.8068 181.202 86.9003 180.683 86.9003C180.163 86.9003 179.696 86.8068 179.281 86.62C178.867 86.4286 178.511 86.1643 178.215 85.827C177.923 85.4852 177.7 85.0865 177.545 84.6307C177.39 84.175 177.312 83.6805 177.312 83.1473ZM178.577 82.9901V83.1473C178.577 83.5165 178.62 83.8651 178.707 84.1932C178.794 84.5168 178.924 84.8039 179.097 85.0546C179.274 85.3052 179.495 85.5035 179.76 85.6493C180.024 85.7906 180.332 85.8612 180.683 85.8612C181.029 85.8612 181.332 85.7906 181.592 85.6493C181.856 85.5035 182.075 85.3052 182.248 85.0546C182.421 84.8039 182.551 84.5168 182.638 84.1932C182.729 83.8651 182.774 83.5165 182.774 83.1473V82.9901C182.774 82.6255 182.729 82.2815 182.638 81.9579C182.551 81.6298 182.419 81.3404 182.241 81.0897C182.068 80.8345 181.849 80.634 181.585 80.4882C181.325 80.3423 181.02 80.2694 180.669 80.2694C180.323 80.2694 180.017 80.3423 179.753 80.4882C179.493 80.634 179.274 80.8345 179.097 81.0897C178.924 81.3404 178.794 81.6298 178.707 81.9579C178.62 82.2815 178.577 82.6255 178.577 82.9901ZM186.896 80.5292V86.7635H185.632V79.3671H186.862L186.896 80.5292ZM189.207 79.326L189.2 80.5018C189.095 80.479 188.995 80.4654 188.899 80.4608C188.808 80.4517 188.703 80.4471 188.585 80.4471C188.293 80.4471 188.036 80.4927 187.812 80.5839C187.589 80.675 187.4 80.8026 187.245 80.9667C187.09 81.1307 186.967 81.3267 186.876 81.5546C186.789 81.7779 186.732 82.024 186.705 82.2928L186.35 82.4979C186.35 82.0513 186.393 81.632 186.479 81.2401C186.571 80.8482 186.71 80.5018 186.896 80.201C187.083 79.8957 187.32 79.6587 187.607 79.4901C187.899 79.3169 188.245 79.2303 188.646 79.2303C188.738 79.2303 188.842 79.2417 188.961 79.2645C189.079 79.2828 189.161 79.3033 189.207 79.326ZM191.634 80.8368V86.7635H190.362V79.3671H191.565L191.634 80.8368ZM191.374 82.785L190.786 82.7645C190.791 82.2587 190.857 81.7915 190.984 81.3632C191.112 80.9302 191.301 80.5542 191.552 80.2352C191.802 79.9162 192.115 79.6701 192.488 79.4969C192.862 79.3192 193.295 79.2303 193.787 79.2303C194.133 79.2303 194.452 79.2805 194.744 79.3807C195.036 79.4764 195.289 79.6291 195.503 79.8387C195.717 80.0484 195.883 80.3173 196.002 80.6454C196.12 80.9735 196.18 81.37 196.18 81.8348V86.7635H194.915V81.8964C194.915 81.509 194.849 81.1991 194.717 80.9667C194.589 80.7343 194.407 80.5656 194.17 80.4608C193.933 80.3514 193.655 80.2968 193.336 80.2968C192.962 80.2968 192.65 80.3628 192.399 80.495C192.149 80.6272 191.948 80.8094 191.798 81.0419C191.647 81.2743 191.538 81.5409 191.47 81.8417C191.406 82.1379 191.374 82.4524 191.374 82.785ZM196.166 82.0878L195.318 82.3475C195.323 81.9419 195.389 81.5523 195.517 81.1786C195.649 80.8049 195.838 80.4722 196.084 80.1805C196.335 79.8889 196.642 79.6587 197.007 79.4901C197.371 79.3169 197.788 79.2303 198.258 79.2303C198.654 79.2303 199.005 79.2828 199.311 79.3876C199.62 79.4924 199.88 79.6542 200.09 79.8729C200.304 80.0871 200.466 80.3628 200.575 80.7001C200.685 81.0373 200.739 81.4384 200.739 81.9032V86.7635H199.468V81.8895C199.468 81.4748 199.402 81.1535 199.27 80.9257C199.142 80.6932 198.96 80.5315 198.723 80.4403C198.49 80.3446 198.212 80.2968 197.889 80.2968C197.611 80.2968 197.365 80.3446 197.15 80.4403C196.936 80.536 196.756 80.6682 196.61 80.8368C196.465 81.0009 196.353 81.19 196.275 81.4042C196.202 81.6184 196.166 81.8462 196.166 82.0878ZM202.674 86.0936C202.674 85.8794 202.74 85.6994 202.872 85.5536C203.009 85.4032 203.205 85.328 203.46 85.328C203.715 85.328 203.909 85.4032 204.041 85.5536C204.178 85.6994 204.246 85.8794 204.246 86.0936C204.246 86.3033 204.178 86.481 204.041 86.6268C203.909 86.7727 203.715 86.8456 203.46 86.8456C203.205 86.8456 203.009 86.7727 202.872 86.6268C202.74 86.481 202.674 86.3033 202.674 86.0936Z" fill="white"/>
<path d="M135.774 45.4041L138.606 33.4412H140.188L140.55 35.4333L137.532 47.6599H135.833L135.774 45.4041ZM134.319 33.4412L136.663 45.4041L136.468 47.6599H134.573L131.419 33.4412H134.319ZM143.04 45.3552L145.354 33.4412H148.255L145.11 47.6599H143.216L143.04 45.3552ZM141.077 33.4412L143.929 45.4529L143.851 47.6599H142.151L139.114 35.4236L139.505 33.4412H141.077ZM154.222 47.8552C153.401 47.8552 152.666 47.725 152.015 47.4646C151.364 47.1977 150.81 46.8298 150.354 46.3611C149.905 45.8923 149.56 45.3487 149.319 44.7302C149.078 44.1052 148.958 43.4412 148.958 42.738V42.3474C148.958 41.5466 149.072 40.8142 149.3 40.1501C149.528 39.4861 149.853 38.9099 150.276 38.4216C150.706 37.9333 151.227 37.559 151.839 37.2986C152.451 37.0317 153.141 36.8982 153.909 36.8982C154.658 36.8982 155.322 37.0219 155.901 37.2693C156.481 37.5167 156.966 37.8682 157.356 38.324C157.754 38.7797 158.053 39.3266 158.255 39.9646C158.457 40.5961 158.558 41.2992 158.558 42.074V43.2458H150.159V41.3708H155.794V41.156C155.794 40.7654 155.722 40.4171 155.579 40.1111C155.442 39.7986 155.234 39.5512 154.954 39.3689C154.674 39.1866 154.316 39.0955 153.88 39.0955C153.509 39.0955 153.19 39.1768 152.923 39.3396C152.656 39.5024 152.438 39.7302 152.269 40.0232C152.106 40.3162 151.982 40.6612 151.897 41.0583C151.819 41.449 151.78 41.8787 151.78 42.3474V42.738C151.78 43.1612 151.839 43.5518 151.956 43.9099C152.08 44.268 152.252 44.5772 152.474 44.8376C152.701 45.0981 152.975 45.2999 153.294 45.4431C153.619 45.5863 153.987 45.658 154.397 45.658C154.905 45.658 155.377 45.5603 155.813 45.365C156.256 45.1632 156.637 44.8604 156.956 44.4568L158.323 45.9412C158.102 46.2602 157.799 46.5662 157.415 46.8591C157.037 47.1521 156.582 47.393 156.048 47.5818C155.514 47.7641 154.905 47.8552 154.222 47.8552ZM163.128 37.0935V47.6599H160.306V37.0935H163.128ZM160.13 34.3396C160.13 33.9294 160.273 33.5909 160.56 33.324C160.846 33.057 161.23 32.9236 161.712 32.9236C162.187 32.9236 162.568 33.057 162.854 33.324C163.147 33.5909 163.294 33.9294 163.294 34.3396C163.294 34.7498 163.147 35.0883 162.854 35.3552C162.568 35.6222 162.187 35.7556 161.712 35.7556C161.23 35.7556 160.846 35.6222 160.56 35.3552C160.273 35.0883 160.13 34.7498 160.13 34.3396ZM172.142 37.0935H174.69V47.3083C174.69 48.2719 174.476 49.0889 174.046 49.7595C173.623 50.4366 173.03 50.9477 172.269 51.2927C171.507 51.6443 170.621 51.8201 169.612 51.8201C169.17 51.8201 168.701 51.7615 168.206 51.6443C167.718 51.5271 167.249 51.3448 166.8 51.0974C166.357 50.85 165.986 50.5375 165.687 50.1599L166.927 48.4998C167.252 48.8774 167.63 49.1703 168.06 49.3787C168.489 49.5935 168.965 49.7009 169.485 49.7009C169.993 49.7009 170.423 49.6065 170.774 49.4177C171.126 49.2354 171.396 48.9653 171.585 48.6072C171.774 48.2556 171.868 47.8292 171.868 47.3279V39.5349L172.142 37.0935ZM165.032 42.5037V42.2986C165.032 41.4913 165.13 40.7589 165.325 40.1013C165.527 39.4373 165.81 38.8676 166.175 38.3923C166.546 37.9171 166.995 37.5492 167.522 37.2888C168.05 37.0284 168.646 36.8982 169.31 36.8982C170.013 36.8982 170.602 37.0284 171.077 37.2888C171.552 37.5492 171.943 37.9203 172.249 38.4021C172.555 38.8774 172.793 39.4405 172.962 40.0916C173.138 40.7361 173.274 41.4425 173.372 42.2107V42.6599C173.274 43.3956 173.128 44.0792 172.933 44.7107C172.737 45.3422 172.48 45.8956 172.161 46.3708C171.842 46.8396 171.445 47.2042 170.97 47.4646C170.501 47.725 169.941 47.8552 169.29 47.8552C168.639 47.8552 168.05 47.7218 167.522 47.4548C167.002 47.1879 166.556 46.8136 166.185 46.3318C165.813 45.85 165.527 45.2836 165.325 44.6326C165.13 43.9815 165.032 43.2719 165.032 42.5037ZM167.845 42.2986V42.5037C167.845 42.9399 167.887 43.3468 167.972 43.7244C168.056 44.102 168.187 44.4373 168.362 44.7302C168.545 45.0167 168.769 45.2413 169.036 45.4041C169.31 45.5603 169.632 45.6384 170.003 45.6384C170.517 45.6384 170.937 45.531 171.263 45.3162C171.588 45.0948 171.832 44.7921 171.995 44.408C172.158 44.0238 172.252 43.5811 172.278 43.0798V41.8005C172.265 41.3904 172.21 41.0225 172.112 40.697C172.015 40.365 171.878 40.0818 171.702 39.8474C171.526 39.613 171.299 39.4307 171.019 39.3005C170.739 39.1703 170.407 39.1052 170.022 39.1052C169.651 39.1052 169.329 39.1899 169.056 39.3591C168.789 39.5219 168.564 39.7465 168.382 40.033C168.206 40.3194 168.073 40.658 167.981 41.0486C167.89 41.4327 167.845 41.8494 167.845 42.2986ZM179.622 32.6599V47.6599H176.81V32.6599H179.622ZM179.222 42.0056H178.45C178.457 41.2699 178.554 40.5929 178.743 39.9744C178.932 39.3494 179.202 38.809 179.554 38.3533C179.905 37.891 180.325 37.533 180.813 37.2791C181.308 37.0251 181.855 36.8982 182.454 36.8982C182.975 36.8982 183.447 36.9731 183.87 37.1228C184.3 37.266 184.668 37.5004 184.974 37.8259C185.286 38.1449 185.527 38.5649 185.696 39.0857C185.866 39.6065 185.95 40.238 185.95 40.9802V47.6599H183.118V40.9607C183.118 40.4919 183.05 40.1241 182.913 39.8572C182.783 39.5837 182.591 39.3917 182.337 39.281C182.09 39.1638 181.784 39.1052 181.419 39.1052C181.015 39.1052 180.67 39.1801 180.384 39.3298C180.104 39.4796 179.879 39.6879 179.71 39.9548C179.541 40.2153 179.417 40.5212 179.339 40.8728C179.261 41.2244 179.222 41.602 179.222 42.0056ZM193.265 37.0935V39.0857H187.112V37.0935H193.265ZM188.636 34.4861H191.448V44.4763C191.448 44.7823 191.487 45.0167 191.565 45.1794C191.65 45.3422 191.774 45.4561 191.937 45.5212C192.099 45.5798 192.304 45.6091 192.552 45.6091C192.728 45.6091 192.884 45.6026 193.021 45.5896C193.164 45.5701 193.284 45.5505 193.382 45.531L193.392 47.6013C193.151 47.6794 192.89 47.7413 192.61 47.7869C192.33 47.8324 192.021 47.8552 191.683 47.8552C191.064 47.8552 190.524 47.7543 190.062 47.5525C189.606 47.3442 189.254 47.0121 189.007 46.5564C188.759 46.1007 188.636 45.5017 188.636 44.7595V34.4861ZM199.729 47.8552C198.909 47.8552 198.174 47.725 197.522 47.4646C196.871 47.1977 196.318 46.8298 195.862 46.3611C195.413 45.8923 195.068 45.3487 194.827 44.7302C194.586 44.1052 194.466 43.4412 194.466 42.738V42.3474C194.466 41.5466 194.58 40.8142 194.808 40.1501C195.035 39.4861 195.361 38.9099 195.784 38.4216C196.214 37.9333 196.735 37.559 197.347 37.2986C197.959 37.0317 198.649 36.8982 199.417 36.8982C200.166 36.8982 200.83 37.0219 201.409 37.2693C201.989 37.5167 202.474 37.8682 202.864 38.324C203.261 38.7797 203.561 39.3266 203.763 39.9646C203.965 40.5961 204.065 41.2992 204.065 42.074V43.2458H195.667V41.3708H201.302V41.156C201.302 40.7654 201.23 40.4171 201.087 40.1111C200.95 39.7986 200.742 39.5512 200.462 39.3689C200.182 39.1866 199.824 39.0955 199.388 39.0955C199.017 39.0955 198.698 39.1768 198.431 39.3396C198.164 39.5024 197.946 39.7302 197.776 40.0232C197.614 40.3162 197.49 40.6612 197.405 41.0583C197.327 41.449 197.288 41.8787 197.288 42.3474V42.738C197.288 43.1612 197.347 43.5518 197.464 43.9099C197.588 44.268 197.76 44.5772 197.981 44.8376C198.209 45.0981 198.483 45.2999 198.802 45.4431C199.127 45.5863 199.495 45.658 199.905 45.658C200.413 45.658 200.885 45.5603 201.321 45.365C201.764 45.1632 202.145 44.8604 202.464 44.4568L203.831 45.9412C203.61 46.2602 203.307 46.5662 202.923 46.8591C202.545 47.1521 202.09 47.393 201.556 47.5818C201.022 47.7641 200.413 47.8552 199.729 47.8552ZM211.907 45.3552V32.6599H214.739V47.6599H212.19L211.907 45.3552ZM205.228 42.5037V42.2986C205.228 41.4913 205.319 40.7589 205.501 40.1013C205.683 39.4373 205.95 38.8676 206.302 38.3923C206.653 37.9171 207.086 37.5492 207.601 37.2888C208.115 37.0284 208.701 36.8982 209.358 36.8982C209.977 36.8982 210.517 37.0284 210.979 37.2888C211.448 37.5492 211.845 37.9203 212.171 38.4021C212.503 38.8774 212.77 39.4405 212.972 40.0916C213.174 40.7361 213.32 41.4425 213.411 42.2107V42.6599C213.32 43.3956 213.174 44.0792 212.972 44.7107C212.77 45.3422 212.503 45.8956 212.171 46.3708C211.845 46.8396 211.448 47.2042 210.979 47.4646C210.511 47.725 209.964 47.8552 209.339 47.8552C208.681 47.8552 208.095 47.7218 207.581 47.4548C207.073 47.1879 206.644 46.8136 206.292 46.3318C205.947 45.85 205.683 45.2836 205.501 44.6326C205.319 43.9815 205.228 43.2719 205.228 42.5037ZM208.04 42.2986V42.5037C208.04 42.9399 208.073 43.3468 208.138 43.7244C208.209 44.102 208.323 44.4373 208.479 44.7302C208.642 45.0167 208.851 45.2413 209.104 45.4041C209.365 45.5603 209.681 45.6384 210.052 45.6384C210.534 45.6384 210.931 45.531 211.243 45.3162C211.556 45.0948 211.793 44.7921 211.956 44.408C212.125 44.0238 212.223 43.5811 212.249 43.0798V41.8005C212.229 41.3904 212.171 41.0225 212.073 40.697C211.982 40.365 211.845 40.0818 211.663 39.8474C211.487 39.613 211.266 39.4307 210.999 39.3005C210.739 39.1703 210.429 39.1052 210.071 39.1052C209.707 39.1052 209.394 39.1899 209.134 39.3591C208.873 39.5219 208.662 39.7465 208.499 40.033C208.343 40.3194 208.226 40.658 208.147 41.0486C208.076 41.4327 208.04 41.8494 208.04 42.2986ZM227.63 44.74C227.63 44.5382 227.571 44.3559 227.454 44.1931C227.337 44.0304 227.119 43.8806 226.8 43.7439C226.487 43.6007 226.035 43.4705 225.442 43.3533C224.909 43.2361 224.41 43.0896 223.948 42.9138C223.493 42.7315 223.095 42.5134 222.757 42.2595C222.425 42.0056 222.164 41.7061 221.976 41.3611C221.787 41.0095 221.692 40.6091 221.692 40.1599C221.692 39.7172 221.787 39.3005 221.976 38.9099C222.171 38.5193 222.448 38.1742 222.806 37.8748C223.17 37.5688 223.613 37.3311 224.134 37.1619C224.661 36.9861 225.254 36.8982 225.911 36.8982C226.829 36.8982 227.617 37.0447 228.274 37.3376C228.938 37.6306 229.446 38.0343 229.798 38.5486C230.156 39.0564 230.335 39.6358 230.335 40.2869H227.522C227.522 40.0134 227.464 39.7693 227.347 39.5544C227.236 39.3331 227.06 39.1606 226.819 39.0369C226.585 38.9067 226.279 38.8416 225.901 38.8416C225.589 38.8416 225.319 38.8969 225.091 39.0076C224.863 39.1117 224.687 39.255 224.563 39.4373C224.446 39.613 224.388 39.8083 224.388 40.0232C224.388 40.186 224.42 40.3324 224.485 40.4626C224.557 40.5863 224.671 40.7003 224.827 40.8044C224.983 40.9086 225.185 41.0063 225.433 41.0974C225.687 41.182 225.999 41.2602 226.37 41.3318C227.132 41.488 227.812 41.6931 228.411 41.947C229.01 42.1944 229.485 42.533 229.837 42.9626C230.188 43.3858 230.364 43.9425 230.364 44.6326C230.364 45.1013 230.26 45.531 230.052 45.9216C229.843 46.3123 229.544 46.6541 229.153 46.947C228.763 47.2335 228.294 47.4581 227.747 47.6208C227.207 47.7771 226.598 47.8552 225.921 47.8552C224.938 47.8552 224.104 47.6794 223.421 47.3279C222.744 46.9763 222.229 46.5304 221.878 45.99C221.533 45.4431 221.36 44.8832 221.36 44.3103H224.026C224.039 44.6944 224.137 45.0037 224.319 45.238C224.508 45.4724 224.746 45.6417 225.032 45.7458C225.325 45.85 225.641 45.9021 225.979 45.9021C226.344 45.9021 226.647 45.8533 226.888 45.7556C227.129 45.6514 227.311 45.5147 227.435 45.3455C227.565 45.1697 227.63 44.9679 227.63 44.74ZM238.431 51.7224V39.2517L238.792 37.0935H241.263V51.7224H238.431ZM231.751 42.4841V42.2791C231.751 41.4718 231.839 40.7393 232.015 40.0818C232.197 39.4177 232.464 38.8513 232.815 38.3826C233.167 37.9073 233.597 37.5427 234.104 37.2888C234.619 37.0284 235.211 36.8982 235.882 36.8982C236.526 36.8982 237.083 37.0284 237.552 37.2888C238.021 37.5492 238.414 37.9171 238.733 38.3923C239.059 38.8676 239.319 39.4275 239.515 40.072C239.71 40.7166 239.86 41.4229 239.964 42.1912V42.6404C239.866 43.3761 239.716 44.0597 239.515 44.6912C239.319 45.3227 239.059 45.8761 238.733 46.3513C238.414 46.8266 238.017 47.1977 237.542 47.4646C237.073 47.725 236.513 47.8552 235.862 47.8552C235.205 47.8552 234.619 47.7218 234.104 47.4548C233.597 47.1814 233.167 46.8038 232.815 46.322C232.464 45.8403 232.197 45.2738 232.015 44.6228C231.839 43.9653 231.751 43.2524 231.751 42.4841ZM234.563 42.2791V42.4841C234.563 42.9203 234.599 43.3305 234.671 43.7146C234.743 44.0922 234.856 44.4275 235.013 44.7205C235.175 45.0134 235.384 45.2445 235.638 45.4138C235.892 45.5766 236.204 45.658 236.575 45.658C237.09 45.658 237.503 45.5473 237.815 45.3259C238.134 45.0981 238.369 44.7888 238.519 44.3982C238.675 44.0076 238.766 43.5616 238.792 43.0603V41.781C238.772 41.3708 238.717 41.003 238.626 40.6775C238.541 40.3455 238.411 40.0623 238.235 39.8279C238.066 39.5935 237.845 39.4145 237.571 39.2908C237.304 39.1606 236.979 39.0955 236.595 39.0955C236.23 39.0955 235.918 39.1768 235.657 39.3396C235.397 39.5024 235.185 39.7302 235.022 40.0232C234.866 40.3097 234.749 40.6449 234.671 41.0291C234.599 41.4132 234.563 41.8298 234.563 42.2791ZM249.729 45.1306V37.0935H252.542V47.6599H249.896L249.729 45.1306ZM250.042 42.9626L250.872 42.9431C250.872 43.6462 250.791 44.3005 250.628 44.906C250.465 45.505 250.221 46.0258 249.896 46.4685C249.57 46.9047 249.16 47.2465 248.665 47.4939C248.17 47.7348 247.588 47.8552 246.917 47.8552C246.403 47.8552 245.927 47.7836 245.491 47.6404C245.062 47.4906 244.69 47.2595 244.378 46.947C244.072 46.628 243.831 46.2211 243.655 45.7263C243.486 45.225 243.401 44.6228 243.401 43.9197V37.0935H246.214V43.9392C246.214 44.2517 246.25 44.5154 246.321 44.7302C246.399 44.9451 246.507 45.1208 246.644 45.2576C246.78 45.3943 246.94 45.4919 247.122 45.5505C247.311 45.6091 247.519 45.6384 247.747 45.6384C248.326 45.6384 248.782 45.5212 249.114 45.2869C249.453 45.0525 249.69 44.7335 249.827 44.3298C249.97 43.9197 250.042 43.4639 250.042 42.9626ZM260.394 45.2771V40.5701C260.394 40.2315 260.338 39.9418 260.228 39.7009C260.117 39.4535 259.944 39.2615 259.71 39.1248C259.482 38.988 259.186 38.9197 258.821 38.9197C258.509 38.9197 258.239 38.975 258.011 39.0857C257.783 39.1899 257.607 39.3429 257.483 39.5447C257.36 39.74 257.298 39.9711 257.298 40.238H254.485C254.485 39.7888 254.59 39.3624 254.798 38.9587C255.006 38.5551 255.309 38.2003 255.706 37.8943C256.103 37.5818 256.575 37.3376 257.122 37.1619C257.675 36.9861 258.294 36.8982 258.978 36.8982C259.798 36.8982 260.527 37.0349 261.165 37.3083C261.803 37.5818 262.304 37.9919 262.669 38.5388C263.04 39.0857 263.226 39.7693 263.226 40.5896V45.1111C263.226 45.6905 263.261 46.1658 263.333 46.5369C263.405 46.9014 263.509 47.2205 263.646 47.4939V47.6599H260.804C260.667 47.3735 260.563 47.0154 260.491 46.5857C260.426 46.1495 260.394 45.7133 260.394 45.2771ZM260.765 41.2244L260.784 42.8162H259.212C258.841 42.8162 258.519 42.8585 258.245 42.9431C257.972 43.0278 257.747 43.1482 257.571 43.3044C257.396 43.4542 257.265 43.63 257.181 43.8318C257.103 44.0336 257.063 44.255 257.063 44.4958C257.063 44.7367 257.119 44.9548 257.229 45.1501C257.34 45.3389 257.5 45.4887 257.708 45.5994C257.916 45.7035 258.16 45.7556 258.44 45.7556C258.864 45.7556 259.231 45.671 259.544 45.5017C259.856 45.3324 260.097 45.1241 260.267 44.8767C260.442 44.6293 260.534 44.3949 260.54 44.1736L261.282 45.365C261.178 45.6319 261.035 45.9086 260.853 46.1951C260.677 46.4815 260.452 46.7517 260.179 47.0056C259.905 47.253 259.576 47.4581 259.192 47.6208C258.808 47.7771 258.353 47.8552 257.825 47.8552C257.155 47.8552 256.546 47.7218 255.999 47.4548C255.459 47.1814 255.029 46.807 254.71 46.3318C254.397 45.85 254.241 45.3031 254.241 44.6912C254.241 44.1378 254.345 43.6462 254.554 43.2166C254.762 42.7869 255.068 42.4255 255.472 42.1326C255.882 41.8331 256.393 41.6085 257.005 41.4587C257.617 41.3025 258.326 41.2244 259.134 41.2244H260.765ZM270.569 37.0935V39.0857H264.417V37.0935H270.569ZM265.94 34.4861H268.753V44.4763C268.753 44.7823 268.792 45.0167 268.87 45.1794C268.955 45.3422 269.078 45.4561 269.241 45.5212C269.404 45.5798 269.609 45.6091 269.856 45.6091C270.032 45.6091 270.188 45.6026 270.325 45.5896C270.468 45.5701 270.589 45.5505 270.687 45.531L270.696 47.6013C270.455 47.6794 270.195 47.7413 269.915 47.7869C269.635 47.8324 269.326 47.8552 268.987 47.8552C268.369 47.8552 267.828 47.7543 267.366 47.5525C266.91 47.3442 266.559 47.0121 266.312 46.5564C266.064 46.1007 265.94 45.5017 265.94 44.7595V34.4861Z" fill="white"/>
<rect x="173.844" y="143.296" width="21.9942" height="21.9942" fill="#E9E9ED"/>
<path d="M180.564 151.239L184.23 146.962L187.896 151.239" stroke="#8F8F9C" stroke-width="1.5"/>
<path d="M187.896 156.737L184.23 161.014L180.564 156.737" stroke="#8F8F9C" stroke-width="1.5"/>
<rect x="321.693" y="143.297" width="21.9942" height="21.9942" fill="#E9E9ED"/>
<path d="M328.414 151.239L332.08 146.962L335.745 151.239" stroke="#8F8F9C" stroke-width="1.5"/>
<path d="M335.745 156.737L332.079 161.014L328.414 156.737" stroke="#8F8F9C" stroke-width="1.5"/>
<rect x="173.844" y="206.835" width="21.9942" height="21.9942" fill="#E9E9ED"/>
<path d="M180.564 214.777L184.23 210.501L187.896 214.777" stroke="#8F8F9C" stroke-width="1.5"/>
<path d="M187.896 220.276L184.23 224.553L180.564 220.276" stroke="#8F8F9C" stroke-width="1.5"/>
<rect x="321.693" y="206.835" width="21.9942" height="21.9942" fill="#E9E9ED"/>
<path d="M328.414 214.777L332.08 210.501L335.745 214.777" stroke="#8F8F9C" stroke-width="1.5"/>
<path d="M335.745 220.276L332.079 224.553L328.414 220.276" stroke="#8F8F9C" stroke-width="1.5"/>
<rect x="244.714" y="254.489" width="169.844" height="40.3227" rx="10" fill="#D3F076"/>
<path d="M310.598 276.599H307.967L307.983 274.656H310.598C311.251 274.656 311.802 274.51 312.25 274.216C312.698 273.917 313.036 273.483 313.263 272.913C313.495 272.343 313.611 271.654 313.611 270.846V270.257C313.611 269.637 313.545 269.092 313.412 268.622C313.285 268.151 313.094 267.756 312.839 267.435C312.585 267.114 312.272 266.873 311.901 266.712C311.531 266.546 311.104 266.463 310.623 266.463H307.917V264.513H310.623C311.431 264.513 312.17 264.651 312.839 264.928C313.514 265.199 314.098 265.589 314.591 266.098C315.083 266.607 315.462 267.216 315.728 267.924C315.999 268.627 316.135 269.41 316.135 270.273V270.846C316.135 271.704 315.999 272.487 315.728 273.195C315.462 273.904 315.083 274.512 314.591 275.021C314.104 275.525 313.52 275.915 312.839 276.192C312.164 276.463 311.417 276.599 310.598 276.599ZM309.378 264.513V276.599H306.888V264.513H309.378ZM317.413 272.199V272.025C317.413 271.366 317.507 270.76 317.695 270.207C317.883 269.648 318.157 269.164 318.517 268.754C318.877 268.345 319.319 268.027 319.845 267.8C320.371 267.567 320.974 267.451 321.655 267.451C322.335 267.451 322.941 267.567 323.473 267.8C324.004 268.027 324.449 268.345 324.809 268.754C325.174 269.164 325.451 269.648 325.639 270.207C325.827 270.76 325.921 271.366 325.921 272.025V272.199C325.921 272.852 325.827 273.458 325.639 274.017C325.451 274.57 325.174 275.055 324.809 275.47C324.449 275.879 324.007 276.197 323.481 276.424C322.955 276.651 322.352 276.765 321.671 276.765C320.991 276.765 320.385 276.651 319.854 276.424C319.328 276.197 318.882 275.879 318.517 275.47C318.157 275.055 317.883 274.57 317.695 274.017C317.507 273.458 317.413 272.852 317.413 272.199ZM319.804 272.025V272.199C319.804 272.576 319.837 272.927 319.903 273.253C319.97 273.58 320.075 273.868 320.219 274.117C320.368 274.36 320.562 274.551 320.8 274.689C321.038 274.828 321.328 274.897 321.671 274.897C322.003 274.897 322.288 274.828 322.526 274.689C322.764 274.551 322.955 274.36 323.099 274.117C323.243 273.868 323.348 273.58 323.415 273.253C323.486 272.927 323.522 272.576 323.522 272.199V272.025C323.522 271.66 323.486 271.317 323.415 270.996C323.348 270.669 323.24 270.381 323.091 270.132C322.947 269.878 322.756 269.679 322.518 269.535C322.28 269.391 321.992 269.319 321.655 269.319C321.317 269.319 321.029 269.391 320.792 269.535C320.559 269.679 320.368 269.878 320.219 270.132C320.075 270.381 319.97 270.669 319.903 270.996C319.837 271.317 319.804 271.66 319.804 272.025ZM329.731 269.535V276.599H327.341V267.617H329.582L329.731 269.535ZM329.383 271.792H328.735C328.735 271.128 328.821 270.531 328.993 270C329.164 269.463 329.405 269.006 329.715 268.63C330.025 268.248 330.393 267.958 330.819 267.758C331.25 267.554 331.732 267.451 332.263 267.451C332.684 267.451 333.068 267.512 333.417 267.634C333.766 267.756 334.064 267.949 334.313 268.215C334.568 268.48 334.762 268.832 334.895 269.269C335.033 269.706 335.102 270.24 335.102 270.871V276.599H332.695V270.863C332.695 270.464 332.639 270.154 332.529 269.933C332.418 269.712 332.255 269.557 332.039 269.468C331.829 269.374 331.569 269.327 331.259 269.327C330.938 269.327 330.658 269.391 330.42 269.518C330.188 269.645 329.994 269.822 329.839 270.049C329.69 270.271 329.576 270.531 329.499 270.83C329.422 271.128 329.383 271.449 329.383 271.792ZM341.054 276.765C340.356 276.765 339.731 276.654 339.178 276.433C338.624 276.206 338.154 275.893 337.767 275.495C337.385 275.096 337.091 274.634 336.887 274.108C336.682 273.577 336.58 273.013 336.58 272.415V272.083C336.58 271.402 336.676 270.78 336.87 270.215C337.064 269.651 337.34 269.161 337.7 268.746C338.065 268.331 338.508 268.013 339.028 267.792C339.549 267.565 340.135 267.451 340.788 267.451C341.424 267.451 341.989 267.556 342.481 267.767C342.974 267.977 343.386 268.276 343.718 268.663C344.056 269.05 344.31 269.515 344.482 270.058C344.653 270.594 344.739 271.192 344.739 271.851V272.847H337.601V271.253H342.39V271.07C342.39 270.738 342.329 270.442 342.208 270.182C342.091 269.917 341.914 269.706 341.676 269.551C341.438 269.396 341.134 269.319 340.763 269.319C340.448 269.319 340.177 269.388 339.95 269.526C339.723 269.665 339.537 269.858 339.394 270.107C339.255 270.356 339.15 270.65 339.078 270.987C339.012 271.319 338.979 271.685 338.979 272.083V272.415C338.979 272.775 339.028 273.107 339.128 273.411C339.233 273.715 339.38 273.978 339.568 274.2C339.762 274.421 339.994 274.593 340.265 274.714C340.542 274.836 340.854 274.897 341.203 274.897C341.635 274.897 342.036 274.814 342.407 274.648C342.783 274.476 343.107 274.219 343.378 273.876L344.54 275.138C344.352 275.409 344.095 275.669 343.768 275.918C343.447 276.167 343.06 276.372 342.606 276.532C342.152 276.687 341.635 276.765 341.054 276.765Z" fill="#091B35"/>
<rect x="32.1035" y="254.489" width="193.06" height="39.8991" rx="10" fill="#D3F076"/>
<path d="M90.6299 267.037L87.3428 277.056H84.6948L89.1855 264.97H90.8706L90.6299 267.037ZM93.3608 277.056L90.0654 267.037L89.7998 264.97H91.5015L96.0171 277.056H93.3608ZM93.2114 272.557V274.508H86.8281V272.557H93.2114ZM102.292 275.097V264.306H104.7V277.056H102.533L102.292 275.097ZM96.6147 272.673V272.499C96.6147 271.813 96.6922 271.19 96.8472 270.631C97.0021 270.067 97.229 269.582 97.5278 269.178C97.8267 268.774 98.1947 268.462 98.6318 268.24C99.069 268.019 99.5671 267.908 100.126 267.908C100.652 267.908 101.111 268.019 101.504 268.24C101.902 268.462 102.24 268.777 102.517 269.187C102.799 269.591 103.026 270.069 103.197 270.623C103.369 271.171 103.493 271.771 103.571 272.424V272.806C103.493 273.431 103.369 274.012 103.197 274.549C103.026 275.086 102.799 275.556 102.517 275.96C102.24 276.359 101.902 276.669 101.504 276.89C101.105 277.111 100.641 277.222 100.109 277.222C99.5505 277.222 99.0524 277.108 98.6152 276.882C98.1836 276.655 97.8184 276.337 97.5195 275.927C97.2262 275.517 97.0021 275.036 96.8472 274.483C96.6922 273.929 96.6147 273.326 96.6147 272.673ZM99.0054 272.499V272.673C99.0054 273.044 99.033 273.39 99.0884 273.711C99.1493 274.032 99.2461 274.317 99.3789 274.566C99.5173 274.809 99.6943 275 99.9102 275.138C100.132 275.271 100.4 275.338 100.715 275.338C101.125 275.338 101.462 275.246 101.728 275.064C101.994 274.876 102.196 274.618 102.334 274.292C102.478 273.965 102.561 273.589 102.583 273.163V272.075C102.566 271.727 102.517 271.414 102.434 271.137C102.356 270.855 102.24 270.615 102.085 270.415C101.936 270.216 101.747 270.061 101.521 269.95C101.299 269.84 101.036 269.784 100.732 269.784C100.422 269.784 100.156 269.856 99.9351 270C99.7137 270.139 99.5339 270.33 99.3955 270.573C99.2627 270.816 99.1631 271.104 99.0967 271.436C99.0358 271.763 99.0054 272.117 99.0054 272.499ZM111.872 275.097V264.306H114.279V277.056H112.112L111.872 275.097ZM106.194 272.673V272.499C106.194 271.813 106.271 271.19 106.426 270.631C106.581 270.067 106.808 269.582 107.107 269.178C107.406 268.774 107.774 268.462 108.211 268.24C108.648 268.019 109.146 267.908 109.705 267.908C110.231 267.908 110.69 268.019 111.083 268.24C111.481 268.462 111.819 268.777 112.096 269.187C112.378 269.591 112.605 270.069 112.776 270.623C112.948 271.171 113.072 271.771 113.15 272.424V272.806C113.072 273.431 112.948 274.012 112.776 274.549C112.605 275.086 112.378 275.556 112.096 275.96C111.819 276.359 111.481 276.669 111.083 276.89C110.685 277.111 110.22 277.222 109.688 277.222C109.13 277.222 108.632 277.108 108.194 276.882C107.763 276.655 107.397 276.337 107.099 275.927C106.805 275.517 106.581 275.036 106.426 274.483C106.271 273.929 106.194 273.326 106.194 272.673ZM108.584 272.499V272.673C108.584 273.044 108.612 273.39 108.667 273.711C108.728 274.032 108.825 274.317 108.958 274.566C109.096 274.809 109.273 275 109.489 275.138C109.711 275.271 109.979 275.338 110.294 275.338C110.704 275.338 111.042 275.246 111.307 275.064C111.573 274.876 111.775 274.618 111.913 274.292C112.057 273.965 112.14 273.589 112.162 273.163V272.075C112.146 271.727 112.096 271.414 112.013 271.137C111.935 270.855 111.819 270.615 111.664 270.415C111.515 270.216 111.326 270.061 111.1 269.95C110.878 269.84 110.615 269.784 110.311 269.784C110.001 269.784 109.736 269.856 109.514 270C109.293 270.139 109.113 270.33 108.975 270.573C108.842 270.816 108.742 271.104 108.676 271.436C108.615 271.763 108.584 272.117 108.584 272.499ZM125.236 274.574C125.236 274.402 125.186 274.247 125.086 274.109C124.987 273.971 124.801 273.844 124.53 273.727C124.265 273.606 123.88 273.495 123.376 273.395C122.923 273.296 122.499 273.171 122.106 273.022C121.719 272.867 121.382 272.681 121.094 272.466C120.812 272.25 120.59 271.995 120.43 271.702C120.269 271.403 120.189 271.063 120.189 270.681C120.189 270.305 120.269 269.95 120.43 269.618C120.596 269.286 120.831 268.993 121.135 268.739C121.445 268.478 121.821 268.276 122.264 268.133C122.712 267.983 123.216 267.908 123.775 267.908C124.555 267.908 125.225 268.033 125.784 268.282C126.348 268.531 126.78 268.874 127.079 269.311C127.383 269.743 127.535 270.235 127.535 270.789H125.145C125.145 270.556 125.095 270.349 124.995 270.166C124.901 269.978 124.752 269.831 124.547 269.726C124.348 269.616 124.088 269.56 123.767 269.56C123.501 269.56 123.271 269.607 123.078 269.701C122.884 269.79 122.735 269.912 122.629 270.067C122.53 270.216 122.48 270.382 122.48 270.565C122.48 270.703 122.508 270.828 122.563 270.938C122.624 271.043 122.721 271.14 122.854 271.229C122.986 271.317 123.158 271.4 123.368 271.478C123.584 271.55 123.85 271.616 124.165 271.677C124.812 271.81 125.391 271.984 125.9 272.2C126.409 272.41 126.813 272.698 127.112 273.063C127.411 273.423 127.56 273.896 127.56 274.483C127.56 274.881 127.472 275.246 127.294 275.578C127.117 275.91 126.863 276.201 126.531 276.45C126.199 276.693 125.8 276.884 125.335 277.023C124.876 277.156 124.359 277.222 123.783 277.222C122.948 277.222 122.239 277.073 121.658 276.774C121.083 276.475 120.646 276.096 120.347 275.636C120.053 275.172 119.907 274.696 119.907 274.209H122.173C122.184 274.535 122.267 274.798 122.422 274.997C122.582 275.197 122.784 275.34 123.028 275.429C123.277 275.517 123.545 275.562 123.833 275.562C124.143 275.562 124.4 275.52 124.605 275.437C124.81 275.349 124.965 275.233 125.07 275.089C125.181 274.939 125.236 274.768 125.236 274.574ZM133.246 277.222C132.549 277.222 131.924 277.111 131.37 276.89C130.817 276.663 130.346 276.35 129.959 275.952C129.577 275.553 129.284 275.091 129.079 274.566C128.874 274.034 128.772 273.47 128.772 272.872V272.54C128.772 271.86 128.869 271.237 129.062 270.673C129.256 270.108 129.533 269.618 129.893 269.203C130.258 268.788 130.701 268.47 131.221 268.249C131.741 268.022 132.327 267.908 132.98 267.908C133.617 267.908 134.181 268.014 134.674 268.224C135.166 268.434 135.579 268.733 135.911 269.12C136.248 269.508 136.503 269.973 136.674 270.515C136.846 271.052 136.932 271.649 136.932 272.308V273.304H129.793V271.71H134.583V271.528C134.583 271.196 134.522 270.899 134.4 270.639C134.284 270.374 134.107 270.163 133.869 270.009C133.631 269.854 133.326 269.776 132.956 269.776C132.64 269.776 132.369 269.845 132.142 269.984C131.915 270.122 131.73 270.316 131.586 270.565C131.448 270.814 131.342 271.107 131.271 271.445C131.204 271.777 131.171 272.142 131.171 272.54V272.872C131.171 273.232 131.221 273.564 131.32 273.868C131.425 274.173 131.572 274.436 131.76 274.657C131.954 274.878 132.186 275.05 132.458 275.172C132.734 275.293 133.047 275.354 133.396 275.354C133.827 275.354 134.228 275.271 134.599 275.105C134.975 274.934 135.299 274.676 135.57 274.333L136.732 275.595C136.544 275.866 136.287 276.126 135.96 276.375C135.639 276.624 135.252 276.829 134.798 276.99C134.345 277.144 133.827 277.222 133.246 277.222ZM142.692 268.074V269.768H137.463V268.074H142.692ZM138.758 265.858H141.148V274.35C141.148 274.61 141.182 274.809 141.248 274.948C141.32 275.086 141.425 275.183 141.563 275.238C141.702 275.288 141.876 275.313 142.086 275.313C142.236 275.313 142.369 275.307 142.485 275.296C142.607 275.28 142.709 275.263 142.792 275.246L142.8 277.006C142.596 277.073 142.374 277.125 142.136 277.164C141.898 277.203 141.635 277.222 141.348 277.222C140.822 277.222 140.363 277.136 139.97 276.965C139.582 276.788 139.284 276.505 139.073 276.118C138.863 275.731 138.758 275.221 138.758 274.591V265.858Z" fill="#091B35"/>
<defs>
<filter id="filter0_d_142652_1500" x="0" y="0" width="448.218" height="313.809" filterUnits="userSpaceOnUse" color-interpolation-filters="sRGB">
<feFlood flood-opacity="0" result="BackgroundImageFix"/>
<feColorMatrix in="SourceAlpha" type="matrix" values="0 0 0 0 0 0 0 0 0 0 0 0 0 0 0 0 0 0 127 0" result="hardAlpha"/>
<feOffset dx="2" dy="2"/>
<feGaussianBlur stdDeviation="3"/>
<feComposite in2="hardAlpha" operator="out"/>
<feColorMatrix type="matrix" values="0 0 0 0 0 0 0 0 0 0 0 0 0 0 0 0 0 0 0.25 0"/>
<feBlend mode="normal" in2="BackgroundImageFix" result="effect1_dropShadow_142652_1500"/>
<feBlend mode="normal" in="SourceGraphic" in2="effect1_dropShadow_142652_1500" result="shape"/>
</filter>
</defs>
</svg>
