<svg width="449" height="314" viewBox="0 0 449 314" fill="none" xmlns="http://www.w3.org/2000/svg">
<g filter="url(#filter0_d_142652_1500)">
<rect x="4" y="4" width="436.218" height="301.809" rx="15" fill="white"/>
</g>
<rect x="365.209" y="155.654" width="15.6066" height="11.9409" rx="2.25" stroke="#091B35" stroke-width="1.5"/>
<path d="M388.897 155.515V150.74C388.897 147.979 386.659 145.74 383.897 145.74H382.9C380.139 145.74 377.9 147.979 377.9 150.74L377.9 155.515" stroke="#091B35" stroke-width="1.5"/>
<rect x="214.194" y="131.25" width="138.018" height="46.3759" rx="8.75" fill="#F6F6F6" stroke="#E5E5E5" stroke-width="2.5"/>
<rect x="70.0098" y="131.25" width="133.131" height="46.3759" rx="8.75" fill="#F6F6F6" stroke="#E5E5E5" stroke-width="2.5"/>
<path d="M45.7002 147.602V159H43.4502V150.195L40.7471 151.055V149.281L45.458 147.602H45.7002Z" fill="#091B35"/>
<path d="M83.3867 156.133L85.9268 147.203H87.1572L86.4453 150.675L83.7119 160H82.4902L83.3867 156.133ZM80.7588 147.203L82.7803 155.957L83.3867 160H82.1738L79.0713 147.203H80.7588ZM90.4443 155.948L92.4219 147.203H94.1182L91.0244 160H89.8115L90.4443 155.948ZM87.3418 147.203L89.8115 156.133L90.708 160H89.4863L86.8496 150.675L86.1289 147.203H87.3418ZM99.418 160.176C98.7559 160.176 98.1553 160.064 97.6162 159.842C97.083 159.613 96.623 159.294 96.2363 158.884C95.8555 158.474 95.5625 157.987 95.3574 157.425C95.1523 156.862 95.0498 156.247 95.0498 155.579V155.21C95.0498 154.437 95.1641 153.748 95.3926 153.145C95.6211 152.535 95.9316 152.02 96.3242 151.598C96.7168 151.176 97.1621 150.856 97.6602 150.64C98.1582 150.423 98.6738 150.314 99.207 150.314C99.8867 150.314 100.473 150.432 100.965 150.666C101.463 150.9 101.87 151.229 102.187 151.65C102.503 152.066 102.737 152.559 102.89 153.127C103.042 153.689 103.118 154.305 103.118 154.973V155.702H96.0166V154.375H101.492V154.252C101.469 153.83 101.381 153.42 101.229 153.021C101.082 152.623 100.848 152.295 100.525 152.037C100.203 151.779 99.7637 151.65 99.207 151.65C98.8379 151.65 98.498 151.729 98.1875 151.888C97.877 152.04 97.6104 152.269 97.3877 152.573C97.165 152.878 96.9922 153.25 96.8691 153.689C96.7461 154.129 96.6846 154.636 96.6846 155.21V155.579C96.6846 156.03 96.7461 156.455 96.8691 156.854C96.998 157.246 97.1826 157.592 97.4229 157.891C97.6689 158.189 97.9648 158.424 98.3105 158.594C98.6621 158.764 99.0605 158.849 99.5059 158.849C100.08 158.849 100.566 158.731 100.965 158.497C101.363 158.263 101.712 157.949 102.011 157.557L102.995 158.339C102.79 158.649 102.529 158.945 102.213 159.227C101.896 159.508 101.507 159.736 101.044 159.912C100.587 160.088 100.045 160.176 99.418 160.176ZM106.783 150.49V160H105.148V150.49H106.783ZM105.025 147.968C105.025 147.704 105.104 147.481 105.263 147.3C105.427 147.118 105.667 147.027 105.983 147.027C106.294 147.027 106.531 147.118 106.695 147.3C106.865 147.481 106.95 147.704 106.95 147.968C106.95 148.22 106.865 148.437 106.695 148.618C106.531 148.794 106.294 148.882 105.983 148.882C105.667 148.882 105.427 148.794 105.263 148.618C105.104 148.437 105.025 148.22 105.025 147.968ZM115.555 150.49H117.031V159.798C117.031 160.636 116.861 161.351 116.521 161.942C116.182 162.534 115.707 162.982 115.098 163.287C114.494 163.598 113.797 163.753 113.006 163.753C112.678 163.753 112.291 163.7 111.846 163.595C111.406 163.495 110.973 163.322 110.545 163.076C110.123 162.836 109.769 162.511 109.481 162.101L110.334 161.134C110.732 161.614 111.148 161.948 111.582 162.136C112.021 162.323 112.455 162.417 112.883 162.417C113.398 162.417 113.844 162.32 114.219 162.127C114.594 161.934 114.884 161.646 115.089 161.266C115.3 160.891 115.405 160.428 115.405 159.877V152.582L115.555 150.49ZM109.007 155.351V155.166C109.007 154.439 109.092 153.78 109.262 153.188C109.438 152.591 109.687 152.078 110.009 151.65C110.337 151.223 110.732 150.895 111.195 150.666C111.658 150.432 112.18 150.314 112.76 150.314C113.357 150.314 113.879 150.42 114.324 150.631C114.775 150.836 115.156 151.138 115.467 151.536C115.783 151.929 116.032 152.403 116.214 152.96C116.396 153.517 116.521 154.146 116.592 154.85V155.658C116.527 156.355 116.401 156.982 116.214 157.539C116.032 158.096 115.783 158.57 115.467 158.963C115.156 159.355 114.775 159.657 114.324 159.868C113.873 160.073 113.346 160.176 112.742 160.176C112.174 160.176 111.658 160.056 111.195 159.815C110.738 159.575 110.346 159.238 110.018 158.805C109.689 158.371 109.438 157.861 109.262 157.275C109.092 156.684 109.007 156.042 109.007 155.351ZM110.633 155.166V155.351C110.633 155.825 110.68 156.271 110.773 156.687C110.873 157.103 111.022 157.469 111.222 157.785C111.427 158.102 111.688 158.351 112.004 158.532C112.32 158.708 112.698 158.796 113.138 158.796C113.677 158.796 114.122 158.682 114.474 158.453C114.825 158.225 115.104 157.923 115.309 157.548C115.52 157.173 115.684 156.766 115.801 156.326V154.208C115.736 153.886 115.637 153.575 115.502 153.276C115.373 152.972 115.203 152.702 114.992 152.468C114.787 152.228 114.532 152.037 114.228 151.896C113.923 151.756 113.565 151.686 113.155 151.686C112.71 151.686 112.326 151.779 112.004 151.967C111.688 152.148 111.427 152.4 111.222 152.723C111.022 153.039 110.873 153.408 110.773 153.83C110.68 154.246 110.633 154.691 110.633 155.166ZM121.127 146.5V160H119.501V146.5H121.127ZM120.74 154.885L120.063 154.858C120.069 154.208 120.166 153.607 120.354 153.057C120.541 152.5 120.805 152.017 121.145 151.606C121.484 151.196 121.889 150.88 122.357 150.657C122.832 150.429 123.356 150.314 123.931 150.314C124.399 150.314 124.821 150.379 125.196 150.508C125.571 150.631 125.891 150.83 126.154 151.105C126.424 151.381 126.629 151.738 126.77 152.178C126.91 152.611 126.98 153.142 126.98 153.769V160H125.346V153.751C125.346 153.253 125.272 152.854 125.126 152.556C124.979 152.251 124.766 152.031 124.484 151.896C124.203 151.756 123.857 151.686 123.447 151.686C123.043 151.686 122.674 151.771 122.34 151.94C122.012 152.11 121.728 152.345 121.487 152.644C121.253 152.942 121.068 153.285 120.934 153.672C120.805 154.053 120.74 154.457 120.74 154.885ZM133.396 150.49V151.738H128.255V150.49H133.396ZM129.995 148.179H131.621V157.645C131.621 157.967 131.671 158.21 131.771 158.374C131.87 158.538 131.999 158.646 132.157 158.699C132.315 158.752 132.485 158.778 132.667 158.778C132.802 158.778 132.942 158.767 133.089 158.743C133.241 158.714 133.355 158.69 133.432 158.673L133.44 160C133.312 160.041 133.142 160.079 132.931 160.114C132.726 160.155 132.477 160.176 132.184 160.176C131.785 160.176 131.419 160.097 131.085 159.938C130.751 159.78 130.484 159.517 130.285 159.147C130.092 158.772 129.995 158.269 129.995 157.636V148.179Z" fill="#9EA4AE"/>
<path d="M224.205 147.203H228.441C229.402 147.203 230.214 147.35 230.876 147.643C231.544 147.936 232.051 148.369 232.396 148.943C232.748 149.512 232.924 150.212 232.924 151.044C232.924 151.63 232.804 152.166 232.563 152.652C232.329 153.133 231.989 153.543 231.544 153.883C231.104 154.217 230.577 154.466 229.962 154.63L229.487 154.814H225.506L225.488 153.435H228.494C229.104 153.435 229.61 153.329 230.015 153.118C230.419 152.901 230.724 152.611 230.929 152.248C231.134 151.885 231.236 151.483 231.236 151.044C231.236 150.552 231.14 150.121 230.946 149.752C230.753 149.383 230.448 149.099 230.032 148.899C229.622 148.694 229.092 148.592 228.441 148.592H225.901V160H224.205V147.203ZM231.685 160L228.573 154.199L230.34 154.19L233.495 159.895V160H231.685ZM238.997 160.176C238.335 160.176 237.734 160.064 237.195 159.842C236.662 159.613 236.202 159.294 235.815 158.884C235.435 158.474 235.142 157.987 234.937 157.425C234.731 156.862 234.629 156.247 234.629 155.579V155.21C234.629 154.437 234.743 153.748 234.972 153.145C235.2 152.535 235.511 152.02 235.903 151.598C236.296 151.176 236.741 150.856 237.239 150.64C237.737 150.423 238.253 150.314 238.786 150.314C239.466 150.314 240.052 150.432 240.544 150.666C241.042 150.9 241.449 151.229 241.766 151.65C242.082 152.066 242.316 152.559 242.469 153.127C242.621 153.689 242.697 154.305 242.697 154.973V155.702H235.596V154.375H241.071V154.252C241.048 153.83 240.96 153.42 240.808 153.021C240.661 152.623 240.427 152.295 240.104 152.037C239.782 151.779 239.343 151.65 238.786 151.65C238.417 151.65 238.077 151.729 237.767 151.888C237.456 152.04 237.189 152.269 236.967 152.573C236.744 152.878 236.571 153.25 236.448 153.689C236.325 154.129 236.264 154.636 236.264 155.21V155.579C236.264 156.03 236.325 156.455 236.448 156.854C236.577 157.246 236.762 157.592 237.002 157.891C237.248 158.189 237.544 158.424 237.89 158.594C238.241 158.764 238.64 158.849 239.085 158.849C239.659 158.849 240.146 158.731 240.544 158.497C240.942 158.263 241.291 157.949 241.59 157.557L242.574 158.339C242.369 158.649 242.108 158.945 241.792 159.227C241.476 159.508 241.086 159.736 240.623 159.912C240.166 160.088 239.624 160.176 238.997 160.176ZM246.222 152.318V163.656H244.587V150.49H246.081L246.222 152.318ZM252.629 155.166V155.351C252.629 156.042 252.547 156.684 252.383 157.275C252.219 157.861 251.979 158.371 251.662 158.805C251.352 159.238 250.968 159.575 250.511 159.815C250.054 160.056 249.529 160.176 248.938 160.176C248.334 160.176 247.801 160.076 247.338 159.877C246.875 159.678 246.482 159.388 246.16 159.007C245.838 158.626 245.58 158.169 245.387 157.636C245.199 157.103 245.07 156.502 245 155.834V154.85C245.07 154.146 245.202 153.517 245.396 152.96C245.589 152.403 245.844 151.929 246.16 151.536C246.482 151.138 246.872 150.836 247.329 150.631C247.786 150.42 248.313 150.314 248.911 150.314C249.509 150.314 250.039 150.432 250.502 150.666C250.965 150.895 251.354 151.223 251.671 151.65C251.987 152.078 252.225 152.591 252.383 153.188C252.547 153.78 252.629 154.439 252.629 155.166ZM250.994 155.351V155.166C250.994 154.691 250.944 154.246 250.845 153.83C250.745 153.408 250.59 153.039 250.379 152.723C250.174 152.4 249.91 152.148 249.588 151.967C249.266 151.779 248.882 151.686 248.437 151.686C248.026 151.686 247.669 151.756 247.364 151.896C247.065 152.037 246.811 152.228 246.6 152.468C246.389 152.702 246.216 152.972 246.081 153.276C245.952 153.575 245.855 153.886 245.791 154.208V156.484C245.908 156.895 246.072 157.281 246.283 157.645C246.494 158.002 246.775 158.292 247.127 158.515C247.479 158.731 247.921 158.84 248.454 158.84C248.894 158.84 249.271 158.749 249.588 158.567C249.91 158.38 250.174 158.125 250.379 157.803C250.59 157.48 250.745 157.111 250.845 156.695C250.944 156.273 250.994 155.825 250.994 155.351ZM260.24 157.478C260.24 157.243 260.188 157.026 260.082 156.827C259.982 156.622 259.774 156.438 259.458 156.273C259.147 156.104 258.679 155.957 258.052 155.834C257.524 155.723 257.047 155.591 256.619 155.438C256.197 155.286 255.837 155.102 255.538 154.885C255.245 154.668 255.02 154.413 254.861 154.12C254.703 153.827 254.624 153.484 254.624 153.092C254.624 152.717 254.706 152.362 254.87 152.028C255.04 151.694 255.277 151.398 255.582 151.141C255.893 150.883 256.265 150.681 256.698 150.534C257.132 150.388 257.615 150.314 258.148 150.314C258.91 150.314 259.561 150.449 260.1 150.719C260.639 150.988 261.052 151.349 261.339 151.8C261.626 152.245 261.77 152.74 261.77 153.285H260.144C260.144 153.021 260.064 152.767 259.906 152.521C259.754 152.269 259.528 152.061 259.229 151.896C258.937 151.732 258.576 151.65 258.148 151.65C257.697 151.65 257.331 151.721 257.05 151.861C256.774 151.996 256.572 152.169 256.443 152.38C256.32 152.591 256.259 152.813 256.259 153.048C256.259 153.224 256.288 153.382 256.347 153.522C256.411 153.657 256.522 153.783 256.681 153.9C256.839 154.012 257.062 154.117 257.349 154.217C257.636 154.316 258.002 154.416 258.447 154.516C259.227 154.691 259.868 154.902 260.372 155.148C260.876 155.395 261.251 155.696 261.497 156.054C261.743 156.411 261.866 156.845 261.866 157.354C261.866 157.771 261.778 158.151 261.603 158.497C261.433 158.843 261.184 159.142 260.855 159.394C260.533 159.64 260.146 159.833 259.695 159.974C259.25 160.108 258.749 160.176 258.192 160.176C257.354 160.176 256.646 160.026 256.065 159.728C255.485 159.429 255.046 159.042 254.747 158.567C254.448 158.093 254.299 157.592 254.299 157.064H255.934C255.957 157.51 256.086 157.864 256.32 158.128C256.555 158.386 256.842 158.57 257.182 158.682C257.521 158.787 257.858 158.84 258.192 158.84C258.638 158.84 259.01 158.781 259.309 158.664C259.613 158.547 259.845 158.386 260.003 158.181C260.161 157.976 260.24 157.741 260.24 157.478Z" fill="#9EA4AE"/>
<path d="M411.502 215.388L398.672 228.218M398.672 215.388L411.502 228.218" stroke="#091B35" stroke-width="1.5"/>
<rect x="365.209" y="219.193" width="15.6066" height="11.9409" rx="2.25" stroke="#091B35" stroke-width="1.5"/>
<path d="M388.897 219.054V214.279C388.897 211.518 386.659 209.279 383.897 209.279H382.9C380.139 209.279 377.9 211.518 377.9 214.279L377.9 219.054" stroke="#091B35" stroke-width="1.5"/>
<rect x="214.194" y="194.25" width="138.018" height="46.3759" rx="8.75" fill="#F6F6F6" stroke="#E5E5E5" stroke-width="2.5"/>
<rect x="70.0098" y="194.25" width="133.131" height="46.3759" rx="8.75" fill="#F6F6F6" stroke="#E5E5E5" stroke-width="2.5"/>
<path d="M47.9971 220.242V222H40.2158V220.5L43.8955 216.555C44.2653 216.143 44.557 215.781 44.7705 215.469C44.984 215.151 45.1377 214.867 45.2314 214.617C45.3304 214.362 45.3799 214.12 45.3799 213.891C45.3799 213.547 45.3226 213.253 45.208 213.008C45.0934 212.758 44.9242 212.565 44.7002 212.43C44.4814 212.294 44.2106 212.227 43.8877 212.227C43.5439 212.227 43.2471 212.31 42.9971 212.477C42.7523 212.643 42.5648 212.875 42.4346 213.172C42.3096 213.469 42.2471 213.805 42.2471 214.18H39.9893C39.9893 213.503 40.1507 212.883 40.4736 212.32C40.7965 211.753 41.2523 211.302 41.8408 210.969C42.4294 210.63 43.1273 210.461 43.9346 210.461C44.7314 210.461 45.4033 210.591 45.9502 210.852C46.5023 211.107 46.9189 211.477 47.2002 211.961C47.4867 212.44 47.6299 213.013 47.6299 213.68C47.6299 214.055 47.57 214.422 47.4502 214.781C47.3304 215.136 47.1585 215.49 46.9346 215.844C46.7158 216.193 46.4502 216.547 46.1377 216.906C45.8252 217.266 45.4788 217.638 45.0986 218.024L43.1221 220.242H47.9971Z" fill="#091B35"/>
<path d="M83.3867 219.133L85.9268 210.203H87.1572L86.4453 213.675L83.7119 223H82.4902L83.3867 219.133ZM80.7588 210.203L82.7803 218.957L83.3867 223H82.1738L79.0713 210.203H80.7588ZM90.4443 218.948L92.4219 210.203H94.1182L91.0244 223H89.8115L90.4443 218.948ZM87.3418 210.203L89.8115 219.133L90.708 223H89.4863L86.8496 213.675L86.1289 210.203H87.3418ZM99.418 223.176C98.7559 223.176 98.1553 223.065 97.6162 222.842C97.083 222.613 96.623 222.294 96.2363 221.884C95.8555 221.474 95.5625 220.987 95.3574 220.425C95.1523 219.862 95.0498 219.247 95.0498 218.579V218.21C95.0498 217.437 95.1641 216.748 95.3926 216.145C95.6211 215.535 95.9316 215.02 96.3242 214.598C96.7168 214.176 97.1621 213.857 97.6602 213.64C98.1582 213.423 98.6738 213.315 99.207 213.315C99.8867 213.315 100.473 213.432 100.965 213.666C101.463 213.901 101.87 214.229 102.187 214.651C102.503 215.067 102.737 215.559 102.89 216.127C103.042 216.69 103.118 217.305 103.118 217.973V218.702H96.0166V217.375H101.492V217.252C101.469 216.83 101.381 216.42 101.229 216.022C101.082 215.623 100.848 215.295 100.525 215.037C100.203 214.779 99.7637 214.651 99.207 214.651C98.8379 214.651 98.498 214.73 98.1875 214.888C97.877 215.04 97.6104 215.269 97.3877 215.573C97.165 215.878 96.9922 216.25 96.8691 216.69C96.7461 217.129 96.6846 217.636 96.6846 218.21V218.579C96.6846 219.03 96.7461 219.455 96.8691 219.854C96.998 220.246 97.1826 220.592 97.4229 220.891C97.6689 221.19 97.9648 221.424 98.3105 221.594C98.6621 221.764 99.0605 221.849 99.5059 221.849C100.08 221.849 100.566 221.732 100.965 221.497C101.363 221.263 101.712 220.949 102.011 220.557L102.995 221.339C102.79 221.65 102.529 221.945 102.213 222.227C101.896 222.508 101.507 222.736 101.044 222.912C100.587 223.088 100.045 223.176 99.418 223.176ZM106.783 213.49V223H105.148V213.49H106.783ZM105.025 210.968C105.025 210.704 105.104 210.482 105.263 210.3C105.427 210.118 105.667 210.027 105.983 210.027C106.294 210.027 106.531 210.118 106.695 210.3C106.865 210.482 106.95 210.704 106.95 210.968C106.95 211.22 106.865 211.437 106.695 211.618C106.531 211.794 106.294 211.882 105.983 211.882C105.667 211.882 105.427 211.794 105.263 211.618C105.104 211.437 105.025 211.22 105.025 210.968ZM115.555 213.49H117.031V222.798C117.031 223.636 116.861 224.351 116.521 224.943C116.182 225.534 115.707 225.983 115.098 226.287C114.494 226.598 113.797 226.753 113.006 226.753C112.678 226.753 112.291 226.7 111.846 226.595C111.406 226.495 110.973 226.322 110.545 226.076C110.123 225.836 109.769 225.511 109.481 225.101L110.334 224.134C110.732 224.614 111.148 224.948 111.582 225.136C112.021 225.323 112.455 225.417 112.883 225.417C113.398 225.417 113.844 225.32 114.219 225.127C114.594 224.934 114.884 224.647 115.089 224.266C115.3 223.891 115.405 223.428 115.405 222.877V215.582L115.555 213.49ZM109.007 218.351V218.166C109.007 217.44 109.092 216.78 109.262 216.189C109.438 215.591 109.687 215.078 110.009 214.651C110.337 214.223 110.732 213.895 111.195 213.666C111.658 213.432 112.18 213.315 112.76 213.315C113.357 213.315 113.879 213.42 114.324 213.631C114.775 213.836 115.156 214.138 115.467 214.536C115.783 214.929 116.032 215.403 116.214 215.96C116.396 216.517 116.521 217.147 116.592 217.85V218.658C116.527 219.356 116.401 219.983 116.214 220.539C116.032 221.096 115.783 221.57 115.467 221.963C115.156 222.356 114.775 222.657 114.324 222.868C113.873 223.073 113.346 223.176 112.742 223.176C112.174 223.176 111.658 223.056 111.195 222.816C110.738 222.575 110.346 222.238 110.018 221.805C109.689 221.371 109.438 220.861 109.262 220.276C109.092 219.684 109.007 219.042 109.007 218.351ZM110.633 218.166V218.351C110.633 218.825 110.68 219.271 110.773 219.687C110.873 220.103 111.022 220.469 111.222 220.785C111.427 221.102 111.688 221.351 112.004 221.532C112.32 221.708 112.698 221.796 113.138 221.796C113.677 221.796 114.122 221.682 114.474 221.453C114.825 221.225 115.104 220.923 115.309 220.548C115.52 220.173 115.684 219.766 115.801 219.326V217.208C115.736 216.886 115.637 216.575 115.502 216.276C115.373 215.972 115.203 215.702 114.992 215.468C114.787 215.228 114.532 215.037 114.228 214.897C113.923 214.756 113.565 214.686 113.155 214.686C112.71 214.686 112.326 214.779 112.004 214.967C111.688 215.149 111.427 215.401 111.222 215.723C111.022 216.039 110.873 216.408 110.773 216.83C110.68 217.246 110.633 217.692 110.633 218.166ZM121.127 209.5V223H119.501V209.5H121.127ZM120.74 217.885L120.063 217.859C120.069 217.208 120.166 216.608 120.354 216.057C120.541 215.5 120.805 215.017 121.145 214.607C121.484 214.196 121.889 213.88 122.357 213.657C122.832 213.429 123.356 213.315 123.931 213.315C124.399 213.315 124.821 213.379 125.196 213.508C125.571 213.631 125.891 213.83 126.154 214.106C126.424 214.381 126.629 214.738 126.77 215.178C126.91 215.611 126.98 216.142 126.98 216.769V223H125.346V216.751C125.346 216.253 125.272 215.855 125.126 215.556C124.979 215.251 124.766 215.031 124.484 214.897C124.203 214.756 123.857 214.686 123.447 214.686C123.043 214.686 122.674 214.771 122.34 214.941C122.012 215.11 121.728 215.345 121.487 215.644C121.253 215.943 121.068 216.285 120.934 216.672C120.805 217.053 120.74 217.457 120.74 217.885ZM133.396 213.49V214.738H128.255V213.49H133.396ZM129.995 211.179H131.621V220.645C131.621 220.967 131.671 221.21 131.771 221.374C131.87 221.538 131.999 221.647 132.157 221.699C132.315 221.752 132.485 221.778 132.667 221.778C132.802 221.778 132.942 221.767 133.089 221.743C133.241 221.714 133.355 221.691 133.432 221.673L133.44 223C133.312 223.041 133.142 223.079 132.931 223.114C132.726 223.155 132.477 223.176 132.184 223.176C131.785 223.176 131.419 223.097 131.085 222.939C130.751 222.78 130.484 222.517 130.285 222.148C130.092 221.773 129.995 221.269 129.995 220.636V211.179Z" fill="#9EA4AE"/>
<path d="M224.205 210.203H228.441C229.402 210.203 230.214 210.35 230.876 210.643C231.544 210.936 232.051 211.369 232.396 211.943C232.748 212.512 232.924 213.212 232.924 214.044C232.924 214.63 232.804 215.166 232.563 215.652C232.329 216.133 231.989 216.543 231.544 216.883C231.104 217.217 230.577 217.466 229.962 217.63L229.487 217.815H225.506L225.488 216.435H228.494C229.104 216.435 229.61 216.329 230.015 216.118C230.419 215.901 230.724 215.611 230.929 215.248C231.134 214.885 231.236 214.484 231.236 214.044C231.236 213.552 231.14 213.121 230.946 212.752C230.753 212.383 230.448 212.099 230.032 211.9C229.622 211.694 229.092 211.592 228.441 211.592H225.901V223H224.205V210.203ZM231.685 223L228.573 217.199L230.34 217.191L233.495 222.895V223H231.685ZM238.997 223.176C238.335 223.176 237.734 223.065 237.195 222.842C236.662 222.613 236.202 222.294 235.815 221.884C235.435 221.474 235.142 220.987 234.937 220.425C234.731 219.862 234.629 219.247 234.629 218.579V218.21C234.629 217.437 234.743 216.748 234.972 216.145C235.2 215.535 235.511 215.02 235.903 214.598C236.296 214.176 236.741 213.857 237.239 213.64C237.737 213.423 238.253 213.315 238.786 213.315C239.466 213.315 240.052 213.432 240.544 213.666C241.042 213.901 241.449 214.229 241.766 214.651C242.082 215.067 242.316 215.559 242.469 216.127C242.621 216.69 242.697 217.305 242.697 217.973V218.702H235.596V217.375H241.071V217.252C241.048 216.83 240.96 216.42 240.808 216.022C240.661 215.623 240.427 215.295 240.104 215.037C239.782 214.779 239.343 214.651 238.786 214.651C238.417 214.651 238.077 214.73 237.767 214.888C237.456 215.04 237.189 215.269 236.967 215.573C236.744 215.878 236.571 216.25 236.448 216.69C236.325 217.129 236.264 217.636 236.264 218.21V218.579C236.264 219.03 236.325 219.455 236.448 219.854C236.577 220.246 236.762 220.592 237.002 220.891C237.248 221.19 237.544 221.424 237.89 221.594C238.241 221.764 238.64 221.849 239.085 221.849C239.659 221.849 240.146 221.732 240.544 221.497C240.942 221.263 241.291 220.949 241.59 220.557L242.574 221.339C242.369 221.65 242.108 221.945 241.792 222.227C241.476 222.508 241.086 222.736 240.623 222.912C240.166 223.088 239.624 223.176 238.997 223.176ZM246.222 215.318V226.656H244.587V213.49H246.081L246.222 215.318ZM252.629 218.166V218.351C252.629 219.042 252.547 219.684 252.383 220.276C252.219 220.861 251.979 221.371 251.662 221.805C251.352 222.238 250.968 222.575 250.511 222.816C250.054 223.056 249.529 223.176 248.938 223.176C248.334 223.176 247.801 223.076 247.338 222.877C246.875 222.678 246.482 222.388 246.16 222.007C245.838 221.626 245.58 221.169 245.387 220.636C245.199 220.103 245.07 219.502 245 218.834V217.85C245.07 217.147 245.202 216.517 245.396 215.96C245.589 215.403 245.844 214.929 246.16 214.536C246.482 214.138 246.872 213.836 247.329 213.631C247.786 213.42 248.313 213.315 248.911 213.315C249.509 213.315 250.039 213.432 250.502 213.666C250.965 213.895 251.354 214.223 251.671 214.651C251.987 215.078 252.225 215.591 252.383 216.189C252.547 216.78 252.629 217.44 252.629 218.166ZM250.994 218.351V218.166C250.994 217.692 250.944 217.246 250.845 216.83C250.745 216.408 250.59 216.039 250.379 215.723C250.174 215.401 249.91 215.149 249.588 214.967C249.266 214.779 248.882 214.686 248.437 214.686C248.026 214.686 247.669 214.756 247.364 214.897C247.065 215.037 246.811 215.228 246.6 215.468C246.389 215.702 246.216 215.972 246.081 216.276C245.952 216.575 245.855 216.886 245.791 217.208V219.484C245.908 219.895 246.072 220.281 246.283 220.645C246.494 221.002 246.775 221.292 247.127 221.515C247.479 221.732 247.921 221.84 248.454 221.84C248.894 221.84 249.271 221.749 249.588 221.568C249.91 221.38 250.174 221.125 250.379 220.803C250.59 220.481 250.745 220.111 250.845 219.695C250.944 219.274 250.994 218.825 250.994 218.351ZM260.24 220.478C260.24 220.243 260.188 220.026 260.082 219.827C259.982 219.622 259.774 219.438 259.458 219.274C259.147 219.104 258.679 218.957 258.052 218.834C257.524 218.723 257.047 218.591 256.619 218.439C256.197 218.286 255.837 218.102 255.538 217.885C255.245 217.668 255.02 217.413 254.861 217.12C254.703 216.827 254.624 216.484 254.624 216.092C254.624 215.717 254.706 215.362 254.87 215.028C255.04 214.694 255.277 214.399 255.582 214.141C255.893 213.883 256.265 213.681 256.698 213.534C257.132 213.388 257.615 213.315 258.148 213.315C258.91 213.315 259.561 213.449 260.1 213.719C260.639 213.988 261.052 214.349 261.339 214.8C261.626 215.245 261.77 215.74 261.77 216.285H260.144C260.144 216.022 260.064 215.767 259.906 215.521C259.754 215.269 259.528 215.061 259.229 214.897C258.937 214.733 258.576 214.651 258.148 214.651C257.697 214.651 257.331 214.721 257.05 214.861C256.774 214.996 256.572 215.169 256.443 215.38C256.32 215.591 256.259 215.814 256.259 216.048C256.259 216.224 256.288 216.382 256.347 216.523C256.411 216.657 256.522 216.783 256.681 216.901C256.839 217.012 257.062 217.117 257.349 217.217C257.636 217.317 258.002 217.416 258.447 217.516C259.227 217.692 259.868 217.902 260.372 218.149C260.876 218.395 261.251 218.696 261.497 219.054C261.743 219.411 261.866 219.845 261.866 220.355C261.866 220.771 261.778 221.151 261.603 221.497C261.433 221.843 261.184 222.142 260.855 222.394C260.533 222.64 260.146 222.833 259.695 222.974C259.25 223.109 258.749 223.176 258.192 223.176C257.354 223.176 256.646 223.026 256.065 222.728C255.485 222.429 255.046 222.042 254.747 221.568C254.448 221.093 254.299 220.592 254.299 220.065H255.934C255.957 220.51 256.086 220.864 256.32 221.128C256.555 221.386 256.842 221.57 257.182 221.682C257.521 221.787 257.858 221.84 258.192 221.84C258.638 221.84 259.01 221.781 259.309 221.664C259.613 221.547 259.845 221.386 260.003 221.181C260.161 220.976 260.24 220.741 260.24 220.478Z" fill="#9EA4AE"/>
<rect x="16.2188" y="14.9971" width="413.002" height="100.196" rx="15" fill="#867FF1"/>
<circle cx="74.8707" cy="65.0948" r="41.5445" fill="#A49AF4"/>
<path fill-rule="evenodd" clip-rule="evenodd" d="M55.0892 48.0305C55.0892 54.2158 56.0705 60.0929 57.1862 65.3017C57.9462 68.8517 58.7763 73.968 59.1021 77.8472C59.2499 79.6052 60.2337 83.7684 59.0019 85.0004C58.6917 85.3105 57.8798 85.532 57.3584 85.6808L51.8778 87.3006C50.266 87.7991 47.9893 88.041 47.9893 91.0293C47.9893 92.0604 49.0657 92.3726 49.9251 92.5793C50.8994 92.8139 51.747 93.1028 52.7375 93.3817C55.5338 94.1687 58.5254 94.8231 61.4691 95.2361C62.4798 95.3777 63.744 95.5594 64.7683 95.5516C65.9232 95.5424 67.1573 95.8541 67.9509 95.3723C70.1352 94.0457 68.7458 89.4568 68.6462 87.4114L68.1271 76.3091C68.1355 69.5157 68.5887 70.2665 70.1672 63.8874C72.6317 53.9267 72.1925 51.4964 70.4877 41.1498C70.1519 39.1116 69.7288 37.2706 69.3994 35.2654C69.256 34.3905 69.1808 33.0523 68.6196 32.5595C67.8741 31.9046 60.0864 32.1478 58.7037 32.1478C57.1287 32.1478 57.0226 33.5849 56.7161 34.9373C56.395 36.354 56.1565 37.6017 55.8744 39.0025C55.3511 41.601 55.0892 44.9551 55.0892 48.0305Z" fill="#484E68"/>
<path fill-rule="evenodd" clip-rule="evenodd" d="M77.5508 53.4538C77.5508 60.269 80.036 65.2625 81.038 71.1423C81.3099 72.7388 81.3034 74.2892 81.2935 76.1807C81.2884 77.1967 81.4308 77.6471 81.4254 78.6317C81.4184 79.8366 81.3792 82.8331 81.5175 83.8338L81.3701 89.0388C80.9483 91.9557 81.0291 94.6122 84.4718 95.47C86.8417 96.0603 96.1899 93.4038 99.2889 92.6299C99.7921 92.5041 100.319 92.4585 100.712 92.2454C102.216 91.4282 101.215 88.392 99.3427 87.8258C98.0091 87.4225 96.6162 87.0884 95.2636 86.7407C92.4179 86.0093 90.0727 85.9332 90.0727 81.2159C90.0727 77.42 91.5717 68.2227 92.3416 64.7625L93.698 56.8222C94.6887 48.1956 94.6245 43.5044 92.7322 35.1693C92.5756 34.479 92.4719 33.7777 92.2562 33.1919C92.0663 32.6754 91.5459 32.1479 90.8472 32.1479C89.5505 32.1479 81.6231 31.9439 80.8728 32.501C80.2168 32.9879 80.2098 34.2675 80.0368 35.1511C79.647 37.1447 79.2867 39.0394 78.9536 41.0402C78.3253 44.8135 77.5508 49.0732 77.5508 53.4538Z" fill="#484E68"/>
<path fill-rule="evenodd" clip-rule="evenodd" d="M62.3955 47.3849L62.3963 49.4507C62.3982 53.1257 62.7528 67.7548 66.5788 67.4052C69.3391 65.8016 69.19 53.2364 68.5931 49.6286C68.1804 47.1325 66.3609 40.0723 65.4629 37.3964C65.0846 36.2697 64.5909 34.3231 63.6098 34.1243C62.5296 34.9473 62.6617 38.6734 62.5895 40.2846C62.4842 42.6353 62.3942 45.0271 62.3955 47.3849Z" fill="#FE004F"/>
<path fill-rule="evenodd" clip-rule="evenodd" d="M80.2481 54.4867C80.2535 57.6385 80.3719 60.7486 81.0194 63.8061C81.6434 66.7544 82.8792 69.2489 84.6742 65.6121C87.4813 59.925 86.8733 44.2543 86.3986 36.9302C86.3309 35.8862 86.281 34.6308 85.5546 34.1216C84.0658 34.48 82.4539 41.7552 82.0456 43.363C81.0836 47.15 80.2411 50.2803 80.2481 54.4867Z" fill="#FE004F"/>
<path fill-rule="evenodd" clip-rule="evenodd" d="M61.4364 46.9973C61.439 44.8898 61.4839 42.7742 61.5387 40.6701C61.5752 39.2631 62.0244 35.4052 61.2851 34.5851C59.4868 34.8984 57.2958 43.4594 56.7924 45.8545C55.7597 50.7677 56.1205 55.4382 57.2187 60.2429C57.6305 62.0433 58.4816 64.731 59.4771 65.8515C60.1356 66.5926 61.4425 67.2684 61.9398 65.8617C62.6219 63.9323 61.7286 57.3606 61.5941 54.879C61.4509 52.2429 61.4447 49.6358 61.4364 46.9973Z" fill="#FE004F"/>
<path fill-rule="evenodd" clip-rule="evenodd" d="M87.8779 34.5894C87.1657 35.2711 87.5437 37.7637 87.5784 38.8611C87.7259 43.5212 87.8105 48.2885 87.6625 52.9357C87.5655 55.9789 87.2243 58.867 87.0046 61.8834C86.9199 63.0482 86.4517 67.9862 89.0503 66.3798C92.0204 64.5436 93.3265 53.3137 92.8685 48.7206C92.6194 46.2229 91.8119 43.213 91.0769 40.9579C90.5643 39.3857 89.2077 34.7769 87.8779 34.5894Z" fill="#FE004F"/>
<path d="M140.686 67.5984H141.998C141.93 68.2273 141.75 68.7901 141.458 69.2869C141.166 69.7836 140.754 70.1778 140.221 70.4695C139.688 70.7566 139.022 70.9001 138.225 70.9001C137.641 70.9001 137.11 70.7908 136.632 70.572C136.158 70.3533 135.75 70.0434 135.408 69.6423C135.066 69.2367 134.802 68.7514 134.615 68.1863C134.433 67.6166 134.342 66.9832 134.342 66.2859V65.2947C134.342 64.5974 134.433 63.9662 134.615 63.4011C134.802 62.8315 135.069 62.3438 135.415 61.9382C135.766 61.5326 136.188 61.2205 136.68 61.0017C137.172 60.783 137.726 60.6736 138.341 60.6736C139.093 60.6736 139.729 60.8149 140.248 61.0974C140.768 61.38 141.171 61.7719 141.458 62.2732C141.75 62.7699 141.93 63.3464 141.998 64.0027H140.686C140.622 63.5378 140.503 63.1391 140.33 62.8064C140.157 62.4692 139.911 62.2094 139.592 62.0271C139.273 61.8448 138.856 61.7537 138.341 61.7537C137.899 61.7537 137.509 61.838 137.172 62.0066C136.839 62.1752 136.559 62.4145 136.331 62.7244C136.108 63.0343 135.939 63.4057 135.825 63.8386C135.711 64.2716 135.654 64.7524 135.654 65.281V66.2859C135.654 66.7735 135.704 67.2315 135.805 67.6599C135.91 68.0883 136.067 68.4643 136.276 68.7878C136.486 69.1114 136.753 69.3666 137.076 69.5535C137.4 69.7358 137.783 69.8269 138.225 69.8269C138.785 69.8269 139.232 69.738 139.564 69.5603C139.897 69.3826 140.148 69.1274 140.316 68.7947C140.49 68.462 140.613 68.0632 140.686 67.5984ZM148.13 69.0544V63.3669H149.401V70.7634H148.191L148.13 69.0544ZM148.369 67.4958L148.896 67.4822C148.896 67.9744 148.843 68.4301 148.738 68.8494C148.638 69.2641 148.474 69.6241 148.246 69.9294C148.018 70.2348 147.72 70.474 147.351 70.6472C146.981 70.8158 146.533 70.9001 146.004 70.9001C145.644 70.9001 145.313 70.8477 145.013 70.7429C144.716 70.6381 144.461 70.4763 144.247 70.2576C144.033 70.0388 143.867 69.754 143.748 69.4031C143.634 69.0522 143.577 68.6306 143.577 68.1384V63.3669H144.842V68.1521C144.842 68.4848 144.878 68.7605 144.951 68.9792C145.029 69.1934 145.131 69.3643 145.259 69.4919C145.391 69.615 145.537 69.7016 145.696 69.7517C145.86 69.8018 146.029 69.8269 146.202 69.8269C146.74 69.8269 147.166 69.7244 147.48 69.5193C147.795 69.3097 148.021 69.0294 148.157 68.6785C148.299 68.323 148.369 67.9288 148.369 67.4958ZM155.636 68.8015C155.636 68.6192 155.595 68.4506 155.513 68.2957C155.435 68.1361 155.273 67.9926 155.027 67.865C154.786 67.7328 154.421 67.6189 153.934 67.5232C153.523 67.4366 153.152 67.3341 152.819 67.2156C152.491 67.0971 152.211 66.9535 151.979 66.7849C151.751 66.6163 151.575 66.4181 151.452 66.1902C151.329 65.9623 151.268 65.6957 151.268 65.3904C151.268 65.0987 151.331 64.823 151.459 64.5632C151.591 64.3035 151.776 64.0733 152.013 63.8728C152.254 63.6723 152.544 63.5151 152.881 63.4011C153.218 63.2872 153.594 63.2302 154.009 63.2302C154.601 63.2302 155.107 63.335 155.526 63.5447C155.946 63.7543 156.267 64.0346 156.49 64.3855C156.714 64.7319 156.825 65.1169 156.825 65.5408H155.561C155.561 65.3357 155.499 65.1375 155.376 64.946C155.257 64.7501 155.082 64.5883 154.85 64.4607C154.622 64.3331 154.341 64.2693 154.009 64.2693C153.658 64.2693 153.373 64.324 153.154 64.4333C152.94 64.5382 152.783 64.6726 152.683 64.8367C152.587 65.0007 152.539 65.1739 152.539 65.3562C152.539 65.4929 152.562 65.616 152.607 65.7253C152.658 65.8302 152.744 65.9281 152.867 66.0193C152.99 66.1059 153.163 66.1879 153.387 66.2654C153.61 66.3429 153.895 66.4203 154.241 66.4978C154.847 66.6345 155.346 66.7986 155.738 66.99C156.13 67.1814 156.422 67.4161 156.613 67.6941C156.805 67.9721 156.9 68.3093 156.9 68.7058C156.9 69.0294 156.832 69.3256 156.695 69.5945C156.563 69.8634 156.369 70.0958 156.114 70.2917C155.864 70.4832 155.563 70.6335 155.212 70.7429C154.866 70.8477 154.476 70.9001 154.043 70.9001C153.391 70.9001 152.84 70.7839 152.389 70.5515C151.938 70.3191 151.596 70.0183 151.363 69.6492C151.131 69.28 151.015 68.8904 151.015 68.4802H152.286C152.304 68.8266 152.405 69.1023 152.587 69.3074C152.769 69.5079 152.993 69.6514 153.257 69.738C153.521 69.8201 153.783 69.8611 154.043 69.8611C154.389 69.8611 154.679 69.8155 154.911 69.7244C155.148 69.6332 155.328 69.5079 155.451 69.3484C155.574 69.1889 155.636 69.0066 155.636 68.8015ZM161.658 63.3669V64.3376H157.659V63.3669H161.658ZM159.013 61.5691H160.277V68.9314C160.277 69.182 160.316 69.3712 160.394 69.4988C160.471 69.6264 160.571 69.7107 160.694 69.7517C160.817 69.7927 160.95 69.8132 161.091 69.8132C161.196 69.8132 161.305 69.8041 161.419 69.7859C161.537 69.7631 161.626 69.7449 161.686 69.7312L161.692 70.7634C161.592 70.7953 161.46 70.825 161.296 70.8523C161.136 70.8842 160.943 70.9001 160.715 70.9001C160.405 70.9001 160.12 70.8386 159.86 70.7156C159.601 70.5925 159.393 70.3875 159.238 70.1003C159.088 69.8087 159.013 69.4167 159.013 68.9246V61.5691ZM162.67 67.1472V66.99C162.67 66.4568 162.747 65.9623 162.902 65.5066C163.057 65.0463 163.281 64.6475 163.572 64.3103C163.864 63.9685 164.217 63.7042 164.632 63.5173C165.047 63.3259 165.511 63.2302 166.026 63.2302C166.546 63.2302 167.013 63.3259 167.428 63.5173C167.847 63.7042 168.202 63.9685 168.494 64.3103C168.79 64.6475 169.016 65.0463 169.171 65.5066C169.326 65.9623 169.403 66.4568 169.403 66.99V67.1472C169.403 67.6804 169.326 68.1749 169.171 68.6306C169.016 69.0863 168.79 69.4851 168.494 69.8269C168.202 70.1641 167.849 70.4285 167.435 70.6199C167.024 70.8067 166.56 70.9001 166.04 70.9001C165.521 70.9001 165.053 70.8067 164.639 70.6199C164.224 70.4285 163.868 70.1641 163.572 69.8269C163.281 69.4851 163.057 69.0863 162.902 68.6306C162.747 68.1749 162.67 67.6804 162.67 67.1472ZM163.935 66.99V67.1472C163.935 67.5164 163.978 67.865 164.064 68.1931C164.151 68.5167 164.281 68.8038 164.454 69.0544C164.632 69.3051 164.853 69.5033 165.117 69.6492C165.382 69.7904 165.689 69.8611 166.04 69.8611C166.386 69.8611 166.689 69.7904 166.949 69.6492C167.214 69.5033 167.432 69.3051 167.605 69.0544C167.779 68.8038 167.909 68.5167 167.995 68.1931C168.086 67.865 168.132 67.5164 168.132 67.1472V66.99C168.132 66.6254 168.086 66.2813 167.995 65.9578C167.909 65.6296 167.776 65.3403 167.599 65.0896C167.425 64.8344 167.207 64.6339 166.942 64.488C166.683 64.3422 166.377 64.2693 166.026 64.2693C165.68 64.2693 165.375 64.3422 165.11 64.488C164.851 64.6339 164.632 64.8344 164.454 65.0896C164.281 65.3403 164.151 65.6296 164.064 65.9578C163.978 66.2813 163.935 66.6254 163.935 66.99ZM172.247 64.8367V70.7634H170.976V63.3669H172.179L172.247 64.8367ZM171.987 66.7849L171.399 66.7644C171.404 66.2585 171.47 65.7914 171.598 65.363C171.725 64.9301 171.914 64.5541 172.165 64.2351C172.416 63.9161 172.728 63.67 173.102 63.4968C173.475 63.3191 173.908 63.2302 174.4 63.2302C174.747 63.2302 175.066 63.2804 175.357 63.3806C175.649 63.4763 175.902 63.629 176.116 63.8386C176.33 64.0483 176.497 64.3171 176.615 64.6453C176.734 64.9734 176.793 65.3699 176.793 65.8347V70.7634H175.528V65.8962C175.528 65.5089 175.462 65.199 175.33 64.9666C175.202 64.7341 175.02 64.5655 174.783 64.4607C174.546 64.3513 174.268 64.2966 173.949 64.2966C173.576 64.2966 173.263 64.3627 173.013 64.4949C172.762 64.627 172.562 64.8093 172.411 65.0417C172.261 65.2742 172.151 65.5408 172.083 65.8416C172.019 66.1378 171.987 66.4522 171.987 66.7849ZM176.779 66.0876L175.932 66.3474C175.936 65.9418 176.002 65.5522 176.13 65.1785C176.262 64.8048 176.451 64.4721 176.697 64.1804C176.948 63.8888 177.256 63.6586 177.62 63.49C177.985 63.3168 178.402 63.2302 178.871 63.2302C179.268 63.2302 179.618 63.2826 179.924 63.3875C180.234 63.4923 180.493 63.6541 180.703 63.8728C180.917 64.087 181.079 64.3627 181.188 64.7C181.298 65.0372 181.353 65.4382 181.353 65.9031V70.7634H180.081V65.8894C180.081 65.4747 180.015 65.1534 179.883 64.9255C179.755 64.6931 179.573 64.5313 179.336 64.4402C179.104 64.3445 178.826 64.2966 178.502 64.2966C178.224 64.2966 177.978 64.3445 177.764 64.4402C177.549 64.5359 177.369 64.6681 177.224 64.8367C177.078 65.0007 176.966 65.1899 176.889 65.4041C176.816 65.6182 176.779 65.8461 176.779 66.0876ZM184.641 63.3669V70.7634H183.369V63.3669H184.641ZM183.273 61.405C183.273 61.2 183.335 61.0268 183.458 60.8855C183.586 60.7442 183.772 60.6736 184.019 60.6736C184.26 60.6736 184.445 60.7442 184.572 60.8855C184.704 61.0268 184.771 61.2 184.771 61.405C184.771 61.601 184.704 61.7696 184.572 61.9109C184.445 62.0476 184.26 62.116 184.019 62.116C183.772 62.116 183.586 62.0476 183.458 61.9109C183.335 61.7696 183.273 61.601 183.273 61.405ZM192.181 69.7244V70.7634H186.801V69.7244H192.181ZM191.982 64.2625L187.088 70.7634H186.315V69.8337L191.176 63.3669H191.982V64.2625ZM191.422 63.3669V64.4128H186.37V63.3669H191.422ZM196.576 70.9001C196.061 70.9001 195.594 70.8136 195.175 70.6404C194.76 70.4626 194.402 70.2143 194.102 69.8953C193.805 69.5763 193.577 69.198 193.418 68.7605C193.258 68.323 193.179 67.8445 193.179 67.325V67.0378C193.179 66.4363 193.268 65.9008 193.445 65.4314C193.623 64.9574 193.865 64.5564 194.17 64.2283C194.475 63.9001 194.822 63.6518 195.209 63.4832C195.596 63.3145 195.997 63.2302 196.412 63.2302C196.941 63.2302 197.396 63.3214 197.779 63.5037C198.167 63.686 198.483 63.9412 198.729 64.2693C198.976 64.5929 199.158 64.9757 199.276 65.4177C199.395 65.8552 199.454 66.3337 199.454 66.8533V67.4207H193.931V66.3884H198.189V66.2927C198.171 65.9646 198.103 65.6456 197.984 65.3357C197.87 65.0258 197.688 64.7706 197.438 64.5701C197.187 64.3695 196.845 64.2693 196.412 64.2693C196.125 64.2693 195.861 64.3308 195.619 64.4539C195.378 64.5723 195.17 64.7501 194.997 64.9871C194.824 65.224 194.689 65.5134 194.594 65.8552C194.498 66.197 194.45 66.5912 194.45 67.0378V67.325C194.45 67.6759 194.498 68.0063 194.594 68.3162C194.694 68.6215 194.838 68.8904 195.024 69.1228C195.216 69.3552 195.446 69.5375 195.715 69.6697C195.988 69.8018 196.298 69.8679 196.645 69.8679C197.091 69.8679 197.469 69.7768 197.779 69.5945C198.089 69.4122 198.36 69.1684 198.593 68.863L199.358 69.4714C199.199 69.713 198.996 69.9431 198.75 70.1619C198.504 70.3806 198.201 70.5583 197.841 70.6951C197.485 70.8318 197.064 70.9001 196.576 70.9001ZM206.481 69.9978L208.539 63.3669H209.893L206.926 71.905C206.857 72.0873 206.766 72.2833 206.652 72.4929C206.543 72.7071 206.402 72.9099 206.229 73.1013C206.055 73.2927 205.846 73.4477 205.6 73.5662C205.358 73.6892 205.069 73.7507 204.731 73.7507C204.631 73.7507 204.504 73.7371 204.349 73.7097C204.194 73.6824 204.084 73.6596 204.021 73.6414L204.014 72.616C204.05 72.6205 204.107 72.6251 204.185 72.6296C204.267 72.6388 204.324 72.6433 204.355 72.6433C204.643 72.6433 204.886 72.6046 205.087 72.5271C205.287 72.4542 205.456 72.3289 205.593 72.1511C205.734 71.9779 205.855 71.7387 205.955 71.4333L206.481 69.9978ZM204.971 63.3669L206.892 69.1091L207.22 70.4421L206.311 70.907L203.59 63.3669H204.971ZM210.59 67.1472V66.99C210.59 66.4568 210.667 65.9623 210.822 65.5066C210.977 65.0463 211.201 64.6475 211.492 64.3103C211.784 63.9685 212.137 63.7042 212.552 63.5173C212.966 63.3259 213.431 63.2302 213.946 63.2302C214.466 63.2302 214.933 63.3259 215.348 63.5173C215.767 63.7042 216.122 63.9685 216.414 64.3103C216.71 64.6475 216.936 65.0463 217.091 65.5066C217.246 65.9623 217.323 66.4568 217.323 66.99V67.1472C217.323 67.6804 217.246 68.1749 217.091 68.6306C216.936 69.0863 216.71 69.4851 216.414 69.8269C216.122 70.1641 215.769 70.4285 215.354 70.6199C214.944 70.8067 214.479 70.9001 213.96 70.9001C213.44 70.9001 212.973 70.8067 212.559 70.6199C212.144 70.4285 211.788 70.1641 211.492 69.8269C211.201 69.4851 210.977 69.0863 210.822 68.6306C210.667 68.1749 210.59 67.6804 210.59 67.1472ZM211.854 66.99V67.1472C211.854 67.5164 211.898 67.865 211.984 68.1931C212.071 68.5167 212.201 68.8038 212.374 69.0544C212.552 69.3051 212.773 69.5033 213.037 69.6492C213.301 69.7904 213.609 69.8611 213.96 69.8611C214.306 69.8611 214.609 69.7904 214.869 69.6492C215.133 69.5033 215.352 69.3051 215.525 69.0544C215.699 68.8038 215.828 68.5167 215.915 68.1931C216.006 67.865 216.052 67.5164 216.052 67.1472V66.99C216.052 66.6254 216.006 66.2813 215.915 65.9578C215.828 65.6296 215.696 65.3403 215.519 65.0896C215.345 64.8344 215.127 64.6339 214.862 64.488C214.603 64.3422 214.297 64.2693 213.946 64.2693C213.6 64.2693 213.295 64.3422 213.03 64.488C212.771 64.6339 212.552 64.8344 212.374 65.0896C212.201 65.3403 212.071 65.6296 211.984 65.9578C211.898 66.2813 211.854 66.6254 211.854 66.99ZM223.435 69.0544V63.3669H224.706V70.7634H223.496L223.435 69.0544ZM223.674 67.4958L224.2 67.4822C224.2 67.9744 224.148 68.4301 224.043 68.8494C223.943 69.2641 223.779 69.6241 223.551 69.9294C223.323 70.2348 223.024 70.474 222.655 70.6472C222.286 70.8158 221.837 70.9001 221.309 70.9001C220.949 70.9001 220.618 70.8477 220.317 70.7429C220.021 70.6381 219.766 70.4763 219.552 70.2576C219.338 70.0388 219.171 69.754 219.053 69.4031C218.939 69.0522 218.882 68.6306 218.882 68.1384V63.3669H220.146V68.1521C220.146 68.4848 220.183 68.7605 220.256 68.9792C220.333 69.1934 220.436 69.3643 220.563 69.4919C220.696 69.615 220.841 69.7016 221.001 69.7517C221.165 69.8018 221.334 69.8269 221.507 69.8269C222.045 69.8269 222.471 69.7244 222.785 69.5193C223.1 69.3097 223.325 69.0294 223.462 68.6785C223.603 68.323 223.674 67.9288 223.674 67.4958ZM227.898 64.5291V70.7634H226.634V63.3669H227.864L227.898 64.5291ZM230.209 63.3259L230.202 64.5017C230.097 64.4789 229.997 64.4653 229.901 64.4607C229.81 64.4516 229.705 64.447 229.587 64.447C229.295 64.447 229.038 64.4926 228.814 64.5837C228.591 64.6749 228.402 64.8025 228.247 64.9666C228.092 65.1306 227.969 65.3266 227.878 65.5544C227.791 65.7778 227.734 66.0238 227.707 66.2927L227.352 66.4978C227.352 66.0512 227.395 65.6319 227.481 65.24C227.573 64.8481 227.712 64.5017 227.898 64.2009C228.085 63.8956 228.322 63.6586 228.609 63.49C228.901 63.3168 229.247 63.2302 229.648 63.2302C229.74 63.2302 229.844 63.2416 229.963 63.2644C230.081 63.2826 230.163 63.3031 230.209 63.3259ZM236.724 69.4509L238.624 63.3669H239.458L239.294 64.5769L237.359 70.7634H236.546L236.724 69.4509ZM235.445 63.3669L237.065 69.5193L237.182 70.7634H236.327L234.181 63.3669H235.445ZM241.276 69.4714L242.821 63.3669H244.079L241.933 70.7634H241.085L241.276 69.4714ZM239.643 63.3669L241.502 69.3484L241.714 70.7634H240.907L238.918 64.5632L238.754 63.3669H239.643ZM245.043 67.1472V66.99C245.043 66.4568 245.12 65.9623 245.275 65.5066C245.43 65.0463 245.654 64.6475 245.945 64.3103C246.237 63.9685 246.59 63.7042 247.005 63.5173C247.42 63.3259 247.884 63.2302 248.399 63.2302C248.919 63.2302 249.386 63.3259 249.801 63.5173C250.22 63.7042 250.576 63.9685 250.867 64.3103C251.163 64.6475 251.389 65.0463 251.544 65.5066C251.699 65.9623 251.776 66.4568 251.776 66.99V67.1472C251.776 67.6804 251.699 68.1749 251.544 68.6306C251.389 69.0863 251.163 69.4851 250.867 69.8269C250.576 70.1641 250.222 70.4285 249.808 70.6199C249.397 70.8067 248.933 70.9001 248.413 70.9001C247.894 70.9001 247.426 70.8067 247.012 70.6199C246.597 70.4285 246.242 70.1641 245.945 69.8269C245.654 69.4851 245.43 69.0863 245.275 68.6306C245.12 68.1749 245.043 67.6804 245.043 67.1472ZM246.308 66.99V67.1472C246.308 67.5164 246.351 67.865 246.438 68.1931C246.524 68.5167 246.654 68.8038 246.827 69.0544C247.005 69.3051 247.226 69.5033 247.49 69.6492C247.755 69.7904 248.062 69.8611 248.413 69.8611C248.759 69.8611 249.062 69.7904 249.322 69.6492C249.587 69.5033 249.805 69.3051 249.979 69.0544C250.152 68.8038 250.282 68.5167 250.368 68.1931C250.459 67.865 250.505 67.5164 250.505 67.1472V66.99C250.505 66.6254 250.459 66.2813 250.368 65.9578C250.282 65.6296 250.149 65.3403 249.972 65.0896C249.799 64.8344 249.58 64.6339 249.315 64.488C249.056 64.3422 248.75 64.2693 248.399 64.2693C248.053 64.2693 247.748 64.3422 247.483 64.488C247.224 64.6339 247.005 64.8344 246.827 65.0896C246.654 65.3403 246.524 65.6296 246.438 65.9578C246.351 66.2813 246.308 66.6254 246.308 66.99ZM254.627 64.5291V70.7634H253.362V63.3669H254.593L254.627 64.5291ZM256.938 63.3259L256.931 64.5017C256.826 64.4789 256.726 64.4653 256.63 64.4607C256.539 64.4516 256.434 64.447 256.315 64.447C256.024 64.447 255.766 64.4926 255.543 64.5837C255.32 64.6749 255.131 64.8025 254.976 64.9666C254.821 65.1306 254.698 65.3266 254.606 65.5544C254.52 65.7778 254.463 66.0238 254.436 66.2927L254.08 66.4978C254.08 66.0512 254.123 65.6319 254.21 65.24C254.301 64.8481 254.44 64.5017 254.627 64.2009C254.814 63.8956 255.051 63.6586 255.338 63.49C255.63 63.3168 255.976 63.2302 256.377 63.2302C256.468 63.2302 256.573 63.2416 256.691 63.2644C256.81 63.2826 256.892 63.3031 256.938 63.3259ZM259.378 60.2634V70.7634H258.106V60.2634H259.378ZM263.896 63.3669L260.67 66.8191L258.865 68.6921L258.763 67.3455L260.055 65.8005L262.352 63.3669H263.896ZM262.741 70.7634L260.103 67.2361L260.759 66.1082L264.231 70.7634H262.741ZM264.867 67.1472V66.99C264.867 66.4568 264.945 65.9623 265.1 65.5066C265.255 65.0463 265.478 64.6475 265.77 64.3103C266.061 63.9685 266.414 63.7042 266.829 63.5173C267.244 63.3259 267.709 63.2302 268.224 63.2302C268.743 63.2302 269.21 63.3259 269.625 63.5173C270.044 63.7042 270.4 63.9685 270.691 64.3103C270.988 64.6475 271.213 65.0463 271.368 65.5066C271.523 65.9623 271.601 66.4568 271.601 66.99V67.1472C271.601 67.6804 271.523 68.1749 271.368 68.6306C271.213 69.0863 270.988 69.4851 270.691 69.8269C270.4 70.1641 270.047 70.4285 269.632 70.6199C269.222 70.8067 268.757 70.9001 268.237 70.9001C267.718 70.9001 267.251 70.8067 266.836 70.6199C266.421 70.4285 266.066 70.1641 265.77 69.8269C265.478 69.4851 265.255 69.0863 265.1 68.6306C264.945 68.1749 264.867 67.6804 264.867 67.1472ZM266.132 66.99V67.1472C266.132 67.5164 266.175 67.865 266.262 68.1931C266.348 68.5167 266.478 68.8038 266.651 69.0544C266.829 69.3051 267.05 69.5033 267.314 69.6492C267.579 69.7904 267.886 69.8611 268.237 69.8611C268.584 69.8611 268.887 69.7904 269.146 69.6492C269.411 69.5033 269.63 69.3051 269.803 69.0544C269.976 68.8038 270.106 68.5167 270.192 68.1931C270.284 67.865 270.329 67.5164 270.329 67.1472V66.99C270.329 66.6254 270.284 66.2813 270.192 65.9578C270.106 65.6296 269.974 65.3403 269.796 65.0896C269.623 64.8344 269.404 64.6339 269.14 64.488C268.88 64.3422 268.575 64.2693 268.224 64.2693C267.877 64.2693 267.572 64.3422 267.308 64.488C267.048 64.6339 266.829 64.8344 266.651 65.0896C266.478 65.3403 266.348 65.6296 266.262 65.9578C266.175 66.2813 266.132 66.6254 266.132 66.99ZM277.712 69.0544V63.3669H278.983V70.7634H277.773L277.712 69.0544ZM277.951 67.4958L278.478 67.4822C278.478 67.9744 278.425 68.4301 278.32 68.8494C278.22 69.2641 278.056 69.6241 277.828 69.9294C277.6 70.2348 277.302 70.474 276.933 70.6472C276.563 70.8158 276.115 70.9001 275.586 70.9001C275.226 70.9001 274.896 70.8477 274.595 70.7429C274.299 70.6381 274.043 70.4763 273.829 70.2576C273.615 70.0388 273.449 69.754 273.33 69.4031C273.216 69.0522 273.159 68.6306 273.159 68.1384V63.3669H274.424V68.1521C274.424 68.4848 274.46 68.7605 274.533 68.9792C274.611 69.1934 274.713 69.3643 274.841 69.4919C274.973 69.615 275.119 69.7016 275.278 69.7517C275.442 69.8018 275.611 69.8269 275.784 69.8269C276.322 69.8269 276.748 69.7244 277.062 69.5193C277.377 69.3097 277.603 69.0294 277.739 68.6785C277.881 68.323 277.951 67.9288 277.951 67.4958ZM284.008 63.3669V64.3376H280.009V63.3669H284.008ZM281.362 61.5691H282.627V68.9314C282.627 69.182 282.666 69.3712 282.743 69.4988C282.821 69.6264 282.921 69.7107 283.044 69.7517C283.167 69.7927 283.299 69.8132 283.44 69.8132C283.545 69.8132 283.655 69.8041 283.769 69.7859C283.887 69.7631 283.976 69.7449 284.035 69.7312L284.042 70.7634C283.942 70.7953 283.81 70.825 283.646 70.8523C283.486 70.8842 283.292 70.9001 283.064 70.9001C282.755 70.9001 282.47 70.8386 282.21 70.7156C281.95 70.5925 281.743 70.3875 281.588 70.1003C281.438 69.8087 281.362 69.4167 281.362 68.9246V61.5691ZM290.837 69.4509L292.737 63.3669H293.571L293.407 64.5769L291.473 70.7634H290.659L290.837 69.4509ZM289.559 63.3669L291.179 69.5193L291.295 70.7634H290.44L288.294 63.3669H289.559ZM295.39 69.4714L296.935 63.3669H298.192L296.046 70.7634H295.198L295.39 69.4714ZM293.756 63.3669L295.615 69.3484L295.827 70.7634H295.021L293.031 64.5632L292.867 63.3669H293.756ZM300.865 63.3669V70.7634H299.594V63.3669H300.865ZM299.498 61.405C299.498 61.2 299.56 61.0268 299.683 60.8855C299.81 60.7442 299.997 60.6736 300.243 60.6736C300.485 60.6736 300.669 60.7442 300.797 60.8855C300.929 61.0268 300.995 61.2 300.995 61.405C300.995 61.601 300.929 61.7696 300.797 61.9109C300.669 62.0476 300.485 62.116 300.243 62.116C299.997 62.116 299.81 62.0476 299.683 61.9109C299.56 61.7696 299.498 61.601 299.498 61.405ZM305.992 63.3669V64.3376H301.993V63.3669H305.992ZM303.347 61.5691H304.611V68.9314C304.611 69.182 304.65 69.3712 304.728 69.4988C304.805 69.6264 304.905 69.7107 305.028 69.7517C305.151 69.7927 305.284 69.8132 305.425 69.8132C305.53 69.8132 305.639 69.8041 305.753 69.7859C305.871 69.7631 305.96 69.7449 306.02 69.7312L306.026 70.7634C305.926 70.7953 305.794 70.825 305.63 70.8523C305.47 70.8842 305.277 70.9001 305.049 70.9001C304.739 70.9001 304.454 70.8386 304.194 70.7156C303.935 70.5925 303.727 70.3875 303.572 70.1003C303.422 69.8087 303.347 69.4167 303.347 68.9246V61.5691ZM308.74 60.2634V70.7634H307.476V60.2634H308.74ZM308.439 66.7849L307.913 66.7644C307.918 66.2585 307.993 65.7914 308.139 65.363C308.285 64.9301 308.49 64.5541 308.754 64.2351C309.018 63.9161 309.333 63.67 309.697 63.4968C310.066 63.3191 310.474 63.2302 310.921 63.2302C311.285 63.2302 311.614 63.2804 311.905 63.3806C312.197 63.4763 312.445 63.6313 312.65 63.8455C312.86 64.0597 313.02 64.3376 313.129 64.6794C313.238 65.0167 313.293 65.4291 313.293 65.9167V70.7634H312.021V65.9031C312.021 65.5157 311.965 65.2058 311.851 64.9734C311.737 64.7364 311.57 64.5655 311.352 64.4607C311.133 64.3513 310.864 64.2966 310.545 64.2966C310.23 64.2966 309.943 64.3627 309.684 64.4949C309.428 64.627 309.207 64.8093 309.021 65.0417C308.838 65.2742 308.695 65.5408 308.59 65.8416C308.49 66.1378 308.439 66.4522 308.439 66.7849ZM321.756 63.3669V64.3376H317.757V63.3669H321.756ZM319.11 61.5691H320.375V68.9314C320.375 69.182 320.414 69.3712 320.491 69.4988C320.569 69.6264 320.669 69.7107 320.792 69.7517C320.915 69.7927 321.047 69.8132 321.188 69.8132C321.293 69.8132 321.403 69.8041 321.517 69.7859C321.635 69.7631 321.724 69.7449 321.783 69.7312L321.79 70.7634C321.69 70.7953 321.558 70.825 321.394 70.8523C321.234 70.8842 321.04 70.9001 320.812 70.9001C320.503 70.9001 320.218 70.8386 319.958 70.7156C319.698 70.5925 319.491 70.3875 319.336 70.1003C319.186 69.8087 319.11 69.4167 319.11 68.9246V61.5691ZM324.504 60.2634V70.7634H323.239V60.2634H324.504ZM324.203 66.7849L323.677 66.7644C323.681 66.2585 323.757 65.7914 323.902 65.363C324.048 64.9301 324.253 64.5541 324.518 64.2351C324.782 63.9161 325.096 63.67 325.461 63.4968C325.83 63.3191 326.238 63.2302 326.685 63.2302C327.049 63.2302 327.377 63.2804 327.669 63.3806C327.961 63.4763 328.209 63.6313 328.414 63.8455C328.624 64.0597 328.783 64.3376 328.893 64.6794C329.002 65.0167 329.057 65.4291 329.057 65.9167V70.7634H327.785V65.9031C327.785 65.5157 327.728 65.2058 327.614 64.9734C327.5 64.7364 327.334 64.5655 327.115 64.4607C326.896 64.3513 326.628 64.2966 326.309 64.2966C325.994 64.2966 325.707 64.3627 325.447 64.4949C325.192 64.627 324.971 64.8093 324.784 65.0417C324.602 65.2742 324.458 65.5408 324.354 65.8416C324.253 66.1378 324.203 66.4522 324.203 66.7849ZM332.324 63.3669V70.7634H331.053V63.3669H332.324ZM330.957 61.405C330.957 61.2 331.019 61.0268 331.142 60.8855C331.269 60.7442 331.456 60.6736 331.702 60.6736C331.944 60.6736 332.128 60.7442 332.256 60.8855C332.388 61.0268 332.454 61.2 332.454 61.405C332.454 61.601 332.388 61.7696 332.256 61.9109C332.128 62.0476 331.944 62.116 331.702 62.116C331.456 62.116 331.269 62.0476 331.142 61.9109C331.019 61.7696 330.957 61.601 330.957 61.405ZM338.661 68.8015C338.661 68.6192 338.62 68.4506 338.538 68.2957C338.461 68.1361 338.299 67.9926 338.053 67.865C337.811 67.7328 337.447 67.6189 336.959 67.5232C336.549 67.4366 336.177 67.3341 335.845 67.2156C335.517 67.0971 335.236 66.9535 335.004 66.7849C334.776 66.6163 334.601 66.4181 334.478 66.1902C334.354 65.9623 334.293 65.6957 334.293 65.3904C334.293 65.0987 334.357 64.823 334.484 64.5632C334.617 64.3035 334.801 64.0733 335.038 63.8728C335.28 63.6723 335.569 63.5151 335.906 63.4011C336.243 63.2872 336.619 63.2302 337.034 63.2302C337.627 63.2302 338.132 63.335 338.552 63.5447C338.971 63.7543 339.292 64.0346 339.516 64.3855C339.739 64.7319 339.851 65.1169 339.851 65.5408H338.586C338.586 65.3357 338.524 65.1375 338.401 64.946C338.283 64.7501 338.107 64.5883 337.875 64.4607C337.647 64.3331 337.367 64.2693 337.034 64.2693C336.683 64.2693 336.398 64.324 336.18 64.4333C335.965 64.5382 335.808 64.6726 335.708 64.8367C335.612 65.0007 335.564 65.1739 335.564 65.3562C335.564 65.4929 335.587 65.616 335.633 65.7253C335.683 65.8302 335.77 65.9281 335.893 66.0193C336.016 66.1059 336.189 66.1879 336.412 66.2654C336.635 66.3429 336.92 66.4203 337.267 66.4978C337.873 66.6345 338.372 66.7986 338.764 66.99C339.156 67.1814 339.447 67.4161 339.639 67.6941C339.83 67.9721 339.926 68.3093 339.926 68.7058C339.926 69.0294 339.857 69.3256 339.721 69.5945C339.589 69.8634 339.395 70.0958 339.14 70.2917C338.889 70.4832 338.588 70.6335 338.237 70.7429C337.891 70.8477 337.501 70.9001 337.068 70.9001C336.417 70.9001 335.865 70.7839 335.414 70.5515C334.963 70.3191 334.621 70.0183 334.389 69.6492C334.156 69.28 334.04 68.8904 334.04 68.4802H335.312C335.33 68.8266 335.43 69.1023 335.612 69.3074C335.795 69.5079 336.018 69.6514 336.282 69.738C336.547 69.8201 336.809 69.8611 337.068 69.8611C337.415 69.8611 337.704 69.8155 337.937 69.7244C338.174 69.6332 338.354 69.5079 338.477 69.3484C338.6 69.1889 338.661 69.0066 338.661 68.8015ZM138.792 84.8015C138.792 84.6192 138.751 84.4506 138.669 84.2957C138.591 84.1361 138.43 83.9926 138.184 83.865C137.942 83.7328 137.577 83.6189 137.09 83.5232C136.68 83.4366 136.308 83.3341 135.976 83.2156C135.647 83.0971 135.367 82.9535 135.135 82.7849C134.907 82.6163 134.731 82.4181 134.608 82.1902C134.485 81.9623 134.424 81.6957 134.424 81.3904C134.424 81.0987 134.488 80.823 134.615 80.5632C134.747 80.3035 134.932 80.0733 135.169 79.8728C135.41 79.6723 135.7 79.5151 136.037 79.4011C136.374 79.2872 136.75 79.2302 137.165 79.2302C137.757 79.2302 138.263 79.335 138.683 79.5447C139.102 79.7543 139.423 80.0346 139.646 80.3855C139.87 80.7319 139.981 81.1169 139.981 81.5408H138.717C138.717 81.3357 138.655 81.1375 138.532 80.946C138.414 80.7501 138.238 80.5883 138.006 80.4607C137.778 80.3331 137.498 80.2693 137.165 80.2693C136.814 80.2693 136.529 80.324 136.311 80.4333C136.096 80.5382 135.939 80.6726 135.839 80.8367C135.743 81.0007 135.695 81.1739 135.695 81.3562C135.695 81.4929 135.718 81.616 135.764 81.7253C135.814 81.8302 135.9 81.9281 136.023 82.0193C136.146 82.1059 136.32 82.1879 136.543 82.2654C136.766 82.3429 137.051 82.4203 137.397 82.4978C138.004 82.6345 138.503 82.7986 138.895 82.99C139.286 83.1814 139.578 83.4161 139.77 83.6941C139.961 83.9721 140.057 84.3093 140.057 84.7058C140.057 85.0294 139.988 85.3256 139.852 85.5945C139.719 85.8634 139.526 86.0958 139.271 86.2917C139.02 86.4832 138.719 86.6335 138.368 86.7429C138.022 86.8477 137.632 86.9001 137.199 86.9001C136.548 86.9001 135.996 86.7839 135.545 86.5515C135.094 86.3191 134.752 86.0183 134.52 85.6492C134.287 85.28 134.171 84.8904 134.171 84.4802H135.442C135.461 84.8266 135.561 85.1023 135.743 85.3074C135.925 85.5079 136.149 85.6514 136.413 85.738C136.677 85.8201 136.939 85.8611 137.199 85.8611C137.546 85.8611 137.835 85.8155 138.067 85.7244C138.304 85.6332 138.484 85.5079 138.607 85.3484C138.73 85.1889 138.792 85.0066 138.792 84.8015ZM144.787 86.9001C144.272 86.9001 143.805 86.8136 143.386 86.6404C142.971 86.4626 142.613 86.2143 142.312 85.8953C142.016 85.5763 141.788 85.198 141.629 84.7605C141.469 84.323 141.39 83.8445 141.39 83.325V83.0378C141.39 82.4363 141.479 81.9008 141.656 81.4314C141.834 80.9574 142.076 80.5564 142.381 80.2283C142.686 79.9001 143.033 79.6518 143.42 79.4832C143.807 79.3145 144.208 79.2302 144.623 79.2302C145.152 79.2302 145.607 79.3214 145.99 79.5037C146.378 79.686 146.694 79.9412 146.94 80.2693C147.187 80.5929 147.369 80.9757 147.487 81.4177C147.606 81.8552 147.665 82.3337 147.665 82.8533V83.4207H142.142V82.3884H146.4V82.2927C146.382 81.9646 146.314 81.6456 146.195 81.3357C146.081 81.0258 145.899 80.7706 145.648 80.5701C145.398 80.3695 145.056 80.2693 144.623 80.2693C144.336 80.2693 144.072 80.3308 143.83 80.4539C143.589 80.5723 143.381 80.7501 143.208 80.9871C143.035 81.224 142.9 81.5134 142.805 81.8552C142.709 82.197 142.661 82.5912 142.661 83.0378V83.325C142.661 83.6759 142.709 84.0063 142.805 84.3162C142.905 84.6215 143.049 84.8904 143.235 85.1228C143.427 85.3552 143.657 85.5375 143.926 85.6697C144.199 85.8018 144.509 85.8679 144.855 85.8679C145.302 85.8679 145.68 85.7768 145.99 85.5945C146.3 85.4122 146.571 85.1684 146.804 84.863L147.569 85.4714C147.41 85.713 147.207 85.9431 146.961 86.1619C146.715 86.3806 146.412 86.5583 146.052 86.6951C145.696 86.8318 145.275 86.9001 144.787 86.9001ZM152.238 79.3669V80.3376H148.239V79.3669H152.238ZM149.593 77.5691H150.857V84.9314C150.857 85.182 150.896 85.3712 150.974 85.4988C151.051 85.6264 151.151 85.7107 151.274 85.7517C151.397 85.7927 151.53 85.8132 151.671 85.8132C151.776 85.8132 151.885 85.8041 151.999 85.7859C152.118 85.7631 152.206 85.7449 152.266 85.7312L152.272 86.7634C152.172 86.7953 152.04 86.825 151.876 86.8523C151.716 86.8842 151.523 86.9001 151.295 86.9001C150.985 86.9001 150.7 86.8386 150.44 86.7156C150.181 86.5925 149.973 86.3875 149.818 86.1003C149.668 85.8087 149.593 85.4167 149.593 84.9246V77.5691ZM158.247 85.0544V79.3669H159.519V86.7634H158.309L158.247 85.0544ZM158.486 83.4958L159.013 83.4822C159.013 83.9744 158.96 84.4301 158.855 84.8494C158.755 85.2641 158.591 85.6241 158.363 85.9294C158.135 86.2348 157.837 86.474 157.468 86.6472C157.099 86.8158 156.65 86.9001 156.121 86.9001C155.761 86.9001 155.431 86.8477 155.13 86.7429C154.834 86.6381 154.578 86.4763 154.364 86.2576C154.15 86.0388 153.984 85.754 153.865 85.4031C153.751 85.0522 153.694 84.6306 153.694 84.1384V79.3669H154.959V84.1521C154.959 84.4848 154.995 84.7605 155.068 84.9792C155.146 85.1934 155.248 85.3643 155.376 85.4919C155.508 85.615 155.654 85.7016 155.813 85.7517C155.978 85.8018 156.146 85.8269 156.319 85.8269C156.857 85.8269 157.283 85.7244 157.598 85.5193C157.912 85.3097 158.138 85.0294 158.274 84.6785C158.416 84.323 158.486 83.9288 158.486 83.4958ZM162.711 80.7888V89.6072H161.439V79.3669H162.602L162.711 80.7888ZM167.694 83.0037V83.1472C167.694 83.685 167.631 84.184 167.503 84.6443C167.375 85.1 167.188 85.4965 166.942 85.8337C166.701 86.171 166.402 86.433 166.047 86.6199C165.691 86.8067 165.284 86.9001 164.823 86.9001C164.354 86.9001 163.939 86.8227 163.579 86.6677C163.219 86.5128 162.914 86.2872 162.663 85.991C162.412 85.6947 162.212 85.3393 162.062 84.9246C161.916 84.5098 161.815 84.0427 161.761 83.5232V82.7576C161.815 82.2107 161.918 81.7208 162.068 81.2878C162.219 80.8549 162.417 80.4858 162.663 80.1804C162.914 79.8705 163.217 79.6358 163.572 79.4763C163.928 79.3123 164.338 79.2302 164.803 79.2302C165.268 79.2302 165.68 79.3214 166.04 79.5037C166.4 79.6814 166.703 79.9366 166.949 80.2693C167.195 80.602 167.38 81.0007 167.503 81.4656C167.631 81.9259 167.694 82.4386 167.694 83.0037ZM166.423 83.1472V83.0037C166.423 82.6345 166.384 82.2882 166.307 81.9646C166.229 81.6365 166.108 81.3494 165.944 81.1033C165.785 80.8526 165.58 80.6567 165.329 80.5154C165.078 80.3695 164.78 80.2966 164.434 80.2966C164.115 80.2966 163.837 80.3513 163.6 80.4607C163.367 80.5701 163.169 80.7182 163.005 80.905C162.841 81.0873 162.706 81.297 162.602 81.5339C162.501 81.7664 162.426 82.0079 162.376 82.2585V84.0291C162.467 84.3481 162.595 84.6488 162.759 84.9314C162.923 85.2094 163.142 85.435 163.415 85.6082C163.688 85.7768 164.033 85.8611 164.447 85.8611C164.789 85.8611 165.083 85.7904 165.329 85.6492C165.58 85.5033 165.785 85.3051 165.944 85.0544C166.108 84.8038 166.229 84.5167 166.307 84.1931C166.384 83.865 166.423 83.5164 166.423 83.1472ZM174.667 86.7634H173.402V78.5876C173.402 78.0544 173.498 77.6056 173.689 77.241C173.885 76.8718 174.166 76.5938 174.53 76.407C174.895 76.2156 175.328 76.1199 175.829 76.1199C175.975 76.1199 176.121 76.129 176.267 76.1472C176.417 76.1654 176.563 76.1928 176.704 76.2292L176.636 77.2615C176.54 77.2387 176.431 77.2227 176.308 77.2136C176.189 77.2045 176.071 77.2 175.952 77.2C175.683 77.2 175.451 77.2546 175.255 77.364C175.063 77.4688 174.918 77.6238 174.817 77.8289C174.717 78.0339 174.667 78.2869 174.667 78.5876V86.7634ZM176.239 79.3669V80.3376H172.233V79.3669H176.239ZM177.312 83.1472V82.99C177.312 82.4568 177.39 81.9623 177.545 81.5066C177.7 81.0463 177.923 80.6475 178.215 80.3103C178.507 79.9685 178.86 79.7042 179.274 79.5173C179.689 79.3259 180.154 79.2302 180.669 79.2302C181.188 79.2302 181.656 79.3259 182.07 79.5173C182.49 79.7042 182.845 79.9685 183.137 80.3103C183.433 80.6475 183.659 81.0463 183.813 81.5066C183.968 81.9623 184.046 82.4568 184.046 82.99V83.1472C184.046 83.6804 183.968 84.1749 183.813 84.6306C183.659 85.0863 183.433 85.4851 183.137 85.8269C182.845 86.1641 182.492 86.4285 182.077 86.6199C181.667 86.8067 181.202 86.9001 180.683 86.9001C180.163 86.9001 179.696 86.8067 179.281 86.6199C178.867 86.4285 178.511 86.1641 178.215 85.8269C177.923 85.4851 177.7 85.0863 177.545 84.6306C177.39 84.1749 177.312 83.6804 177.312 83.1472ZM178.577 82.99V83.1472C178.577 83.5164 178.62 83.865 178.707 84.1931C178.794 84.5167 178.924 84.8038 179.097 85.0544C179.274 85.3051 179.495 85.5033 179.76 85.6492C180.024 85.7904 180.332 85.8611 180.683 85.8611C181.029 85.8611 181.332 85.7904 181.592 85.6492C181.856 85.5033 182.075 85.3051 182.248 85.0544C182.421 84.8038 182.551 84.5167 182.638 84.1931C182.729 83.865 182.774 83.5164 182.774 83.1472V82.99C182.774 82.6254 182.729 82.2813 182.638 81.9578C182.551 81.6296 182.419 81.3403 182.241 81.0896C182.068 80.8344 181.849 80.6339 181.585 80.488C181.325 80.3422 181.02 80.2693 180.669 80.2693C180.323 80.2693 180.017 80.3422 179.753 80.488C179.493 80.6339 179.274 80.8344 179.097 81.0896C178.924 81.3403 178.794 81.6296 178.707 81.9578C178.62 82.2813 178.577 82.6254 178.577 82.99ZM186.896 80.5291V86.7634H185.632V79.3669H186.862L186.896 80.5291ZM189.207 79.3259L189.2 80.5017C189.095 80.4789 188.995 80.4653 188.899 80.4607C188.808 80.4516 188.703 80.447 188.585 80.447C188.293 80.447 188.036 80.4926 187.812 80.5837C187.589 80.6749 187.4 80.8025 187.245 80.9666C187.09 81.1306 186.967 81.3266 186.876 81.5544C186.789 81.7778 186.732 82.0238 186.705 82.2927L186.35 82.4978C186.35 82.0512 186.393 81.6319 186.479 81.24C186.571 80.8481 186.71 80.5017 186.896 80.2009C187.083 79.8956 187.32 79.6586 187.607 79.49C187.899 79.3168 188.245 79.2302 188.646 79.2302C188.738 79.2302 188.842 79.2416 188.961 79.2644C189.079 79.2826 189.161 79.3031 189.207 79.3259ZM191.634 80.8367V86.7634H190.362V79.3669H191.565L191.634 80.8367ZM191.374 82.7849L190.786 82.7644C190.791 82.2585 190.857 81.7914 190.984 81.363C191.112 80.9301 191.301 80.5541 191.552 80.2351C191.802 79.9161 192.115 79.67 192.488 79.4968C192.862 79.3191 193.295 79.2302 193.787 79.2302C194.133 79.2302 194.452 79.2804 194.744 79.3806C195.036 79.4763 195.289 79.629 195.503 79.8386C195.717 80.0483 195.883 80.3171 196.002 80.6453C196.12 80.9734 196.18 81.3699 196.18 81.8347V86.7634H194.915V81.8962C194.915 81.5089 194.849 81.199 194.717 80.9666C194.589 80.7341 194.407 80.5655 194.17 80.4607C193.933 80.3513 193.655 80.2966 193.336 80.2966C192.962 80.2966 192.65 80.3627 192.399 80.4949C192.149 80.627 191.948 80.8093 191.798 81.0417C191.647 81.2742 191.538 81.5408 191.47 81.8416C191.406 82.1378 191.374 82.4522 191.374 82.7849ZM196.166 82.0876L195.318 82.3474C195.323 81.9418 195.389 81.5522 195.517 81.1785C195.649 80.8048 195.838 80.4721 196.084 80.1804C196.335 79.8888 196.642 79.6586 197.007 79.49C197.371 79.3168 197.788 79.2302 198.258 79.2302C198.654 79.2302 199.005 79.2826 199.311 79.3875C199.62 79.4923 199.88 79.6541 200.09 79.8728C200.304 80.087 200.466 80.3627 200.575 80.7C200.685 81.0372 200.739 81.4382 200.739 81.9031V86.7634H199.468V81.8894C199.468 81.4747 199.402 81.1534 199.27 80.9255C199.142 80.6931 198.96 80.5313 198.723 80.4402C198.49 80.3445 198.212 80.2966 197.889 80.2966C197.611 80.2966 197.365 80.3445 197.15 80.4402C196.936 80.5359 196.756 80.6681 196.61 80.8367C196.465 81.0007 196.353 81.1899 196.275 81.4041C196.202 81.6182 196.166 81.8461 196.166 82.0876ZM202.674 86.0935C202.674 85.8793 202.74 85.6993 202.872 85.5535C203.009 85.4031 203.205 85.3279 203.46 85.3279C203.715 85.3279 203.909 85.4031 204.041 85.5535C204.178 85.6993 204.246 85.8793 204.246 86.0935C204.246 86.3031 204.178 86.4809 204.041 86.6267C203.909 86.7725 203.715 86.8455 203.46 86.8455C203.205 86.8455 203.009 86.7725 202.872 86.6267C202.74 86.4809 202.674 86.3031 202.674 86.0935Z" fill="white"/>
<path d="M135.774 45.4039L138.606 33.441H140.188L140.55 35.4332L137.532 47.6598H135.833L135.774 45.4039ZM134.319 33.441L136.663 45.4039L136.468 47.6598H134.573L131.419 33.441H134.319ZM143.04 45.3551L145.354 33.441H148.255L145.11 47.6598H143.216L143.04 45.3551ZM141.077 33.441L143.929 45.4528L143.851 47.6598H142.151L139.114 35.4235L139.505 33.441H141.077ZM154.222 47.8551C153.401 47.8551 152.666 47.7249 152.015 47.4645C151.364 47.1976 150.81 46.8297 150.354 46.361C149.905 45.8922 149.56 45.3486 149.319 44.7301C149.078 44.1051 148.958 43.441 148.958 42.7379V42.3473C148.958 41.5465 149.072 40.8141 149.3 40.15C149.528 39.486 149.853 38.9098 150.276 38.4215C150.706 37.9332 151.227 37.5589 151.839 37.2985C152.451 37.0315 153.141 36.8981 153.909 36.8981C154.658 36.8981 155.322 37.0218 155.901 37.2692C156.481 37.5166 156.966 37.8681 157.356 38.3239C157.754 38.7796 158.053 39.3265 158.255 39.9645C158.457 40.596 158.558 41.2991 158.558 42.0739V43.2457H150.159V41.3707H155.794V41.1559C155.794 40.7653 155.722 40.417 155.579 40.111C155.442 39.7985 155.234 39.5511 154.954 39.3688C154.674 39.1865 154.316 39.0953 153.88 39.0953C153.509 39.0953 153.19 39.1767 152.923 39.3395C152.656 39.5022 152.438 39.7301 152.269 40.0231C152.106 40.316 151.982 40.6611 151.897 41.0582C151.819 41.4489 151.78 41.8785 151.78 42.3473V42.7379C151.78 43.1611 151.839 43.5517 151.956 43.9098C152.08 44.2679 152.252 44.5771 152.474 44.8375C152.701 45.0979 152.975 45.2998 153.294 45.443C153.619 45.5862 153.987 45.6578 154.397 45.6578C154.905 45.6578 155.377 45.5602 155.813 45.3649C156.256 45.163 156.637 44.8603 156.956 44.4567L158.323 45.941C158.102 46.2601 157.799 46.566 157.415 46.859C157.037 47.152 156.582 47.3929 156.048 47.5817C155.514 47.764 154.905 47.8551 154.222 47.8551ZM163.128 37.0934V47.6598H160.306V37.0934H163.128ZM160.13 34.3395C160.13 33.9293 160.273 33.5908 160.56 33.3239C160.846 33.0569 161.23 32.9235 161.712 32.9235C162.187 32.9235 162.568 33.0569 162.854 33.3239C163.147 33.5908 163.294 33.9293 163.294 34.3395C163.294 34.7496 163.147 35.0882 162.854 35.3551C162.568 35.622 162.187 35.7555 161.712 35.7555C161.23 35.7555 160.846 35.622 160.56 35.3551C160.273 35.0882 160.13 34.7496 160.13 34.3395ZM172.142 37.0934H174.69V47.3082C174.69 48.2718 174.476 49.0888 174.046 49.7594C173.623 50.4365 173.03 50.9476 172.269 51.2926C171.507 51.6442 170.621 51.8199 169.612 51.8199C169.17 51.8199 168.701 51.7614 168.206 51.6442C167.718 51.527 167.249 51.3447 166.8 51.0973C166.357 50.8499 165.986 50.5374 165.687 50.1598L166.927 48.4996C167.252 48.8772 167.63 49.1702 168.06 49.3785C168.489 49.5934 168.965 49.7008 169.485 49.7008C169.993 49.7008 170.423 49.6064 170.774 49.4176C171.126 49.2353 171.396 48.9651 171.585 48.6071C171.774 48.2555 171.868 47.8291 171.868 47.3278V39.5348L172.142 37.0934ZM165.032 42.5035V42.2985C165.032 41.4912 165.13 40.7587 165.325 40.1012C165.527 39.4371 165.81 38.8675 166.175 38.3922C166.546 37.917 166.995 37.5491 167.522 37.2887C168.05 37.0283 168.646 36.8981 169.31 36.8981C170.013 36.8981 170.602 37.0283 171.077 37.2887C171.552 37.5491 171.943 37.9202 172.249 38.402C172.555 38.8772 172.793 39.4404 172.962 40.0914C173.138 40.736 173.274 41.4423 173.372 42.2106V42.6598C173.274 43.3955 173.128 44.0791 172.933 44.7106C172.737 45.3421 172.48 45.8955 172.161 46.3707C171.842 46.8395 171.445 47.2041 170.97 47.4645C170.501 47.7249 169.941 47.8551 169.29 47.8551C168.639 47.8551 168.05 47.7216 167.522 47.4547C167.002 47.1878 166.556 46.8134 166.185 46.3317C165.813 45.8499 165.527 45.2835 165.325 44.6324C165.13 43.9814 165.032 43.2718 165.032 42.5035ZM167.845 42.2985V42.5035C167.845 42.9397 167.887 43.3466 167.972 43.7242C168.056 44.1018 168.187 44.4371 168.362 44.7301C168.545 45.0166 168.769 45.2412 169.036 45.4039C169.31 45.5602 169.632 45.6383 170.003 45.6383C170.517 45.6383 170.937 45.5309 171.263 45.316C171.588 45.0947 171.832 44.792 171.995 44.4078C172.158 44.0237 172.252 43.581 172.278 43.0797V41.8004C172.265 41.3903 172.21 41.0224 172.112 40.6969C172.015 40.3649 171.878 40.0817 171.702 39.8473C171.526 39.6129 171.299 39.4306 171.019 39.3004C170.739 39.1702 170.407 39.1051 170.022 39.1051C169.651 39.1051 169.329 39.1897 169.056 39.359C168.789 39.5218 168.564 39.7464 168.382 40.0328C168.206 40.3193 168.073 40.6578 167.981 41.0485C167.89 41.4326 167.845 41.8492 167.845 42.2985ZM179.622 32.6598V47.6598H176.81V32.6598H179.622ZM179.222 42.0055H178.45C178.457 41.2698 178.554 40.5927 178.743 39.9742C178.932 39.3492 179.202 38.8089 179.554 38.3531C179.905 37.8909 180.325 37.5328 180.813 37.2789C181.308 37.025 181.855 36.8981 182.454 36.8981C182.975 36.8981 183.447 36.9729 183.87 37.1227C184.3 37.2659 184.668 37.5003 184.974 37.8258C185.286 38.1448 185.527 38.5647 185.696 39.0856C185.866 39.6064 185.95 40.2379 185.95 40.9801V47.6598H183.118V40.9606C183.118 40.4918 183.05 40.124 182.913 39.8571C182.783 39.5836 182.591 39.3916 182.337 39.2809C182.09 39.1637 181.784 39.1051 181.419 39.1051C181.015 39.1051 180.67 39.18 180.384 39.3297C180.104 39.4795 179.879 39.6878 179.71 39.9547C179.541 40.2151 179.417 40.5211 179.339 40.8727C179.261 41.2242 179.222 41.6018 179.222 42.0055ZM193.265 37.0934V39.0856H187.112V37.0934H193.265ZM188.636 34.486H191.448V44.4762C191.448 44.7822 191.487 45.0166 191.565 45.1793C191.65 45.3421 191.774 45.456 191.937 45.5211C192.099 45.5797 192.304 45.609 192.552 45.609C192.728 45.609 192.884 45.6025 193.021 45.5895C193.164 45.5699 193.284 45.5504 193.382 45.5309L193.392 47.6012C193.151 47.6793 192.89 47.7412 192.61 47.7867C192.33 47.8323 192.021 47.8551 191.683 47.8551C191.064 47.8551 190.524 47.7542 190.062 47.5524C189.606 47.344 189.254 47.012 189.007 46.5563C188.759 46.1005 188.636 45.5016 188.636 44.7594V34.486ZM199.729 47.8551C198.909 47.8551 198.174 47.7249 197.522 47.4645C196.871 47.1976 196.318 46.8297 195.862 46.361C195.413 45.8922 195.068 45.3486 194.827 44.7301C194.586 44.1051 194.466 43.441 194.466 42.7379V42.3473C194.466 41.5465 194.58 40.8141 194.808 40.15C195.035 39.486 195.361 38.9098 195.784 38.4215C196.214 37.9332 196.735 37.5589 197.347 37.2985C197.959 37.0315 198.649 36.8981 199.417 36.8981C200.166 36.8981 200.83 37.0218 201.409 37.2692C201.989 37.5166 202.474 37.8681 202.864 38.3239C203.261 38.7796 203.561 39.3265 203.763 39.9645C203.965 40.596 204.065 41.2991 204.065 42.0739V43.2457H195.667V41.3707H201.302V41.1559C201.302 40.7653 201.23 40.417 201.087 40.111C200.95 39.7985 200.742 39.5511 200.462 39.3688C200.182 39.1865 199.824 39.0953 199.388 39.0953C199.017 39.0953 198.698 39.1767 198.431 39.3395C198.164 39.5022 197.946 39.7301 197.776 40.0231C197.614 40.316 197.49 40.6611 197.405 41.0582C197.327 41.4489 197.288 41.8785 197.288 42.3473V42.7379C197.288 43.1611 197.347 43.5517 197.464 43.9098C197.588 44.2679 197.76 44.5771 197.981 44.8375C198.209 45.0979 198.483 45.2998 198.802 45.443C199.127 45.5862 199.495 45.6578 199.905 45.6578C200.413 45.6578 200.885 45.5602 201.321 45.3649C201.764 45.163 202.145 44.8603 202.464 44.4567L203.831 45.941C203.61 46.2601 203.307 46.566 202.923 46.859C202.545 47.152 202.09 47.3929 201.556 47.5817C201.022 47.764 200.413 47.8551 199.729 47.8551ZM211.907 45.3551V32.6598H214.739V47.6598H212.19L211.907 45.3551ZM205.228 42.5035V42.2985C205.228 41.4912 205.319 40.7587 205.501 40.1012C205.683 39.4371 205.95 38.8675 206.302 38.3922C206.653 37.917 207.086 37.5491 207.601 37.2887C208.115 37.0283 208.701 36.8981 209.358 36.8981C209.977 36.8981 210.517 37.0283 210.979 37.2887C211.448 37.5491 211.845 37.9202 212.171 38.402C212.503 38.8772 212.77 39.4404 212.972 40.0914C213.174 40.736 213.32 41.4423 213.411 42.2106V42.6598C213.32 43.3955 213.174 44.0791 212.972 44.7106C212.77 45.3421 212.503 45.8955 212.171 46.3707C211.845 46.8395 211.448 47.2041 210.979 47.4645C210.511 47.7249 209.964 47.8551 209.339 47.8551C208.681 47.8551 208.095 47.7216 207.581 47.4547C207.073 47.1878 206.644 46.8134 206.292 46.3317C205.947 45.8499 205.683 45.2835 205.501 44.6324C205.319 43.9814 205.228 43.2718 205.228 42.5035ZM208.04 42.2985V42.5035C208.04 42.9397 208.073 43.3466 208.138 43.7242C208.209 44.1018 208.323 44.4371 208.479 44.7301C208.642 45.0166 208.851 45.2412 209.104 45.4039C209.365 45.5602 209.681 45.6383 210.052 45.6383C210.534 45.6383 210.931 45.5309 211.243 45.316C211.556 45.0947 211.793 44.792 211.956 44.4078C212.125 44.0237 212.223 43.581 212.249 43.0797V41.8004C212.229 41.3903 212.171 41.0224 212.073 40.6969C211.982 40.3649 211.845 40.0817 211.663 39.8473C211.487 39.6129 211.266 39.4306 210.999 39.3004C210.739 39.1702 210.429 39.1051 210.071 39.1051C209.707 39.1051 209.394 39.1897 209.134 39.359C208.873 39.5218 208.662 39.7464 208.499 40.0328C208.343 40.3193 208.226 40.6578 208.147 41.0485C208.076 41.4326 208.04 41.8492 208.04 42.2985ZM227.63 44.7399C227.63 44.538 227.571 44.3558 227.454 44.193C227.337 44.0302 227.119 43.8805 226.8 43.7438C226.487 43.6005 226.035 43.4703 225.442 43.3531C224.909 43.236 224.41 43.0895 223.948 42.9137C223.493 42.7314 223.095 42.5133 222.757 42.2594C222.425 42.0055 222.164 41.706 221.976 41.361C221.787 41.0094 221.692 40.609 221.692 40.1598C221.692 39.7171 221.787 39.3004 221.976 38.9098C222.171 38.5192 222.448 38.1741 222.806 37.8746C223.17 37.5686 223.613 37.331 224.134 37.1617C224.661 36.986 225.254 36.8981 225.911 36.8981C226.829 36.8981 227.617 37.0446 228.274 37.3375C228.938 37.6305 229.446 38.0341 229.798 38.5485C230.156 39.0563 230.335 39.6357 230.335 40.2867H227.522C227.522 40.0133 227.464 39.7692 227.347 39.5543C227.236 39.333 227.06 39.1604 226.819 39.0367C226.585 38.9065 226.279 38.8414 225.901 38.8414C225.589 38.8414 225.319 38.8968 225.091 39.0074C224.863 39.1116 224.687 39.2548 224.563 39.4371C224.446 39.6129 224.388 39.8082 224.388 40.0231C224.388 40.1858 224.42 40.3323 224.485 40.4625C224.557 40.5862 224.671 40.7002 224.827 40.8043C224.983 40.9085 225.185 41.0061 225.433 41.0973C225.687 41.1819 225.999 41.2601 226.37 41.3317C227.132 41.4879 227.812 41.693 228.411 41.9469C229.01 42.1943 229.485 42.5328 229.837 42.9625C230.188 43.3857 230.364 43.9423 230.364 44.6324C230.364 45.1012 230.26 45.5309 230.052 45.9215C229.843 46.3121 229.544 46.6539 229.153 46.9469C228.763 47.2334 228.294 47.458 227.747 47.6207C227.207 47.777 226.598 47.8551 225.921 47.8551C224.938 47.8551 224.104 47.6793 223.421 47.3278C222.744 46.9762 222.229 46.5302 221.878 45.9899C221.533 45.443 221.36 44.8831 221.36 44.3102H224.026C224.039 44.6943 224.137 45.0035 224.319 45.2379C224.508 45.4723 224.746 45.6416 225.032 45.7457C225.325 45.8499 225.641 45.902 225.979 45.902C226.344 45.902 226.647 45.8531 226.888 45.7555C227.129 45.6513 227.311 45.5146 227.435 45.3453C227.565 45.1696 227.63 44.9677 227.63 44.7399ZM238.431 51.7223V39.2516L238.792 37.0934H241.263V51.7223H238.431ZM231.751 42.484V42.2789C231.751 41.4716 231.839 40.7392 232.015 40.0817C232.197 39.4176 232.464 38.8512 232.815 38.3824C233.167 37.9072 233.597 37.5426 234.104 37.2887C234.619 37.0283 235.211 36.8981 235.882 36.8981C236.526 36.8981 237.083 37.0283 237.552 37.2887C238.021 37.5491 238.414 37.917 238.733 38.3922C239.059 38.8675 239.319 39.4274 239.515 40.0719C239.71 40.7164 239.86 41.4228 239.964 42.191V42.6403C239.866 43.3759 239.716 44.0595 239.515 44.691C239.319 45.3226 239.059 45.8759 238.733 46.3512C238.414 46.8265 238.017 47.1976 237.542 47.4645C237.073 47.7249 236.513 47.8551 235.862 47.8551C235.205 47.8551 234.619 47.7216 234.104 47.4547C233.597 47.1813 233.167 46.8037 232.815 46.3219C232.464 45.8401 232.197 45.2737 232.015 44.6227C231.839 43.9651 231.751 43.2522 231.751 42.484ZM234.563 42.2789V42.484C234.563 42.9202 234.599 43.3304 234.671 43.7145C234.743 44.0921 234.856 44.4274 235.013 44.7203C235.175 45.0133 235.384 45.2444 235.638 45.4137C235.892 45.5765 236.204 45.6578 236.575 45.6578C237.09 45.6578 237.503 45.5472 237.815 45.3258C238.134 45.0979 238.369 44.7887 238.519 44.3981C238.675 44.0074 238.766 43.5615 238.792 43.0602V41.7809C238.772 41.3707 238.717 41.0029 238.626 40.6774C238.541 40.3453 238.411 40.0621 238.235 39.8278C238.066 39.5934 237.845 39.4143 237.571 39.2906C237.304 39.1604 236.979 39.0953 236.595 39.0953C236.23 39.0953 235.918 39.1767 235.657 39.3395C235.397 39.5022 235.185 39.7301 235.022 40.0231C234.866 40.3095 234.749 40.6448 234.671 41.0289C234.599 41.413 234.563 41.8297 234.563 42.2789ZM249.729 45.1305V37.0934H252.542V47.6598H249.896L249.729 45.1305ZM250.042 42.9625L250.872 42.943C250.872 43.6461 250.791 44.3004 250.628 44.9059C250.465 45.5048 250.221 46.0257 249.896 46.4684C249.57 46.9046 249.16 47.2464 248.665 47.4938C248.17 47.7347 247.588 47.8551 246.917 47.8551C246.403 47.8551 245.927 47.7835 245.491 47.6403C245.062 47.4905 244.69 47.2594 244.378 46.9469C244.072 46.6279 243.831 46.221 243.655 45.7262C243.486 45.2249 243.401 44.6227 243.401 43.9196V37.0934H246.214V43.9391C246.214 44.2516 246.25 44.5153 246.321 44.7301C246.399 44.9449 246.507 45.1207 246.644 45.2574C246.78 45.3942 246.94 45.4918 247.122 45.5504C247.311 45.609 247.519 45.6383 247.747 45.6383C248.326 45.6383 248.782 45.5211 249.114 45.2867C249.453 45.0524 249.69 44.7334 249.827 44.3297C249.97 43.9196 250.042 43.4638 250.042 42.9625ZM260.394 45.277V40.5699C260.394 40.2314 260.338 39.9417 260.228 39.7008C260.117 39.4534 259.944 39.2614 259.71 39.1246C259.482 38.9879 259.186 38.9196 258.821 38.9196C258.509 38.9196 258.239 38.9749 258.011 39.0856C257.783 39.1897 257.607 39.3427 257.483 39.5446C257.36 39.7399 257.298 39.971 257.298 40.2379H254.485C254.485 39.7887 254.59 39.3623 254.798 38.9586C255.006 38.555 255.309 38.2002 255.706 37.8942C256.103 37.5817 256.575 37.3375 257.122 37.1617C257.675 36.986 258.294 36.8981 258.978 36.8981C259.798 36.8981 260.527 37.0348 261.165 37.3082C261.803 37.5817 262.304 37.9918 262.669 38.5387C263.04 39.0856 263.226 39.7692 263.226 40.5895V45.111C263.226 45.6904 263.261 46.1656 263.333 46.5367C263.405 46.9013 263.509 47.2203 263.646 47.4938V47.6598H260.804C260.667 47.3733 260.563 47.0153 260.491 46.5856C260.426 46.1494 260.394 45.7132 260.394 45.277ZM260.765 41.2242L260.784 42.816H259.212C258.841 42.816 258.519 42.8584 258.245 42.943C257.972 43.0276 257.747 43.1481 257.571 43.3043C257.396 43.4541 257.265 43.6298 257.181 43.8317C257.103 44.0335 257.063 44.2548 257.063 44.4957C257.063 44.7366 257.119 44.9547 257.229 45.15C257.34 45.3388 257.5 45.4886 257.708 45.5992C257.916 45.7034 258.16 45.7555 258.44 45.7555C258.864 45.7555 259.231 45.6709 259.544 45.5016C259.856 45.3323 260.097 45.124 260.267 44.8766C260.442 44.6292 260.534 44.3948 260.54 44.1735L261.282 45.3649C261.178 45.6318 261.035 45.9085 260.853 46.1949C260.677 46.4814 260.452 46.7516 260.179 47.0055C259.905 47.2529 259.576 47.458 259.192 47.6207C258.808 47.777 258.353 47.8551 257.825 47.8551C257.155 47.8551 256.546 47.7216 255.999 47.4547C255.459 47.1813 255.029 46.8069 254.71 46.3317C254.397 45.8499 254.241 45.303 254.241 44.691C254.241 44.1377 254.345 43.6461 254.554 43.2164C254.762 42.7867 255.068 42.4254 255.472 42.1324C255.882 41.833 256.393 41.6084 257.005 41.4586C257.617 41.3024 258.326 41.2242 259.134 41.2242H260.765ZM270.569 37.0934V39.0856H264.417V37.0934H270.569ZM265.94 34.486H268.753V44.4762C268.753 44.7822 268.792 45.0166 268.87 45.1793C268.955 45.3421 269.078 45.456 269.241 45.5211C269.404 45.5797 269.609 45.609 269.856 45.609C270.032 45.609 270.188 45.6025 270.325 45.5895C270.468 45.5699 270.589 45.5504 270.687 45.5309L270.696 47.6012C270.455 47.6793 270.195 47.7412 269.915 47.7867C269.635 47.8323 269.326 47.8551 268.987 47.8551C268.369 47.8551 267.828 47.7542 267.366 47.5524C266.91 47.344 266.559 47.012 266.312 46.5563C266.064 46.1005 265.94 45.5016 265.94 44.7594V34.486Z" fill="white"/>
<rect x="173.844" y="143.296" width="21.9942" height="21.9942" fill="#E9E9ED"/>
<path d="M180.564 151.239L184.23 146.962L187.896 151.239" stroke="#8F8F9C" stroke-width="1.5"/>
<path d="M187.896 156.737L184.23 161.014L180.564 156.737" stroke="#8F8F9C" stroke-width="1.5"/>
<rect x="321.693" y="143.296" width="21.9942" height="21.9942" fill="#E9E9ED"/>
<path d="M328.414 151.239L332.08 146.962L335.745 151.239" stroke="#8F8F9C" stroke-width="1.5"/>
<path d="M335.745 156.737L332.079 161.014L328.414 156.737" stroke="#8F8F9C" stroke-width="1.5"/>
<rect x="173.844" y="206.835" width="21.9942" height="21.9942" fill="#E9E9ED"/>
<path d="M180.564 214.777L184.23 210.501L187.896 214.777" stroke="#8F8F9C" stroke-width="1.5"/>
<path d="M187.896 220.276L184.23 224.553L180.564 220.276" stroke="#8F8F9C" stroke-width="1.5"/>
<rect x="321.693" y="206.835" width="21.9942" height="21.9942" fill="#E9E9ED"/>
<path d="M328.414 214.777L332.08 210.501L335.745 214.777" stroke="#8F8F9C" stroke-width="1.5"/>
<path d="M335.745 220.276L332.079 224.553L328.414 220.276" stroke="#8F8F9C" stroke-width="1.5"/>
<rect x="245" y="254" width="169.844" height="40.3227" rx="10" fill="#D3F076"/>
<path d="M314.79 280H312.158L312.175 278.058H314.79C315.443 278.058 315.993 277.911 316.441 277.618C316.89 277.319 317.227 276.884 317.454 276.314C317.687 275.744 317.803 275.056 317.803 274.248V273.658C317.803 273.038 317.736 272.493 317.604 272.023C317.476 271.553 317.285 271.157 317.031 270.836C316.776 270.515 316.464 270.274 316.093 270.114C315.722 269.948 315.296 269.865 314.814 269.865H312.108V267.914H314.814C315.622 267.914 316.361 268.052 317.031 268.329C317.706 268.6 318.29 268.99 318.782 269.5C319.275 270.009 319.654 270.617 319.919 271.326C320.191 272.028 320.326 272.812 320.326 273.675V274.248C320.326 275.105 320.191 275.888 319.919 276.597C319.654 277.305 319.275 277.914 318.782 278.423C318.295 278.926 317.711 279.317 317.031 279.593C316.356 279.864 315.609 280 314.79 280ZM313.569 267.914V280H311.079V267.914H313.569ZM321.604 275.601V275.426C321.604 274.768 321.699 274.162 321.887 273.608C322.075 273.049 322.349 272.565 322.708 272.156C323.068 271.746 323.511 271.428 324.037 271.201C324.562 270.969 325.166 270.853 325.846 270.853C326.527 270.853 327.133 270.969 327.664 271.201C328.195 271.428 328.641 271.746 329 272.156C329.366 272.565 329.642 273.049 329.831 273.608C330.019 274.162 330.113 274.768 330.113 275.426V275.601C330.113 276.254 330.019 276.86 329.831 277.418C329.642 277.972 329.366 278.456 329 278.871C328.641 279.281 328.198 279.599 327.672 279.826C327.147 280.053 326.543 280.166 325.863 280.166C325.182 280.166 324.576 280.053 324.045 279.826C323.519 279.599 323.074 279.281 322.708 278.871C322.349 278.456 322.075 277.972 321.887 277.418C321.699 276.86 321.604 276.254 321.604 275.601ZM323.995 275.426V275.601C323.995 275.977 324.028 276.328 324.095 276.655C324.161 276.981 324.266 277.269 324.41 277.518C324.56 277.762 324.753 277.952 324.991 278.091C325.229 278.229 325.52 278.298 325.863 278.298C326.195 278.298 326.48 278.229 326.718 278.091C326.956 277.952 327.147 277.762 327.291 277.518C327.434 277.269 327.54 276.981 327.606 276.655C327.678 276.328 327.714 275.977 327.714 275.601V275.426C327.714 275.061 327.678 274.718 327.606 274.397C327.54 274.07 327.432 273.783 327.282 273.534C327.138 273.279 326.947 273.08 326.709 272.936C326.472 272.792 326.184 272.72 325.846 272.72C325.509 272.72 325.221 272.792 324.983 272.936C324.75 273.08 324.56 273.279 324.41 273.534C324.266 273.783 324.161 274.07 324.095 274.397C324.028 274.718 323.995 275.061 323.995 275.426ZM333.923 272.936V280H331.532V271.019H333.773L333.923 272.936ZM333.574 275.194H332.927C332.927 274.53 333.013 273.932 333.184 273.401C333.356 272.864 333.596 272.408 333.906 272.031C334.216 271.649 334.584 271.359 335.01 271.16C335.442 270.955 335.923 270.853 336.455 270.853C336.875 270.853 337.26 270.913 337.608 271.035C337.957 271.157 338.256 271.351 338.505 271.616C338.759 271.882 338.953 272.233 339.086 272.67C339.224 273.108 339.293 273.642 339.293 274.272V280H336.886V274.264C336.886 273.866 336.831 273.556 336.72 273.334C336.61 273.113 336.446 272.958 336.23 272.87C336.02 272.776 335.76 272.729 335.45 272.729C335.129 272.729 334.85 272.792 334.612 272.919C334.379 273.047 334.186 273.224 334.031 273.451C333.881 273.672 333.768 273.932 333.69 274.231C333.613 274.53 333.574 274.851 333.574 275.194ZM345.245 280.166C344.548 280.166 343.923 280.055 343.369 279.834C342.816 279.607 342.345 279.294 341.958 278.896C341.576 278.498 341.283 278.035 341.078 277.51C340.873 276.979 340.771 276.414 340.771 275.816V275.484C340.771 274.804 340.868 274.181 341.062 273.617C341.255 273.052 341.532 272.562 341.892 272.147C342.257 271.732 342.7 271.414 343.22 271.193C343.74 270.966 344.326 270.853 344.979 270.853C345.616 270.853 346.18 270.958 346.673 271.168C347.165 271.378 347.578 271.677 347.91 272.064C348.247 272.452 348.502 272.917 348.673 273.459C348.845 273.996 348.931 274.593 348.931 275.252V276.248H341.792V274.654H346.582V274.472C346.582 274.14 346.521 273.844 346.399 273.583C346.283 273.318 346.106 273.108 345.868 272.953C345.63 272.798 345.325 272.72 344.955 272.72C344.639 272.72 344.368 272.789 344.141 272.928C343.914 273.066 343.729 273.26 343.585 273.509C343.447 273.758 343.341 274.051 343.27 274.389C343.203 274.721 343.17 275.086 343.17 275.484V275.816C343.17 276.176 343.22 276.508 343.319 276.812C343.424 277.117 343.571 277.38 343.759 277.601C343.953 277.822 344.185 277.994 344.457 278.116C344.733 278.237 345.046 278.298 345.395 278.298C345.826 278.298 346.227 278.215 346.598 278.049C346.974 277.878 347.298 277.62 347.569 277.277L348.731 278.539C348.543 278.81 348.286 279.07 347.959 279.319C347.639 279.568 347.251 279.773 346.797 279.934C346.344 280.089 345.826 280.166 345.245 280.166Z" fill="#091B35"/>
<rect x="32" y="255" width="193.06" height="39.8991" rx="10" fill="#D3F076"/>
<path d="M104.993 269.981L101.706 280H99.0581L103.549 267.914H105.234L104.993 269.981ZM107.724 280L104.429 269.981L104.163 267.914H105.865L110.38 280H107.724ZM107.575 275.501V277.452H101.191V275.501H107.575ZM116.656 278.041V267.25H119.063V280H116.896L116.656 278.041ZM110.978 275.617V275.443C110.978 274.757 111.056 274.134 111.21 273.575C111.365 273.011 111.592 272.527 111.891 272.123C112.19 271.719 112.558 271.406 112.995 271.185C113.432 270.963 113.93 270.853 114.489 270.853C115.015 270.853 115.474 270.963 115.867 271.185C116.266 271.406 116.603 271.721 116.88 272.131C117.162 272.535 117.389 273.014 117.561 273.567C117.732 274.115 117.857 274.715 117.934 275.368V275.75C117.857 276.375 117.732 276.956 117.561 277.493C117.389 278.03 117.162 278.5 116.88 278.904C116.603 279.303 116.266 279.613 115.867 279.834C115.469 280.055 115.004 280.166 114.473 280.166C113.914 280.166 113.416 280.053 112.979 279.826C112.547 279.599 112.182 279.281 111.883 278.871C111.59 278.462 111.365 277.98 111.21 277.427C111.056 276.873 110.978 276.27 110.978 275.617ZM113.369 275.443V275.617C113.369 275.988 113.396 276.334 113.452 276.655C113.513 276.976 113.609 277.261 113.742 277.51C113.881 277.753 114.058 277.944 114.273 278.083C114.495 278.215 114.763 278.282 115.079 278.282C115.488 278.282 115.826 278.19 116.091 278.008C116.357 277.82 116.559 277.562 116.697 277.236C116.841 276.909 116.924 276.533 116.946 276.107V275.02C116.93 274.671 116.88 274.358 116.797 274.082C116.719 273.799 116.603 273.559 116.448 273.359C116.299 273.16 116.111 273.005 115.884 272.895C115.662 272.784 115.4 272.729 115.095 272.729C114.785 272.729 114.52 272.8 114.298 272.944C114.077 273.083 113.897 273.274 113.759 273.517C113.626 273.761 113.526 274.048 113.46 274.38C113.399 274.707 113.369 275.061 113.369 275.443ZM126.235 278.041V267.25H128.642V280H126.476L126.235 278.041ZM120.557 275.617V275.443C120.557 274.757 120.635 274.134 120.79 273.575C120.944 273.011 121.171 272.527 121.47 272.123C121.769 271.719 122.137 271.406 122.574 271.185C123.011 270.963 123.509 270.853 124.068 270.853C124.594 270.853 125.053 270.963 125.446 271.185C125.845 271.406 126.182 271.721 126.459 272.131C126.741 272.535 126.968 273.014 127.14 273.567C127.311 274.115 127.436 274.715 127.513 275.368V275.75C127.436 276.375 127.311 276.956 127.14 277.493C126.968 278.03 126.741 278.5 126.459 278.904C126.182 279.303 125.845 279.613 125.446 279.834C125.048 280.055 124.583 280.166 124.052 280.166C123.493 280.166 122.995 280.053 122.558 279.826C122.126 279.599 121.761 279.281 121.462 278.871C121.169 278.462 120.944 277.98 120.79 277.427C120.635 276.873 120.557 276.27 120.557 275.617ZM122.948 275.443V275.617C122.948 275.988 122.975 276.334 123.031 276.655C123.092 276.976 123.188 277.261 123.321 277.51C123.46 277.753 123.637 277.944 123.853 278.083C124.074 278.215 124.342 278.282 124.658 278.282C125.067 278.282 125.405 278.19 125.67 278.008C125.936 277.82 126.138 277.562 126.276 277.236C126.42 276.909 126.503 276.533 126.525 276.107V275.02C126.509 274.671 126.459 274.358 126.376 274.082C126.299 273.799 126.182 273.559 126.027 273.359C125.878 273.16 125.69 273.005 125.463 272.895C125.242 272.784 124.979 272.729 124.674 272.729C124.364 272.729 124.099 272.8 123.877 272.944C123.656 273.083 123.476 273.274 123.338 273.517C123.205 273.761 123.105 274.048 123.039 274.38C122.978 274.707 122.948 275.061 122.948 275.443ZM139.599 277.518C139.599 277.347 139.549 277.192 139.45 277.053C139.35 276.915 139.165 276.788 138.894 276.671C138.628 276.55 138.243 276.439 137.74 276.339C137.286 276.24 136.863 276.115 136.47 275.966C136.082 275.811 135.745 275.625 135.457 275.41C135.175 275.194 134.953 274.939 134.793 274.646C134.632 274.347 134.552 274.007 134.552 273.625C134.552 273.249 134.632 272.895 134.793 272.562C134.959 272.23 135.194 271.937 135.499 271.683C135.808 271.423 136.185 271.221 136.627 271.077C137.076 270.927 137.579 270.853 138.138 270.853C138.918 270.853 139.588 270.977 140.147 271.226C140.711 271.475 141.143 271.818 141.442 272.255C141.746 272.687 141.898 273.18 141.898 273.733H139.508C139.508 273.5 139.458 273.293 139.358 273.11C139.264 272.922 139.115 272.776 138.91 272.67C138.711 272.56 138.451 272.504 138.13 272.504C137.864 272.504 137.635 272.551 137.441 272.646C137.247 272.734 137.098 272.856 136.993 273.011C136.893 273.16 136.843 273.326 136.843 273.509C136.843 273.647 136.871 273.772 136.926 273.882C136.987 273.987 137.084 274.084 137.217 274.173C137.35 274.261 137.521 274.344 137.731 274.422C137.947 274.494 138.213 274.56 138.528 274.621C139.176 274.754 139.754 274.928 140.263 275.144C140.772 275.354 141.176 275.642 141.475 276.007C141.774 276.367 141.923 276.84 141.923 277.427C141.923 277.825 141.835 278.19 141.658 278.522C141.481 278.854 141.226 279.145 140.894 279.394C140.562 279.638 140.164 279.828 139.699 279.967C139.239 280.1 138.722 280.166 138.146 280.166C137.311 280.166 136.603 280.017 136.021 279.718C135.446 279.419 135.009 279.04 134.71 278.581C134.417 278.116 134.27 277.64 134.27 277.153H136.536C136.547 277.479 136.63 277.742 136.785 277.941C136.946 278.141 137.148 278.285 137.391 278.373C137.64 278.462 137.909 278.506 138.196 278.506C138.506 278.506 138.764 278.464 138.968 278.381C139.173 278.293 139.328 278.177 139.433 278.033C139.544 277.883 139.599 277.712 139.599 277.518ZM147.609 280.166C146.912 280.166 146.287 280.055 145.733 279.834C145.18 279.607 144.71 279.294 144.322 278.896C143.94 278.498 143.647 278.035 143.442 277.51C143.238 276.979 143.135 276.414 143.135 275.816V275.484C143.135 274.804 143.232 274.181 143.426 273.617C143.619 273.052 143.896 272.562 144.256 272.147C144.621 271.732 145.064 271.414 145.584 271.193C146.104 270.966 146.691 270.853 147.344 270.853C147.98 270.853 148.545 270.958 149.037 271.168C149.53 271.378 149.942 271.677 150.274 272.064C150.611 272.452 150.866 272.917 151.038 273.459C151.209 273.996 151.295 274.593 151.295 275.252V276.248H144.156V274.654H148.946V274.472C148.946 274.14 148.885 273.844 148.763 273.583C148.647 273.318 148.47 273.108 148.232 272.953C147.994 272.798 147.69 272.72 147.319 272.72C147.003 272.72 146.732 272.789 146.505 272.928C146.278 273.066 146.093 273.26 145.949 273.509C145.811 273.758 145.706 274.051 145.634 274.389C145.567 274.721 145.534 275.086 145.534 275.484V275.816C145.534 276.176 145.584 276.508 145.684 276.812C145.789 277.117 145.935 277.38 146.124 277.601C146.317 277.822 146.55 277.994 146.821 278.116C147.097 278.237 147.41 278.298 147.759 278.298C148.19 278.298 148.592 278.215 148.962 278.049C149.339 277.878 149.662 277.62 149.934 277.277L151.096 278.539C150.908 278.81 150.65 279.07 150.324 279.319C150.003 279.568 149.615 279.773 149.162 279.934C148.708 280.089 148.19 280.166 147.609 280.166ZM157.056 271.019V272.712H151.826V271.019H157.056ZM153.121 268.802H155.512V277.294C155.512 277.554 155.545 277.753 155.611 277.892C155.683 278.03 155.788 278.127 155.927 278.182C156.065 278.232 156.239 278.257 156.45 278.257C156.599 278.257 156.732 278.251 156.848 278.24C156.97 278.224 157.072 278.207 157.155 278.19L157.164 279.95C156.959 280.017 156.737 280.069 156.5 280.108C156.262 280.147 155.999 280.166 155.711 280.166C155.185 280.166 154.726 280.08 154.333 279.909C153.946 279.732 153.647 279.449 153.437 279.062C153.226 278.675 153.121 278.166 153.121 277.535V268.802Z" fill="#091B35"/>
<defs>
<filter id="filter0_d_142652_1500" x="0" y="0" width="448.218" height="313.809" filterUnits="userSpaceOnUse" color-interpolation-filters="sRGB">
<feFlood flood-opacity="0" result="BackgroundImageFix"/>
<feColorMatrix in="SourceAlpha" type="matrix" values="0 0 0 0 0 0 0 0 0 0 0 0 0 0 0 0 0 0 127 0" result="hardAlpha"/>
<feOffset dx="2" dy="2"/>
<feGaussianBlur stdDeviation="3"/>
<feComposite in2="hardAlpha" operator="out"/>
<feColorMatrix type="matrix" values="0 0 0 0 0 0 0 0 0 0 0 0 0 0 0 0 0 0 0.25 0"/>
<feBlend mode="normal" in2="BackgroundImageFix" result="effect1_dropShadow_142652_1500"/>
<feBlend mode="normal" in="SourceGraphic" in2="effect1_dropShadow_142652_1500" result="shape"/>
</filter>
</defs>
</svg>
