<svg width="369" height="259" viewBox="0 0 369 259" fill="none" xmlns="http://www.w3.org/2000/svg">
<g filter="url(#filter0_d_142651_1217)">
<rect x="4" y="4" width="357" height="247" rx="15" fill="white"/>
</g>
<rect x="299.75" y="128.25" width="12.5" height="9.5" rx="2.25" stroke="#091B35" stroke-width="1.5"/>
<path d="M319 128V124.5C319 122.015 316.985 120 314.5 120V120C312.015 120 310 122.015 310 124.5L310 128" stroke="#091B35" stroke-width="1.5"/>
<rect x="176.25" y="108.25" width="112.5" height="37.5" rx="8.75" fill="#F6F6F6" stroke="#E5E5E5" stroke-width="2.5"/>
<rect x="58.25" y="108.25" width="108.5" height="37.5" rx="8.75" fill="#F6F6F6" stroke="#E5E5E5" stroke-width="2.5"/>
<path d="M39.2656 121.602V133H37.0156V124.195L34.3125 125.055V123.281L39.0234 121.602H39.2656Z" fill="#091B35"/>
<path d="M69.8516 128.133L72.3916 119.203H73.6221L72.9102 122.675L70.1768 132H68.9551L69.8516 128.133ZM67.2236 119.203L69.2451 127.957L69.8516 132H68.6387L65.5361 119.203H67.2236ZM76.9092 127.948L78.8867 119.203H80.583L77.4893 132H76.2764L76.9092 127.948ZM73.8066 119.203L76.2764 128.133L77.1729 132H75.9512L73.3145 122.675L72.5938 119.203H73.8066ZM85.8828 132.176C85.2207 132.176 84.6201 132.064 84.0811 131.842C83.5479 131.613 83.0879 131.294 82.7012 130.884C82.3203 130.474 82.0273 129.987 81.8223 129.425C81.6172 128.862 81.5146 128.247 81.5146 127.579V127.21C81.5146 126.437 81.6289 125.748 81.8574 125.145C82.0859 124.535 82.3965 124.02 82.7891 123.598C83.1816 123.176 83.627 122.856 84.125 122.64C84.623 122.423 85.1387 122.314 85.6719 122.314C86.3516 122.314 86.9375 122.432 87.4297 122.666C87.9277 122.9 88.335 123.229 88.6514 123.65C88.9678 124.066 89.2021 124.559 89.3545 125.127C89.5068 125.689 89.583 126.305 89.583 126.973V127.702H82.4814V126.375H87.957V126.252C87.9336 125.83 87.8457 125.42 87.6934 125.021C87.5469 124.623 87.3125 124.295 86.9902 124.037C86.668 123.779 86.2285 123.65 85.6719 123.65C85.3027 123.65 84.9629 123.729 84.6523 123.888C84.3418 124.04 84.0752 124.269 83.8525 124.573C83.6299 124.878 83.457 125.25 83.334 125.689C83.2109 126.129 83.1494 126.636 83.1494 127.21V127.579C83.1494 128.03 83.2109 128.455 83.334 128.854C83.4629 129.246 83.6475 129.592 83.8877 129.891C84.1338 130.189 84.4297 130.424 84.7754 130.594C85.127 130.764 85.5254 130.849 85.9707 130.849C86.5449 130.849 87.0312 130.731 87.4297 130.497C87.8281 130.263 88.1768 129.949 88.4756 129.557L89.46 130.339C89.2549 130.649 88.9941 130.945 88.6777 131.227C88.3613 131.508 87.9717 131.736 87.5088 131.912C87.0518 132.088 86.5098 132.176 85.8828 132.176ZM93.248 122.49V132H91.6133V122.49H93.248ZM91.4902 119.968C91.4902 119.704 91.5693 119.481 91.7275 119.3C91.8916 119.118 92.1318 119.027 92.4482 119.027C92.7588 119.027 92.9961 119.118 93.1602 119.3C93.3301 119.481 93.415 119.704 93.415 119.968C93.415 120.22 93.3301 120.437 93.1602 120.618C92.9961 120.794 92.7588 120.882 92.4482 120.882C92.1318 120.882 91.8916 120.794 91.7275 120.618C91.5693 120.437 91.4902 120.22 91.4902 119.968ZM102.02 122.49H103.496V131.798C103.496 132.636 103.326 133.351 102.986 133.942C102.646 134.534 102.172 134.982 101.562 135.287C100.959 135.598 100.262 135.753 99.4707 135.753C99.1426 135.753 98.7559 135.7 98.3105 135.595C97.8711 135.495 97.4375 135.322 97.0098 135.076C96.5879 134.836 96.2334 134.511 95.9463 134.101L96.7988 133.134C97.1973 133.614 97.6133 133.948 98.0469 134.136C98.4863 134.323 98.9199 134.417 99.3477 134.417C99.8633 134.417 100.309 134.32 100.684 134.127C101.059 133.934 101.349 133.646 101.554 133.266C101.765 132.891 101.87 132.428 101.87 131.877V124.582L102.02 122.49ZM95.4717 127.351V127.166C95.4717 126.439 95.5566 125.78 95.7266 125.188C95.9023 124.591 96.1514 124.078 96.4736 123.65C96.8018 123.223 97.1973 122.895 97.6602 122.666C98.123 122.432 98.6445 122.314 99.2246 122.314C99.8223 122.314 100.344 122.42 100.789 122.631C101.24 122.836 101.621 123.138 101.932 123.536C102.248 123.929 102.497 124.403 102.679 124.96C102.86 125.517 102.986 126.146 103.057 126.85V127.658C102.992 128.355 102.866 128.982 102.679 129.539C102.497 130.096 102.248 130.57 101.932 130.963C101.621 131.355 101.24 131.657 100.789 131.868C100.338 132.073 99.8105 132.176 99.207 132.176C98.6387 132.176 98.123 132.056 97.6602 131.815C97.2031 131.575 96.8105 131.238 96.4824 130.805C96.1543 130.371 95.9023 129.861 95.7266 129.275C95.5566 128.684 95.4717 128.042 95.4717 127.351ZM97.0977 127.166V127.351C97.0977 127.825 97.1445 128.271 97.2383 128.687C97.3379 129.103 97.4873 129.469 97.6865 129.785C97.8916 130.102 98.1523 130.351 98.4688 130.532C98.7852 130.708 99.1631 130.796 99.6025 130.796C100.142 130.796 100.587 130.682 100.938 130.453C101.29 130.225 101.568 129.923 101.773 129.548C101.984 129.173 102.148 128.766 102.266 128.326V126.208C102.201 125.886 102.102 125.575 101.967 125.276C101.838 124.972 101.668 124.702 101.457 124.468C101.252 124.228 100.997 124.037 100.692 123.896C100.388 123.756 100.03 123.686 99.6201 123.686C99.1748 123.686 98.791 123.779 98.4688 123.967C98.1523 124.148 97.8916 124.4 97.6865 124.723C97.4873 125.039 97.3379 125.408 97.2383 125.83C97.1445 126.246 97.0977 126.691 97.0977 127.166ZM107.592 118.5V132H105.966V118.5H107.592ZM107.205 126.885L106.528 126.858C106.534 126.208 106.631 125.607 106.818 125.057C107.006 124.5 107.27 124.017 107.609 123.606C107.949 123.196 108.354 122.88 108.822 122.657C109.297 122.429 109.821 122.314 110.396 122.314C110.864 122.314 111.286 122.379 111.661 122.508C112.036 122.631 112.355 122.83 112.619 123.105C112.889 123.381 113.094 123.738 113.234 124.178C113.375 124.611 113.445 125.142 113.445 125.769V132H111.811V125.751C111.811 125.253 111.737 124.854 111.591 124.556C111.444 124.251 111.23 124.031 110.949 123.896C110.668 123.756 110.322 123.686 109.912 123.686C109.508 123.686 109.139 123.771 108.805 123.94C108.477 124.11 108.192 124.345 107.952 124.644C107.718 124.942 107.533 125.285 107.398 125.672C107.27 126.053 107.205 126.457 107.205 126.885ZM119.861 122.49V123.738H114.72V122.49H119.861ZM116.46 120.179H118.086V129.645C118.086 129.967 118.136 130.21 118.235 130.374C118.335 130.538 118.464 130.646 118.622 130.699C118.78 130.752 118.95 130.778 119.132 130.778C119.267 130.778 119.407 130.767 119.554 130.743C119.706 130.714 119.82 130.69 119.896 130.673L119.905 132C119.776 132.041 119.606 132.079 119.396 132.114C119.19 132.155 118.941 132.176 118.648 132.176C118.25 132.176 117.884 132.097 117.55 131.938C117.216 131.78 116.949 131.517 116.75 131.147C116.557 130.772 116.46 130.269 116.46 129.636V120.179Z" fill="#9EA4AE"/>
<path d="M184.485 119.203H188.722C189.683 119.203 190.494 119.35 191.156 119.643C191.824 119.936 192.331 120.369 192.677 120.943C193.028 121.512 193.204 122.212 193.204 123.044C193.204 123.63 193.084 124.166 192.844 124.652C192.609 125.133 192.27 125.543 191.824 125.883C191.385 126.217 190.857 126.466 190.242 126.63L189.768 126.814H185.786L185.769 125.435H188.774C189.384 125.435 189.891 125.329 190.295 125.118C190.699 124.901 191.004 124.611 191.209 124.248C191.414 123.885 191.517 123.483 191.517 123.044C191.517 122.552 191.42 122.121 191.227 121.752C191.033 121.383 190.729 121.099 190.312 120.899C189.902 120.694 189.372 120.592 188.722 120.592H186.182V132H184.485V119.203ZM191.965 132L188.854 126.199L190.62 126.19L193.775 131.895V132H191.965ZM199.277 132.176C198.615 132.176 198.015 132.064 197.476 131.842C196.942 131.613 196.482 131.294 196.096 130.884C195.715 130.474 195.422 129.987 195.217 129.425C195.012 128.862 194.909 128.247 194.909 127.579V127.21C194.909 126.437 195.023 125.748 195.252 125.145C195.48 124.535 195.791 124.02 196.184 123.598C196.576 123.176 197.021 122.856 197.52 122.64C198.018 122.423 198.533 122.314 199.066 122.314C199.746 122.314 200.332 122.432 200.824 122.666C201.322 122.9 201.729 123.229 202.046 123.65C202.362 124.066 202.597 124.559 202.749 125.127C202.901 125.689 202.978 126.305 202.978 126.973V127.702H195.876V126.375H201.352V126.252C201.328 125.83 201.24 125.42 201.088 125.021C200.941 124.623 200.707 124.295 200.385 124.037C200.062 123.779 199.623 123.65 199.066 123.65C198.697 123.65 198.357 123.729 198.047 123.888C197.736 124.04 197.47 124.269 197.247 124.573C197.024 124.878 196.852 125.25 196.729 125.689C196.605 126.129 196.544 126.636 196.544 127.21V127.579C196.544 128.03 196.605 128.455 196.729 128.854C196.857 129.246 197.042 129.592 197.282 129.891C197.528 130.189 197.824 130.424 198.17 130.594C198.521 130.764 198.92 130.849 199.365 130.849C199.939 130.849 200.426 130.731 200.824 130.497C201.223 130.263 201.571 129.949 201.87 129.557L202.854 130.339C202.649 130.649 202.389 130.945 202.072 131.227C201.756 131.508 201.366 131.736 200.903 131.912C200.446 132.088 199.904 132.176 199.277 132.176ZM206.502 124.318V135.656H204.867V122.49H206.361L206.502 124.318ZM212.909 127.166V127.351C212.909 128.042 212.827 128.684 212.663 129.275C212.499 129.861 212.259 130.371 211.942 130.805C211.632 131.238 211.248 131.575 210.791 131.815C210.334 132.056 209.81 132.176 209.218 132.176C208.614 132.176 208.081 132.076 207.618 131.877C207.155 131.678 206.763 131.388 206.44 131.007C206.118 130.626 205.86 130.169 205.667 129.636C205.479 129.103 205.351 128.502 205.28 127.834V126.85C205.351 126.146 205.482 125.517 205.676 124.96C205.869 124.403 206.124 123.929 206.44 123.536C206.763 123.138 207.152 122.836 207.609 122.631C208.066 122.42 208.594 122.314 209.191 122.314C209.789 122.314 210.319 122.432 210.782 122.666C211.245 122.895 211.635 123.223 211.951 123.65C212.268 124.078 212.505 124.591 212.663 125.188C212.827 125.78 212.909 126.439 212.909 127.166ZM211.274 127.351V127.166C211.274 126.691 211.225 126.246 211.125 125.83C211.025 125.408 210.87 125.039 210.659 124.723C210.454 124.4 210.19 124.148 209.868 123.967C209.546 123.779 209.162 123.686 208.717 123.686C208.307 123.686 207.949 123.756 207.645 123.896C207.346 124.037 207.091 124.228 206.88 124.468C206.669 124.702 206.496 124.972 206.361 125.276C206.232 125.575 206.136 125.886 206.071 126.208V128.484C206.188 128.895 206.353 129.281 206.563 129.645C206.774 130.002 207.056 130.292 207.407 130.515C207.759 130.731 208.201 130.84 208.734 130.84C209.174 130.84 209.552 130.749 209.868 130.567C210.19 130.38 210.454 130.125 210.659 129.803C210.87 129.48 211.025 129.111 211.125 128.695C211.225 128.273 211.274 127.825 211.274 127.351ZM220.521 129.478C220.521 129.243 220.468 129.026 220.362 128.827C220.263 128.622 220.055 128.438 219.738 128.273C219.428 128.104 218.959 127.957 218.332 127.834C217.805 127.723 217.327 127.591 216.899 127.438C216.478 127.286 216.117 127.102 215.818 126.885C215.525 126.668 215.3 126.413 215.142 126.12C214.983 125.827 214.904 125.484 214.904 125.092C214.904 124.717 214.986 124.362 215.15 124.028C215.32 123.694 215.558 123.398 215.862 123.141C216.173 122.883 216.545 122.681 216.979 122.534C217.412 122.388 217.896 122.314 218.429 122.314C219.19 122.314 219.841 122.449 220.38 122.719C220.919 122.988 221.332 123.349 221.619 123.8C221.906 124.245 222.05 124.74 222.05 125.285H220.424C220.424 125.021 220.345 124.767 220.187 124.521C220.034 124.269 219.809 124.061 219.51 123.896C219.217 123.732 218.856 123.65 218.429 123.65C217.978 123.65 217.611 123.721 217.33 123.861C217.055 123.996 216.853 124.169 216.724 124.38C216.601 124.591 216.539 124.813 216.539 125.048C216.539 125.224 216.568 125.382 216.627 125.522C216.691 125.657 216.803 125.783 216.961 125.9C217.119 126.012 217.342 126.117 217.629 126.217C217.916 126.316 218.282 126.416 218.728 126.516C219.507 126.691 220.148 126.902 220.652 127.148C221.156 127.395 221.531 127.696 221.777 128.054C222.023 128.411 222.146 128.845 222.146 129.354C222.146 129.771 222.059 130.151 221.883 130.497C221.713 130.843 221.464 131.142 221.136 131.394C220.813 131.64 220.427 131.833 219.976 131.974C219.53 132.108 219.029 132.176 218.473 132.176C217.635 132.176 216.926 132.026 216.346 131.728C215.766 131.429 215.326 131.042 215.027 130.567C214.729 130.093 214.579 129.592 214.579 129.064H216.214C216.237 129.51 216.366 129.864 216.601 130.128C216.835 130.386 217.122 130.57 217.462 130.682C217.802 130.787 218.139 130.84 218.473 130.84C218.918 130.84 219.29 130.781 219.589 130.664C219.894 130.547 220.125 130.386 220.283 130.181C220.441 129.976 220.521 129.741 220.521 129.478Z" fill="#9EA4AE"/>
<path d="M337.5 177L327 187.5M327 177L337.5 187.5" stroke="#091B35" stroke-width="1.5"/>
<rect x="299.75" y="180.25" width="12.5" height="9.5" rx="2.25" stroke="#091B35" stroke-width="1.5"/>
<path d="M319 180V176.5C319 174.015 316.985 172 314.5 172V172C312.015 172 310 174.015 310 176.5L310 180" stroke="#091B35" stroke-width="1.5"/>
<rect x="176.25" y="160.25" width="112.5" height="37.5" rx="8.75" fill="#F6F6F6" stroke="#E5E5E5" stroke-width="2.5"/>
<rect x="58.25" y="160.25" width="108.5" height="37.5" rx="8.75" fill="#F6F6F6" stroke="#E5E5E5" stroke-width="2.5"/>
<path d="M41.5625 183.242V185H33.7812V183.5L37.4609 179.555C37.8307 179.143 38.1224 178.781 38.3359 178.469C38.5495 178.151 38.7031 177.867 38.7969 177.617C38.8958 177.362 38.9453 177.12 38.9453 176.891C38.9453 176.547 38.888 176.253 38.7734 176.008C38.6589 175.758 38.4896 175.565 38.2656 175.43C38.0469 175.294 37.776 175.227 37.4531 175.227C37.1094 175.227 36.8125 175.31 36.5625 175.477C36.3177 175.643 36.1302 175.875 36 176.172C35.875 176.469 35.8125 176.805 35.8125 177.18H33.5547C33.5547 176.503 33.7161 175.883 34.0391 175.32C34.362 174.753 34.8177 174.302 35.4062 173.969C35.9948 173.63 36.6927 173.461 37.5 173.461C38.2969 173.461 38.9688 173.591 39.5156 173.852C40.0677 174.107 40.4844 174.477 40.7656 174.961C41.0521 175.44 41.1953 176.013 41.1953 176.68C41.1953 177.055 41.1354 177.422 41.0156 177.781C40.8958 178.135 40.724 178.49 40.5 178.844C40.2812 179.193 40.0156 179.547 39.7031 179.906C39.3906 180.266 39.0443 180.638 38.6641 181.023L36.6875 183.242H41.5625Z" fill="#091B35"/>
<path d="M69.8516 180.133L72.3916 171.203H73.6221L72.9102 174.675L70.1768 184H68.9551L69.8516 180.133ZM67.2236 171.203L69.2451 179.957L69.8516 184H68.6387L65.5361 171.203H67.2236ZM76.9092 179.948L78.8867 171.203H80.583L77.4893 184H76.2764L76.9092 179.948ZM73.8066 171.203L76.2764 180.133L77.1729 184H75.9512L73.3145 174.675L72.5938 171.203H73.8066ZM85.8828 184.176C85.2207 184.176 84.6201 184.064 84.0811 183.842C83.5479 183.613 83.0879 183.294 82.7012 182.884C82.3203 182.474 82.0273 181.987 81.8223 181.425C81.6172 180.862 81.5146 180.247 81.5146 179.579V179.21C81.5146 178.437 81.6289 177.748 81.8574 177.145C82.0859 176.535 82.3965 176.02 82.7891 175.598C83.1816 175.176 83.627 174.856 84.125 174.64C84.623 174.423 85.1387 174.314 85.6719 174.314C86.3516 174.314 86.9375 174.432 87.4297 174.666C87.9277 174.9 88.335 175.229 88.6514 175.65C88.9678 176.066 89.2021 176.559 89.3545 177.127C89.5068 177.689 89.583 178.305 89.583 178.973V179.702H82.4814V178.375H87.957V178.252C87.9336 177.83 87.8457 177.42 87.6934 177.021C87.5469 176.623 87.3125 176.295 86.9902 176.037C86.668 175.779 86.2285 175.65 85.6719 175.65C85.3027 175.65 84.9629 175.729 84.6523 175.888C84.3418 176.04 84.0752 176.269 83.8525 176.573C83.6299 176.878 83.457 177.25 83.334 177.689C83.2109 178.129 83.1494 178.636 83.1494 179.21V179.579C83.1494 180.03 83.2109 180.455 83.334 180.854C83.4629 181.246 83.6475 181.592 83.8877 181.891C84.1338 182.189 84.4297 182.424 84.7754 182.594C85.127 182.764 85.5254 182.849 85.9707 182.849C86.5449 182.849 87.0312 182.731 87.4297 182.497C87.8281 182.263 88.1768 181.949 88.4756 181.557L89.46 182.339C89.2549 182.649 88.9941 182.945 88.6777 183.227C88.3613 183.508 87.9717 183.736 87.5088 183.912C87.0518 184.088 86.5098 184.176 85.8828 184.176ZM93.248 174.49V184H91.6133V174.49H93.248ZM91.4902 171.968C91.4902 171.704 91.5693 171.481 91.7275 171.3C91.8916 171.118 92.1318 171.027 92.4482 171.027C92.7588 171.027 92.9961 171.118 93.1602 171.3C93.3301 171.481 93.415 171.704 93.415 171.968C93.415 172.22 93.3301 172.437 93.1602 172.618C92.9961 172.794 92.7588 172.882 92.4482 172.882C92.1318 172.882 91.8916 172.794 91.7275 172.618C91.5693 172.437 91.4902 172.22 91.4902 171.968ZM102.02 174.49H103.496V183.798C103.496 184.636 103.326 185.351 102.986 185.942C102.646 186.534 102.172 186.982 101.562 187.287C100.959 187.598 100.262 187.753 99.4707 187.753C99.1426 187.753 98.7559 187.7 98.3105 187.595C97.8711 187.495 97.4375 187.322 97.0098 187.076C96.5879 186.836 96.2334 186.511 95.9463 186.101L96.7988 185.134C97.1973 185.614 97.6133 185.948 98.0469 186.136C98.4863 186.323 98.9199 186.417 99.3477 186.417C99.8633 186.417 100.309 186.32 100.684 186.127C101.059 185.934 101.349 185.646 101.554 185.266C101.765 184.891 101.87 184.428 101.87 183.877V176.582L102.02 174.49ZM95.4717 179.351V179.166C95.4717 178.439 95.5566 177.78 95.7266 177.188C95.9023 176.591 96.1514 176.078 96.4736 175.65C96.8018 175.223 97.1973 174.895 97.6602 174.666C98.123 174.432 98.6445 174.314 99.2246 174.314C99.8223 174.314 100.344 174.42 100.789 174.631C101.24 174.836 101.621 175.138 101.932 175.536C102.248 175.929 102.497 176.403 102.679 176.96C102.86 177.517 102.986 178.146 103.057 178.85V179.658C102.992 180.355 102.866 180.982 102.679 181.539C102.497 182.096 102.248 182.57 101.932 182.963C101.621 183.355 101.24 183.657 100.789 183.868C100.338 184.073 99.8105 184.176 99.207 184.176C98.6387 184.176 98.123 184.056 97.6602 183.815C97.2031 183.575 96.8105 183.238 96.4824 182.805C96.1543 182.371 95.9023 181.861 95.7266 181.275C95.5566 180.684 95.4717 180.042 95.4717 179.351ZM97.0977 179.166V179.351C97.0977 179.825 97.1445 180.271 97.2383 180.687C97.3379 181.103 97.4873 181.469 97.6865 181.785C97.8916 182.102 98.1523 182.351 98.4688 182.532C98.7852 182.708 99.1631 182.796 99.6025 182.796C100.142 182.796 100.587 182.682 100.938 182.453C101.29 182.225 101.568 181.923 101.773 181.548C101.984 181.173 102.148 180.766 102.266 180.326V178.208C102.201 177.886 102.102 177.575 101.967 177.276C101.838 176.972 101.668 176.702 101.457 176.468C101.252 176.228 100.997 176.037 100.692 175.896C100.388 175.756 100.03 175.686 99.6201 175.686C99.1748 175.686 98.791 175.779 98.4688 175.967C98.1523 176.148 97.8916 176.4 97.6865 176.723C97.4873 177.039 97.3379 177.408 97.2383 177.83C97.1445 178.246 97.0977 178.691 97.0977 179.166ZM107.592 170.5V184H105.966V170.5H107.592ZM107.205 178.885L106.528 178.858C106.534 178.208 106.631 177.607 106.818 177.057C107.006 176.5 107.27 176.017 107.609 175.606C107.949 175.196 108.354 174.88 108.822 174.657C109.297 174.429 109.821 174.314 110.396 174.314C110.864 174.314 111.286 174.379 111.661 174.508C112.036 174.631 112.355 174.83 112.619 175.105C112.889 175.381 113.094 175.738 113.234 176.178C113.375 176.611 113.445 177.142 113.445 177.769V184H111.811V177.751C111.811 177.253 111.737 176.854 111.591 176.556C111.444 176.251 111.23 176.031 110.949 175.896C110.668 175.756 110.322 175.686 109.912 175.686C109.508 175.686 109.139 175.771 108.805 175.94C108.477 176.11 108.192 176.345 107.952 176.644C107.718 176.942 107.533 177.285 107.398 177.672C107.27 178.053 107.205 178.457 107.205 178.885ZM119.861 174.49V175.738H114.72V174.49H119.861ZM116.46 172.179H118.086V181.645C118.086 181.967 118.136 182.21 118.235 182.374C118.335 182.538 118.464 182.646 118.622 182.699C118.78 182.752 118.95 182.778 119.132 182.778C119.267 182.778 119.407 182.767 119.554 182.743C119.706 182.714 119.82 182.69 119.896 182.673L119.905 184C119.776 184.041 119.606 184.079 119.396 184.114C119.19 184.155 118.941 184.176 118.648 184.176C118.25 184.176 117.884 184.097 117.55 183.938C117.216 183.78 116.949 183.517 116.75 183.147C116.557 182.772 116.46 182.269 116.46 181.636V172.179Z" fill="#9EA4AE"/>
<path d="M184.485 171.203H188.722C189.683 171.203 190.494 171.35 191.156 171.643C191.824 171.936 192.331 172.369 192.677 172.943C193.028 173.512 193.204 174.212 193.204 175.044C193.204 175.63 193.084 176.166 192.844 176.652C192.609 177.133 192.27 177.543 191.824 177.883C191.385 178.217 190.857 178.466 190.242 178.63L189.768 178.814H185.786L185.769 177.435H188.774C189.384 177.435 189.891 177.329 190.295 177.118C190.699 176.901 191.004 176.611 191.209 176.248C191.414 175.885 191.517 175.483 191.517 175.044C191.517 174.552 191.42 174.121 191.227 173.752C191.033 173.383 190.729 173.099 190.312 172.899C189.902 172.694 189.372 172.592 188.722 172.592H186.182V184H184.485V171.203ZM191.965 184L188.854 178.199L190.62 178.19L193.775 183.895V184H191.965ZM199.277 184.176C198.615 184.176 198.015 184.064 197.476 183.842C196.942 183.613 196.482 183.294 196.096 182.884C195.715 182.474 195.422 181.987 195.217 181.425C195.012 180.862 194.909 180.247 194.909 179.579V179.21C194.909 178.437 195.023 177.748 195.252 177.145C195.48 176.535 195.791 176.02 196.184 175.598C196.576 175.176 197.021 174.856 197.52 174.64C198.018 174.423 198.533 174.314 199.066 174.314C199.746 174.314 200.332 174.432 200.824 174.666C201.322 174.9 201.729 175.229 202.046 175.65C202.362 176.066 202.597 176.559 202.749 177.127C202.901 177.689 202.978 178.305 202.978 178.973V179.702H195.876V178.375H201.352V178.252C201.328 177.83 201.24 177.42 201.088 177.021C200.941 176.623 200.707 176.295 200.385 176.037C200.062 175.779 199.623 175.65 199.066 175.65C198.697 175.65 198.357 175.729 198.047 175.888C197.736 176.04 197.47 176.269 197.247 176.573C197.024 176.878 196.852 177.25 196.729 177.689C196.605 178.129 196.544 178.636 196.544 179.21V179.579C196.544 180.03 196.605 180.455 196.729 180.854C196.857 181.246 197.042 181.592 197.282 181.891C197.528 182.189 197.824 182.424 198.17 182.594C198.521 182.764 198.92 182.849 199.365 182.849C199.939 182.849 200.426 182.731 200.824 182.497C201.223 182.263 201.571 181.949 201.87 181.557L202.854 182.339C202.649 182.649 202.389 182.945 202.072 183.227C201.756 183.508 201.366 183.736 200.903 183.912C200.446 184.088 199.904 184.176 199.277 184.176ZM206.502 176.318V187.656H204.867V174.49H206.361L206.502 176.318ZM212.909 179.166V179.351C212.909 180.042 212.827 180.684 212.663 181.275C212.499 181.861 212.259 182.371 211.942 182.805C211.632 183.238 211.248 183.575 210.791 183.815C210.334 184.056 209.81 184.176 209.218 184.176C208.614 184.176 208.081 184.076 207.618 183.877C207.155 183.678 206.763 183.388 206.44 183.007C206.118 182.626 205.86 182.169 205.667 181.636C205.479 181.103 205.351 180.502 205.28 179.834V178.85C205.351 178.146 205.482 177.517 205.676 176.96C205.869 176.403 206.124 175.929 206.44 175.536C206.763 175.138 207.152 174.836 207.609 174.631C208.066 174.42 208.594 174.314 209.191 174.314C209.789 174.314 210.319 174.432 210.782 174.666C211.245 174.895 211.635 175.223 211.951 175.65C212.268 176.078 212.505 176.591 212.663 177.188C212.827 177.78 212.909 178.439 212.909 179.166ZM211.274 179.351V179.166C211.274 178.691 211.225 178.246 211.125 177.83C211.025 177.408 210.87 177.039 210.659 176.723C210.454 176.4 210.19 176.148 209.868 175.967C209.546 175.779 209.162 175.686 208.717 175.686C208.307 175.686 207.949 175.756 207.645 175.896C207.346 176.037 207.091 176.228 206.88 176.468C206.669 176.702 206.496 176.972 206.361 177.276C206.232 177.575 206.136 177.886 206.071 178.208V180.484C206.188 180.895 206.353 181.281 206.563 181.645C206.774 182.002 207.056 182.292 207.407 182.515C207.759 182.731 208.201 182.84 208.734 182.84C209.174 182.84 209.552 182.749 209.868 182.567C210.19 182.38 210.454 182.125 210.659 181.803C210.87 181.48 211.025 181.111 211.125 180.695C211.225 180.273 211.274 179.825 211.274 179.351ZM220.521 181.478C220.521 181.243 220.468 181.026 220.362 180.827C220.263 180.622 220.055 180.438 219.738 180.273C219.428 180.104 218.959 179.957 218.332 179.834C217.805 179.723 217.327 179.591 216.899 179.438C216.478 179.286 216.117 179.102 215.818 178.885C215.525 178.668 215.3 178.413 215.142 178.12C214.983 177.827 214.904 177.484 214.904 177.092C214.904 176.717 214.986 176.362 215.15 176.028C215.32 175.694 215.558 175.398 215.862 175.141C216.173 174.883 216.545 174.681 216.979 174.534C217.412 174.388 217.896 174.314 218.429 174.314C219.19 174.314 219.841 174.449 220.38 174.719C220.919 174.988 221.332 175.349 221.619 175.8C221.906 176.245 222.05 176.74 222.05 177.285H220.424C220.424 177.021 220.345 176.767 220.187 176.521C220.034 176.269 219.809 176.061 219.51 175.896C219.217 175.732 218.856 175.65 218.429 175.65C217.978 175.65 217.611 175.721 217.33 175.861C217.055 175.996 216.853 176.169 216.724 176.38C216.601 176.591 216.539 176.813 216.539 177.048C216.539 177.224 216.568 177.382 216.627 177.522C216.691 177.657 216.803 177.783 216.961 177.9C217.119 178.012 217.342 178.117 217.629 178.217C217.916 178.316 218.282 178.416 218.728 178.516C219.507 178.691 220.148 178.902 220.652 179.148C221.156 179.395 221.531 179.696 221.777 180.054C222.023 180.411 222.146 180.845 222.146 181.354C222.146 181.771 222.059 182.151 221.883 182.497C221.713 182.843 221.464 183.142 221.136 183.394C220.813 183.64 220.427 183.833 219.976 183.974C219.53 184.108 219.029 184.176 218.473 184.176C217.635 184.176 216.926 184.026 216.346 183.728C215.766 183.429 215.326 183.042 215.027 182.567C214.729 182.093 214.579 181.592 214.579 181.064H216.214C216.237 181.51 216.366 181.864 216.601 182.128C216.835 182.386 217.122 182.57 217.462 182.682C217.802 182.787 218.139 182.84 218.473 182.84C218.918 182.84 219.29 182.781 219.589 182.664C219.894 182.547 220.125 182.386 220.283 182.181C220.441 181.976 220.521 181.741 220.521 181.478Z" fill="#9EA4AE"/>
<rect x="14" y="13" width="338" height="82" rx="15" fill="#867FF1"/>
<circle cx="62" cy="54" r="34" fill="#A49AF4"/>
<path fill-rule="evenodd" clip-rule="evenodd" d="M45.8106 40.0345C45.8106 45.0966 46.6137 49.9064 47.5267 54.1692C48.1487 57.0746 48.8281 61.2618 49.0948 64.4365C49.2157 65.8752 50.0208 69.2823 49.0128 70.2907C48.7588 70.5444 48.0944 70.7257 47.6677 70.8475L43.1824 72.1731C41.8633 72.5811 40 72.779 40 75.2247C40 76.0685 40.881 76.3241 41.5843 76.4932C42.3817 76.6852 43.0753 76.9216 43.8859 77.1499C46.1744 77.794 48.6227 78.3295 51.0319 78.6675C51.859 78.7834 52.8936 78.9321 53.732 78.9257C54.6771 78.9182 55.6871 79.1733 56.3366 78.779C58.1242 77.6933 56.9871 73.9378 56.9056 72.2637L56.4808 63.1777C56.4876 57.618 56.8585 58.2324 58.1504 53.0118C60.1673 44.8599 59.8079 42.871 58.4127 34.4034C58.1379 32.7353 57.7916 31.2286 57.522 29.5876C57.4046 28.8716 57.3431 27.7764 56.8838 27.3731C56.2737 26.8371 49.9003 27.0361 48.7687 27.0361C47.4797 27.0361 47.3929 28.2123 47.142 29.3191C46.8793 30.4785 46.684 31.4996 46.4532 32.646C46.0249 34.7726 45.8106 37.5176 45.8106 40.0345Z" fill="#484E68"/>
<path fill-rule="evenodd" clip-rule="evenodd" d="M64.1934 44.4729C64.1934 50.0504 66.2272 54.1372 67.0473 58.9491C67.2698 60.2557 67.2645 61.5246 67.2564 63.0726C67.2522 63.9041 67.3687 64.2727 67.3643 65.0784C67.3586 66.0645 67.3265 68.5168 67.4397 69.3358L67.319 73.5956C66.9739 75.9828 67.04 78.1569 69.8575 78.8589C71.7971 79.342 79.4476 77.1679 81.9838 76.5346C82.3956 76.4316 82.8272 76.3943 83.1482 76.2199C84.3792 75.5511 83.5598 73.0663 82.0278 72.6029C80.9364 72.2728 79.7965 71.9994 78.6895 71.7149C76.3606 71.1163 74.4413 71.054 74.4413 67.1934C74.4413 64.0868 75.6681 56.5598 76.2982 53.7279L77.4082 47.2296C78.219 40.1696 78.1665 36.3303 76.6178 29.5089C76.4897 28.9439 76.4048 28.37 76.2282 27.8906C76.0728 27.4679 75.647 27.0362 75.0751 27.0362C74.0139 27.0362 67.5262 26.8693 66.9121 27.3251C66.3752 27.7236 66.3695 28.7709 66.2279 29.494C65.9089 31.1255 65.6141 32.6762 65.3414 34.3137C64.8272 37.4017 64.1934 40.8878 64.1934 44.4729Z" fill="#484E68"/>
<path fill-rule="evenodd" clip-rule="evenodd" d="M51.7901 39.5061L51.7907 41.1968C51.7922 44.2044 52.0825 56.1769 55.2136 55.8908C57.4727 54.5783 57.3506 44.295 56.8621 41.3424C56.5244 39.2996 55.0353 33.5215 54.3004 31.3316C53.9908 30.4095 53.5867 28.8164 52.7838 28.6537C51.8998 29.3273 52.0079 32.3767 51.9488 33.6953C51.8626 35.6191 51.789 37.5766 51.7901 39.5061Z" fill="#FE004F"/>
<path fill-rule="evenodd" clip-rule="evenodd" d="M66.4004 45.3183C66.4048 47.8977 66.5018 50.443 67.0316 52.9452C67.5424 55.3582 68.5537 57.3996 70.0228 54.4233C72.3201 49.769 71.8225 36.9441 71.434 30.9501C71.3786 30.0957 71.3377 29.0682 70.7432 28.6515C69.5248 28.9449 68.2057 34.8989 67.8715 36.2146C67.0842 39.3139 66.3947 41.8757 66.4004 45.3183Z" fill="#FE004F"/>
<path fill-rule="evenodd" clip-rule="evenodd" d="M51.0052 39.1889C51.0074 37.4641 51.0441 35.7327 51.0889 34.0108C51.1188 32.8593 51.4864 29.7019 50.8814 29.0308C49.4097 29.2872 47.6165 36.2935 47.2045 38.2536C46.3594 42.2746 46.6547 46.097 47.5534 50.0291C47.8905 51.5025 48.587 53.7021 49.4018 54.6192C49.9406 55.2257 51.0102 55.7788 51.4172 54.6275C51.9754 53.0485 51.2444 47.6702 51.1342 45.6393C51.0171 43.4819 51.012 41.3483 51.0052 39.1889Z" fill="#FE004F"/>
<path fill-rule="evenodd" clip-rule="evenodd" d="M72.645 29.0343C72.0622 29.5922 72.3715 31.6322 72.3999 32.5303C72.5206 36.3441 72.5898 40.2457 72.4687 44.0489C72.3893 46.5394 72.1101 48.9031 71.9302 51.3717C71.861 52.325 71.4778 56.3662 73.6044 55.0515C76.0352 53.5488 77.1041 44.3583 76.7293 40.5993C76.5255 38.5552 75.8646 36.0919 75.263 34.2463C74.8436 32.9596 73.7333 29.1878 72.645 29.0343Z" fill="#FE004F"/>
<path d="M117.164 57.835H118.477C118.408 58.4639 118.228 59.0267 117.937 59.5234C117.645 60.0202 117.232 60.4144 116.699 60.7061C116.166 60.9932 115.501 61.1367 114.703 61.1367C114.12 61.1367 113.589 61.0273 113.11 60.8086C112.636 60.5898 112.229 60.2799 111.887 59.8789C111.545 59.4733 111.281 58.988 111.094 58.4229C110.911 57.8532 110.82 57.2197 110.82 56.5225V55.5312C110.82 54.834 110.911 54.2028 111.094 53.6377C111.281 53.068 111.547 52.5804 111.894 52.1748C112.244 51.7692 112.666 51.457 113.158 51.2383C113.65 51.0195 114.204 50.9102 114.819 50.9102C115.571 50.9102 116.207 51.0514 116.727 51.334C117.246 51.6165 117.649 52.0085 117.937 52.5098C118.228 53.0065 118.408 53.583 118.477 54.2393H117.164C117.1 53.7744 116.982 53.3757 116.809 53.043C116.635 52.7057 116.389 52.446 116.07 52.2637C115.751 52.0814 115.334 51.9902 114.819 51.9902C114.377 51.9902 113.988 52.0745 113.65 52.2432C113.318 52.4118 113.037 52.651 112.81 52.9609C112.586 53.2708 112.418 53.6423 112.304 54.0752C112.19 54.5081 112.133 54.9889 112.133 55.5176V56.5225C112.133 57.0101 112.183 57.4681 112.283 57.8965C112.388 58.3249 112.545 58.7008 112.755 59.0244C112.965 59.348 113.231 59.6032 113.555 59.79C113.878 59.9723 114.261 60.0635 114.703 60.0635C115.264 60.0635 115.71 59.9746 116.043 59.7969C116.376 59.6191 116.626 59.3639 116.795 59.0312C116.968 58.6986 117.091 58.2998 117.164 57.835ZM124.608 59.291V53.6035H125.88V61H124.67L124.608 59.291ZM124.848 57.7324L125.374 57.7188C125.374 58.2109 125.322 58.6667 125.217 59.0859C125.117 59.5007 124.952 59.8607 124.725 60.166C124.497 60.4714 124.198 60.7106 123.829 60.8838C123.46 61.0524 123.011 61.1367 122.482 61.1367C122.122 61.1367 121.792 61.0843 121.491 60.9795C121.195 60.8747 120.94 60.7129 120.726 60.4941C120.511 60.2754 120.345 59.9906 120.227 59.6396C120.113 59.2887 120.056 58.8672 120.056 58.375V53.6035H121.32V58.3887C121.32 58.7214 121.357 58.9971 121.43 59.2158C121.507 59.43 121.61 59.6009 121.737 59.7285C121.869 59.8516 122.015 59.9382 122.175 59.9883C122.339 60.0384 122.507 60.0635 122.681 60.0635C123.218 60.0635 123.645 59.9609 123.959 59.7559C124.273 59.5462 124.499 59.266 124.636 58.915C124.777 58.5596 124.848 58.1654 124.848 57.7324ZM132.114 59.0381C132.114 58.8558 132.073 58.6872 131.991 58.5322C131.914 58.3727 131.752 58.2292 131.506 58.1016C131.264 57.9694 130.9 57.8555 130.412 57.7598C130.002 57.6732 129.631 57.5706 129.298 57.4521C128.97 57.3337 128.689 57.1901 128.457 57.0215C128.229 56.8529 128.054 56.6546 127.931 56.4268C127.808 56.1989 127.746 55.9323 127.746 55.627C127.746 55.3353 127.81 55.0596 127.938 54.7998C128.07 54.54 128.254 54.3099 128.491 54.1094C128.733 53.9089 129.022 53.7516 129.359 53.6377C129.697 53.5238 130.073 53.4668 130.487 53.4668C131.08 53.4668 131.586 53.5716 132.005 53.7812C132.424 53.9909 132.745 54.2712 132.969 54.6221C133.192 54.9684 133.304 55.3535 133.304 55.7773H132.039C132.039 55.5723 131.978 55.374 131.854 55.1826C131.736 54.9867 131.561 54.8249 131.328 54.6973C131.1 54.5697 130.82 54.5059 130.487 54.5059C130.136 54.5059 129.852 54.5605 129.633 54.6699C129.419 54.7747 129.261 54.9092 129.161 55.0732C129.065 55.2373 129.018 55.4105 129.018 55.5928C129.018 55.7295 129.04 55.8525 129.086 55.9619C129.136 56.0667 129.223 56.1647 129.346 56.2559C129.469 56.3424 129.642 56.4245 129.865 56.502C130.089 56.5794 130.373 56.6569 130.72 56.7344C131.326 56.8711 131.825 57.0352 132.217 57.2266C132.609 57.418 132.9 57.6527 133.092 57.9307C133.283 58.2087 133.379 58.5459 133.379 58.9424C133.379 59.266 133.311 59.5622 133.174 59.8311C133.042 60.0999 132.848 60.3324 132.593 60.5283C132.342 60.7197 132.041 60.8701 131.69 60.9795C131.344 61.0843 130.954 61.1367 130.521 61.1367C129.87 61.1367 129.318 61.0205 128.867 60.7881C128.416 60.5557 128.074 60.2549 127.842 59.8857C127.609 59.5166 127.493 59.127 127.493 58.7168H128.765C128.783 59.0632 128.883 59.3389 129.065 59.5439C129.248 59.7445 129.471 59.888 129.735 59.9746C130 60.0566 130.262 60.0977 130.521 60.0977C130.868 60.0977 131.157 60.0521 131.39 59.9609C131.627 59.8698 131.807 59.7445 131.93 59.585C132.053 59.4255 132.114 59.2432 132.114 59.0381ZM138.137 53.6035V54.5742H134.138V53.6035H138.137ZM135.491 51.8057H136.756V59.168C136.756 59.4186 136.795 59.6077 136.872 59.7354C136.95 59.863 137.05 59.9473 137.173 59.9883C137.296 60.0293 137.428 60.0498 137.569 60.0498C137.674 60.0498 137.784 60.0407 137.897 60.0225C138.016 59.9997 138.105 59.9814 138.164 59.9678L138.171 61C138.071 61.0319 137.938 61.0615 137.774 61.0889C137.615 61.1208 137.421 61.1367 137.193 61.1367C136.883 61.1367 136.599 61.0752 136.339 60.9521C136.079 60.8291 135.872 60.624 135.717 60.3369C135.566 60.0452 135.491 59.6533 135.491 59.1611V51.8057ZM139.148 57.3838V57.2266C139.148 56.6934 139.226 56.1989 139.381 55.7432C139.536 55.2829 139.759 54.8841 140.051 54.5469C140.342 54.2051 140.696 53.9408 141.11 53.7539C141.525 53.5625 141.99 53.4668 142.505 53.4668C143.024 53.4668 143.492 53.5625 143.906 53.7539C144.326 53.9408 144.681 54.2051 144.973 54.5469C145.269 54.8841 145.494 55.2829 145.649 55.7432C145.804 56.1989 145.882 56.6934 145.882 57.2266V57.3838C145.882 57.917 145.804 58.4115 145.649 58.8672C145.494 59.3229 145.269 59.7217 144.973 60.0635C144.681 60.4007 144.328 60.665 143.913 60.8564C143.503 61.0433 143.038 61.1367 142.519 61.1367C141.999 61.1367 141.532 61.0433 141.117 60.8564C140.702 60.665 140.347 60.4007 140.051 60.0635C139.759 59.7217 139.536 59.3229 139.381 58.8672C139.226 58.4115 139.148 57.917 139.148 57.3838ZM140.413 57.2266V57.3838C140.413 57.7529 140.456 58.1016 140.543 58.4297C140.63 58.7533 140.759 59.0404 140.933 59.291C141.11 59.5417 141.331 59.7399 141.596 59.8857C141.86 60.027 142.168 60.0977 142.519 60.0977C142.865 60.0977 143.168 60.027 143.428 59.8857C143.692 59.7399 143.911 59.5417 144.084 59.291C144.257 59.0404 144.387 58.7533 144.474 58.4297C144.565 58.1016 144.61 57.7529 144.61 57.3838V57.2266C144.61 56.862 144.565 56.5179 144.474 56.1943C144.387 55.8662 144.255 55.5768 144.077 55.3262C143.904 55.071 143.685 54.8704 143.421 54.7246C143.161 54.5788 142.856 54.5059 142.505 54.5059C142.159 54.5059 141.853 54.5788 141.589 54.7246C141.329 54.8704 141.11 55.071 140.933 55.3262C140.759 55.5768 140.63 55.8662 140.543 56.1943C140.456 56.5179 140.413 56.862 140.413 57.2266ZM148.726 55.0732V61H147.454V53.6035H148.657L148.726 55.0732ZM148.466 57.0215L147.878 57.001C147.882 56.4951 147.949 56.028 148.076 55.5996C148.204 55.1667 148.393 54.7907 148.644 54.4717C148.894 54.1527 149.206 53.9066 149.58 53.7334C149.954 53.5557 150.387 53.4668 150.879 53.4668C151.225 53.4668 151.544 53.5169 151.836 53.6172C152.128 53.7129 152.381 53.8656 152.595 54.0752C152.809 54.2848 152.975 54.5537 153.094 54.8818C153.212 55.21 153.271 55.6064 153.271 56.0713V61H152.007V56.1328C152.007 55.7454 151.941 55.4355 151.809 55.2031C151.681 54.9707 151.499 54.8021 151.262 54.6973C151.025 54.5879 150.747 54.5332 150.428 54.5332C150.054 54.5332 149.742 54.5993 149.491 54.7314C149.241 54.8636 149.04 55.0459 148.89 55.2783C148.739 55.5107 148.63 55.7773 148.562 56.0781C148.498 56.3743 148.466 56.6888 148.466 57.0215ZM153.258 56.3242L152.41 56.584C152.415 56.1784 152.481 55.7887 152.608 55.415C152.741 55.0413 152.93 54.7087 153.176 54.417C153.426 54.1253 153.734 53.8952 154.099 53.7266C154.463 53.5534 154.88 53.4668 155.35 53.4668C155.746 53.4668 156.097 53.5192 156.402 53.624C156.712 53.7288 156.972 53.8906 157.182 54.1094C157.396 54.3236 157.558 54.5993 157.667 54.9365C157.776 55.2738 157.831 55.6748 157.831 56.1396V61H156.56V56.126C156.56 55.7113 156.493 55.39 156.361 55.1621C156.234 54.9297 156.051 54.7679 155.814 54.6768C155.582 54.5811 155.304 54.5332 154.98 54.5332C154.702 54.5332 154.456 54.5811 154.242 54.6768C154.028 54.7725 153.848 54.9046 153.702 55.0732C153.556 55.2373 153.445 55.4264 153.367 55.6406C153.294 55.8548 153.258 56.0827 153.258 56.3242ZM161.119 53.6035V61H159.848V53.6035H161.119ZM159.752 51.6416C159.752 51.4365 159.813 51.2633 159.937 51.1221C160.064 50.9808 160.251 50.9102 160.497 50.9102C160.739 50.9102 160.923 50.9808 161.051 51.1221C161.183 51.2633 161.249 51.4365 161.249 51.6416C161.249 51.8376 161.183 52.0062 161.051 52.1475C160.923 52.2842 160.739 52.3525 160.497 52.3525C160.251 52.3525 160.064 52.2842 159.937 52.1475C159.813 52.0062 159.752 51.8376 159.752 51.6416ZM168.659 59.9609V61H163.279V59.9609H168.659ZM168.461 54.499L163.566 61H162.794V60.0703L167.654 53.6035H168.461V54.499ZM167.9 53.6035V54.6494H162.849V53.6035H167.9ZM173.055 61.1367C172.54 61.1367 172.073 61.0501 171.653 60.877C171.239 60.6992 170.881 60.4508 170.58 60.1318C170.284 59.8128 170.056 59.4346 169.896 58.9971C169.737 58.5596 169.657 58.0811 169.657 57.5615V57.2744C169.657 56.6729 169.746 56.1374 169.924 55.668C170.102 55.194 170.343 54.793 170.648 54.4648C170.954 54.1367 171.3 53.8883 171.688 53.7197C172.075 53.5511 172.476 53.4668 172.891 53.4668C173.419 53.4668 173.875 53.5579 174.258 53.7402C174.645 53.9225 174.962 54.1777 175.208 54.5059C175.454 54.8294 175.636 55.2122 175.755 55.6543C175.873 56.0918 175.933 56.5703 175.933 57.0898V57.6572H170.409V56.625H174.668V56.5293C174.65 56.2012 174.581 55.8822 174.463 55.5723C174.349 55.2624 174.167 55.0072 173.916 54.8066C173.665 54.6061 173.324 54.5059 172.891 54.5059C172.604 54.5059 172.339 54.5674 172.098 54.6904C171.856 54.8089 171.649 54.9867 171.476 55.2236C171.302 55.4606 171.168 55.75 171.072 56.0918C170.977 56.4336 170.929 56.8278 170.929 57.2744V57.5615C170.929 57.9124 170.977 58.2428 171.072 58.5527C171.173 58.8581 171.316 59.127 171.503 59.3594C171.694 59.5918 171.924 59.7741 172.193 59.9062C172.467 60.0384 172.777 60.1045 173.123 60.1045C173.57 60.1045 173.948 60.0133 174.258 59.8311C174.568 59.6488 174.839 59.4049 175.071 59.0996L175.837 59.708C175.677 59.9495 175.475 60.1797 175.229 60.3984C174.982 60.6172 174.679 60.7949 174.319 60.9316C173.964 61.0684 173.542 61.1367 173.055 61.1367ZM182.96 60.2344L185.018 53.6035H186.371L183.404 62.1416C183.336 62.3239 183.245 62.5199 183.131 62.7295C183.021 62.9437 182.88 63.1465 182.707 63.3379C182.534 63.5293 182.324 63.6842 182.078 63.8027C181.837 63.9258 181.547 63.9873 181.21 63.9873C181.11 63.9873 180.982 63.9736 180.827 63.9463C180.672 63.9189 180.563 63.8962 180.499 63.8779L180.492 62.8525C180.529 62.8571 180.586 62.8617 180.663 62.8662C180.745 62.8753 180.802 62.8799 180.834 62.8799C181.121 62.8799 181.365 62.8411 181.565 62.7637C181.766 62.6908 181.935 62.5654 182.071 62.3877C182.213 62.2145 182.333 61.9753 182.434 61.6699L182.96 60.2344ZM181.449 53.6035L183.37 59.3457L183.698 60.6787L182.789 61.1436L180.068 53.6035H181.449ZM187.068 57.3838V57.2266C187.068 56.6934 187.146 56.1989 187.301 55.7432C187.456 55.2829 187.679 54.8841 187.971 54.5469C188.262 54.2051 188.616 53.9408 189.03 53.7539C189.445 53.5625 189.91 53.4668 190.425 53.4668C190.944 53.4668 191.411 53.5625 191.826 53.7539C192.245 53.9408 192.601 54.2051 192.893 54.5469C193.189 54.8841 193.414 55.2829 193.569 55.7432C193.724 56.1989 193.802 56.6934 193.802 57.2266V57.3838C193.802 57.917 193.724 58.4115 193.569 58.8672C193.414 59.3229 193.189 59.7217 192.893 60.0635C192.601 60.4007 192.248 60.665 191.833 60.8564C191.423 61.0433 190.958 61.1367 190.438 61.1367C189.919 61.1367 189.452 61.0433 189.037 60.8564C188.622 60.665 188.267 60.4007 187.971 60.0635C187.679 59.7217 187.456 59.3229 187.301 58.8672C187.146 58.4115 187.068 57.917 187.068 57.3838ZM188.333 57.2266V57.3838C188.333 57.7529 188.376 58.1016 188.463 58.4297C188.549 58.7533 188.679 59.0404 188.853 59.291C189.03 59.5417 189.251 59.7399 189.516 59.8857C189.78 60.027 190.088 60.0977 190.438 60.0977C190.785 60.0977 191.088 60.027 191.348 59.8857C191.612 59.7399 191.831 59.5417 192.004 59.291C192.177 59.0404 192.307 58.7533 192.394 58.4297C192.485 58.1016 192.53 57.7529 192.53 57.3838V57.2266C192.53 56.862 192.485 56.5179 192.394 56.1943C192.307 55.8662 192.175 55.5768 191.997 55.3262C191.824 55.071 191.605 54.8704 191.341 54.7246C191.081 54.5788 190.776 54.5059 190.425 54.5059C190.078 54.5059 189.773 54.5788 189.509 54.7246C189.249 54.8704 189.03 55.071 188.853 55.3262C188.679 55.5768 188.549 55.8662 188.463 56.1943C188.376 56.5179 188.333 56.862 188.333 57.2266ZM199.913 59.291V53.6035H201.185V61H199.975L199.913 59.291ZM200.152 57.7324L200.679 57.7188C200.679 58.2109 200.626 58.6667 200.521 59.0859C200.421 59.5007 200.257 59.8607 200.029 60.166C199.801 60.4714 199.503 60.7106 199.134 60.8838C198.765 61.0524 198.316 61.1367 197.787 61.1367C197.427 61.1367 197.097 61.0843 196.796 60.9795C196.5 60.8747 196.244 60.7129 196.03 60.4941C195.816 60.2754 195.65 59.9906 195.531 59.6396C195.417 59.2887 195.36 58.8672 195.36 58.375V53.6035H196.625V58.3887C196.625 58.7214 196.661 58.9971 196.734 59.2158C196.812 59.43 196.914 59.6009 197.042 59.7285C197.174 59.8516 197.32 59.9382 197.479 59.9883C197.644 60.0384 197.812 60.0635 197.985 60.0635C198.523 60.0635 198.949 59.9609 199.264 59.7559C199.578 59.5462 199.804 59.266 199.94 58.915C200.082 58.5596 200.152 58.1654 200.152 57.7324ZM204.377 54.7656V61H203.112V53.6035H204.343L204.377 54.7656ZM206.688 53.5625L206.681 54.7383C206.576 54.7155 206.476 54.7018 206.38 54.6973C206.289 54.6882 206.184 54.6836 206.065 54.6836C205.774 54.6836 205.516 54.7292 205.293 54.8203C205.07 54.9115 204.881 55.0391 204.726 55.2031C204.571 55.3672 204.448 55.5632 204.356 55.791C204.27 56.0143 204.213 56.2604 204.186 56.5293L203.83 56.7344C203.83 56.2878 203.873 55.8685 203.96 55.4766C204.051 55.0846 204.19 54.7383 204.377 54.4375C204.564 54.1322 204.801 53.8952 205.088 53.7266C205.38 53.5534 205.726 53.4668 206.127 53.4668C206.218 53.4668 206.323 53.4782 206.441 53.501C206.56 53.5192 206.642 53.5397 206.688 53.5625ZM213.202 59.6875L215.103 53.6035H215.937L215.772 54.8135L213.838 61H213.024L213.202 59.6875ZM211.924 53.6035L213.544 59.7559L213.66 61H212.806L210.659 53.6035H211.924ZM217.755 59.708L219.3 53.6035H220.558L218.411 61H217.563L217.755 59.708ZM216.121 53.6035L217.98 59.585L218.192 61H217.386L215.396 54.7998L215.232 53.6035H216.121ZM221.521 57.3838V57.2266C221.521 56.6934 221.599 56.1989 221.754 55.7432C221.909 55.2829 222.132 54.8841 222.424 54.5469C222.715 54.2051 223.069 53.9408 223.483 53.7539C223.898 53.5625 224.363 53.4668 224.878 53.4668C225.397 53.4668 225.865 53.5625 226.279 53.7539C226.699 53.9408 227.054 54.2051 227.346 54.5469C227.642 54.8841 227.868 55.2829 228.022 55.7432C228.177 56.1989 228.255 56.6934 228.255 57.2266V57.3838C228.255 57.917 228.177 58.4115 228.022 58.8672C227.868 59.3229 227.642 59.7217 227.346 60.0635C227.054 60.4007 226.701 60.665 226.286 60.8564C225.876 61.0433 225.411 61.1367 224.892 61.1367C224.372 61.1367 223.905 61.0433 223.49 60.8564C223.076 60.665 222.72 60.4007 222.424 60.0635C222.132 59.7217 221.909 59.3229 221.754 58.8672C221.599 58.4115 221.521 57.917 221.521 57.3838ZM222.786 57.2266V57.3838C222.786 57.7529 222.829 58.1016 222.916 58.4297C223.003 58.7533 223.132 59.0404 223.306 59.291C223.483 59.5417 223.704 59.7399 223.969 59.8857C224.233 60.027 224.541 60.0977 224.892 60.0977C225.238 60.0977 225.541 60.027 225.801 59.8857C226.065 59.7399 226.284 59.5417 226.457 59.291C226.63 59.0404 226.76 58.7533 226.847 58.4297C226.938 58.1016 226.983 57.7529 226.983 57.3838V57.2266C226.983 56.862 226.938 56.5179 226.847 56.1943C226.76 55.8662 226.628 55.5768 226.45 55.3262C226.277 55.071 226.058 54.8704 225.794 54.7246C225.534 54.5788 225.229 54.5059 224.878 54.5059C224.532 54.5059 224.226 54.5788 223.962 54.7246C223.702 54.8704 223.483 55.071 223.306 55.3262C223.132 55.5768 223.003 55.8662 222.916 56.1943C222.829 56.5179 222.786 56.862 222.786 57.2266ZM231.105 54.7656V61H229.841V53.6035H231.071L231.105 54.7656ZM233.416 53.5625L233.409 54.7383C233.304 54.7155 233.204 54.7018 233.108 54.6973C233.017 54.6882 232.912 54.6836 232.794 54.6836C232.502 54.6836 232.245 54.7292 232.021 54.8203C231.798 54.9115 231.609 55.0391 231.454 55.2031C231.299 55.3672 231.176 55.5632 231.085 55.791C230.998 56.0143 230.941 56.2604 230.914 56.5293L230.559 56.7344C230.559 56.2878 230.602 55.8685 230.688 55.4766C230.78 55.0846 230.919 54.7383 231.105 54.4375C231.292 54.1322 231.529 53.8952 231.816 53.7266C232.108 53.5534 232.454 53.4668 232.855 53.4668C232.947 53.4668 233.051 53.4782 233.17 53.501C233.288 53.5192 233.37 53.5397 233.416 53.5625ZM235.856 50.5V61H234.585V50.5H235.856ZM240.375 53.6035L237.148 57.0557L235.344 58.9287L235.241 57.582L236.533 56.0371L238.83 53.6035H240.375ZM239.22 61L236.581 57.4727L237.237 56.3447L240.71 61H239.22ZM241.346 57.3838V57.2266C241.346 56.6934 241.423 56.1989 241.578 55.7432C241.733 55.2829 241.956 54.8841 242.248 54.5469C242.54 54.2051 242.893 53.9408 243.308 53.7539C243.722 53.5625 244.187 53.4668 244.702 53.4668C245.222 53.4668 245.689 53.5625 246.104 53.7539C246.523 53.9408 246.878 54.2051 247.17 54.5469C247.466 54.8841 247.692 55.2829 247.847 55.7432C248.002 56.1989 248.079 56.6934 248.079 57.2266V57.3838C248.079 57.917 248.002 58.4115 247.847 58.8672C247.692 59.3229 247.466 59.7217 247.17 60.0635C246.878 60.4007 246.525 60.665 246.11 60.8564C245.7 61.0433 245.235 61.1367 244.716 61.1367C244.196 61.1367 243.729 61.0433 243.314 60.8564C242.9 60.665 242.544 60.4007 242.248 60.0635C241.956 59.7217 241.733 59.3229 241.578 58.8672C241.423 58.4115 241.346 57.917 241.346 57.3838ZM242.61 57.2266V57.3838C242.61 57.7529 242.654 58.1016 242.74 58.4297C242.827 58.7533 242.957 59.0404 243.13 59.291C243.308 59.5417 243.529 59.7399 243.793 59.8857C244.057 60.027 244.365 60.0977 244.716 60.0977C245.062 60.0977 245.365 60.027 245.625 59.8857C245.889 59.7399 246.108 59.5417 246.281 59.291C246.454 59.0404 246.584 58.7533 246.671 58.4297C246.762 58.1016 246.808 57.7529 246.808 57.3838V57.2266C246.808 56.862 246.762 56.5179 246.671 56.1943C246.584 55.8662 246.452 55.5768 246.274 55.3262C246.101 55.071 245.882 54.8704 245.618 54.7246C245.358 54.5788 245.053 54.5059 244.702 54.5059C244.356 54.5059 244.05 54.5788 243.786 54.7246C243.526 54.8704 243.308 55.071 243.13 55.3262C242.957 55.5768 242.827 55.8662 242.74 56.1943C242.654 56.5179 242.61 56.862 242.61 57.2266ZM254.19 59.291V53.6035H255.462V61H254.252L254.19 59.291ZM254.43 57.7324L254.956 57.7188C254.956 58.2109 254.904 58.6667 254.799 59.0859C254.699 59.5007 254.535 59.8607 254.307 60.166C254.079 60.4714 253.78 60.7106 253.411 60.8838C253.042 61.0524 252.593 61.1367 252.064 61.1367C251.704 61.1367 251.374 61.0843 251.073 60.9795C250.777 60.8747 250.522 60.7129 250.308 60.4941C250.093 60.2754 249.927 59.9906 249.809 59.6396C249.695 59.2887 249.638 58.8672 249.638 58.375V53.6035H250.902V58.3887C250.902 58.7214 250.939 58.9971 251.012 59.2158C251.089 59.43 251.192 59.6009 251.319 59.7285C251.451 59.8516 251.597 59.9382 251.757 59.9883C251.921 60.0384 252.09 60.0635 252.263 60.0635C252.8 60.0635 253.227 59.9609 253.541 59.7559C253.855 59.5462 254.081 59.266 254.218 58.915C254.359 58.5596 254.43 58.1654 254.43 57.7324ZM260.486 53.6035V54.5742H256.487V53.6035H260.486ZM257.841 51.8057H259.105V59.168C259.105 59.4186 259.144 59.6077 259.222 59.7354C259.299 59.863 259.399 59.9473 259.522 59.9883C259.646 60.0293 259.778 60.0498 259.919 60.0498C260.024 60.0498 260.133 60.0407 260.247 60.0225C260.366 59.9997 260.454 59.9814 260.514 59.9678L260.521 61C260.42 61.0319 260.288 61.0615 260.124 61.0889C259.965 61.1208 259.771 61.1367 259.543 61.1367C259.233 61.1367 258.948 61.0752 258.688 60.9521C258.429 60.8291 258.221 60.624 258.066 60.3369C257.916 60.0452 257.841 59.6533 257.841 59.1611V51.8057ZM267.315 59.6875L269.216 53.6035H270.05L269.886 54.8135L267.951 61H267.138L267.315 59.6875ZM266.037 53.6035L267.657 59.7559L267.773 61H266.919L264.772 53.6035H266.037ZM271.868 59.708L273.413 53.6035H274.671L272.524 61H271.677L271.868 59.708ZM270.234 53.6035L272.094 59.585L272.306 61H271.499L269.51 54.7998L269.346 53.6035H270.234ZM277.344 53.6035V61H276.072V53.6035H277.344ZM275.977 51.6416C275.977 51.4365 276.038 51.2633 276.161 51.1221C276.289 50.9808 276.476 50.9102 276.722 50.9102C276.963 50.9102 277.148 50.9808 277.275 51.1221C277.408 51.2633 277.474 51.4365 277.474 51.6416C277.474 51.8376 277.408 52.0062 277.275 52.1475C277.148 52.2842 276.963 52.3525 276.722 52.3525C276.476 52.3525 276.289 52.2842 276.161 52.1475C276.038 52.0062 275.977 51.8376 275.977 51.6416ZM282.471 53.6035V54.5742H278.472V53.6035H282.471ZM279.825 51.8057H281.09V59.168C281.09 59.4186 281.129 59.6077 281.206 59.7354C281.284 59.863 281.384 59.9473 281.507 59.9883C281.63 60.0293 281.762 60.0498 281.903 60.0498C282.008 60.0498 282.118 60.0407 282.231 60.0225C282.35 59.9997 282.439 59.9814 282.498 59.9678L282.505 61C282.405 61.0319 282.272 61.0615 282.108 61.0889C281.949 61.1208 281.755 61.1367 281.527 61.1367C281.217 61.1367 280.933 61.0752 280.673 60.9521C280.413 60.8291 280.206 60.624 280.051 60.3369C279.9 60.0452 279.825 59.6533 279.825 59.1611V51.8057ZM285.219 50.5V61H283.954V50.5H285.219ZM284.918 57.0215L284.392 57.001C284.396 56.4951 284.471 56.028 284.617 55.5996C284.763 55.1667 284.968 54.7907 285.232 54.4717C285.497 54.1527 285.811 53.9066 286.176 53.7334C286.545 53.5557 286.953 53.4668 287.399 53.4668C287.764 53.4668 288.092 53.5169 288.384 53.6172C288.675 53.7129 288.924 53.8678 289.129 54.082C289.339 54.2962 289.498 54.5742 289.607 54.916C289.717 55.2533 289.771 55.6657 289.771 56.1533V61H288.5V56.1396C288.5 55.7523 288.443 55.4424 288.329 55.21C288.215 54.973 288.049 54.8021 287.83 54.6973C287.611 54.5879 287.342 54.5332 287.023 54.5332C286.709 54.5332 286.422 54.5993 286.162 54.7314C285.907 54.8636 285.686 55.0459 285.499 55.2783C285.317 55.5107 285.173 55.7773 285.068 56.0781C284.968 56.3743 284.918 56.6888 284.918 57.0215ZM298.234 53.6035V54.5742H294.235V53.6035H298.234ZM295.589 51.8057H296.854V59.168C296.854 59.4186 296.892 59.6077 296.97 59.7354C297.047 59.863 297.147 59.9473 297.271 59.9883C297.394 60.0293 297.526 60.0498 297.667 60.0498C297.772 60.0498 297.881 60.0407 297.995 60.0225C298.114 59.9997 298.202 59.9814 298.262 59.9678L298.269 61C298.168 61.0319 298.036 61.0615 297.872 61.0889C297.713 61.1208 297.519 61.1367 297.291 61.1367C296.981 61.1367 296.696 61.0752 296.437 60.9521C296.177 60.8291 295.969 60.624 295.814 60.3369C295.664 60.0452 295.589 59.6533 295.589 59.1611V51.8057ZM300.982 50.5V61H299.718V50.5H300.982ZM300.682 57.0215L300.155 57.001C300.16 56.4951 300.235 56.028 300.381 55.5996C300.527 55.1667 300.732 54.7907 300.996 54.4717C301.26 54.1527 301.575 53.9066 301.939 53.7334C302.309 53.5557 302.716 53.4668 303.163 53.4668C303.528 53.4668 303.856 53.5169 304.147 53.6172C304.439 53.7129 304.688 53.8678 304.893 54.082C305.102 54.2962 305.262 54.5742 305.371 54.916C305.48 55.2533 305.535 55.6657 305.535 56.1533V61H304.264V56.1396C304.264 55.7523 304.207 55.4424 304.093 55.21C303.979 54.973 303.812 54.8021 303.594 54.6973C303.375 54.5879 303.106 54.5332 302.787 54.5332C302.473 54.5332 302.186 54.5993 301.926 54.7314C301.671 54.8636 301.45 55.0459 301.263 55.2783C301.08 55.5107 300.937 55.7773 300.832 56.0781C300.732 56.3743 300.682 56.6888 300.682 57.0215ZM308.803 53.6035V61H307.531V53.6035H308.803ZM307.436 51.6416C307.436 51.4365 307.497 51.2633 307.62 51.1221C307.748 50.9808 307.935 50.9102 308.181 50.9102C308.422 50.9102 308.607 50.9808 308.734 51.1221C308.867 51.2633 308.933 51.4365 308.933 51.6416C308.933 51.8376 308.867 52.0062 308.734 52.1475C308.607 52.2842 308.422 52.3525 308.181 52.3525C307.935 52.3525 307.748 52.2842 307.62 52.1475C307.497 52.0062 307.436 51.8376 307.436 51.6416ZM315.14 59.0381C315.14 58.8558 315.099 58.6872 315.017 58.5322C314.939 58.3727 314.777 58.2292 314.531 58.1016C314.29 57.9694 313.925 57.8555 313.438 57.7598C313.027 57.6732 312.656 57.5706 312.323 57.4521C311.995 57.3337 311.715 57.1901 311.482 57.0215C311.255 56.8529 311.079 56.6546 310.956 56.4268C310.833 56.1989 310.771 55.9323 310.771 55.627C310.771 55.3353 310.835 55.0596 310.963 54.7998C311.095 54.54 311.28 54.3099 311.517 54.1094C311.758 53.9089 312.048 53.7516 312.385 53.6377C312.722 53.5238 313.098 53.4668 313.513 53.4668C314.105 53.4668 314.611 53.5716 315.03 53.7812C315.45 53.9909 315.771 54.2712 315.994 54.6221C316.217 54.9684 316.329 55.3535 316.329 55.7773H315.064C315.064 55.5723 315.003 55.374 314.88 55.1826C314.761 54.9867 314.586 54.8249 314.354 54.6973C314.126 54.5697 313.845 54.5059 313.513 54.5059C313.162 54.5059 312.877 54.5605 312.658 54.6699C312.444 54.7747 312.287 54.9092 312.187 55.0732C312.091 55.2373 312.043 55.4105 312.043 55.5928C312.043 55.7295 312.066 55.8525 312.111 55.9619C312.161 56.0667 312.248 56.1647 312.371 56.2559C312.494 56.3424 312.667 56.4245 312.891 56.502C313.114 56.5794 313.399 56.6569 313.745 56.7344C314.351 56.8711 314.85 57.0352 315.242 57.2266C315.634 57.418 315.926 57.6527 316.117 57.9307C316.309 58.2087 316.404 58.5459 316.404 58.9424C316.404 59.266 316.336 59.5622 316.199 59.8311C316.067 60.0999 315.873 60.3324 315.618 60.5283C315.368 60.7197 315.067 60.8701 314.716 60.9795C314.369 61.0843 313.98 61.1367 313.547 61.1367C312.895 61.1367 312.344 61.0205 311.893 60.7881C311.441 60.5557 311.1 60.2549 310.867 59.8857C310.635 59.5166 310.519 59.127 310.519 58.7168H311.79C311.808 59.0632 311.909 59.3389 312.091 59.5439C312.273 59.7445 312.496 59.888 312.761 59.9746C313.025 60.0566 313.287 60.0977 313.547 60.0977C313.893 60.0977 314.183 60.0521 314.415 59.9609C314.652 59.8698 314.832 59.7445 314.955 59.585C315.078 59.4255 315.14 59.2432 315.14 59.0381ZM115.271 75.0381C115.271 74.8558 115.229 74.6872 115.147 74.5322C115.07 74.3727 114.908 74.2292 114.662 74.1016C114.421 73.9694 114.056 73.8555 113.568 73.7598C113.158 73.6732 112.787 73.5706 112.454 73.4521C112.126 73.3337 111.846 73.1901 111.613 73.0215C111.385 72.8529 111.21 72.6546 111.087 72.4268C110.964 72.1989 110.902 71.9323 110.902 71.627C110.902 71.3353 110.966 71.0596 111.094 70.7998C111.226 70.54 111.41 70.3099 111.647 70.1094C111.889 69.9089 112.178 69.7516 112.516 69.6377C112.853 69.5238 113.229 69.4668 113.644 69.4668C114.236 69.4668 114.742 69.5716 115.161 69.7812C115.58 69.9909 115.902 70.2712 116.125 70.6221C116.348 70.9684 116.46 71.3535 116.46 71.7773H115.195C115.195 71.5723 115.134 71.374 115.011 71.1826C114.892 70.9867 114.717 70.8249 114.484 70.6973C114.257 70.5697 113.976 70.5059 113.644 70.5059C113.293 70.5059 113.008 70.5605 112.789 70.6699C112.575 70.7747 112.418 70.9092 112.317 71.0732C112.222 71.2373 112.174 71.4105 112.174 71.5928C112.174 71.7295 112.197 71.8525 112.242 71.9619C112.292 72.0667 112.379 72.1647 112.502 72.2559C112.625 72.3424 112.798 72.4245 113.021 72.502C113.245 72.5794 113.53 72.6569 113.876 72.7344C114.482 72.8711 114.981 73.0352 115.373 73.2266C115.765 73.418 116.057 73.6527 116.248 73.9307C116.439 74.2087 116.535 74.5459 116.535 74.9424C116.535 75.266 116.467 75.5622 116.33 75.8311C116.198 76.0999 116.004 76.3324 115.749 76.5283C115.498 76.7197 115.198 76.8701 114.847 76.9795C114.5 77.0843 114.111 77.1367 113.678 77.1367C113.026 77.1367 112.475 77.0205 112.023 76.7881C111.572 76.5557 111.23 76.2549 110.998 75.8857C110.766 75.5166 110.649 75.127 110.649 74.7168H111.921C111.939 75.0632 112.039 75.3389 112.222 75.5439C112.404 75.7445 112.627 75.888 112.892 75.9746C113.156 76.0566 113.418 76.0977 113.678 76.0977C114.024 76.0977 114.313 76.0521 114.546 75.9609C114.783 75.8698 114.963 75.7445 115.086 75.585C115.209 75.4255 115.271 75.2432 115.271 75.0381ZM121.266 77.1367C120.751 77.1367 120.284 77.0501 119.864 76.877C119.45 76.6992 119.092 76.4508 118.791 76.1318C118.495 75.8128 118.267 75.4346 118.107 74.9971C117.948 74.5596 117.868 74.0811 117.868 73.5615V73.2744C117.868 72.6729 117.957 72.1374 118.135 71.668C118.312 71.194 118.554 70.793 118.859 70.4648C119.165 70.1367 119.511 69.8883 119.898 69.7197C120.286 69.5511 120.687 69.4668 121.102 69.4668C121.63 69.4668 122.086 69.5579 122.469 69.7402C122.856 69.9225 123.173 70.1777 123.419 70.5059C123.665 70.8294 123.847 71.2122 123.966 71.6543C124.084 72.0918 124.144 72.5703 124.144 73.0898V73.6572H118.62V72.625H122.879V72.5293C122.861 72.2012 122.792 71.8822 122.674 71.5723C122.56 71.2624 122.378 71.0072 122.127 70.8066C121.876 70.6061 121.535 70.5059 121.102 70.5059C120.814 70.5059 120.55 70.5674 120.309 70.6904C120.067 70.8089 119.86 70.9867 119.687 71.2236C119.513 71.4606 119.379 71.75 119.283 72.0918C119.188 72.4336 119.14 72.8278 119.14 73.2744V73.5615C119.14 73.9124 119.188 74.2428 119.283 74.5527C119.383 74.8581 119.527 75.127 119.714 75.3594C119.905 75.5918 120.135 75.7741 120.404 75.9062C120.678 76.0384 120.988 76.1045 121.334 76.1045C121.781 76.1045 122.159 76.0133 122.469 75.8311C122.779 75.6488 123.05 75.4049 123.282 75.0996L124.048 75.708C123.888 75.9495 123.686 76.1797 123.439 76.3984C123.193 76.6172 122.89 76.7949 122.53 76.9316C122.175 77.0684 121.753 77.1367 121.266 77.1367ZM128.717 69.6035V70.5742H124.718V69.6035H128.717ZM126.071 67.8057H127.336V75.168C127.336 75.4186 127.375 75.6077 127.452 75.7354C127.53 75.863 127.63 75.9473 127.753 75.9883C127.876 76.0293 128.008 76.0498 128.149 76.0498C128.254 76.0498 128.364 76.0407 128.478 76.0225C128.596 75.9997 128.685 75.9814 128.744 75.9678L128.751 77C128.651 77.0319 128.519 77.0615 128.354 77.0889C128.195 77.1208 128.001 77.1367 127.773 77.1367C127.464 77.1367 127.179 77.0752 126.919 76.9521C126.659 76.8291 126.452 76.624 126.297 76.3369C126.146 76.0452 126.071 75.6533 126.071 75.1611V67.8057ZM134.726 75.291V69.6035H135.997V77H134.787L134.726 75.291ZM134.965 73.7324L135.491 73.7188C135.491 74.2109 135.439 74.6667 135.334 75.0859C135.234 75.5007 135.07 75.8607 134.842 76.166C134.614 76.4714 134.315 76.7106 133.946 76.8838C133.577 77.0524 133.128 77.1367 132.6 77.1367C132.24 77.1367 131.909 77.0843 131.608 76.9795C131.312 76.8747 131.057 76.7129 130.843 76.4941C130.629 76.2754 130.462 75.9906 130.344 75.6396C130.23 75.2887 130.173 74.8672 130.173 74.375V69.6035H131.438V74.3887C131.438 74.7214 131.474 74.9971 131.547 75.2158C131.624 75.43 131.727 75.6009 131.854 75.7285C131.987 75.8516 132.132 75.9382 132.292 75.9883C132.456 76.0384 132.625 76.0635 132.798 76.0635C133.336 76.0635 133.762 75.9609 134.076 75.7559C134.391 75.5462 134.616 75.266 134.753 74.915C134.894 74.5596 134.965 74.1654 134.965 73.7324ZM139.189 71.0254V79.8438H137.918V69.6035H139.08L139.189 71.0254ZM144.173 73.2402V73.3838C144.173 73.9215 144.109 74.4206 143.981 74.8809C143.854 75.3366 143.667 75.7331 143.421 76.0703C143.179 76.4076 142.881 76.6696 142.525 76.8564C142.17 77.0433 141.762 77.1367 141.302 77.1367C140.832 77.1367 140.418 77.0592 140.058 76.9043C139.698 76.7493 139.392 76.5238 139.142 76.2275C138.891 75.9313 138.69 75.5758 138.54 75.1611C138.394 74.7464 138.294 74.2793 138.239 73.7598V72.9941C138.294 72.4473 138.396 71.9574 138.547 71.5244C138.697 71.0915 138.896 70.7223 139.142 70.417C139.392 70.1071 139.695 69.8724 140.051 69.7129C140.406 69.5488 140.816 69.4668 141.281 69.4668C141.746 69.4668 142.159 69.5579 142.519 69.7402C142.879 69.918 143.182 70.1732 143.428 70.5059C143.674 70.8385 143.858 71.2373 143.981 71.7021C144.109 72.1624 144.173 72.6751 144.173 73.2402ZM142.901 73.3838V73.2402C142.901 72.8711 142.863 72.5247 142.785 72.2012C142.708 71.873 142.587 71.5859 142.423 71.3398C142.263 71.0892 142.058 70.8932 141.808 70.752C141.557 70.6061 141.258 70.5332 140.912 70.5332C140.593 70.5332 140.315 70.5879 140.078 70.6973C139.846 70.8066 139.647 70.9548 139.483 71.1416C139.319 71.3239 139.185 71.5335 139.08 71.7705C138.98 72.0029 138.905 72.2445 138.854 72.4951V74.2656C138.946 74.5846 139.073 74.8854 139.237 75.168C139.401 75.446 139.62 75.6715 139.894 75.8447C140.167 76.0133 140.511 76.0977 140.926 76.0977C141.268 76.0977 141.562 76.027 141.808 75.8857C142.058 75.7399 142.263 75.5417 142.423 75.291C142.587 75.0404 142.708 74.7533 142.785 74.4297C142.863 74.1016 142.901 73.7529 142.901 73.3838ZM151.146 77H149.881V68.8242C149.881 68.291 149.977 67.8421 150.168 67.4775C150.364 67.1084 150.644 66.8304 151.009 66.6436C151.373 66.4521 151.806 66.3564 152.308 66.3564C152.453 66.3564 152.599 66.3656 152.745 66.3838C152.896 66.402 153.041 66.4294 153.183 66.4658L153.114 67.498C153.019 67.4753 152.909 67.4593 152.786 67.4502C152.668 67.4411 152.549 67.4365 152.431 67.4365C152.162 67.4365 151.929 67.4912 151.733 67.6006C151.542 67.7054 151.396 67.8604 151.296 68.0654C151.196 68.2705 151.146 68.5234 151.146 68.8242V77ZM152.718 69.6035V70.5742H148.712V69.6035H152.718ZM153.791 73.3838V73.2266C153.791 72.6934 153.868 72.1989 154.023 71.7432C154.178 71.2829 154.402 70.8841 154.693 70.5469C154.985 70.2051 155.338 69.9408 155.753 69.7539C156.168 69.5625 156.632 69.4668 157.147 69.4668C157.667 69.4668 158.134 69.5625 158.549 69.7539C158.968 69.9408 159.324 70.2051 159.615 70.5469C159.911 70.8841 160.137 71.2829 160.292 71.7432C160.447 72.1989 160.524 72.6934 160.524 73.2266V73.3838C160.524 73.917 160.447 74.4115 160.292 74.8672C160.137 75.3229 159.911 75.7217 159.615 76.0635C159.324 76.4007 158.97 76.665 158.556 76.8564C158.146 77.0433 157.681 77.1367 157.161 77.1367C156.642 77.1367 156.174 77.0433 155.76 76.8564C155.345 76.665 154.99 76.4007 154.693 76.0635C154.402 75.7217 154.178 75.3229 154.023 74.8672C153.868 74.4115 153.791 73.917 153.791 73.3838ZM155.056 73.2266V73.3838C155.056 73.7529 155.099 74.1016 155.186 74.4297C155.272 74.7533 155.402 75.0404 155.575 75.291C155.753 75.5417 155.974 75.7399 156.238 75.8857C156.503 76.027 156.81 76.0977 157.161 76.0977C157.507 76.0977 157.811 76.027 158.07 75.8857C158.335 75.7399 158.553 75.5417 158.727 75.291C158.9 75.0404 159.03 74.7533 159.116 74.4297C159.207 74.1016 159.253 73.7529 159.253 73.3838V73.2266C159.253 72.862 159.207 72.5179 159.116 72.1943C159.03 71.8662 158.897 71.5768 158.72 71.3262C158.547 71.071 158.328 70.8704 158.063 70.7246C157.804 70.5788 157.498 70.5059 157.147 70.5059C156.801 70.5059 156.496 70.5788 156.231 70.7246C155.972 70.8704 155.753 71.071 155.575 71.3262C155.402 71.5768 155.272 71.8662 155.186 72.1943C155.099 72.5179 155.056 72.862 155.056 73.2266ZM163.375 70.7656V77H162.11V69.6035H163.341L163.375 70.7656ZM165.686 69.5625L165.679 70.7383C165.574 70.7155 165.474 70.7018 165.378 70.6973C165.287 70.6882 165.182 70.6836 165.063 70.6836C164.772 70.6836 164.514 70.7292 164.291 70.8203C164.068 70.9115 163.879 71.0391 163.724 71.2031C163.569 71.3672 163.446 71.5632 163.354 71.791C163.268 72.0143 163.211 72.2604 163.184 72.5293L162.828 72.7344C162.828 72.2878 162.871 71.8685 162.958 71.4766C163.049 71.0846 163.188 70.7383 163.375 70.4375C163.562 70.1322 163.799 69.8952 164.086 69.7266C164.378 69.5534 164.724 69.4668 165.125 69.4668C165.216 69.4668 165.321 69.4782 165.439 69.501C165.558 69.5192 165.64 69.5397 165.686 69.5625ZM168.112 71.0732V77H166.841V69.6035H168.044L168.112 71.0732ZM167.853 73.0215L167.265 73.001C167.269 72.4951 167.335 72.028 167.463 71.5996C167.59 71.1667 167.78 70.7907 168.03 70.4717C168.281 70.1527 168.593 69.9066 168.967 69.7334C169.34 69.5557 169.773 69.4668 170.266 69.4668C170.612 69.4668 170.931 69.5169 171.223 69.6172C171.514 69.7129 171.767 69.8656 171.981 70.0752C172.196 70.2848 172.362 70.5537 172.48 70.8818C172.599 71.21 172.658 71.6064 172.658 72.0713V77H171.394V72.1328C171.394 71.7454 171.327 71.4355 171.195 71.2031C171.068 70.9707 170.885 70.8021 170.648 70.6973C170.411 70.5879 170.133 70.5332 169.814 70.5332C169.441 70.5332 169.129 70.5993 168.878 70.7314C168.627 70.8636 168.427 71.0459 168.276 71.2783C168.126 71.5107 168.017 71.7773 167.948 72.0781C167.884 72.3743 167.853 72.6888 167.853 73.0215ZM172.645 72.3242L171.797 72.584C171.801 72.1784 171.868 71.7887 171.995 71.415C172.127 71.0413 172.316 70.7087 172.562 70.417C172.813 70.1253 173.121 69.8952 173.485 69.7266C173.85 69.5534 174.267 69.4668 174.736 69.4668C175.133 69.4668 175.484 69.5192 175.789 69.624C176.099 69.7288 176.359 69.8906 176.568 70.1094C176.783 70.3236 176.944 70.5993 177.054 70.9365C177.163 71.2738 177.218 71.6748 177.218 72.1396V77H175.946V72.126C175.946 71.7113 175.88 71.39 175.748 71.1621C175.62 70.9297 175.438 70.7679 175.201 70.6768C174.969 70.5811 174.691 70.5332 174.367 70.5332C174.089 70.5332 173.843 70.5811 173.629 70.6768C173.415 70.7725 173.235 70.9046 173.089 71.0732C172.943 71.2373 172.831 71.4264 172.754 71.6406C172.681 71.8548 172.645 72.0827 172.645 72.3242ZM179.152 76.3301C179.152 76.1159 179.218 75.9359 179.351 75.79C179.487 75.6396 179.683 75.5645 179.938 75.5645C180.194 75.5645 180.387 75.6396 180.52 75.79C180.656 75.9359 180.725 76.1159 180.725 76.3301C180.725 76.5397 180.656 76.7174 180.52 76.8633C180.387 77.0091 180.194 77.082 179.938 77.082C179.683 77.082 179.487 77.0091 179.351 76.8633C179.218 76.7174 179.152 76.5397 179.152 76.3301Z" fill="white"/>
<path d="M112.697 40.7441L115.529 28.7812H117.111L117.473 30.7734L114.455 43H112.756L112.697 40.7441ZM111.242 28.7812L113.586 40.7441L113.391 43H111.496L108.342 28.7812H111.242ZM119.963 40.6953L122.277 28.7812H125.178L122.033 43H120.139L119.963 40.6953ZM118 28.7812L120.852 40.793L120.773 43H119.074L116.037 30.7637L116.428 28.7812H118ZM131.145 43.1953C130.324 43.1953 129.589 43.0651 128.938 42.8047C128.286 42.5378 127.733 42.1699 127.277 41.7012C126.828 41.2324 126.483 40.6888 126.242 40.0703C126.001 39.4453 125.881 38.7812 125.881 38.0781V37.6875C125.881 36.8867 125.995 36.1543 126.223 35.4902C126.451 34.8262 126.776 34.25 127.199 33.7617C127.629 33.2734 128.15 32.8991 128.762 32.6387C129.374 32.3717 130.064 32.2383 130.832 32.2383C131.581 32.2383 132.245 32.362 132.824 32.6094C133.404 32.8568 133.889 33.2083 134.279 33.6641C134.676 34.1198 134.976 34.6667 135.178 35.3047C135.38 35.9362 135.48 36.6393 135.48 37.4141V38.5859H127.082V36.7109H132.717V36.4961C132.717 36.1055 132.645 35.7572 132.502 35.4512C132.365 35.1387 132.157 34.8913 131.877 34.709C131.597 34.5267 131.239 34.4355 130.803 34.4355C130.432 34.4355 130.113 34.5169 129.846 34.6797C129.579 34.8424 129.361 35.0703 129.191 35.3633C129.029 35.6562 128.905 36.0013 128.82 36.3984C128.742 36.7891 128.703 37.2188 128.703 37.6875V38.0781C128.703 38.5013 128.762 38.8919 128.879 39.25C129.003 39.6081 129.175 39.9173 129.396 40.1777C129.624 40.4382 129.898 40.64 130.217 40.7832C130.542 40.9264 130.91 40.998 131.32 40.998C131.828 40.998 132.3 40.9004 132.736 40.7051C133.179 40.5033 133.56 40.2005 133.879 39.7969L135.246 41.2812C135.025 41.6003 134.722 41.9062 134.338 42.1992C133.96 42.4922 133.505 42.7331 132.971 42.9219C132.437 43.1042 131.828 43.1953 131.145 43.1953ZM140.051 32.4336V43H137.229V32.4336H140.051ZM137.053 29.6797C137.053 29.2695 137.196 28.931 137.482 28.6641C137.769 28.3971 138.153 28.2637 138.635 28.2637C139.11 28.2637 139.491 28.3971 139.777 28.6641C140.07 28.931 140.217 29.2695 140.217 29.6797C140.217 30.0898 140.07 30.4284 139.777 30.6953C139.491 30.9622 139.11 31.0957 138.635 31.0957C138.153 31.0957 137.769 30.9622 137.482 30.6953C137.196 30.4284 137.053 30.0898 137.053 29.6797ZM149.064 32.4336H151.613V42.6484C151.613 43.612 151.398 44.429 150.969 45.0996C150.546 45.7767 149.953 46.2878 149.191 46.6328C148.43 46.9844 147.544 47.1602 146.535 47.1602C146.092 47.1602 145.624 47.1016 145.129 46.9844C144.641 46.8672 144.172 46.6849 143.723 46.4375C143.28 46.1901 142.909 45.8776 142.609 45.5L143.85 43.8398C144.175 44.2174 144.553 44.5104 144.982 44.7188C145.412 44.9336 145.887 45.041 146.408 45.041C146.916 45.041 147.346 44.9466 147.697 44.7578C148.049 44.5755 148.319 44.3053 148.508 43.9473C148.697 43.5957 148.791 43.1693 148.791 42.668V34.875L149.064 32.4336ZM141.955 37.8438V37.6387C141.955 36.8314 142.053 36.099 142.248 35.4414C142.45 34.7773 142.733 34.2077 143.098 33.7324C143.469 33.2572 143.918 32.8893 144.445 32.6289C144.973 32.3685 145.568 32.2383 146.232 32.2383C146.936 32.2383 147.525 32.3685 148 32.6289C148.475 32.8893 148.866 33.2604 149.172 33.7422C149.478 34.2174 149.715 34.7806 149.885 35.4316C150.061 36.0762 150.197 36.7826 150.295 37.5508V38C150.197 38.7357 150.051 39.4193 149.855 40.0508C149.66 40.6823 149.403 41.2357 149.084 41.7109C148.765 42.1797 148.368 42.5443 147.893 42.8047C147.424 43.0651 146.864 43.1953 146.213 43.1953C145.562 43.1953 144.973 43.0618 144.445 42.7949C143.924 42.528 143.479 42.1536 143.107 41.6719C142.736 41.1901 142.45 40.6237 142.248 39.9727C142.053 39.3216 141.955 38.612 141.955 37.8438ZM144.768 37.6387V37.8438C144.768 38.2799 144.81 38.6868 144.895 39.0645C144.979 39.4421 145.109 39.7773 145.285 40.0703C145.467 40.3568 145.692 40.5814 145.959 40.7441C146.232 40.9004 146.555 40.9785 146.926 40.9785C147.44 40.9785 147.86 40.8711 148.186 40.6562C148.511 40.4349 148.755 40.1322 148.918 39.748C149.081 39.3639 149.175 38.9212 149.201 38.4199V37.1406C149.188 36.7305 149.133 36.3626 149.035 36.0371C148.938 35.7051 148.801 35.4219 148.625 35.1875C148.449 34.9531 148.221 34.7708 147.941 34.6406C147.661 34.5104 147.329 34.4453 146.945 34.4453C146.574 34.4453 146.252 34.5299 145.979 34.6992C145.712 34.862 145.487 35.0866 145.305 35.373C145.129 35.6595 144.995 35.998 144.904 36.3887C144.813 36.7728 144.768 37.1895 144.768 37.6387ZM156.545 28V43H153.732V28H156.545ZM156.145 37.3457H155.373C155.38 36.61 155.477 35.9329 155.666 35.3145C155.855 34.6895 156.125 34.1491 156.477 33.6934C156.828 33.2311 157.248 32.873 157.736 32.6191C158.231 32.3652 158.778 32.2383 159.377 32.2383C159.898 32.2383 160.37 32.3132 160.793 32.4629C161.223 32.6061 161.59 32.8405 161.896 33.166C162.209 33.485 162.45 33.9049 162.619 34.4258C162.788 34.9466 162.873 35.5781 162.873 36.3203V43H160.041V36.3008C160.041 35.832 159.973 35.4642 159.836 35.1973C159.706 34.9238 159.514 34.7318 159.26 34.6211C159.012 34.5039 158.706 34.4453 158.342 34.4453C157.938 34.4453 157.593 34.5202 157.307 34.6699C157.027 34.8197 156.802 35.028 156.633 35.2949C156.464 35.5553 156.34 35.8613 156.262 36.2129C156.184 36.5645 156.145 36.9421 156.145 37.3457ZM170.188 32.4336V34.4258H164.035V32.4336H170.188ZM165.559 29.8262H168.371V39.8164C168.371 40.1224 168.41 40.3568 168.488 40.5195C168.573 40.6823 168.697 40.7962 168.859 40.8613C169.022 40.9199 169.227 40.9492 169.475 40.9492C169.65 40.9492 169.807 40.9427 169.943 40.9297C170.087 40.9102 170.207 40.8906 170.305 40.8711L170.314 42.9414C170.074 43.0195 169.813 43.0814 169.533 43.127C169.253 43.1725 168.944 43.1953 168.605 43.1953C167.987 43.1953 167.447 43.0944 166.984 42.8926C166.529 42.6842 166.177 42.3522 165.93 41.8965C165.682 41.4408 165.559 40.8418 165.559 40.0996V29.8262ZM176.652 43.1953C175.832 43.1953 175.096 43.0651 174.445 42.8047C173.794 42.5378 173.241 42.1699 172.785 41.7012C172.336 41.2324 171.991 40.6888 171.75 40.0703C171.509 39.4453 171.389 38.7812 171.389 38.0781V37.6875C171.389 36.8867 171.503 36.1543 171.73 35.4902C171.958 34.8262 172.284 34.25 172.707 33.7617C173.137 33.2734 173.658 32.8991 174.27 32.6387C174.882 32.3717 175.572 32.2383 176.34 32.2383C177.089 32.2383 177.753 32.362 178.332 32.6094C178.911 32.8568 179.396 33.2083 179.787 33.6641C180.184 34.1198 180.484 34.6667 180.686 35.3047C180.887 35.9362 180.988 36.6393 180.988 37.4141V38.5859H172.59V36.7109H178.225V36.4961C178.225 36.1055 178.153 35.7572 178.01 35.4512C177.873 35.1387 177.665 34.8913 177.385 34.709C177.105 34.5267 176.747 34.4355 176.311 34.4355C175.939 34.4355 175.62 34.5169 175.354 34.6797C175.087 34.8424 174.868 35.0703 174.699 35.3633C174.536 35.6562 174.413 36.0013 174.328 36.3984C174.25 36.7891 174.211 37.2188 174.211 37.6875V38.0781C174.211 38.5013 174.27 38.8919 174.387 39.25C174.51 39.6081 174.683 39.9173 174.904 40.1777C175.132 40.4382 175.406 40.64 175.725 40.7832C176.05 40.9264 176.418 40.998 176.828 40.998C177.336 40.998 177.808 40.9004 178.244 40.7051C178.687 40.5033 179.068 40.2005 179.387 39.7969L180.754 41.2812C180.533 41.6003 180.23 41.9062 179.846 42.1992C179.468 42.4922 179.012 42.7331 178.479 42.9219C177.945 43.1042 177.336 43.1953 176.652 43.1953ZM188.83 40.6953V28H191.662V43H189.113L188.83 40.6953ZM182.15 37.8438V37.6387C182.15 36.8314 182.242 36.099 182.424 35.4414C182.606 34.7773 182.873 34.2077 183.225 33.7324C183.576 33.2572 184.009 32.8893 184.523 32.6289C185.038 32.3685 185.624 32.2383 186.281 32.2383C186.9 32.2383 187.44 32.3685 187.902 32.6289C188.371 32.8893 188.768 33.2604 189.094 33.7422C189.426 34.2174 189.693 34.7806 189.895 35.4316C190.096 36.0762 190.243 36.7826 190.334 37.5508V38C190.243 38.7357 190.096 39.4193 189.895 40.0508C189.693 40.6823 189.426 41.2357 189.094 41.7109C188.768 42.1797 188.371 42.5443 187.902 42.8047C187.434 43.0651 186.887 43.1953 186.262 43.1953C185.604 43.1953 185.018 43.0618 184.504 42.7949C183.996 42.528 183.566 42.1536 183.215 41.6719C182.87 41.1901 182.606 40.6237 182.424 39.9727C182.242 39.3216 182.15 38.612 182.15 37.8438ZM184.963 37.6387V37.8438C184.963 38.2799 184.995 38.6868 185.061 39.0645C185.132 39.4421 185.246 39.7773 185.402 40.0703C185.565 40.3568 185.773 40.5814 186.027 40.7441C186.288 40.9004 186.604 40.9785 186.975 40.9785C187.456 40.9785 187.854 40.8711 188.166 40.6562C188.479 40.4349 188.716 40.1322 188.879 39.748C189.048 39.3639 189.146 38.9212 189.172 38.4199V37.1406C189.152 36.7305 189.094 36.3626 188.996 36.0371C188.905 35.7051 188.768 35.4219 188.586 35.1875C188.41 34.9531 188.189 34.7708 187.922 34.6406C187.661 34.5104 187.352 34.4453 186.994 34.4453C186.63 34.4453 186.317 34.5299 186.057 34.6992C185.796 34.862 185.585 35.0866 185.422 35.373C185.266 35.6595 185.148 35.998 185.07 36.3887C184.999 36.7728 184.963 37.1895 184.963 37.6387ZM204.553 40.0801C204.553 39.8783 204.494 39.696 204.377 39.5332C204.26 39.3704 204.042 39.2207 203.723 39.084C203.41 38.9408 202.958 38.8105 202.365 38.6934C201.831 38.5762 201.333 38.4297 200.871 38.2539C200.415 38.0716 200.018 37.8535 199.68 37.5996C199.348 37.3457 199.087 37.0462 198.898 36.7012C198.71 36.3496 198.615 35.9492 198.615 35.5C198.615 35.0573 198.71 34.6406 198.898 34.25C199.094 33.8594 199.37 33.5143 199.729 33.2148C200.093 32.9089 200.536 32.6712 201.057 32.502C201.584 32.3262 202.176 32.2383 202.834 32.2383C203.752 32.2383 204.54 32.3848 205.197 32.6777C205.861 32.9707 206.369 33.3743 206.721 33.8887C207.079 34.3965 207.258 34.9759 207.258 35.627H204.445C204.445 35.3535 204.387 35.1094 204.27 34.8945C204.159 34.6732 203.983 34.5007 203.742 34.377C203.508 34.2467 203.202 34.1816 202.824 34.1816C202.512 34.1816 202.242 34.237 202.014 34.3477C201.786 34.4518 201.61 34.5951 201.486 34.7773C201.369 34.9531 201.311 35.1484 201.311 35.3633C201.311 35.526 201.343 35.6725 201.408 35.8027C201.48 35.9264 201.594 36.0404 201.75 36.1445C201.906 36.2487 202.108 36.3464 202.355 36.4375C202.609 36.5221 202.922 36.6003 203.293 36.6719C204.055 36.8281 204.735 37.0332 205.334 37.2871C205.933 37.5345 206.408 37.873 206.76 38.3027C207.111 38.7259 207.287 39.2826 207.287 39.9727C207.287 40.4414 207.183 40.8711 206.975 41.2617C206.766 41.6523 206.467 41.9941 206.076 42.2871C205.686 42.5736 205.217 42.7982 204.67 42.9609C204.13 43.1172 203.521 43.1953 202.844 43.1953C201.861 43.1953 201.027 43.0195 200.344 42.668C199.667 42.3164 199.152 41.8704 198.801 41.3301C198.456 40.7832 198.283 40.2233 198.283 39.6504H200.949C200.962 40.0345 201.06 40.3438 201.242 40.5781C201.431 40.8125 201.669 40.9818 201.955 41.0859C202.248 41.1901 202.564 41.2422 202.902 41.2422C203.267 41.2422 203.57 41.1934 203.811 41.0957C204.051 40.9915 204.234 40.8548 204.357 40.6855C204.488 40.5098 204.553 40.3079 204.553 40.0801ZM215.354 47.0625V34.5918L215.715 32.4336H218.186V47.0625H215.354ZM208.674 37.8242V37.6191C208.674 36.8118 208.762 36.0794 208.938 35.4219C209.12 34.7578 209.387 34.1914 209.738 33.7227C210.09 33.2474 210.52 32.8828 211.027 32.6289C211.542 32.3685 212.134 32.2383 212.805 32.2383C213.449 32.2383 214.006 32.3685 214.475 32.6289C214.943 32.8893 215.337 33.2572 215.656 33.7324C215.982 34.2077 216.242 34.7676 216.438 35.4121C216.633 36.0566 216.783 36.763 216.887 37.5312V37.9805C216.789 38.7161 216.639 39.3997 216.438 40.0312C216.242 40.6628 215.982 41.2161 215.656 41.6914C215.337 42.1667 214.94 42.5378 214.465 42.8047C213.996 43.0651 213.436 43.1953 212.785 43.1953C212.128 43.1953 211.542 43.0618 211.027 42.7949C210.52 42.5215 210.09 42.1439 209.738 41.6621C209.387 41.1803 209.12 40.6139 208.938 39.9629C208.762 39.3053 208.674 38.5924 208.674 37.8242ZM211.486 37.6191V37.8242C211.486 38.2604 211.522 38.6706 211.594 39.0547C211.665 39.4323 211.779 39.7676 211.936 40.0605C212.098 40.3535 212.307 40.5846 212.561 40.7539C212.814 40.9167 213.127 40.998 213.498 40.998C214.012 40.998 214.426 40.8874 214.738 40.666C215.057 40.4382 215.292 40.1289 215.441 39.7383C215.598 39.3477 215.689 38.9017 215.715 38.4004V37.1211C215.695 36.7109 215.64 36.3431 215.549 36.0176C215.464 35.6855 215.334 35.4023 215.158 35.168C214.989 34.9336 214.768 34.7546 214.494 34.6309C214.227 34.5007 213.902 34.4355 213.518 34.4355C213.153 34.4355 212.84 34.5169 212.58 34.6797C212.32 34.8424 212.108 35.0703 211.945 35.3633C211.789 35.6497 211.672 35.985 211.594 36.3691C211.522 36.7533 211.486 37.1699 211.486 37.6191ZM226.652 40.4707V32.4336H229.465V43H226.818L226.652 40.4707ZM226.965 38.3027L227.795 38.2832C227.795 38.9863 227.714 39.6406 227.551 40.2461C227.388 40.8451 227.144 41.3659 226.818 41.8086C226.493 42.2448 226.083 42.5866 225.588 42.834C225.093 43.0749 224.51 43.1953 223.84 43.1953C223.326 43.1953 222.85 43.1237 222.414 42.9805C221.984 42.8307 221.613 42.5996 221.301 42.2871C220.995 41.9681 220.754 41.5612 220.578 41.0664C220.409 40.5651 220.324 39.9629 220.324 39.2598V32.4336H223.137V39.2793C223.137 39.5918 223.173 39.8555 223.244 40.0703C223.322 40.2852 223.43 40.4609 223.566 40.5977C223.703 40.7344 223.863 40.832 224.045 40.8906C224.234 40.9492 224.442 40.9785 224.67 40.9785C225.249 40.9785 225.705 40.8613 226.037 40.627C226.376 40.3926 226.613 40.0736 226.75 39.6699C226.893 39.2598 226.965 38.804 226.965 38.3027ZM237.316 40.6172V35.9102C237.316 35.5716 237.261 35.2819 237.15 35.041C237.04 34.7936 236.867 34.6016 236.633 34.4648C236.405 34.3281 236.109 34.2598 235.744 34.2598C235.432 34.2598 235.161 34.3151 234.934 34.4258C234.706 34.5299 234.53 34.6829 234.406 34.8848C234.283 35.0801 234.221 35.3112 234.221 35.5781H231.408C231.408 35.1289 231.512 34.7025 231.721 34.2988C231.929 33.8952 232.232 33.5404 232.629 33.2344C233.026 32.9219 233.498 32.6777 234.045 32.502C234.598 32.3262 235.217 32.2383 235.9 32.2383C236.721 32.2383 237.45 32.375 238.088 32.6484C238.726 32.9219 239.227 33.332 239.592 33.8789C239.963 34.4258 240.148 35.1094 240.148 35.9297V40.4512C240.148 41.0306 240.184 41.5059 240.256 41.877C240.327 42.2415 240.432 42.5605 240.568 42.834V43H237.727C237.59 42.7135 237.486 42.3555 237.414 41.9258C237.349 41.4896 237.316 41.0534 237.316 40.6172ZM237.688 36.5645L237.707 38.1562H236.135C235.764 38.1562 235.441 38.1986 235.168 38.2832C234.895 38.3678 234.67 38.4883 234.494 38.6445C234.318 38.7943 234.188 38.9701 234.104 39.1719C234.025 39.3737 233.986 39.5951 233.986 39.8359C233.986 40.0768 234.042 40.2949 234.152 40.4902C234.263 40.679 234.423 40.8288 234.631 40.9395C234.839 41.0436 235.083 41.0957 235.363 41.0957C235.786 41.0957 236.154 41.0111 236.467 40.8418C236.779 40.6725 237.02 40.4642 237.189 40.2168C237.365 39.9694 237.456 39.735 237.463 39.5137L238.205 40.7051C238.101 40.972 237.958 41.2487 237.775 41.5352C237.6 41.8216 237.375 42.0918 237.102 42.3457C236.828 42.5931 236.499 42.7982 236.115 42.9609C235.731 43.1172 235.275 43.1953 234.748 43.1953C234.077 43.1953 233.469 43.0618 232.922 42.7949C232.382 42.5215 231.952 42.1471 231.633 41.6719C231.32 41.1901 231.164 40.6432 231.164 40.0312C231.164 39.4779 231.268 38.9863 231.477 38.5566C231.685 38.127 231.991 37.7656 232.395 37.4727C232.805 37.1732 233.316 36.9486 233.928 36.7988C234.54 36.6426 235.249 36.5645 236.057 36.5645H237.688ZM247.492 32.4336V34.4258H241.34V32.4336H247.492ZM242.863 29.8262H245.676V39.8164C245.676 40.1224 245.715 40.3568 245.793 40.5195C245.878 40.6823 246.001 40.7962 246.164 40.8613C246.327 40.9199 246.532 40.9492 246.779 40.9492C246.955 40.9492 247.111 40.9427 247.248 40.9297C247.391 40.9102 247.512 40.8906 247.609 40.8711L247.619 42.9414C247.378 43.0195 247.118 43.0814 246.838 43.127C246.558 43.1725 246.249 43.1953 245.91 43.1953C245.292 43.1953 244.751 43.0944 244.289 42.8926C243.833 42.6842 243.482 42.3522 243.234 41.8965C242.987 41.4408 242.863 40.8418 242.863 40.0996V29.8262Z" fill="white"/>
<rect x="143" y="118" width="18" height="18" fill="#E9E9ED"/>
<path d="M148.5 124.5L151.5 121L154.5 124.5" stroke="#8F8F9C" stroke-width="1.5"/>
<path d="M154.5 129L151.5 132.5L148.5 129" stroke="#8F8F9C" stroke-width="1.5"/>
<rect x="264" y="118" width="18" height="18" fill="#E9E9ED"/>
<path d="M269.5 124.5L272.5 121L275.5 124.5" stroke="#8F8F9C" stroke-width="1.5"/>
<path d="M275.5 129L272.5 132.5L269.5 129" stroke="#8F8F9C" stroke-width="1.5"/>
<rect x="143" y="170" width="18" height="18" fill="#E9E9ED"/>
<path d="M148.5 176.5L151.5 173L154.5 176.5" stroke="#8F8F9C" stroke-width="1.5"/>
<path d="M154.5 181L151.5 184.5L148.5 181" stroke="#8F8F9C" stroke-width="1.5"/>
<rect x="264" y="170" width="18" height="18" fill="#E9E9ED"/>
<path d="M269.5 176.5L272.5 173L275.5 176.5" stroke="#8F8F9C" stroke-width="1.5"/>
<path d="M275.5 181L272.5 184.5L269.5 181" stroke="#8F8F9C" stroke-width="1.5"/>
<rect x="201" y="209" width="139" height="33" rx="10" fill="#D3F076"/>
<path d="M255.79 230H253.158L253.175 228.058H255.79C256.443 228.058 256.993 227.911 257.441 227.618C257.89 227.319 258.227 226.884 258.454 226.314C258.687 225.744 258.803 225.056 258.803 224.248V223.658C258.803 223.038 258.736 222.493 258.604 222.023C258.476 221.553 258.285 221.157 258.031 220.836C257.776 220.515 257.464 220.274 257.093 220.114C256.722 219.948 256.296 219.865 255.814 219.865H253.108V217.914H255.814C256.622 217.914 257.361 218.052 258.031 218.329C258.706 218.6 259.29 218.99 259.782 219.5C260.275 220.009 260.654 220.617 260.919 221.326C261.191 222.028 261.326 222.812 261.326 223.675V224.248C261.326 225.105 261.191 225.888 260.919 226.597C260.654 227.305 260.275 227.914 259.782 228.423C259.295 228.926 258.711 229.317 258.031 229.593C257.356 229.864 256.609 230 255.79 230ZM254.569 217.914V230H252.079V217.914H254.569ZM262.604 225.601V225.426C262.604 224.768 262.699 224.162 262.887 223.608C263.075 223.049 263.349 222.565 263.708 222.156C264.068 221.746 264.511 221.428 265.037 221.201C265.562 220.969 266.166 220.853 266.846 220.853C267.527 220.853 268.133 220.969 268.664 221.201C269.195 221.428 269.641 221.746 270 222.156C270.366 222.565 270.642 223.049 270.831 223.608C271.019 224.162 271.113 224.768 271.113 225.426V225.601C271.113 226.254 271.019 226.86 270.831 227.418C270.642 227.972 270.366 228.456 270 228.871C269.641 229.281 269.198 229.599 268.672 229.826C268.147 230.053 267.543 230.166 266.863 230.166C266.182 230.166 265.576 230.053 265.045 229.826C264.519 229.599 264.074 229.281 263.708 228.871C263.349 228.456 263.075 227.972 262.887 227.418C262.699 226.86 262.604 226.254 262.604 225.601ZM264.995 225.426V225.601C264.995 225.977 265.028 226.328 265.095 226.655C265.161 226.981 265.266 227.269 265.41 227.518C265.56 227.762 265.753 227.952 265.991 228.091C266.229 228.229 266.52 228.298 266.863 228.298C267.195 228.298 267.48 228.229 267.718 228.091C267.956 227.952 268.147 227.762 268.291 227.518C268.434 227.269 268.54 226.981 268.606 226.655C268.678 226.328 268.714 225.977 268.714 225.601V225.426C268.714 225.061 268.678 224.718 268.606 224.397C268.54 224.07 268.432 223.783 268.282 223.534C268.138 223.279 267.947 223.08 267.709 222.936C267.472 222.792 267.184 222.72 266.846 222.72C266.509 222.72 266.221 222.792 265.983 222.936C265.75 223.08 265.56 223.279 265.41 223.534C265.266 223.783 265.161 224.07 265.095 224.397C265.028 224.718 264.995 225.061 264.995 225.426ZM274.923 222.936V230H272.532V221.019H274.773L274.923 222.936ZM274.574 225.194H273.927C273.927 224.53 274.013 223.932 274.184 223.401C274.356 222.864 274.596 222.408 274.906 222.031C275.216 221.649 275.584 221.359 276.01 221.16C276.442 220.955 276.923 220.853 277.455 220.853C277.875 220.853 278.26 220.913 278.608 221.035C278.957 221.157 279.256 221.351 279.505 221.616C279.759 221.882 279.953 222.233 280.086 222.67C280.224 223.108 280.293 223.642 280.293 224.272V230H277.886V224.264C277.886 223.866 277.831 223.556 277.72 223.334C277.61 223.113 277.446 222.958 277.23 222.87C277.02 222.776 276.76 222.729 276.45 222.729C276.129 222.729 275.85 222.792 275.612 222.919C275.379 223.047 275.186 223.224 275.031 223.451C274.881 223.672 274.768 223.932 274.69 224.231C274.613 224.53 274.574 224.851 274.574 225.194ZM286.245 230.166C285.548 230.166 284.923 230.055 284.369 229.834C283.816 229.607 283.345 229.294 282.958 228.896C282.576 228.498 282.283 228.035 282.078 227.51C281.873 226.979 281.771 226.414 281.771 225.816V225.484C281.771 224.804 281.868 224.181 282.062 223.617C282.255 223.052 282.532 222.562 282.892 222.147C283.257 221.732 283.7 221.414 284.22 221.193C284.74 220.966 285.326 220.853 285.979 220.853C286.616 220.853 287.18 220.958 287.673 221.168C288.165 221.378 288.578 221.677 288.91 222.064C289.247 222.452 289.502 222.917 289.673 223.459C289.845 223.996 289.931 224.593 289.931 225.252V226.248H282.792V224.654H287.582V224.472C287.582 224.14 287.521 223.844 287.399 223.583C287.283 223.318 287.106 223.108 286.868 222.953C286.63 222.798 286.325 222.72 285.955 222.72C285.639 222.72 285.368 222.789 285.141 222.928C284.914 223.066 284.729 223.26 284.585 223.509C284.447 223.758 284.341 224.051 284.27 224.389C284.203 224.721 284.17 225.086 284.17 225.484V225.816C284.17 226.176 284.22 226.508 284.319 226.812C284.424 227.117 284.571 227.38 284.759 227.601C284.953 227.822 285.185 227.994 285.457 228.116C285.733 228.237 286.046 228.298 286.395 228.298C286.826 228.298 287.227 228.215 287.598 228.049C287.974 227.878 288.298 227.62 288.569 227.277L289.731 228.539C289.543 228.81 289.286 229.07 288.959 229.319C288.639 229.568 288.251 229.773 287.797 229.934C287.344 230.089 286.826 230.166 286.245 230.166Z" fill="#091B35"/>
<rect x="27" y="209" width="158" height="32.6533" rx="10" fill="#D3F076"/>
<path d="M75.9863 220.355L72.6992 230.374H70.0513L74.542 218.288H76.2271L75.9863 220.355ZM78.7173 230.374L75.4219 220.355L75.1562 218.288H76.8579L81.3735 230.374H78.7173ZM78.5679 225.875V227.826H72.1846V225.875H78.5679ZM87.6489 228.415V217.624H90.0562V230.374H87.8896L87.6489 228.415ZM81.9712 225.991V225.817C81.9712 225.131 82.0487 224.508 82.2036 223.949C82.3586 223.385 82.5854 222.901 82.8843 222.497C83.1831 222.093 83.5511 221.78 83.9883 221.559C84.4255 221.337 84.9235 221.227 85.4824 221.227C86.0081 221.227 86.4674 221.337 86.8604 221.559C87.2588 221.78 87.5964 222.095 87.873 222.505C88.1553 222.909 88.3822 223.388 88.5537 223.941C88.7253 224.489 88.8498 225.089 88.9272 225.742V226.124C88.8498 226.749 88.7253 227.331 88.5537 227.867C88.3822 228.404 88.1553 228.874 87.873 229.278C87.5964 229.677 87.2588 229.987 86.8604 230.208C86.4619 230.429 85.9971 230.54 85.4658 230.54C84.9069 230.54 84.4089 230.427 83.9717 230.2C83.54 229.973 83.1748 229.655 82.876 229.245C82.5827 228.836 82.3586 228.354 82.2036 227.801C82.0487 227.248 81.9712 226.644 81.9712 225.991ZM84.3618 225.817V225.991C84.3618 226.362 84.3895 226.708 84.4448 227.029C84.5057 227.35 84.6025 227.635 84.7354 227.884C84.8737 228.127 85.0508 228.318 85.2666 228.457C85.488 228.589 85.7563 228.656 86.0718 228.656C86.4813 228.656 86.8188 228.565 87.0845 228.382C87.3501 228.194 87.5521 227.936 87.6904 227.61C87.8343 227.283 87.9173 226.907 87.9395 226.481V225.394C87.9229 225.045 87.873 224.732 87.79 224.456C87.7126 224.173 87.5964 223.933 87.4414 223.734C87.292 223.534 87.1038 223.379 86.877 223.269C86.6556 223.158 86.3927 223.103 86.0884 223.103C85.7785 223.103 85.5129 223.175 85.2915 223.318C85.0701 223.457 84.8903 223.648 84.752 223.891C84.6191 224.135 84.5195 224.422 84.4531 224.755C84.3923 225.081 84.3618 225.435 84.3618 225.817ZM97.228 228.415V217.624H99.6353V230.374H97.4688L97.228 228.415ZM91.5503 225.991V225.817C91.5503 225.131 91.6278 224.508 91.7827 223.949C91.9377 223.385 92.1646 222.901 92.4634 222.497C92.7622 222.093 93.1302 221.78 93.5674 221.559C94.0046 221.337 94.5026 221.227 95.0615 221.227C95.5872 221.227 96.0465 221.337 96.4395 221.559C96.8379 221.78 97.1755 222.095 97.4521 222.505C97.7344 222.909 97.9613 223.388 98.1328 223.941C98.3044 224.489 98.4289 225.089 98.5063 225.742V226.124C98.4289 226.749 98.3044 227.331 98.1328 227.867C97.9613 228.404 97.7344 228.874 97.4521 229.278C97.1755 229.677 96.8379 229.987 96.4395 230.208C96.041 230.429 95.5762 230.54 95.0449 230.54C94.486 230.54 93.988 230.427 93.5508 230.2C93.1191 229.973 92.7539 229.655 92.4551 229.245C92.1618 228.836 91.9377 228.354 91.7827 227.801C91.6278 227.248 91.5503 226.644 91.5503 225.991ZM93.9409 225.817V225.991C93.9409 226.362 93.9686 226.708 94.0239 227.029C94.0848 227.35 94.1816 227.635 94.3145 227.884C94.4528 228.127 94.6299 228.318 94.8457 228.457C95.0671 228.589 95.3354 228.656 95.6509 228.656C96.0604 228.656 96.3979 228.565 96.6636 228.382C96.9292 228.194 97.1312 227.936 97.2695 227.61C97.4134 227.283 97.4964 226.907 97.5186 226.481V225.394C97.502 225.045 97.4521 224.732 97.3691 224.456C97.2917 224.173 97.1755 223.933 97.0205 223.734C96.8711 223.534 96.6829 223.379 96.4561 223.269C96.2347 223.158 95.9718 223.103 95.6675 223.103C95.3576 223.103 95.092 223.175 94.8706 223.318C94.6493 223.457 94.4694 223.648 94.3311 223.891C94.1982 224.135 94.0986 224.422 94.0322 224.755C93.9714 225.081 93.9409 225.435 93.9409 225.817ZM110.592 227.892C110.592 227.721 110.542 227.566 110.443 227.427C110.343 227.289 110.158 227.162 109.887 227.046C109.621 226.924 109.236 226.813 108.733 226.714C108.279 226.614 107.856 226.489 107.463 226.34C107.076 226.185 106.738 226 106.45 225.784C106.168 225.568 105.947 225.313 105.786 225.02C105.626 224.721 105.545 224.381 105.545 223.999C105.545 223.623 105.626 223.269 105.786 222.937C105.952 222.605 106.187 222.311 106.492 222.057C106.802 221.797 107.178 221.595 107.621 221.451C108.069 221.301 108.572 221.227 109.131 221.227C109.912 221.227 110.581 221.351 111.14 221.6C111.705 221.849 112.136 222.192 112.435 222.63C112.739 223.061 112.892 223.554 112.892 224.107H110.501C110.501 223.875 110.451 223.667 110.352 223.484C110.257 223.296 110.108 223.15 109.903 223.045C109.704 222.934 109.444 222.879 109.123 222.879C108.857 222.879 108.628 222.926 108.434 223.02C108.24 223.108 108.091 223.23 107.986 223.385C107.886 223.534 107.836 223.7 107.836 223.883C107.836 224.021 107.864 224.146 107.919 224.256C107.98 224.362 108.077 224.458 108.21 224.547C108.343 224.636 108.514 224.719 108.725 224.796C108.94 224.868 109.206 224.934 109.521 224.995C110.169 225.128 110.747 225.302 111.256 225.518C111.765 225.728 112.169 226.016 112.468 226.381C112.767 226.741 112.917 227.214 112.917 227.801C112.917 228.199 112.828 228.565 112.651 228.897C112.474 229.229 112.219 229.519 111.887 229.768C111.555 230.012 111.157 230.203 110.692 230.341C110.233 230.474 109.715 230.54 109.14 230.54C108.304 230.54 107.596 230.391 107.015 230.092C106.439 229.793 106.002 229.414 105.703 228.955C105.41 228.49 105.263 228.014 105.263 227.527H107.529C107.54 227.853 107.623 228.116 107.778 228.316C107.939 228.515 108.141 228.659 108.384 228.747C108.633 228.836 108.902 228.88 109.189 228.88C109.499 228.88 109.757 228.839 109.961 228.755C110.166 228.667 110.321 228.551 110.426 228.407C110.537 228.257 110.592 228.086 110.592 227.892ZM118.603 230.54C117.905 230.54 117.28 230.429 116.727 230.208C116.173 229.981 115.703 229.669 115.315 229.27C114.934 228.872 114.64 228.41 114.436 227.884C114.231 227.353 114.128 226.788 114.128 226.191V225.859C114.128 225.178 114.225 224.555 114.419 223.991C114.613 223.426 114.889 222.937 115.249 222.522C115.614 222.107 116.057 221.788 116.577 221.567C117.097 221.34 117.684 221.227 118.337 221.227C118.973 221.227 119.538 221.332 120.03 221.542C120.523 221.752 120.935 222.051 121.267 222.439C121.605 222.826 121.859 223.291 122.031 223.833C122.202 224.37 122.288 224.968 122.288 225.626V226.622H115.149V225.028H119.939V224.846C119.939 224.514 119.878 224.218 119.756 223.958C119.64 223.692 119.463 223.482 119.225 223.327C118.987 223.172 118.683 223.094 118.312 223.094C117.997 223.094 117.725 223.164 117.499 223.302C117.272 223.44 117.086 223.634 116.942 223.883C116.804 224.132 116.699 224.425 116.627 224.763C116.561 225.095 116.527 225.46 116.527 225.859V226.191C116.527 226.55 116.577 226.882 116.677 227.187C116.782 227.491 116.929 227.754 117.117 227.975C117.31 228.197 117.543 228.368 117.814 228.49C118.091 228.612 118.403 228.672 118.752 228.672C119.184 228.672 119.585 228.589 119.956 228.423C120.332 228.252 120.656 227.995 120.927 227.651L122.089 228.913C121.901 229.184 121.643 229.444 121.317 229.693C120.996 229.943 120.609 230.147 120.155 230.308C119.701 230.463 119.184 230.54 118.603 230.54ZM128.049 221.393V223.086H122.819V221.393H128.049ZM124.114 219.176H126.505V227.668C126.505 227.928 126.538 228.127 126.604 228.266C126.676 228.404 126.782 228.501 126.92 228.556C127.058 228.606 127.233 228.631 127.443 228.631C127.592 228.631 127.725 228.625 127.841 228.614C127.963 228.598 128.065 228.581 128.148 228.565L128.157 230.324C127.952 230.391 127.731 230.443 127.493 230.482C127.255 230.521 126.992 230.54 126.704 230.54C126.178 230.54 125.719 230.454 125.326 230.283C124.939 230.106 124.64 229.824 124.43 229.436C124.219 229.049 124.114 228.54 124.114 227.909V219.176Z" fill="#091B35"/>
<defs>
<filter id="filter0_d_142651_1217" x="0" y="0" width="369" height="259" filterUnits="userSpaceOnUse" color-interpolation-filters="sRGB">
<feFlood flood-opacity="0" result="BackgroundImageFix"/>
<feColorMatrix in="SourceAlpha" type="matrix" values="0 0 0 0 0 0 0 0 0 0 0 0 0 0 0 0 0 0 127 0" result="hardAlpha"/>
<feOffset dx="2" dy="2"/>
<feGaussianBlur stdDeviation="3"/>
<feComposite in2="hardAlpha" operator="out"/>
<feColorMatrix type="matrix" values="0 0 0 0 0 0 0 0 0 0 0 0 0 0 0 0 0 0 0.25 0"/>
<feBlend mode="normal" in2="BackgroundImageFix" result="effect1_dropShadow_142651_1217"/>
<feBlend mode="normal" in="SourceGraphic" in2="effect1_dropShadow_142651_1217" result="shape"/>
</filter>
</defs>
</svg>
