<svg width="68" height="68" viewBox="0 0 68 68" fill="none" xmlns="http://www.w3.org/2000/svg">
<circle cx="34" cy="34" r="34" fill="#A49AF4"/>
<path fill-rule="evenodd" clip-rule="evenodd" d="M9.33106 26.6402L9.43744 28.4514C9.49484 28.9346 9.58409 29.6143 9.58409 30.0027C8.48714 30.2623 6.87147 32.7528 6.37698 33.6625C4.6831 36.7793 5.02911 40.0212 5.02911 43.5644C5.02911 43.9739 6.41438 44.8684 6.77037 45.1602L10.3806 48.2388C12.3388 49.6886 12.3581 50.5078 13.3989 48.737C13.6673 48.2805 13.8389 47.9318 14.0683 47.4243C15.9328 43.2971 14.484 42.4322 15.6389 41.1944C16.0797 40.7221 17.1408 39.3504 17.5555 39.0812C17.7317 39.7513 18.7815 40.7421 19.2212 41.3042C20.9551 43.521 19.8772 46.4584 19.3268 49.3926C18.9095 51.6173 19.2181 52.9396 19.1939 55.1143C19.1862 55.8033 19.127 55.8717 19.6231 56.1912C21.0944 57.1391 26.2192 58.9848 27.9839 59.4326C34.1446 60.9967 38.8947 60.3119 44.7557 58.0198L48.7441 56.2852C49.0419 56.1178 49.1375 56.2076 49.261 55.7343L49.4405 50.9617C49.4405 50.3361 49.2913 49.8335 49.1875 49.2805C48.6414 46.3698 47.5237 43.5539 49.3129 41.3217C49.7444 40.7834 50.7861 39.738 50.9588 39.0812C51.2903 39.2778 52.4857 40.7428 52.8212 41.1302C53.7965 42.257 53.1287 41.9785 53.5092 44.3315C53.6872 45.4333 53.9964 46.37 54.4292 47.3273C55.9849 50.7676 56.0409 49.996 58.011 48.2421L59.9108 46.6747C60.5325 46.124 61.0594 45.6568 61.6803 45.104C63.6164 43.3803 63.3586 44.7187 63.3586 40.6502C63.3586 37.1213 61.8975 32.9145 59.5309 30.5914C59.3071 30.3717 59.1519 30.2077 58.946 29.9812C58.6617 29.6684 58.7001 29.8196 58.8134 29.2428C59.4363 26.072 59.0806 21.8039 57.1103 19.1739C56.443 18.2834 54.9932 17.1393 53.9961 16.5527C51.6139 15.1511 51.552 15.5075 49.9711 14.7383L41.3883 10.2362C40.8932 9.90292 40.7031 7.75055 40.5767 6.92021C40.4956 6.38654 40.384 5.00295 39.9748 4.7634C39.301 4.36876 35.0391 4 33.751 4C32.8655 4 28.8039 4.54789 28.4692 4.81332C28.1648 5.0545 27.639 8.85846 27.5376 9.48005C27.4063 10.2875 27.1482 10.2068 26.0089 10.8158C25.3214 11.1834 24.7197 11.4992 24.0322 11.8668L18.118 14.9219C17.2506 15.2251 16.7432 15.4583 15.9525 15.8056C13.1635 17.0306 10.9818 19.001 10.1168 21.7321C9.64967 23.2064 9.33106 24.7943 9.33106 26.6402Z" fill="#484F69"/>
<path fill-rule="evenodd" clip-rule="evenodd" d="M37.0354 14.9839C35.8826 16.0543 34.6933 16.3069 34.6846 19.0155C34.6756 21.8408 34.5505 37.0812 34.7994 37.7027C35.53 37.8282 35.588 37.3305 35.9972 36.8106C36.3489 36.3637 36.6733 35.9572 36.9783 35.5494C37.6155 34.6965 38.2474 33.9153 38.8975 33.1046C39.5679 32.2684 40.1272 31.4959 40.8 30.6406C41.4061 29.8702 42.4209 28.9634 42.3903 27.7654C42.2971 24.1226 42.2671 20.5358 45.2512 17.7744C46.7779 16.3615 49.752 15.9603 47.3535 14.8181C46.7895 14.5494 46.3287 14.3621 45.7715 14.0866C44.7456 13.5798 43.6779 13.0949 42.6249 12.6123C39.3296 11.1016 40.5659 11.7194 37.8411 8.44587C37.4883 8.02184 37.2287 7.69343 36.884 7.27826C36.593 6.92769 36.1533 6.27741 35.8842 6.02924C35.3136 5.50351 34.7193 5.8606 34.6804 6.57899C34.6064 7.94207 34.5813 11.5161 35.0121 12.5206C35.6288 13.9586 36.7007 14.2578 37.0354 14.9839Z" fill="#FE014F"/>
<path fill-rule="evenodd" clip-rule="evenodd" d="M33.5053 37.7298C33.7599 37.0959 33.622 21.96 33.6204 19.1301C33.6191 16.9313 32.6237 15.8024 31.2195 15.0082C31.6408 14.2791 33.3618 13.6575 33.5911 11.3768C33.7017 10.275 33.7844 6.59838 33.405 5.89142C32.3733 5.66611 32.426 6.0358 31.3491 7.36482L28.075 11.4149C27.5879 11.8261 26.2282 12.3317 25.5541 12.6569L20.4564 15.088C18.9087 16.1261 21.9855 16.2915 23.7976 18.5325C25.6021 20.7642 26.1803 24.0888 25.9781 26.9664C25.8727 28.4654 25.948 28.683 26.7538 29.7018L32.397 36.9165C32.7823 37.4129 32.7712 37.7702 33.5053 37.7298Z" fill="#FE014F"/>
<path fill-rule="evenodd" clip-rule="evenodd" d="M23.6829 46.9856C24.1877 46.9324 27.5022 43.4116 28.2595 42.6202L29.2672 41.607C29.4644 41.3992 29.6166 41.3066 29.8265 41.0995C30.0142 40.914 30.0942 40.7876 30.277 40.5957L31.8376 39.0686C32.3935 38.2534 31.5269 37.4595 30.7341 36.4871C30.0311 35.6246 25.772 30.0503 25.4068 29.7718C24.5631 29.1285 23.2111 29.8047 22.2168 30.0965C17.5581 31.464 17.3016 30.6989 17.5109 33.4176C17.7871 37.0042 18.8375 38.8858 20.9376 41.8004C21.6288 42.7597 22.7613 44.3978 23.1839 45.5278C23.3503 45.9726 23.4151 46.6714 23.6829 46.9856Z" fill="#FE014F"/>
<path fill-rule="evenodd" clip-rule="evenodd" d="M44.6067 46.9953C44.9024 46.7033 44.9345 46.0005 45.1065 45.5537C45.6331 44.1852 46.5149 43.0325 47.3586 41.8341C49.4168 38.9095 50.5075 37.068 50.789 33.4686C51.0101 30.6412 50.8766 31.546 46.0531 30.0899C42.3936 28.9852 43.5274 29.0454 39.35 34.2908L36.7185 37.6768C35.6736 38.9928 36.7324 39.4224 37.4215 40.086L43.5084 46.1307C43.7386 46.3756 44.3179 46.9205 44.6067 46.9953Z" fill="#FE014F"/>
<path fill-rule="evenodd" clip-rule="evenodd" d="M34.6858 40.4263V57.5746C34.6858 58.4331 35.2213 58.6416 35.8417 58.2015C37.3294 57.1459 38.5193 55.8947 40.4926 55.3658C42.0885 54.938 43.7742 55.4094 44.0686 53.953C44.2974 52.8227 44.2837 50.8488 44.3706 49.6168C44.423 48.8725 44.4114 48.2467 43.9446 47.7634L36.5927 40.4839C36.3665 40.2376 36.2309 40.1534 35.9792 39.9136C35.6508 39.6004 35.6527 39.4856 34.9551 39.5232C34.7124 39.9015 34.6858 39.9472 34.6858 40.4263Z" fill="#FE014F"/>
<path fill-rule="evenodd" clip-rule="evenodd" d="M33.3842 58.3522C33.5817 58.0532 33.6191 58.0641 33.6191 57.5746V40.3141C33.6191 38.0512 31.0974 41.1183 30.5855 41.6604L29.3874 42.8401C29.087 43.1165 28.9722 43.1813 28.7125 43.4715C28.3189 43.9119 27.915 44.226 27.5245 44.6622L26.2783 45.914C26.0563 46.1482 25.892 46.2445 25.6545 46.4768C25.4296 46.6968 25.3108 46.8822 25.0807 47.0952C24.6323 47.5108 24.1244 47.7543 23.9537 48.4393C23.7829 49.1244 24.0841 51.868 24.1394 52.7511C24.2755 54.9261 24.3458 54.8594 26.6529 55.1355C30.729 55.6232 31.7462 58.623 33.3842 58.3522Z" fill="#FE014F"/>
<path fill-rule="evenodd" clip-rule="evenodd" d="M22.7494 19.8408C22.8206 18.5744 20.7453 17.4249 19.5696 16.9371C17.5199 16.0869 16.3351 16.6003 14.8012 17.5683C12.4145 19.0745 10.5375 21.4598 10.6533 25.3712C10.7912 30.041 11.8467 28.8758 14.4612 26.7492C15.1056 26.225 15.7077 25.9601 16.1112 25.355C16.6962 24.4782 16.4026 22.8185 18.3599 21.6262C19.7972 20.7507 21.3695 20.5335 22.7494 19.8408Z" fill="#9EAACC"/>
<path fill-rule="evenodd" clip-rule="evenodd" d="M45.3433 19.72C46.0887 20.4699 48.0718 20.4971 49.8179 21.541C52.1871 22.9574 51.5059 24.1113 52.1553 25.2378C52.4468 25.7433 53.324 26.2784 53.8344 26.644C56.1455 28.2994 57.6337 30.5858 57.8406 25.4486C58.0005 21.4748 56.0375 19.1032 53.6056 17.612C51.9952 16.6246 50.9828 16.0749 48.7009 16.9286C47.4023 17.4144 45.4853 18.5321 45.3433 19.72Z" fill="#9EAACC"/>
<path fill-rule="evenodd" clip-rule="evenodd" d="M44.6781 20.5703C43.9463 20.8152 43.9597 21.1872 43.7831 21.9688C43.3886 23.7149 43.1132 26.1438 43.5205 27.8521C43.7657 28.8805 45.3903 29.0634 46.5649 29.4128C51.6795 30.9342 51.1879 31.3902 51.1929 27.3126C51.1955 25.1178 51.2084 22.7359 48.1435 21.5137C47.6087 21.3006 45.0838 20.4345 44.6781 20.5703Z" fill="#FE014F"/>
<path fill-rule="evenodd" clip-rule="evenodd" d="M23.1946 20.5838C17.0021 22.1055 17.1171 23.859 17.1113 27.9853C17.1068 31.0562 16.5331 31.0138 22.2748 29.2516C23.9379 28.741 24.6889 28.9374 24.86 27.2982C25.0064 25.895 24.9988 24.5443 24.766 23.1672C24.598 22.1717 24.5011 20.2626 23.1946 20.5838Z" fill="#FE014F"/>
<path fill-rule="evenodd" clip-rule="evenodd" d="M52.0571 27.2499C51.8401 27.4097 51.9273 27.0039 51.8235 27.6499L51.9592 32.023C51.8796 33.9888 51.2993 34.7123 52.1035 36.6093C52.5906 37.7587 54.1104 39.7497 54.9338 40.4951C55.2205 40.7547 55.4557 40.8804 55.7208 41.1407C56.0191 41.4339 56.852 42.3083 57.4521 42.0378C58.1854 41.7073 56.9894 39.9971 56.5247 38.4102C55.735 35.7139 56.8675 32.1483 52.8099 27.5765C52.5959 27.3355 52.4389 26.9684 52.0571 27.2499Z" fill="#9EAACC"/>
<path fill-rule="evenodd" clip-rule="evenodd" d="M10.6779 42.0296C11.5865 42.2432 11.8915 41.7065 12.4407 41.2776C13.8418 40.1844 15.3403 38.4059 16.1168 36.7965C17.0237 34.9173 16.4802 34.3647 16.3617 32.4006C16.3196 31.7022 16.4904 27.5563 16.4428 27.4248C16.0347 26.2971 14.2439 29.1991 13.9808 29.6404C11.1495 34.3897 13.0008 35.9179 11.1834 40.05C10.9043 40.6847 10.4325 41.38 10.6779 42.0296Z" fill="#9EAACC"/>
<path fill-rule="evenodd" clip-rule="evenodd" d="M12.2347 29.198C11.4892 29.5696 9.94309 30.8267 9.47229 31.3595C8.65892 32.2798 8.07097 32.9896 7.40664 34.2416C6.83789 35.3139 6.44738 36.5669 6.25543 37.8397C5.2933 44.217 8.39931 41.0922 9.13395 38.9025C9.83619 36.8104 10.3855 37.2687 10.9166 35.7785C11.3408 34.5873 11.4279 33.3117 11.8992 32.0529C12.0891 31.5461 13.8977 28.3691 12.2347 29.198Z" fill="#9EAACC"/>
<path fill-rule="evenodd" clip-rule="evenodd" d="M61.8609 41.5473C62.8978 39.8455 61.5828 35.4361 60.7339 33.8925C59.8539 32.2917 58.6271 31.0952 57.2203 29.9497C56.9822 29.7559 56.0359 28.95 55.558 29.1229C54.9292 29.3505 56.0454 31.038 56.5191 32.3664C56.9198 33.4894 57.0841 35.2425 57.5489 36.1556C58.3278 37.6864 58.0702 36.2149 59.3162 39.2986C59.5951 39.9887 60.2905 40.8956 60.885 41.388C61.2621 41.7003 61.3179 41.6798 61.8609 41.5473Z" fill="#9EAACC"/>
<path fill-rule="evenodd" clip-rule="evenodd" d="M21.5206 44.4714C21.0879 45.957 20.635 48.5436 20.4004 50.1094C20.2324 51.2325 20.2798 52.115 20.4507 53.2304C20.649 54.5261 20.486 55.1813 22.242 55.0087C23.8509 54.8505 23.4066 54.0967 23.25 52.8635C23.0206 51.0578 22.0859 45.7177 21.5206 44.4714Z" fill="#9EAACC"/>
<path fill-rule="evenodd" clip-rule="evenodd" d="M44.9814 54.7115C45.4077 54.9324 45.9535 55.0571 46.6653 55.048C47.4526 55.0378 47.6055 54.7656 47.713 54.154C48.2572 51.0498 48.0055 50.7258 47.4478 47.8016C47.248 46.7523 47.075 45.6355 46.844 44.6428L46.5618 45.1672C46.4915 45.3866 46.4538 45.615 46.4046 45.8165C45.9422 47.7027 44.6699 53.5091 44.9814 54.7115Z" fill="#9EAACC"/>
</svg>
