<svg width="68" height="68" viewBox="0 0 68 68" fill="none" xmlns="http://www.w3.org/2000/svg">
<circle cx="34" cy="34" r="34" fill="#A49AF4"/>
<path d="M21.8443 14.223H22.2522L23.0935 14.274L23.8584 14.3759L24.5978 14.5289L25.4392 14.7584L26.153 15.0133L26.8924 15.3193L27.3768 15.9312L27.9632 16.2626L28.4732 16.5686L29.3145 17.1295L29.7989 17.4864L30.1049 17.7159L30.5128 18.0473L30.7933 18.2768L31.1502 18.5827L31.4562 18.8632L31.7111 19.0926L31.8896 19.2711L32.0935 19.4496L32.6545 20.0105L32.8329 20.2145L33.0879 20.4694L33.2664 20.6734L33.5213 20.9538L33.7508 21.2343L34.3372 20.9538V21.1068L34.9236 20.4694L35.204 20.138L35.5355 19.7556L35.7139 19.5771L35.8924 19.3731L36.0709 19.1947L36.2494 18.9907L36.7083 18.5318L36.9122 18.3533L37.1417 18.1238L37.3457 17.9454L37.6006 17.7159L37.8811 17.4864L38.3145 17.1295L38.8244 16.7471L39.2833 16.4156L40.0227 15.9312L40.4562 15.6762L41.0426 15.3448L41.7054 15.0134L42.4193 14.7074L43.1332 14.4524L43.6686 14.7329L44.459 14.5545L45.0709 14.4525L45.8358 14.376L46.3967 14.3505H46.8301L47.7479 14.4015L48.6148 14.5035L49.3287 14.631L50.0935 14.8094L50.272 14.8094L50.9094 15.0389L51.5723 15.3193L52.3117 15.6763L52.5028 16.3646L53.1402 16.7725L53.5991 17.104L54.0326 17.4354L54.313 17.6649L54.67 17.9708L55.0524 18.3278L55.7153 18.9907L55.9448 19.2711L56.1997 19.5516L56.4802 19.9085L56.7861 20.3164L56.9646 20.5714L57.2195 20.9538L57.5 21.4128V20.4694L57.704 20.8519L58.0354 21.5657L58.3159 22.2541L58.6218 23.172L58.8258 23.9368L58.9533 24.5232L59.1062 25.4411L59.2337 26.4864V28.3986L59.1062 29.5204L58.9023 30.7187L58.7748 31.2286L58.6218 31.5346L58.4688 31.713L58.2139 31.866L57.8824 31.9425L46.9618 31.3051L46.6558 31.3816L46.4263 31.5346L46.2989 31.6621L46.0949 31.9425L45.687 32.5544L45.4065 32.9623L45.0241 33.5232L44.8201 33.8037L44.6161 33.9822L44.4122 34.0842L44.2337 34.1351H43.8258L43.4943 34.0077L43.2649 33.8037L43.0609 33.4723L42.755 32.8604L42.5 32.3759L41.5 30.6422L41.245 30.1578L41.0411 29.7499L40.7861 29.2655L40.5822 29.036L40.3527 28.9085L40.0977 28.832H39.7918L39.4858 28.934L39.2819 29.087L39.0779 29.3164L38.7975 29.7499L36.9122 32.3759L36.1729 33.4977L35.4335 34.5941L34.6941 35.7159L33.9547 36.8122L33.2154 37.934L32.9604 38.2909L32.8329 38.4184L32.7054 38.5204L32.3995 38.6479L32.17 38.5969L31.9151 38.4694L31.6856 38.24L31.5326 37.934L31.5836 37.1436L31.2267 35.9963L30.7678 34.5431L30.2579 32.9113L29.7989 31.4581L29.391 30.1323L29.136 29.3419L28.6261 27.7102L27.5 25.3136L27.347 24.9567L27.1176 24.7017L26.8626 24.5742L26.6586 24.5232H26.3272L26.0212 24.6252L25.7663 24.8292L25.4858 25.1861L25.1544 25.6196L23.7564 27.5317L23.425 27.9652L23.119 28.3476L22.8131 28.7555L22.4817 29.1635L22.2522 29.4694L21.5383 30.3873L21.2833 30.7187L21.0029 31.0757L20.7734 31.3051L20.4675 31.4581L20.136 31.5091L9.86125 31.5856L9.52981 31.5346L9.22386 31.3816L9.04539 31.2031L8.91791 30.9992L8.81592 30.6932L8.63745 29.7499L8.50998 28.832L8.45898 28.3476L8.63739 27.3278L8.79037 26.155L8.91785 25.4411L9.09632 24.6507L9.35127 23.7839L9.65722 22.9425L9.98867 22.1776L10.3711 21.4128L10.728 20.8009L10.983 20.3929L11.3144 19.9085L11.6714 19.4241L12.0283 18.9907L12.2578 18.7102L12.6657 18.2768L12.8952 18.0473L12.9462 17.9708H12.9972V17.9198L13.2011 17.7414L13.4051 17.5374L13.6091 17.3589L13.9405 17.0785L14.2975 16.798L14.7054 16.4921L15.3938 16.0332L15.9037 15.7272L16.4646 15.4213L17.153 15.0898L17.306 15.0898L18.2239 14.7839L18.7593 14.6309L19.7281 14.4269L20.391 14.3249L21.2324 14.2485L21.8443 14.223Z" fill="#FE014F"/>
<path d="M25.4355 31.3588H25.818L26.0984 31.4607L26.3279 31.6137L26.5064 31.8432L26.6338 32.1236L26.6881 33.4213L27.0705 34.6451L27.5039 36.0218L28.5748 39.4383L29.0847 41.07L29.6966 43.0077L30.6909 45.0473L30.8184 45.3788L30.9714 45.5827L31.2008 45.7612L31.4813 45.8632L31.7362 45.8887L32.0167 45.8377L32.3481 45.6592L32.5266 45.4553L35.2394 41.274L35.9788 40.1521L36.7182 39.0558L37.4576 37.934L38.197 36.8377L38.6559 35.6904L38.8598 35.4099L39.0383 35.2315L39.3443 35.0785L39.4462 35.053H39.8542L40.1346 35.155L40.3386 35.308L40.5171 35.5119L40.823 36.0983L40.925 37.2456L41.18 37.73L42.9009 39.5657L43.1559 40.0502L43.3089 40.2541L43.5383 40.4326L43.8188 40.5346L44.0737 40.5601L44.3542 40.5091L44.6092 40.3816L44.8131 40.2031L45.0936 39.7952L45.476 39.2343L46.0114 38.4439L46.2919 38.036L46.9803 37.0162L47.3117 36.5317L47.6177 36.0983L47.8471 35.8944L48.1276 35.7669L48.2805 35.7414L55.4321 35.4354L55.7635 35.4864L55.9675 35.5884L56.2225 35.8179L56.3754 36.0728L56.4519 36.3278V36.5572L56.4009 36.7867L56.2225 37.1436L55.8655 37.73L55.5086 38.291L55.1771 38.7499L54.9222 39.0813L54.6417 39.4383L54.0808 40.1012L53.8513 40.3561L53.6729 40.5601L53.4434 40.815L52.8825 41.4269L52.6785 41.6309L52.5001 41.8349L51.7862 42.5232L51.5822 42.7017L51.2253 43.0587L51.0213 43.2371L50.6899 43.5686L50.4859 43.747L50.3329 43.9H50.2819V43.951L50.078 44.1295L49.6445 44.5374L49.5681 44.6139H49.5171V44.6649L49.3131 44.8434L48.9052 45.2258L48.2933 45.7867L48.0383 46.0162L47.7324 46.2966L47.5284 46.4751L47.146 46.832L46.942 47.0105L46.687 47.24L46.4831 47.4184L46.2026 47.6734L45.9986 47.8519L45.7437 48.0813L45.5397 48.2598L45.2848 48.4893L45.0808 48.6677L44.6984 48.9992L44.4434 49.2286L44.2394 49.4071L43.857 49.7385L43.6021 49.968L43.3981 50.1465L42.6842 50.7584L42.4292 50.9878L42.1488 51.2173L41.8428 51.4978L41.5624 51.7272L41.18 52.0587L40.823 52.3646L40.5426 52.5941L40.2876 52.8235L40.0072 53.053L39.2933 53.6649L39.0128 53.8944L38.7579 54.1238L38.4774 54.3533L38.095 54.6847L37.8145 54.9142L37.4831 55.1946L37.2026 55.4241L36.8457 55.73L36.5907 55.934L36.2338 56.24L35.9788 56.4439L35.6219 56.7499L35.3669 56.9538L34.959 57.2853L34.6021 57.4638L34.5001 57.4893L33.9034 57.5657L33.6229 57.4638L33.317 57.2343L32.96 56.9283L32.7051 56.7244L32.3736 56.4439L32.0932 56.2145L31.7617 55.934L31.3283 55.5771L30.9714 55.2711L30.6909 55.0417L30.334 54.7357L29.977 54.4298L29.6456 54.1493L29.2886 53.8434L28.9572 53.5629L28.5748 53.2315L28.2433 52.951L27.8864 52.6451L27.6059 52.4156L27.2235 52.0842L26.8665 51.7782L26.6116 51.5487L26.3311 51.3193L26.0252 51.0388L25.7447 50.8094L25.4643 50.5544L25.1838 50.3249L24.8524 50.019L24.6484 49.8405L24.2915 49.5346L24.011 49.2796L23.7306 49.0502L23.3226 48.6677L23.1187 48.4893L22.7617 48.1833L22.3793 47.8264L22.0988 47.5969L21.6654 47.189L21.4614 47.0105L21.13 46.7046L20.8495 46.4496L20.6456 46.2711L20.2376 45.8887L20.0337 45.7102L19.7022 45.4043L19.4473 45.1748L19.2433 44.9708L19.0393 44.7924L18.8354 44.5884L18.6314 44.4099L18.2235 44.0275L17.892 43.7215L17.4841 43.3136L17.2801 43.1351L16.6682 42.5232L16.6172 42.4978V42.4468L16.5153 42.3958L14.6031 40.968L14.4246 40.764L14.0167 40.3561L13.8382 40.1521L13.6597 39.9737L13.4813 39.7697L13.2008 39.4638L13.0223 39.2598L12.7929 39.0048L12.5634 38.7244L12.2575 38.3674L11.5946 37.5006L11.1357 36.8122L10.8042 36.2768L10.0903 35.9198L10.4472 36.0983V35.7159L10.5492 35.4354L10.7022 35.2315L10.8296 35.104H11.2376L11.518 35.206L11.7475 35.3844L11.7221 35.4864L12.181 35.4099L15.8524 35.4354L16.4133 35.1805L16.5663 34.9255L16.6682 34.9L16.7957 35.155L17.0762 35.257L17.3056 34.951L17.4841 35.155L17.6116 35.4354H17.9175H20.4671L21.3849 35.257L21.5379 35.002L21.7164 34.8235L22.0223 34.6706L22.5578 34.5941L22.8637 34.4666L22.9912 34.3646H23.0422L23.0932 34.2626L23.2971 34.0332L23.6031 33.6252L23.4724 33.4749L23.7528 33.118L24.0843 32.6845L24.3902 32.3021L24.6962 31.8942L24.9256 31.6137L25.1551 31.4607L25.4355 31.3588Z" fill="#FE014F"/>
<path d="M21.7422 13.6111H22.1501L22.9915 13.6621L23.7564 13.7641L24.4958 13.917L25.3371 14.1465L26.051 14.4015L26.7904 14.7074L27.5807 15.0898L28.1671 15.4213L28.6771 15.7272L29.5184 16.2881L30.0028 16.6451L30.3088 16.8745L30.7167 17.206L30.9972 17.4354L31.3541 17.7414L31.6601 18.0218L31.915 18.2513L32.0935 18.4298L32.2975 18.6083L32.8584 19.1692L33.0368 19.3731L33.2918 19.6281L33.4703 19.832L33.7252 20.1125L33.9547 20.393L34.0567 20.5204L34.1331 20.4949L34.3371 20.24L34.6176 19.9085L34.949 19.5261L35.1275 19.3476L35.3059 19.1437L35.4844 18.9652L35.6629 18.7612L36.1218 18.3023L36.3258 18.1238L36.5552 17.8944L36.7592 17.7159L37.0142 17.4864L37.2946 17.257L37.728 16.9L38.238 16.5176L38.6969 16.1862L39.4363 15.7017L39.8697 15.4468L40.4561 15.1153L41.119 14.7839L41.8329 14.4779L42.5467 14.223L43.3116 13.9935L44.102 13.815L44.7139 13.7131L45.4788 13.6366L46.0397 13.6111H46.4731L47.3909 13.6621L48.2578 13.7641L48.9717 13.8915L49.7365 14.07L50.5014 14.2995L51.1388 14.5289L51.8017 14.8094L52.5411 15.1663L53.1785 15.5233L53.8159 15.9312L54.2748 16.2626L54.7082 16.5941L54.9887 16.8235L55.3456 17.1295L55.728 17.4864L56.3909 18.1493L56.6204 18.4298L56.8754 18.7102L57.1558 19.0672L57.4618 19.4751L57.6402 19.7301L57.8952 20.1125L58.1756 20.5714L58.4816 21.1068L58.6856 21.4893L59.017 22.2032L59.2975 22.8915L59.6034 23.8094L59.8074 24.5743L59.9348 25.1607L60.0878 26.0785L60.2153 27.1238V29.036L60.0878 30.1578L59.8839 31.3561L59.7564 31.866L59.6034 32.172L59.4504 32.3505L59.1955 32.5034L58.864 32.5799L46.8045 32.6054L46.4986 32.6819L46.2691 32.8349L46.1416 32.9624L45.9377 33.2428L45.5297 33.8547L45.2493 34.2626L44.8669 34.8235L44.6629 35.104L44.4589 35.2825L44.255 35.3845L44.0765 35.4354H43.6686L43.3371 35.308L43.1076 35.104L42.9037 34.7726L42.5977 34.1607L42.3428 33.6762L41.4759 31.9425L41.221 31.4581L41.017 31.0502L40.762 30.5658L40.5581 30.3363L40.3286 30.2088L40.0737 30.1323H39.7677L39.4618 30.2343L39.2578 30.3873L39.0538 30.6167L38.7734 31.0502L37.1416 33.4978L36.4023 34.6196L35.6629 35.7159L34.9235 36.8377L34.1841 37.934L33.4448 39.0558L33.1898 39.4128L33.0623 39.5403L32.9348 39.6422L32.6289 39.7697L32.272 39.7952L32.0425 39.7442L31.7875 39.6167L31.5581 39.3873L31.4051 39.0813L31.0227 37.883L30.6657 36.7357L30.2068 35.2825L29.6969 33.6507L29.238 32.1975L28.83 30.8717L28.5751 30.0813L28.0652 28.4496L27.5297 26.7414L27.3768 26.3845L27.1473 26.1295L26.8924 26.002L26.6884 25.951H26.3569L26.051 26.053L25.796 26.257L25.5156 26.6139L25.1841 27.0473L24.1133 28.4241L23.7819 28.8575L23.4759 29.24L23.17 29.6479L22.8385 30.0558L22.6091 30.3618L21.8952 31.2796L21.6402 31.6111L21.3598 31.968L21.1303 32.1975L20.8244 32.3505L20.4929 32.4015H9.40227L9.07082 32.3505L8.76487 32.1975L8.5864 32.019L8.45892 31.8151L8.35694 31.5091L8.17847 30.5658L8.05099 29.6479L8 29.1635V26.9964L8.15297 25.8235L8.28045 25.1097L8.45892 24.3193L8.71388 23.4524L9.01983 22.6111L9.35127 21.8462L9.73371 21.0813L10.0907 20.4694L10.3456 20.0615L10.6771 19.5771L11.034 19.0927L11.3909 18.6592L11.6204 18.3788L12.0283 17.9454L12.2578 17.7159L12.3088 17.6394H12.3598V17.5884L12.5637 17.41L12.7677 17.206L12.9717 17.0275L13.3031 16.7471L13.6601 16.4666L14.068 16.1607L14.7564 15.7017L15.2663 15.3958L15.8272 15.0898L16.5156 14.7584L17.204 14.4779L18.1218 14.172L18.6572 14.019L19.6261 13.815L20.289 13.7131L21.1303 13.6366L21.7422 13.6111ZM21.3598 15.6762L20.4929 15.7527L19.6006 15.9057L18.8867 16.0842L17.9688 16.3901L17.3569 16.6451L16.7195 16.951L16.1586 17.257L15.5977 17.6139L15.1643 17.9199L14.8329 18.1748L14.4249 18.5063L14.1445 18.7612L14.0935 18.7867V18.8377L13.9915 18.8887L13.3796 19.5006L13.2011 19.7046L12.8952 20.0615L12.5892 20.4439L12.3343 20.8009L11.9773 21.3363L11.7479 21.7187L11.3654 22.4071L11.034 23.121L10.7535 23.8604L10.4986 24.6507L10.3456 25.2626L10.1926 26.0275L10.0652 27.1238L10.0397 27.6592V28.4241L10.0907 29.189L10.1671 29.9029L10.2436 30.3363L10.2691 30.3618H19.9575L20.085 30.2853L20.3399 29.9539L22.1246 27.6592L22.3796 27.3278L22.6601 26.9709L23.017 26.5119L23.5269 25.849L23.8839 25.3901L24.1643 25.0332L24.4448 24.7272L24.7507 24.4723L25.0312 24.2938L25.3881 24.1153L25.898 23.9624L26.204 23.9114H26.8669L27.3768 24.0134L27.7847 24.1663L28.1416 24.3448L28.4986 24.5998L28.779 24.8547L29.034 25.1862L29.238 25.5431L29.4164 25.951L29.5949 26.4864L29.8499 27.3023L30.1813 28.3731L30.4363 29.1635L30.6912 30.0049L30.9462 30.7952L31.4051 32.274L31.6601 33.0643L31.915 33.9057L32.17 34.6961L32.4759 35.6904L32.7054 36.4043H32.7564L32.9348 36.1238L37.2181 29.6989L37.5241 29.2655L37.8045 28.9595L37.983 28.7811L38.3909 28.5006L38.7989 28.2966L39.2068 28.1692L39.6657 28.0927H40.2011L40.6601 28.1692L41.119 28.3221L41.6034 28.5771L41.9093 28.8066L42.1388 29.0105L42.4193 29.3675L42.6487 29.7499L42.8527 30.1323L43.796 32.019L44 32.376L44.102 32.325L44.2805 32.0445L44.5864 31.6366L44.8159 31.3816L45.1728 31.1012L45.5042 30.8972L45.9122 30.7187L46.2946 30.6167L46.6771 30.5658L57.9207 30.5403L57.9717 30.4638L58.0737 29.7754L58.1501 29.0105L58.1756 28.3731V27.8887L58.1501 27.2513L58.0482 26.2825L57.9207 25.5176L57.7422 24.7782L57.5382 24.0898L57.3088 23.4524L56.9773 22.6876L56.6969 22.1267L56.3399 21.5148L56.034 21.0303L55.779 20.6734L55.5496 20.3675L55.1926 19.934L55.0142 19.7301L54.7082 19.3986L54.0198 18.7102L53.7394 18.4808L53.4079 18.2003L52.898 17.8179L52.5156 17.5629L51.9802 17.2315L51.3683 16.9L50.7819 16.6196L50.068 16.3391L49.4561 16.1352L48.7677 15.9567L48.1558 15.8292L47.4164 15.7272L46.8045 15.6762H45.7082L44.9178 15.7527L44.102 15.9057L43.4391 16.0842L42.6997 16.3391L42.0368 16.6196L41.6289 16.8235L40.9915 17.155L40.4816 17.4609L39.7932 17.9199L39.3343 18.2513L38.9773 18.5318L38.6969 18.7612L38.3144 19.0927L38.034 19.3221L37.728 19.6281L37.5241 19.8066L36.7592 20.5714L36.5807 20.7754L36.2493 21.1323L36.0453 21.3873L35.8159 21.6422L35.5609 21.9737L35.204 22.4326L34.9745 22.7641L34.745 23.019L34.4901 23.172L34.2351 23.2485H33.9802L33.6487 23.1465L33.3938 22.968L33.0623 22.5601L32.8329 22.2541L32.5524 21.9227L32.3484 21.6677L32.068 21.3618L31.8385 21.1068L31.6601 20.9029L31.2776 20.4949L30.7932 20.0105H30.7422V19.9595L30.5382 19.7811L30.1048 19.3731L29.7479 19.0672L29.4164 18.7867L29.0595 18.5063L28.728 18.2513L28.2691 17.9199L27.8102 17.6139L27.2748 17.2825L26.8159 17.0275L26.2295 16.7216L25.6176 16.4411L24.8017 16.1352L24.0878 15.9312L23.3484 15.7782L22.4306 15.6762H21.3598Z" fill="#484F69"/>
<path d="M25.5662 30.2598H25.9486L26.2291 30.3618L26.4585 30.5148L26.637 30.7442L26.7645 31.0247L27.3254 32.8094L27.7078 34.0332L28.1413 35.41L29.2121 38.8264L29.722 40.4581L30.3339 42.3958L30.7163 43.6196L30.8438 43.951L30.9968 44.155L31.2262 44.3335L31.5067 44.4355L31.7617 44.461L32.0421 44.41L32.3736 44.2315L32.552 44.0275L34.9996 40.3561L35.739 39.2343L36.4784 38.138L37.2177 37.0162L37.9571 35.9199L38.6965 34.7981L38.9005 34.5176L39.0789 34.3391L39.3849 34.1862L39.4869 34.1607H39.8948L40.1753 34.2627L40.3792 34.4156L40.5577 34.6196L40.8636 35.206L41.399 36.2768L41.654 36.7612L42.4954 38.444L42.7503 38.9284L42.9033 39.1323L43.1328 39.3108L43.4132 39.4128L43.6682 39.4383L43.9486 39.3873L44.2036 39.2598L44.4075 39.0814L44.688 38.6734L45.0704 38.1125L45.6058 37.3221L45.8863 36.9142L46.5747 35.8944L46.9061 35.41L47.2121 34.9765L47.4415 34.7726L47.722 34.6451L47.875 34.6196H57.1044L57.4359 34.6706L57.6398 34.7726L57.8948 35.002L58.0478 35.257L58.1243 35.512V35.7414L58.0733 35.9709L57.8948 36.3278L57.5379 36.9142L57.1809 37.4751L56.8495 37.934L56.5945 38.2655L56.3141 38.6224L55.7532 39.2853L55.5237 39.5403L55.3452 39.7442L55.1158 39.9992L54.5549 40.6111L54.3509 40.8151L54.1724 41.019L51.5464 43.6451L51.3424 43.8236L50.9854 44.1805L50.7815 44.359L50.45 44.6904L50.2461 44.8689L50.0931 45.0219H50.0421V45.0729L49.8381 45.2513L49.4047 45.6593L49.3282 45.7357H49.2772V45.7867L49.0733 45.9652L48.6653 46.3476L48.0534 46.9086L47.7985 47.138L47.4925 47.4185L47.2886 47.5969L46.9061 47.9539L46.7022 48.1323L46.4472 48.3618L46.2432 48.5403L45.9628 48.7952L45.7588 48.9737L45.5039 49.2032L45.2999 49.3816L45.0449 49.6111L44.841 49.7896L44.4585 50.121L44.2036 50.3505L43.9996 50.5289L43.6172 50.8604L43.3622 51.0899L43.1583 51.2683L42.4444 51.8802L42.1894 52.1097L41.909 52.3391L41.603 52.6196L41.3226 52.8491L40.9401 53.1805L40.5832 53.4865L40.3027 53.7159L40.0478 53.9454L39.7673 54.1748L39.0534 54.7867L38.773 55.0162L38.518 55.2457L38.2376 55.4751L37.8551 55.8066L37.5747 56.036L37.2432 56.3165L36.9628 56.5459L36.6058 56.8519L36.3509 57.0559L35.9939 57.3618L35.739 57.5658L35.382 57.8717L35.1271 58.0757L34.7192 58.4071L34.3622 58.5856L34.2602 58.6111H33.8778L33.5973 58.5091L33.2914 58.2797L32.9345 57.9737L32.6795 57.7697L32.3481 57.4893L32.0676 57.2598L31.7362 56.9794L31.3027 56.6224L30.9458 56.3165L30.6653 56.087L30.3084 55.7811L30.0279 55.5516L29.671 55.2457L29.3396 54.9652L28.9826 54.6593L28.6512 54.3788L28.2687 54.0474L27.9373 53.7669L27.5803 53.461L27.2999 53.2315L26.9175 52.9001L26.5605 52.5941L26.3056 52.3646L26.0251 52.1352L25.7192 51.8547L25.4387 51.6253L25.1583 51.3703L24.8778 51.1408L24.5464 50.8349L24.3424 50.6564L23.9854 50.3505L23.705 50.0955L23.4245 49.8661L23.0166 49.4836L22.8126 49.3052L22.4557 48.9992L22.0733 48.6423L21.7928 48.4128L21.3594 48.0049L21.1554 47.8264L20.824 47.5204L20.5435 47.2655L20.3396 47.087L19.9316 46.7046L19.7277 46.5261L19.3962 46.2202L19.1413 45.9907L18.9373 45.7867L18.7333 45.6083L18.5294 45.4043L18.3254 45.2258L17.9175 44.8434L17.586 44.5374L17.1781 44.1295L16.9741 43.951L16.3622 43.3391L16.3112 43.3137V43.2627L16.2092 43.2117L14.2716 41.274L14.0931 41.07L13.6852 40.6621L13.5067 40.4581L13.3282 40.2797L13.1498 40.0757L12.8693 39.7697L12.6908 39.5658L12.4614 39.3108L12.2319 39.0304L11.926 38.6734L11.2631 37.8066L10.8041 37.1182L10.4727 36.5828L10.0903 35.9199L9.98828 35.6394V35.257L10.0903 34.9765L10.2432 34.7726L10.3707 34.6451L10.6257 34.4921L10.8041 34.4411H11.2121L11.4925 34.5431L11.722 34.7216L11.926 34.9765L12.2319 35.512L12.4869 35.9199L12.7673 36.3533L13.0223 36.7103L13.3282 37.1182L13.6597 37.5261L13.9401 37.8576L14.1696 38.138L14.5265 38.5204L14.705 38.7244L14.9854 39.0304L15.3424 39.4128L15.6483 39.7188L15.8268 39.9227L17.739 41.8349L17.943 42.0134L18.5549 42.6253L18.7588 42.8037L19.0648 43.1097L19.2687 43.2882L19.4727 43.4921L19.6767 43.6706L19.9571 43.951L20.1611 44.1295L20.569 44.512L20.875 44.7924L21.1299 45.0219L21.4614 45.3278L21.8438 45.6848L22.0478 45.8632L22.3537 46.1437L22.5577 46.3221L22.8636 46.6026L23.0676 46.7811L23.3481 47.036L23.552 47.2145L23.8325 47.4695L24.0364 47.6479L24.3934 47.9539L24.7503 48.2853L24.9543 48.4638L25.3112 48.7697L25.5917 49.0247L25.8721 49.2542L26.2036 49.5601L26.484 49.7896L26.79 50.07L27.0704 50.2995L27.3509 50.5544L27.6313 50.7839L27.8863 51.0134L28.1668 51.2428L28.4472 51.4978L28.7277 51.7272L28.9826 51.9567L29.2631 52.1862L29.569 52.4666L29.8495 52.6961L30.2319 53.0275L30.5124 53.257L31.2262 53.8689L31.5067 54.0984L31.8636 54.4043L32.1951 54.6848L32.552 54.9907L32.8325 55.2202L33.1639 55.5006L33.4444 55.7301L33.7758 56.0105L34.0308 56.2145H34.1328L34.4132 55.985L34.7447 55.7046L35.1526 55.3731L35.5095 55.0672L35.79 54.8377L36.1214 54.5573L36.4019 54.3278L36.7843 53.9964L37.1158 53.7159L37.3962 53.4865L38.1101 52.8746L38.4415 52.5941L39.8693 51.3703L40.1243 51.1408L40.4047 50.9114L40.7871 50.5799L41.1441 50.274L41.399 50.0445L41.6795 49.8151L41.96 49.5601L42.1639 49.3816L42.4189 49.1522L42.6993 48.9227L43.0053 48.6423L43.2092 48.4638L43.5662 48.1578L43.8466 47.9029L44.0506 47.7244L44.433 47.393L44.7645 47.087L44.9685 46.9086L45.2744 46.6281L45.4784 46.4496L45.7843 46.1692L45.9883 45.9907L46.2942 45.7103L46.4982 45.5318L46.8296 45.2258L47.1356 44.9454L47.467 44.6394L47.773 44.359L47.9769 44.1805L48.4104 43.7726L49.2517 42.9822L49.6342 42.6253L49.8636 42.3958L50.0676 42.2173L50.6795 41.6054L50.8835 41.427L52.3622 39.9482L52.5407 39.7442L52.8721 39.4128L53.0506 39.2088L53.3566 38.9029L53.535 38.6989L53.8155 38.393L53.9939 38.189L54.2234 37.934L54.4529 37.6536L54.8098 37.2202L55.1158 36.8122L55.2177 36.6593L52.9996 36.6848H48.5379L48.3339 36.9652L48.0789 37.3476L47.5435 38.138L47.2121 38.6224L46.7786 39.2598L46.3962 39.8207L46.0903 40.2542L45.8098 40.5856L45.5549 40.8151L45.2234 41.0445L44.79 41.274L44.2801 41.427L43.9996 41.478H43.2347L42.8523 41.4015L42.4699 41.274L42.0619 41.07L41.7305 40.8406L41.4755 40.6111L41.2716 40.4071L40.9911 39.9992L40.7107 39.4893L39.5888 37.2457H39.5379L39.2829 37.6536L39.1044 37.9086L36.4019 41.9624L35.6625 43.0842L34.9231 44.1805L34.3112 45.0984L34.0818 45.4043L33.8523 45.6593L33.6483 45.8377L33.3169 46.0672L32.9345 46.2712L32.501 46.4241L32.0931 46.5006L31.8381 46.5261H31.5067L31.0223 46.4496L30.6143 46.3221L30.2064 46.1182L29.8495 45.8887L29.5435 45.6083L29.3651 45.4298L29.1611 45.1493L28.9571 44.7924L28.8041 44.41L28.4982 43.4666L28.2177 42.5488L27.9628 41.7584L27.5549 40.4581L26.9939 38.6734L26.586 37.3476L26.3311 36.5573L25.9231 35.257L25.4132 33.6253L25.3877 33.4978H25.3367L24.7758 34.2117L24.5209 34.5431L24.1639 35.002L23.8325 35.41L23.6285 35.6394L23.3481 35.8689L22.9911 36.0984L22.6852 36.2513L22.3027 36.3788L21.9458 36.4553L21.6908 36.4808H21.4104L21.1299 36.4043L20.8495 36.2513L20.671 36.0474L20.5435 35.7924L20.4925 35.6139V35.308L20.569 35.053L20.722 34.7981L20.9005 34.6196L21.2064 34.4666L21.7418 34.3901L22.0478 34.2627L22.1753 34.1607H22.2262L22.2772 34.0587L22.4812 33.8292L22.7871 33.4213L23.0931 33.0389L23.603 32.376L23.8835 32.019L24.2149 31.5856L24.5209 31.2032L24.8268 30.7952L25.0563 30.5148L25.2857 30.3618L25.5662 30.2598Z" fill="#484F69"/>
<path d="M16.6944 34.441H17.1023L17.3828 34.543L17.5867 34.696L17.7652 34.9L17.8927 35.1804L17.9437 35.4354L17.9182 35.6648L17.7907 35.9708L17.5103 36.2767L17.2298 36.4297L16.9748 36.4807H16.7964L16.5159 36.4042L16.261 36.2512L16.1335 36.1238L15.9805 35.9198L15.8785 35.6138L15.853 35.4354L15.955 35.0529L16.108 34.798L16.312 34.594L16.5924 34.4665L16.6944 34.441Z" fill="#484F69"/>
</svg>
