<svg width="68" height="68" viewBox="0 0 68 68" fill="none" xmlns="http://www.w3.org/2000/svg">
<circle cx="34" cy="34" r="34" fill="#A49AF4"/>
<path fill-rule="evenodd" clip-rule="evenodd" d="M27.4711 9.74248L17.7314 14.4877C12.0123 16.8905 8.76313 19.861 8.76313 27.0067C8.76313 28.7287 9.03816 30.5462 9.36669 31.9567C8.43108 32.5835 7.99705 33.1599 7.31337 34.1284C6.05575 35.9105 5.14174 38.2264 4.9187 40.4253C4.68963 42.6812 4.71375 42.2827 5.61846 43.7949L11.3027 53.2001C11.9902 54.3646 12.874 54.6789 13.5535 53.288C15.6764 48.9413 15.279 45.5938 15.388 45.3312L17.212 43.0638C17.6586 44.7371 19.3844 44.621 19.3844 48.3758C19.3844 49.4049 18.7334 52.8881 18.5226 54.1538C18.0627 56.9155 18.3667 56.3075 21.8717 57.1157C25.8194 58.0259 30.2365 59 34.3507 59C37.7854 59 42.5288 57.8104 45.9877 57.1185C46.9203 56.932 47.9345 56.7996 48.8091 56.5604C49.975 56.2414 49.648 55.3103 49.4717 54.2573C48.9224 50.9731 47.8378 47.5864 49.4112 45.0898C49.7743 44.5135 50.6017 43.6763 50.7652 43.0638L52.6161 45.4026C52.8047 46.1071 52.2351 49.1586 54.6664 53.7697C54.9241 54.2581 55.1587 54.7744 55.8344 54.7744C56.6783 54.7744 56.9023 53.8792 57.365 53.0458L62.3505 43.9075C63.1841 42.297 63.3049 42.8842 63.056 40.5486C62.83 38.4281 61.9551 35.8683 60.7329 34.1797C60.0764 33.2722 59.4969 32.5504 58.6103 31.9567C59.5102 28.0934 59.5379 23.262 57.4755 19.8117C56.1418 17.5807 53.5424 15.9406 51.2085 14.8527L40.5061 9.74248C40.5061 5.44375 40.5164 5.42617 37.1249 6.96401C34.9045 7.97073 33.1081 7.93229 30.9194 7.01778C30.4907 6.83864 28.8254 6 28.5572 6C27.0964 6 27.4711 8.29307 27.4711 9.74248Z" fill="#484F69"/>
<path fill-rule="evenodd" clip-rule="evenodd" d="M41.1223 18.0319C39.3049 18.4042 37.0805 19.5491 35.7036 20.3898C34.6778 21.0159 34.713 21.8234 34.715 23.2642C34.7165 24.5928 34.7057 25.9239 34.7125 27.2522C34.727 30.0535 36.5314 29.7435 39.1748 30.6334C43.669 32.1461 44.9545 33.3691 47.3705 30.4952C49.6662 27.7639 52.4856 28.9229 51.3661 27.2562C48.3799 22.81 50.2708 23.2745 46.7207 20.0652C45.5251 18.9843 43.4449 17.5563 41.1223 18.0319Z" fill="#FE014F"/>
<path fill-rule="evenodd" clip-rule="evenodd" d="M24.857 18.0485C22.438 18.6879 19.2762 21.3797 18.586 23.4308C17.408 26.9326 15.4222 27.9964 17.0147 28.4021C18.2936 28.7282 18.8625 28.9249 19.7497 29.6578C20.9385 30.6394 22.0223 32.9536 24.654 32.0381C26.5207 31.3886 28.5733 30.6228 30.4491 30.1088C31.7715 29.7463 32.4727 29.7174 32.9635 28.7549C33.4759 27.7501 33.2629 26.2653 33.2629 25.0752C33.2629 21.195 33.8311 21.1855 30.8688 19.6192C29.3695 18.8266 26.8483 17.5219 24.857 18.0485Z" fill="#FE014F"/>
<path fill-rule="evenodd" clip-rule="evenodd" d="M11.0567 31.5029C12.5203 30.5404 14.9684 28.181 15.9816 26.6203C16.5247 25.7842 16.589 25.294 16.9449 24.3235C17.9649 21.5432 20.4663 18.2889 23.5396 17.76C21.7335 17.0058 19.9029 16.2225 17.4625 16.5162C15.686 16.73 13.334 18.2766 12.625 19.1567C11.4505 20.6146 10.7982 22.1362 10.5649 24.5755C10.422 26.0723 10.4539 30.3301 11.0567 31.5029Z" fill="#9EAACC"/>
<path fill-rule="evenodd" clip-rule="evenodd" d="M44.4382 17.7601C47.6045 18.3075 50.0592 21.6729 51.0317 24.3242C51.3768 25.2651 51.4725 25.8181 51.9967 26.6196C52.4847 27.3663 52.9981 27.9313 53.4965 28.5009C53.8584 28.9147 56.3533 31.2776 56.9807 31.5339C57.8651 26.9706 57.8663 22.3688 55.4054 19.2248C54.7096 18.3359 52.4009 16.7727 50.6231 16.53C48.1701 16.1954 46.2497 17.0001 44.4382 17.7601Z" fill="#9EAACC"/>
<path fill-rule="evenodd" clip-rule="evenodd" d="M16.3709 34.0091C16.3709 32.5203 16.7552 29.5267 15.1597 29.5936C14.8779 29.6051 13.7878 30.4948 13.4573 30.7372C12.8839 31.1575 12.3991 31.4997 11.7519 31.9278C10.9531 32.4562 11.041 32.7248 10.648 33.7225C10.1012 35.1101 9.54808 36.4869 9.00053 37.8687C8.18246 39.9339 8.36104 40.6595 8.63105 42.9445C8.89127 45.1479 8.9847 48.6492 12.1615 44.5301C13.8476 42.3435 16.3709 36.7477 16.3709 34.0091Z" fill="#9EAACC"/>
<path fill-rule="evenodd" clip-rule="evenodd" d="M52.624 29.6445C51.6977 29.9465 51.6005 30.6243 51.6055 31.7142C51.6095 32.6049 51.5219 33.9603 51.6879 34.7876C52.3467 38.0676 53.8108 41.9427 55.8172 44.5285C56.3341 45.1948 57.6178 46.7904 58.6031 46.1962C59.2097 45.8304 59.1622 44.5202 59.2439 43.8172C59.8615 38.5027 59.5531 39.361 57.4324 33.9819C57.2757 33.5842 57.1476 33.2578 56.9929 32.8516C56.6387 31.9212 55.8237 31.6728 54.4518 30.6849C53.6576 30.1128 53.1201 29.4827 52.624 29.6445Z" fill="#9EAACC"/>
<path fill-rule="evenodd" clip-rule="evenodd" d="M35.201 31.0734C34.3978 31.3932 34.6877 33.17 34.6851 34.7335C34.6801 37.9451 34.7502 36.0218 39.8266 38.0689C41.42 38.7116 41.4376 39.1106 42.4416 37.7551C42.9135 37.118 43.6067 35.9776 43.765 34.9636C44.0239 33.3019 42.8191 33.4569 41.5002 33.015C40.6238 32.7213 35.6828 30.8814 35.201 31.0734Z" fill="#9EAACC"/>
<path fill-rule="evenodd" clip-rule="evenodd" d="M33.0733 31.1826C32.1761 30.8351 30.9358 31.5177 30.0017 31.831L25.2734 33.3849C24.539 33.5638 24.1868 33.6138 24.1743 34.4871C24.1534 35.9363 25.6921 38.3344 26.363 38.6216C26.7468 38.7856 27.3868 38.358 27.7909 38.1932C32.3846 36.3219 33.2524 37.7053 33.2343 35.2187C33.2255 33.9867 33.393 32.1712 33.0733 31.1826Z" fill="#9EAACC"/>
<path fill-rule="evenodd" clip-rule="evenodd" d="M35.348 45.0848C34.4536 45.3257 34.715 46.232 34.715 47.7721C34.715 48.8989 34.7173 50.0259 34.7148 51.1528C34.7123 52.3808 34.4902 53.1876 35.9119 53.1976C36.6774 53.2029 38.5733 53.3174 39.1166 53.0232C39.9201 52.5881 39.8236 51.509 39.8226 50.4282C39.8203 47.8718 40.3116 45.2403 38.5396 45.0599C38.1151 45.0165 35.6318 45.0082 35.348 45.0848Z" fill="#9EAACC"/>
<path fill-rule="evenodd" clip-rule="evenodd" d="M29.318 45.0825C28.2234 45.3142 28.149 46.1254 28.1543 47.2892C28.1596 48.4152 28.1581 49.5433 28.1553 50.6696C28.149 53.1639 28.3844 53.4076 32.3051 53.1956C33.5587 53.1277 33.2634 51.9751 33.2626 50.9111C33.2621 49.7842 33.2624 48.6574 33.2626 47.5306C33.2629 46.447 33.5537 45.178 32.5093 45.0554C32.1316 45.0109 29.6103 45.0207 29.318 45.0825Z" fill="#9EAACC"/>
<path fill-rule="evenodd" clip-rule="evenodd" d="M34.7149 38.9591C34.7149 39.9904 34.5386 43.0289 34.9016 43.8203C36.3124 44.0384 37.7534 43.9231 39.1785 43.9188C39.9714 43.9188 40.2269 43.8397 40.5419 43.341C40.7353 43.0347 41.109 42.3621 41.1881 42.0528C41.6925 40.0809 38.7083 38.8216 37.251 38.3511C36.7941 38.2036 36.1715 38.041 35.6624 38.0056C34.8375 37.9481 34.7149 38.1651 34.7149 38.9591Z" fill="#9EAACC"/>
<path fill-rule="evenodd" clip-rule="evenodd" d="M33.0755 43.819C33.395 43.1244 33.399 38.7706 33.0733 38.0855C31.1121 37.6187 27.2318 39.7123 26.8174 40.9642C26.5453 41.7855 27.1597 43.802 28.4341 43.9125C29.2673 43.9851 32.4255 43.972 33.0755 43.819Z" fill="#9EAACC"/>
<path fill-rule="evenodd" clip-rule="evenodd" d="M40.0544 11.7835C39.5347 12.0475 39.5709 11.9973 39.3192 12.8992C39.1751 13.4158 39.0359 13.8537 38.8458 14.3594C38.5507 15.1451 37.6304 16.4915 38.3738 17.0696C39.0497 17.5949 43.606 16.4473 44.7011 16.244C45.4925 16.0973 47.41 16.0488 47.465 15.284C47.5142 14.5986 45.8525 14.1115 45.2426 13.8148C43.8614 13.1427 40.9232 11.3423 40.0544 11.7835Z" fill="#9EAACC"/>
<path fill-rule="evenodd" clip-rule="evenodd" d="M26.973 11.7489L20.7103 14.8226C19.4158 15.9756 23.4129 16.2592 24.3013 16.427L29.0457 17.2589C30.8872 17.1906 29.2026 14.6731 28.8241 13.4611C28.5152 12.4725 28.362 11.2296 26.973 11.7489Z" fill="#9EAACC"/>
<path fill-rule="evenodd" clip-rule="evenodd" d="M29.402 8.7845C28.3745 10.6922 30.7471 15.312 31.7678 17.0335C32.0745 17.5508 32.7881 19.11 33.5848 18.5196C34.1539 18.098 33.3864 16.4948 33.1814 15.8625C32.7034 14.3879 32.0253 11.7509 31.16 10.6412C30.5582 9.86936 29.981 8.77923 29.402 8.7845Z" fill="#9EAACC"/>
<path fill-rule="evenodd" clip-rule="evenodd" d="M42.6912 47.2893L42.717 49.7356C42.7776 49.7446 42.8245 49.7233 42.8373 49.7529C42.8856 49.8652 43.3038 49.6497 43.4597 49.522C43.6896 49.3346 43.786 49.1924 44.0201 48.9959C46.4841 46.9272 46.4291 45.9039 46.3007 41.9773L46.2661 41.4499C45.6552 41.272 45.4601 41.9705 45.0306 42.3999C43.679 43.751 42.6912 45.0196 42.6912 47.2893Z" fill="#9EAACC"/>
<path fill-rule="evenodd" clip-rule="evenodd" d="M38.575 8.78506C38.1859 8.7813 38.2057 8.84662 38.0136 9.05967C37.827 9.26619 37.7599 9.39935 37.5992 9.61064C35.6862 12.1268 35.8857 12.4992 34.7964 15.863C34.5788 16.5343 33.8314 18.1041 34.3922 18.5196C35.194 19.1138 35.9133 17.5338 36.2102 17.0346C37.2317 15.3173 39.5972 10.6832 38.575 8.78506Z" fill="#9EAACC"/>
<path fill-rule="evenodd" clip-rule="evenodd" d="M21.7513 41.4538L21.6775 44.7539C21.6808 46.5402 22.2692 47.4673 23.3531 48.5087L25.226 49.7335C25.4935 47.7507 25.3099 45.2104 24.1445 43.7323L23.0107 42.455C22.5528 41.999 22.3157 41.2729 21.7513 41.4538Z" fill="#9EAACC"/>
<path fill-rule="evenodd" clip-rule="evenodd" d="M42.7799 55.2787C43.3699 55.4447 43.4111 55.2799 44.2653 54.4325C45.7585 52.9512 46.8459 51.406 46.2079 48.9504C45.3569 48.7406 43.927 50.438 43.4026 51.0337C42.6111 51.9321 42.4589 53.9928 42.7799 55.2787Z" fill="#9EAACC"/>
<path fill-rule="evenodd" clip-rule="evenodd" d="M21.6775 49.7038C21.6775 52.9456 22.2509 52.8217 24.2794 54.9487C25.5086 56.2376 25.2866 54.357 25.2866 53.2049C25.2866 51.2688 24.14 50.5678 22.7199 49.2604C22.1452 48.7313 21.6775 48.5602 21.6775 49.7038Z" fill="#9EAACC"/>
<path fill-rule="evenodd" clip-rule="evenodd" d="M7.55635 44.8825C7.77864 44.4629 7.62718 40.3086 7.77361 39.3002C7.97304 37.9254 9.26457 35.4514 9.25226 34.9766C7.87358 35.0728 6.72724 38.1791 6.4522 39.4125C6.06038 41.1679 5.89812 42.3668 6.71141 43.9077C7.18336 44.8021 7.0407 44.8566 7.55635 44.8825Z" fill="#9EAACC"/>
<path fill-rule="evenodd" clip-rule="evenodd" d="M60.4207 44.8831C60.9145 44.8577 60.6068 45.1655 61.2676 43.9103C61.4799 43.5075 61.6743 43.0787 61.768 42.6222C62.2201 40.4185 60.5116 35.1045 58.7228 34.9754C58.7097 35.7424 59.8802 37.1052 60.1991 39.2867C60.3506 40.3223 60.1969 44.4592 60.4207 44.8831Z" fill="#9EAACC"/>
<path fill-rule="evenodd" clip-rule="evenodd" d="M54.0346 43.4125C54.0788 43.2839 52.3063 39.3897 51.9112 38.1762C51.6784 37.4617 51.7638 37.5591 51.4895 37.3715C50.9191 38.2196 51.707 40.2924 52.0745 41.027C52.4964 41.8707 53.3936 43.3932 53.9741 43.4249C53.9829 43.4254 54.0163 43.4216 54.0346 43.4125Z" fill="#9EAACC"/>
<path fill-rule="evenodd" clip-rule="evenodd" d="M13.9441 43.4115L14.4248 43.1879C15.8326 41.9611 17.1812 38.3983 16.4877 37.3715C16.2536 37.5338 16.2825 37.5076 16.0951 38.0845L15.1957 40.4444C14.9809 40.9587 13.8612 43.1764 13.9441 43.4115Z" fill="#9EAACC"/>
</svg>
