<svg width="40" height="40" viewBox="0 0 40 40" fill="none" xmlns="http://www.w3.org/2000/svg">
<rect width="40" height="40" rx="20" fill="#A49AF4"/>
<path d="M14.2 12.2718L20.5 18.5718L26.8 12.2909C27.0509 12.0357 27.397 11.8973 27.7545 11.9091C28.4726 11.9555 29.0445 12.5274 29.0909 13.2455C29.0943 13.5902 28.9563 13.9215 28.7091 14.1618L22.39 20.5L28.7091 26.8382C28.9563 27.0785 29.0943 27.4098 29.0909 27.7545C29.0445 28.4726 28.4726 29.0445 27.7545 29.0909C27.397 29.1027 27.0509 28.9643 26.8 28.7091L20.5 22.4282L14.2191 28.7091C13.9682 28.9643 13.6221 29.1027 13.2645 29.0909C12.5324 29.0527 11.9473 28.4676 11.9091 27.7355C11.9057 27.3907 12.0437 27.0594 12.2909 26.8191L18.61 20.5L12.2718 14.1618C12.0315 13.9182 11.9005 13.5876 11.9091 13.2455C11.9555 12.5274 12.5274 11.9555 13.2455 11.9091C13.6002 11.8923 13.9459 12.0236 14.2 12.2718Z" fill="white"/>
</svg>
