<svg width="20" height="20" viewBox="0 0 20 20" fill="none" xmlns="http://www.w3.org/2000/svg">
<path d="M9.64844 0H10.3418L10.7227 0.0196133L11.1426 0.0588399L11.582 0.11768L12.0605 0.20594L12.5195 0.313813L12.9297 0.431492L13.2812 0.549172L13.5547 0.647239L13.916 0.794338L14.2578 0.951245L14.4824 1.05912L14.7461 1.19641L14.9707 1.3239L15.2344 1.4808L15.4004 1.58868L15.6641 1.7652L15.8301 1.88288L16.0156 2.02017L16.2891 2.23592L16.3965 2.32417L16.4941 2.41243L16.6016 2.50069L16.7383 2.62818L16.8164 2.69683L16.9141 2.79489L16.9922 2.86354L17.168 3.04006V3.05967H17.1875L17.2559 3.13813L17.3438 3.22639L17.4121 3.30484L17.5098 3.41271L17.5977 3.52059L17.7246 3.66769L17.832 3.80498L17.9688 3.9815L18.0859 4.1384L18.2227 4.33454L18.3105 4.46202L18.4668 4.70719L18.584 4.89352L18.7207 5.13868L18.8477 5.36423L19.0625 5.79573L19.2383 6.1978L19.3945 6.59987L19.5508 7.06078L19.6875 7.54131L19.7949 8.00222L19.8828 8.48275L19.9512 9.0025L19.9805 9.31631H20V10.8363L19.9707 10.8069V10.9246L19.9121 11.4444L19.873 11.7386L19.7461 12.376L19.668 12.6898L19.502 13.2586L19.3555 13.6607L19.2188 14.0137L19.1113 14.2491L18.9746 14.5433L18.8672 14.7688L18.7402 14.9944L18.6426 15.1611L18.584 15.2689L18.4863 15.4357L18.3398 15.6514L18.1836 15.8868L18.0762 16.0437L17.998 16.1417L17.9004 16.2692L17.793 16.4065L17.666 16.5634L17.5879 16.6615L17.5586 16.7007H17.5391L17.5195 16.7399L17.4414 16.8184L17.373 16.8968L17.2266 17.0538L17.1191 17.1714L16.9629 17.3283L16.8848 17.397L16.8164 17.4656H16.7969V17.4852L16.7188 17.5539L16.5527 17.7108L16.4355 17.8089L16.2988 17.9167L16.1426 18.0442L16.0059 18.1521L15.8789 18.2502L15.7324 18.3482L15.5176 18.4953L15.2832 18.6522L15.0293 18.7993L14.7949 18.9366L14.5605 19.0641L14.2578 19.2112L13.9844 19.3387L13.7207 19.4466L13.2812 19.6133L13.1641 19.6525L13.0469 19.6721H12.9297L12.8125 19.6525L12.7246 19.6133L12.6367 19.5545L12.5586 19.4662L12.5098 19.3681L12.4805 19.221L12.4707 19.1622V16.1614L12.4512 15.9554L12.4121 15.7004L12.3438 15.4259L12.2656 15.2101L12.1484 14.9649L12.0605 14.8276L11.9824 14.7198L11.875 14.6021L11.8262 14.5629L11.8164 14.5236L12.6172 14.3962L12.9492 14.3275L13.2422 14.2491L13.5547 14.151L13.8574 14.0333L14.1113 13.9156L14.2676 13.8372L14.5215 13.6901L14.6387 13.6116L14.7949 13.4939L14.9219 13.3959L15.0391 13.288L15.1855 13.1507L15.2637 13.0723L15.3418 12.9742L15.4492 12.8467L15.5566 12.6996L15.7031 12.4642L15.7812 12.327L15.8691 12.1406L15.9375 12.0033L16.0352 11.7484L16.123 11.4738L16.2012 11.16L16.2695 10.8265L16.3184 10.4343L16.3379 10.2676L16.3574 9.82626V9.33593L16.3477 9.1496L16.2988 8.78675L16.2207 8.44352L16.1426 8.19836L16.0547 7.963L15.9473 7.72764L15.8203 7.50208L15.7129 7.32556L15.6055 7.17846L15.5176 7.06078L15.3906 6.91368L15.3516 6.86465L15.3613 6.7862L15.4492 6.50181L15.498 6.23703L15.5273 5.99186V5.45249L15.498 5.1583L15.4297 4.80526L15.3711 4.5797L15.2539 4.21686L15.2246 4.18744L15.127 4.17763H14.9316L14.7363 4.19724L14.4922 4.24628L14.1895 4.33454L13.8672 4.46202L13.6719 4.55028L13.3594 4.70719L13.1445 4.82487L12.8906 4.98178L12.5195 5.21714L12.4414 5.20733L12.0605 5.11907L11.7383 5.05042L11.2402 4.97197L10.752 4.92294L10.2344 4.89352H9.73633L9.21875 4.92294L8.75 4.97197L8.32031 5.04062L7.96875 5.10926L7.55859 5.20733L7.4707 5.21714L7.37305 5.14849L6.9043 4.85429L6.72852 4.75622L6.38672 4.5797L6.18164 4.48164L5.83008 4.34434L5.64453 4.2855L5.37109 4.21686L5.20508 4.18744L5.10742 4.17763H4.83398L4.74609 4.18744L4.72656 4.2757L4.59961 4.66796L4.53125 4.99158L4.50195 5.13868L4.46289 5.54075V5.86437L4.49219 6.16838L4.53125 6.40374L4.58008 6.60968L4.64844 6.80581V6.86465L4.54102 6.99214L4.45312 7.10001L4.3457 7.24711L4.24805 7.39421L4.16992 7.5217L4.07227 7.69822L3.99414 7.85512L3.88672 8.1101L3.78906 8.40429L3.7207 8.67888L3.67188 8.97308L3.64258 9.23786L3.63281 9.60071L3.64258 9.95374L3.66211 10.2774L3.7207 10.7775L3.7793 11.0815L3.86719 11.4444L3.98438 11.7974L4.05273 11.9739L4.13086 12.1504L4.20898 12.3073L4.30664 12.4839L4.41406 12.6506L4.49219 12.7683L4.61914 12.9252L4.73633 13.0625L4.80469 13.1409L4.90234 13.239L4.92188 13.2488V13.2684L4.96094 13.288L5.04883 13.3763L5.21484 13.5038L5.37109 13.6214L5.57617 13.7489L5.78125 13.8666L6.08398 14.0137L6.38672 14.1314L6.70898 14.2392L6.99219 14.3177L7.35352 14.3962L8.14453 14.5236L8.17383 14.5334L8.16406 14.5727L8.08594 14.6413L8.07617 14.6609H8.05664L8.03711 14.7002L7.97852 14.7688L7.86133 14.9551L7.7832 15.0924L7.66602 15.3866L7.60742 15.622L7.54883 15.877L7.51953 15.9064L7.25586 16.0044L6.98242 16.0829L6.65039 16.1417L6.50391 16.1515H6.23047L5.99609 16.1221L5.78125 16.0633L5.60547 15.9946L5.44922 15.9162L5.29297 15.8181L5.13672 15.6906L5.05859 15.6122L5.01953 15.5828V15.5631L4.98047 15.5435L4.89258 15.4357L4.78516 15.3082L4.6582 15.112L4.48242 14.8473L4.39453 14.7394L4.30664 14.6413L4.23828 14.5629L4.13086 14.4746L4.00391 14.3667L3.82812 14.2589L3.73047 14.2L3.45703 14.0921L3.32031 14.0529L3.11523 14.0235H3.02734L2.86133 14.0431L2.75391 14.0823L2.69531 14.1216L2.66602 14.1608V14.2491L2.72461 14.3373L2.77344 14.3962V14.4158L2.8125 14.4354L2.93945 14.5433L3.0957 14.6511L3.23242 14.7492L3.33984 14.8473L3.41797 14.9159L3.55469 15.063L3.68164 15.2297L3.79883 15.3964L3.91602 15.6024L4.02344 15.8083L4.16016 16.1221L4.24805 16.3183L4.32617 16.4556L4.43359 16.6125L4.52148 16.7301L4.63867 16.8576L4.70703 16.9263L4.81445 17.0145L4.9707 17.1322L5.16602 17.2499L5.38086 17.348L5.54688 17.4068L5.79102 17.4754L6.08398 17.5245L6.2793 17.5441H6.72852L7.05078 17.5147L7.4707 17.446L7.50977 17.4558L7.51953 17.7206L7.5293 18.868V19.123L7.50977 19.2897L7.4707 19.4172L7.39258 19.525L7.32422 19.5839L7.22656 19.6329L7.11914 19.6623L7.06055 19.6721H6.95312L6.82617 19.6525L6.5625 19.5545L6.15234 19.3975L5.95703 19.3093L5.60547 19.1426L5.36133 19.0249L5.12695 18.8876L4.86328 18.7405L4.63867 18.6032L4.50195 18.5051L4.23828 18.3286L4.07227 18.2109L3.91602 18.0835L3.78906 17.9854L3.63281 17.8579L3.53516 17.7794L3.42773 17.6912L3.34961 17.6127L3.27148 17.5441L3.18359 17.4558L3.10547 17.3872L2.94922 17.2401L2.83203 17.1224L2.76367 17.0439L2.71484 16.9949V16.9753H2.69531L2.62695 16.8968L2.48047 16.7399L2.36328 16.6027L2.24609 16.4556L2.03125 16.181L1.9043 16.0143L1.75781 15.7985L1.47461 15.3768L1.32812 15.112L1.21094 14.9061L1.09375 14.6904L0.947266 14.3863L0.830078 14.1314L0.732422 13.896L0.556641 13.4253L0.449219 13.1017L0.283203 12.5133L0.146484 11.8562L0.0878906 11.464L0.0195312 10.9148H0.00976562V10.7775H0V9.42419L0.00976562 9.39477L0.0683594 8.81617L0.126953 8.4141L0.205078 7.99242L0.3125 7.5315L0.458984 7.02156L0.605469 6.59007L0.712891 6.31548L0.810547 6.08012L0.957031 5.7565L1.07422 5.51133L1.17188 5.32501L1.32812 5.04062L1.48438 4.77584L1.58203 4.62874L1.69922 4.44241L1.93359 4.10898L2.08984 3.90304L2.2168 3.74614L2.32422 3.60885L2.40234 3.51078H2.42188L2.44141 3.47155L2.5293 3.37349L2.61719 3.26561L2.74414 3.13813L2.75391 3.11851H2.77344L2.79297 3.07929L3.10547 2.76547H3.125V2.74586L3.20312 2.67721L3.27148 2.60857L3.34961 2.53992L3.47656 2.43205L3.58398 2.33398L3.7207 2.22611L3.86719 2.10843L4.0332 1.98094L4.38477 1.72597L4.55078 1.6181L4.76562 1.4808L4.96094 1.36312L5.21484 1.21602L5.47852 1.07873L5.63477 1.00028L5.87891 0.882598L6.19141 0.745305L6.57227 0.598205L7.06055 0.431492L7.4707 0.313813L7.97852 0.196133L8.4082 0.11768L8.84766 0.0588399L9.14062 0.0294199L9.64844 0Z" fill="#091B35"/>
</svg>
