<svg width="20" height="20" viewBox="0 0 20 20" fill="none" xmlns="http://www.w3.org/2000/svg">
<path d="M1.71875 0H18.3105V0.0195312L18.3984 0.0292969L18.623 0.0878906L18.8086 0.166016L19.0332 0.283203L19.1504 0.361328L19.3066 0.488281L19.4141 0.576172L19.4824 0.654297L19.6191 0.820312L19.7168 0.966797L19.8633 1.25L19.9316 1.45508L19.9805 1.65039L20 1.66016V18.3203L19.9805 18.3301L19.9219 18.5742L19.8438 18.7891L19.707 19.043L19.6387 19.1504L19.502 19.3164L19.3945 19.4336L19.2969 19.5215L19.1602 19.6289L19.0234 19.7168L18.7402 19.8633L18.5352 19.9316L18.2617 20H1.74805L1.42578 19.9219L1.21094 19.8438L0.957031 19.707L0.839844 19.6289L0.732422 19.541L0.585938 19.4141L0.478516 19.2969L0.371094 19.1602L0.273438 19.0137L0.146484 18.7695L0.078125 18.584L0 18.2715V1.71875L0.078125 1.41602L0.136719 1.25L0.214844 1.09375L0.332031 0.888672L0.429688 0.761719L0.537109 0.634766L0.605469 0.556641L0.732422 0.449219L0.830078 0.371094L0.966797 0.283203L1.2207 0.146484L1.37695 0.0878906L1.63086 0.0195312L1.71875 0ZM4.43359 2.70508L4.16016 2.73438L3.93555 2.79297L3.76953 2.85156L3.58398 2.94922L3.4668 3.02734L3.35938 3.11523L3.23242 3.22266L3.13477 3.33008L3.05664 3.42773L2.98828 3.52539L2.89062 3.70117L2.82227 3.85742L2.74414 4.12109L2.71484 4.35547L2.70508 4.45312V4.54102L2.73438 4.82422L2.7832 5.01953L2.8418 5.19531L2.93945 5.39062L3.03711 5.54688L3.14453 5.67383L3.23242 5.77148L3.30078 5.83984L3.4375 5.94727L3.53516 6.01562L3.78906 6.15234L4.0625 6.24023L4.22852 6.26953L4.42383 6.28906H4.58008L4.85352 6.25977L5.11719 6.18164L5.26367 6.12305L5.47852 6.00586L5.60547 5.9082L5.71289 5.82031L5.81055 5.73242L5.9375 5.57617L6.02539 5.44922L6.16211 5.18555L6.24023 4.93164L6.26953 4.77539L6.28906 4.58984V4.41406L6.25 4.11133L6.17188 3.84766L6.10352 3.69141L5.98633 3.48633L5.87891 3.34961L5.77148 3.22266L5.63477 3.10547L5.50781 3.00781L5.33203 2.91016L5.17578 2.83203L4.92188 2.75391L4.76562 2.72461L4.54102 2.70508H4.43359ZM13.418 7.80273L13.125 7.83203L12.8613 7.89062L12.666 7.94922L12.4316 8.03711L12.1875 8.1543L12.041 8.23242L11.7969 8.38867L11.6602 8.49609L11.5039 8.62305L11.4258 8.69141L11.3672 8.75V8.76953H11.3477V8.78906H11.3281L11.2598 8.86719L11.1719 8.96484L11.0352 9.15039L10.9961 9.18945V8.00781L10.6641 7.99805H8.01758L8.00781 8.00781V16.9922L8.52539 17.002H10.9668L10.9863 16.9922L10.9961 11.748L11.0254 11.4453L11.084 11.2402L11.1426 11.084L11.2598 10.8789L11.3379 10.7812L11.4258 10.6738L11.5039 10.5957L11.6406 10.4883L11.7285 10.4297L11.9043 10.332L12.0898 10.2637L12.2461 10.2246L12.4219 10.2051H12.5879L12.8125 10.2344L13.0469 10.3125L13.2715 10.4297L13.4082 10.5273L13.5547 10.6543L13.6426 10.752L13.75 10.8984L13.8379 11.0547L13.9062 11.2109L13.9648 11.4062L13.9941 11.6504L14.0039 17.002H16.9629L16.9922 16.9922V11.2305L16.9727 10.918L16.9141 10.5664L16.8359 10.2734L16.7285 9.98047L16.5918 9.6875L16.4355 9.42383L16.3477 9.29688L16.2598 9.17969L16.1816 9.08203L16.0645 8.94531L15.8301 8.71094L15.752 8.64258L15.6055 8.52539L15.4688 8.42773L15.3027 8.32031L15.1367 8.22266L14.9805 8.14453L14.8145 8.06641L14.5508 7.96875L14.2383 7.88086L13.9453 7.83203L13.7793 7.8125L13.6133 7.80273H13.418ZM3.01758 7.99805L3.00781 8.00781V17.002H5.9668L5.98633 16.9922L5.99609 8.66211V8.00781L5.98633 7.99805H3.01758Z" fill="#DBDBDB"/>
</svg>
