<?xml version="1.0" encoding="UTF-8"?>
<!DOCTYPE svg PUBLIC "-//W3C//DTD SVG 1.1//EN" "http://www.w3.org/Graphics/SVG/1.1/DTD/svg11.dtd">
<!-- Creator: CorelDRAW 2020 (64-Bit) -->
<svg xmlns="http://www.w3.org/2000/svg" xml:space="preserve" width="1458px" height="531px" version="1.1" style="shape-rendering:geometricPrecision; text-rendering:geometricPrecision; image-rendering:optimizeQuality; fill-rule:evenodd; clip-rule:evenodd"
viewBox="0 0 75.01 27.35"
 xmlns:xlink="http://www.w3.org/1999/xlink"
 xmlns:xodm="http://www.corel.com/coreldraw/odm/2003">
 <defs>
  <style type="text/css">
   <![CDATA[
    .fil1 {fill:#091B35;fill-rule:nonzero}
    .fil0 {fill:#857CED;fill-rule:nonzero}
    .fil2 {fill:#857CED;fill-rule:nonzero}
   ]]>
  </style>
 </defs>
 <g id="Layer_x0020_1">
  <metadata id="CorelCorpID_0Corel-Layer"/>
  <g id="_1863494501584">
   <path class="fil0" d="M4.31 15.78c2.87,0 4.81,-2.67 4.81,-4.32 0,-0.87 -0.93,-1.27 -0.93,-0.89 0,1.01 -1.42,2.92 -3.1,2.92 -1.24,0 -1.88,-0.98 -1.88,-2.4 0,-4.03 3.82,-9.38 9.53,-9.38 5.03,0 8.94,1.73 11.92,1.73 2.12,0 2.72,-1.96 2.72,-2.86 0,-0.32 -0.17,-0.58 -0.34,-0.58 -0.35,0 -0.58,0.81 -2.06,0.81 -5.38,0 -8.22,-0.49 -11.35,-0.49 -9.09,0 -13.63,6.19 -13.63,10.71 0,2.78 2.2,4.75 4.31,4.75zm14.1 -12.42c-2.37,0 -4.69,2.05 -7.18,7.52 -3.79,8.34 -5.76,9.18 -7.44,9.18 -0.35,0 -0.43,-0.29 -0.58,-0.29 -0.17,0 -0.34,0.35 -0.34,0.81 0,1.04 1.18,2.66 2.77,2.66 3.48,0 5.74,-5.7 7.85,-10.88l3.01 0c0.12,0 0.23,-0.06 0.29,-0.17l0.55 -1.25c0.06,-0.08 0,-0.2 -0.12,-0.2l-3.06 0c1.53,-3.65 3.06,-6.66 5,-6.66 0.29,0 0.03,-0.72 -0.75,-0.72zm0.12 18.23c1.5,0 2.69,-0.31 5.58,-5.06 0.03,-0.06 0.03,-0.15 -0.03,-0.17 -0.14,-0.18 -0.43,-0.53 -0.6,-0.67 -0.03,-0.06 -0.09,-0.03 -0.12,0 -1.85,2.87 -3.47,4.4 -4.02,4.4 -0.23,0 -0.41,-0.2 -0.41,-0.52 0,-0.84 0.12,-1.51 3.3,-8.34 0.03,-0.11 -0.03,-0.23 -0.14,-0.23l-2.32 0c-0.11,0 -0.23,0.09 -0.26,0.17 -2.95,6.31 -3.13,7.07 -3.13,8.2 0,1.3 0.96,2.22 2.15,2.22zm2.78 -14.56c-0.76,0.76 -0.84,1.68 -0.24,2.29 0.61,0.61 1.57,0.52 2.29,-0.2 0.75,-0.75 0.84,-1.68 0.23,-2.29 -0.61,-0.61 -1.56,-0.52 -2.28,0.2zm6.54 -1.18l-1.62 3.44 -1.16 0c-0.12,0 -0.2,0.06 -0.26,0.18l-0.49 1.01c-0.06,0.11 0.02,0.23 0.14,0.23l1.13 0 -0.75 1.62c-2.35,5.07 -2.49,5.68 -2.49,6.83 0,1.28 0.95,2.43 2.14,2.43 1.68,0 3.01,-0.31 5.91,-5.06 0.02,-0.06 0.02,-0.15 0,-0.17 -0.15,-0.18 -0.47,-0.53 -0.61,-0.67 -0.06,-0.06 -0.12,-0.03 -0.15,0 -1.85,2.87 -3.41,4.17 -4.31,4.17 -0.26,0 -0.43,-0.2 -0.43,-0.52 0,-0.99 0.2,-1.57 2.66,-6.98l0.75 -1.65 1.62 0c0.12,0 0.2,-0.06 0.26,-0.17l0.49 -1.02c0.06,-0.11 -0.02,-0.23 -0.14,-0.23l-1.56 0 1.59 -3.41c0.06,-0.12 -0.03,-0.24 -0.15,-0.24l-2.28 0c-0.12,0 -0.23,0.09 -0.29,0.21z"/>
   <g>
    <path class="fil1" d="M40.04 16.92c0.17,-0.92 -0.27,-1.63 -1.33,-2.11l-2.22 -0.89c-2.57,-1.16 -3.78,-2.75 -3.62,-4.78 0.06,-0.94 0.38,-1.77 0.96,-2.5 0.56,-0.72 1.37,-1.29 2.38,-1.7 1.03,-0.41 2.13,-0.61 3.31,-0.6 1.63,0.04 2.93,0.52 3.92,1.45 0.99,0.94 1.47,2.19 1.43,3.76l-3.37 0c0.05,-0.76 -0.12,-1.35 -0.48,-1.78 -0.37,-0.42 -0.95,-0.64 -1.73,-0.66 -0.78,-0.01 -1.45,0.16 -2.02,0.53 -0.58,0.37 -0.92,0.87 -1.04,1.51 -0.16,0.84 0.4,1.5 1.66,2l1.52 0.58 0.87 0.4c2.26,1.13 3.31,2.71 3.13,4.74 -0.08,1 -0.41,1.86 -0.98,2.58 -0.58,0.72 -1.36,1.27 -2.34,1.66 -0.98,0.38 -2.05,0.56 -3.23,0.54 -1.19,-0.02 -2.25,-0.27 -3.17,-0.75 -0.93,-0.48 -1.63,-1.15 -2.11,-2.02 -0.44,-0.81 -0.64,-1.73 -0.6,-2.77l3.39 0.01c-0.13,1.83 0.76,2.75 2.66,2.78 0.82,0 1.5,-0.18 2.04,-0.54 0.54,-0.36 0.86,-0.84 0.97,-1.44zm16.79 -1.73c-0.18,1.31 -0.53,2.48 -1.07,3.49 -0.54,1.02 -1.2,1.77 -1.99,2.26 -0.78,0.5 -1.65,0.73 -2.59,0.71 -1.21,-0.03 -2.16,-0.48 -2.85,-1.35l-1.48 7.05 -3.26 0 3.48 -18.45 3 -0.01 -0.23 1.26c0.91,-1.01 1.98,-1.51 3.2,-1.47 1.23,0.03 2.17,0.47 2.84,1.33 0.67,0.86 1.02,2.02 1.04,3.5 0.01,0.47 -0.02,1.03 -0.09,1.68zm-3.23 -0.24l0.08 -1.11c0.03,-0.75 -0.1,-1.34 -0.39,-1.78 -0.28,-0.44 -0.7,-0.67 -1.25,-0.68 -0.95,-0.04 -1.74,0.37 -2.37,1.2l-1 5.16c0.27,0.78 0.88,1.18 1.82,1.21 0.79,0.03 1.45,-0.28 1.98,-0.91 0.53,-0.64 0.91,-1.67 1.13,-3.09z"/>
    <path class="fil1" d="M71.9 11.32c1.2,2.68 0.25,7.61 -2.81,8.78 3.47,-1.94 3.25,-6.35 1.41,-8.4 -1.67,-2.37 -1.65,-2.2 -4.67,-3.56 0.44,0.04 0.87,0.13 1.29,0.25 0.42,0.11 0.83,0.26 1.23,0.44 0.4,0.19 0.79,0.41 1.14,0.68 0.18,0.14 0.34,0.29 0.5,0.45 0.07,0.07 0.13,0.15 0.19,0.23 0.72,0.53 1.55,0.42 3.41,-1.44 0,0 -0.72,1.2 -1.69,2.57zm-7.41 9.9c-0.03,-0.01 -0.08,-0.01 -0.13,-0.02 -0.05,0 -0.11,-0.01 -0.18,-0.02 -0.26,-0.05 -0.64,-0.13 -1.07,-0.3 -0.43,-0.17 -0.93,-0.41 -1.4,-0.75 -0.24,-0.17 -0.47,-0.36 -0.7,-0.57 -0.22,-0.2 -0.44,-0.43 -0.64,-0.67 -0.19,-0.24 -0.37,-0.5 -0.53,-0.77 -0.15,-0.26 -0.29,-0.53 -0.39,-0.81 -0.22,-0.54 -0.3,-1.09 -0.33,-1.56 -0.02,-0.46 0.03,-0.85 0.08,-1.11 0.02,-0.13 0.05,-0.23 0.07,-0.3 0.02,-0.07 0.03,-0.11 0.03,-0.11 0,0 -0.01,0.04 -0.02,0.11 0,0.07 -0.02,0.17 -0.02,0.31 -0.02,0.26 -0.02,0.64 0.03,1.09 0.06,0.45 0.19,0.96 0.41,1.47 0.1,0.26 0.24,0.51 0.39,0.76 0.15,0.25 0.33,0.49 0.52,0.72 0.19,0.24 0.39,0.46 0.6,0.66 0.21,0.2 0.43,0.39 0.66,0.56 0.45,0.34 0.9,0.62 1.31,0.81 0.4,0.19 0.76,0.33 1.01,0.4 0.07,0.02 0.13,0.03 0.18,0.05 0.05,0.01 0.09,0.02 0.12,0.03 0.07,0.02 0.11,0.03 0.11,0.03 0,0 -0.04,-0.01 -0.11,-0.01zm-6.07 -8.05c0.26,-1.3 0.87,-2.45 1.69,-3.35 0.02,0.11 0.03,0.21 0.05,0.31 -0.08,0.1 0.14,0.75 0.19,0.91 -0.8,0.89 -1.38,2.01 -1.64,3.28 -0.18,0.88 -0.18,1.76 -0.05,2.59 -0.4,-1.15 -0.51,-2.44 -0.24,-3.74zm8.82 -9.97l1.25 0.26c5.44,1.1 3.88,4.76 1.69,5.32 -0.92,-0.74 -2.02,-1.28 -3.25,-1.53 -1.18,-0.24 -2.35,-0.19 -3.44,0.1 -1.67,-1.45 -1.56,-5.23 3.75,-4.15zm-1.86 -2.58c0.19,-0.02 0.46,-0.04 0.78,-0.03 0.17,0 0.34,0.01 0.53,0.02 0.19,0.01 0.38,0.03 0.58,0.06 0.41,0.05 0.84,0.12 1.26,0.2 0.43,0.09 0.85,0.2 1.24,0.31 0.19,0.06 0.38,0.12 0.56,0.18 0.08,0.04 0.17,0.07 0.25,0.1 0.08,0.03 0.16,0.06 0.24,0.09 0.3,0.12 0.54,0.26 0.7,0.36 0.09,0.04 0.14,0.09 0.19,0.12 0.04,0.03 0.06,0.05 0.06,0.05 0,0 -0.03,-0.01 -0.07,-0.03 -0.05,-0.02 -0.11,-0.06 -0.2,-0.09 -0.18,-0.07 -0.43,-0.15 -0.74,-0.24 -0.08,-0.02 -0.16,-0.05 -0.24,-0.07 -0.08,-0.02 -0.17,-0.05 -0.26,-0.07 -0.18,-0.04 -0.37,-0.09 -0.56,-0.14 -0.39,-0.09 -0.81,-0.19 -1.23,-0.27 -0.42,-0.09 -0.84,-0.17 -1.23,-0.24 -0.2,-0.03 -0.39,-0.06 -0.58,-0.1 -0.18,-0.02 -0.35,-0.05 -0.51,-0.07 -0.32,-0.04 -0.58,-0.07 -0.77,-0.08 -0.19,-0.01 -0.3,-0.01 -0.3,-0.01 0,0 0.11,-0.02 0.3,-0.05zm-1.15 10.62c0,0 -0.98,1.81 -0.02,3.33 0,0 -1.17,0.58 -1.95,1.82 0,0 -2.33,-3.38 0.3,-5.54 0,0 0.12,0 0.29,0 0.21,-0.06 1.2,0.27 1.38,0.39zm9.81 -3.91c0,0 -0.05,-2.78 -2.97,-4.61 0,0 0.62,0.06 1.25,0.37 1.16,0.55 1.97,1.6 1.72,4.24zm-4.97 -6.68l-1.26 -0.26c-6.63,-1.34 -7.82,2.82 -8.17,4.51 -0.26,1.28 0.75,2.8 0.75,4.11 -1.19,1.05 -2.06,2.49 -2.4,4.16 -0.84,4.11 1.81,8.11 5.92,8.95 4.1,0.83 8.11,-1.82 8.94,-5.92 0.31,-1.54 0.14,-3.06 -0.42,-4.41 0.35,-1.35 2.12,-2.42 2.4,-3.81 0.34,-1.69 0.86,-5.98 -5.76,-7.33z"/>
   </g>
   <path class="fil2" d="M5.22 27.32l-0.7 0 0.39 -1.84c0.03,-0.12 0.07,-0.21 0.14,-0.26 0.06,-0.06 0.16,-0.09 0.28,-0.09l1.58 0 -0.11 0.53 -1.09 0c-0.09,0 -0.14,0.05 -0.16,0.14l-0.04 0.16 0.96 0 -0.12 0.54 -0.95 0 -0.18 0.82zm2.39 0l-0.71 0 0.47 -2.19 0.7 0 -0.46 2.19zm1.91 0l-0.71 0 0.35 -1.64 -0.78 0 0.12 -0.55 2.27 0 -0.12 0.55 -0.78 0 -0.35 1.64zm4.06 -2.19l-0.38 1.83c-0.01,0.03 -0.02,0.05 -0.02,0.07 -0.01,0.02 -0.02,0.05 -0.05,0.1 -0.02,0.04 -0.05,0.08 -0.09,0.1 -0.03,0.03 -0.08,0.06 -0.15,0.08 -0.06,0.02 -0.14,0.04 -0.22,0.04 -0.1,0 -0.19,-0.02 -0.26,-0.04 -0.07,-0.03 -0.13,-0.09 -0.17,-0.18l-0.55 -1.12c-0.02,-0.03 -0.03,-0.05 -0.05,-0.05 -0.03,0 -0.05,0.02 -0.06,0.06l-0.28 1.3 -0.57 0 0.39 -1.83c0.05,-0.25 0.23,-0.38 0.54,-0.38 0.21,0 0.35,0.06 0.42,0.2l0.56 1.13c0.02,0.03 0.03,0.05 0.05,0.05 0.02,0 0.03,-0.02 0.04,-0.05l0.28 -1.31 0.57 0zm2.51 0l-0.11 0.53 -1.08 0c-0.09,0 -0.15,0.05 -0.17,0.14l-0.03 0.16 1.19 0 -0.1 0.49 -1.2 0 -0.04 0.2c0,0.03 -0.01,0.04 -0.01,0.05 0,0.06 0.04,0.09 0.12,0.09l1.09 0 -0.11 0.53 -1.6 0c-0.09,0 -0.15,-0.02 -0.2,-0.07 -0.05,-0.05 -0.07,-0.11 -0.07,-0.19 0,-0.03 0,-0.05 0,-0.08l0.32 -1.5c0.03,-0.12 0.07,-0.21 0.14,-0.26 0.07,-0.06 0.16,-0.09 0.28,-0.09l1.58 0zm0 2.19l0.11 -0.54 1.22 0c0.09,0 0.14,-0.03 0.14,-0.09 0,-0.01 -0.01,-0.03 -0.02,-0.04 -0.01,-0.01 -0.03,-0.02 -0.04,-0.03 -0.01,0 -0.04,-0.01 -0.07,-0.02l-0.73 -0.24c-0.21,-0.07 -0.31,-0.23 -0.31,-0.47 0,-0.09 0.01,-0.17 0.02,-0.25 0.04,-0.18 0.11,-0.31 0.2,-0.39 0.09,-0.08 0.24,-0.12 0.43,-0.12l1.45 0 -0.12 0.55 -1.11 0c-0.11,0 -0.17,0.02 -0.17,0.08 0,0.02 0.01,0.03 0.02,0.05 0.01,0.01 0.03,0.02 0.04,0.02 0.01,0.01 0.03,0.01 0.06,0.02 0.02,0.01 0.04,0.01 0.04,0.02l0.64 0.19c0.14,0.05 0.24,0.11 0.3,0.18 0.07,0.07 0.1,0.17 0.1,0.3 0,0.07 -0.01,0.15 -0.03,0.24 -0.04,0.2 -0.11,0.34 -0.2,0.42 -0.09,0.08 -0.25,0.12 -0.46,0.12l-1.51 0zm2.46 0l0.12 -0.54 1.21 0c0.09,0 0.14,-0.03 0.14,-0.09 0,-0.01 0,-0.03 -0.02,-0.04 -0.01,-0.01 -0.02,-0.02 -0.04,-0.03 -0.01,0 -0.03,-0.01 -0.06,-0.02l-0.73 -0.24c-0.21,-0.07 -0.32,-0.23 -0.32,-0.47 0,-0.09 0.01,-0.17 0.03,-0.25 0.03,-0.18 0.1,-0.31 0.19,-0.39 0.1,-0.08 0.24,-0.12 0.44,-0.12l1.44 0 -0.11 0.55 -1.12 0c-0.11,0 -0.16,0.02 -0.16,0.08 0,0.02 0,0.03 0.02,0.05 0.01,0.01 0.02,0.02 0.03,0.02 0.01,0.01 0.03,0.01 0.06,0.02 0.03,0.01 0.04,0.01 0.05,0.02l0.63 0.19c0.14,0.05 0.24,0.11 0.31,0.18 0.06,0.07 0.09,0.17 0.09,0.3 0,0.07 -0.01,0.15 -0.02,0.24 -0.05,0.2 -0.11,0.34 -0.21,0.42 -0.09,0.08 -0.24,0.12 -0.45,0.12l-1.52 0zm4.6 0l-0.71 0 0.35 -1.64 -0.78 0 0.12 -0.55 2.27 0 -0.12 0.55 -0.78 0 -0.35 1.64zm1.21 0l0.39 -1.84c0.02,-0.12 0.07,-0.2 0.15,-0.26 0.07,-0.06 0.16,-0.09 0.27,-0.09l1.17 0c0.37,0 0.55,0.18 0.55,0.54 0,0.09 0,0.18 -0.02,0.27 -0.02,0.08 -0.03,0.15 -0.04,0.2 -0.02,0.05 -0.04,0.11 -0.07,0.18 -0.03,0.08 -0.07,0.13 -0.11,0.18 -0.04,0.04 -0.1,0.08 -0.18,0.11 -0.07,0.03 -0.16,0.04 -0.25,0.04l-0.06 0 -0.01 0.02 0.46 0.65 -0.79 0 -0.36 -0.57c-0.01,-0.01 -0.02,-0.02 -0.03,-0.04 -0.01,-0.02 -0.02,-0.03 -0.02,-0.03 -0.01,-0.01 -0.01,-0.02 -0.02,-0.03 -0.01,-0.01 -0.01,-0.02 -0.01,-0.03 -0.01,-0.01 -0.01,-0.02 -0.01,-0.03 0,-0.01 -0.01,-0.02 -0.01,-0.03 0,-0.02 0,-0.03 0,-0.04 0,-0.02 0,-0.04 0.01,-0.07l0.01 -0.04c0.03,-0.17 0.16,-0.25 0.37,-0.25l0.1 0c0.1,0 0.17,-0.02 0.21,-0.05 0.04,-0.04 0.08,-0.1 0.1,-0.2 0,-0.03 0.01,-0.06 0.01,-0.1 0,-0.05 -0.02,-0.08 -0.05,-0.1 -0.03,-0.02 -0.09,-0.03 -0.16,-0.03l-0.41 0c-0.09,0 -0.14,0.04 -0.16,0.13l-0.33 1.51 -0.7 0zm2.52 0l1.19 -1.95c0.06,-0.1 0.13,-0.17 0.2,-0.21 0.08,-0.03 0.19,-0.05 0.35,-0.05 0.07,0 0.13,0 0.17,0 0.05,0.01 0.09,0.02 0.14,0.04 0.05,0.01 0.08,0.04 0.11,0.08 0.03,0.03 0.05,0.08 0.06,0.14l0.4 1.95 -0.7 0 -0.09 -0.45 -0.77 0 -0.27 0.45 -0.79 0zm1.62 -1.5l-0.3 0.55 0.44 0 -0.08 -0.55c-0.01,-0.04 -0.01,-0.05 -0.02,-0.05 -0.01,0 -0.02,0.01 -0.04,0.05zm3.12 1.5l-0.9 0c-0.55,0 -0.82,-0.26 -0.82,-0.77 0,-0.14 0.01,-0.27 0.04,-0.42 0.07,-0.38 0.19,-0.64 0.35,-0.78 0.17,-0.15 0.45,-0.22 0.84,-0.22l0.92 0 -0.11 0.55 -0.57 0c-0.13,0 -0.23,0 -0.3,0.01 -0.07,0.01 -0.13,0.03 -0.19,0.07 -0.06,0.03 -0.1,0.09 -0.13,0.15 -0.03,0.07 -0.06,0.17 -0.09,0.28 -0.02,0.12 -0.03,0.21 -0.03,0.3 0,0.11 0.04,0.19 0.11,0.23 0.08,0.04 0.21,0.06 0.4,0.06l0.59 0 -0.11 0.54zm2.89 0l-0.82 0 -0.51 -0.85c-0.03,-0.05 -0.05,-0.11 -0.05,-0.18 0,-0.15 0.04,-0.27 0.13,-0.36l0.76 -0.8 0.84 0 -0.95 0.94c-0.07,0.06 -0.1,0.12 -0.1,0.19 0,0.03 0.02,0.08 0.05,0.14l0.65 0.92zm-2.42 0l0.47 -2.19 0.71 0 -0.47 2.19 -0.71 0zm3.49 0l-0.71 0 0.47 -2.19 0.71 0 -0.47 2.19zm3.44 -2.19l-0.39 1.83c-0.01,0.03 -0.01,0.05 -0.02,0.07 0,0.02 -0.02,0.05 -0.05,0.1 -0.02,0.04 -0.05,0.08 -0.08,0.1 -0.04,0.03 -0.09,0.06 -0.15,0.08 -0.07,0.02 -0.14,0.04 -0.23,0.04 -0.1,0 -0.18,-0.02 -0.26,-0.04 -0.07,-0.03 -0.12,-0.09 -0.17,-0.18l-0.55 -1.12c-0.02,-0.03 -0.03,-0.05 -0.05,-0.05 -0.03,0 -0.05,0.02 -0.05,0.06l-0.28 1.3 -0.58 0 0.39 -1.83c0.06,-0.25 0.24,-0.38 0.54,-0.38 0.22,0 0.36,0.06 0.42,0.2l0.56 1.13c0.02,0.03 0.04,0.05 0.05,0.05 0.02,0 0.04,-0.02 0.04,-0.05l0.28 -1.31 0.58 0zm2.54 0.55l-0.94 0c-0.19,0 -0.32,0.03 -0.4,0.1 -0.08,0.06 -0.15,0.2 -0.19,0.41 -0.02,0.11 -0.03,0.21 -0.03,0.29 0,0.11 0.03,0.19 0.09,0.23 0.06,0.05 0.16,0.07 0.29,0.07l0.15 0c0.09,0 0.15,-0.05 0.17,-0.14l0.1 -0.48 0.71 0 -0.17 0.82c-0.03,0.11 -0.08,0.19 -0.15,0.25 -0.07,0.06 -0.16,0.09 -0.27,0.09l-0.83 0c-0.55,0 -0.83,-0.26 -0.83,-0.77 0,-0.14 0.02,-0.27 0.05,-0.42 0.07,-0.38 0.19,-0.64 0.35,-0.78 0.17,-0.15 0.45,-0.22 0.83,-0.22l1.19 0 -0.12 0.55z"/>
   <path class="fil2" d="M52.27 25.99l-0.56 1.06c-0.03,0.05 -0.05,0.09 -0.07,0.12 -0.02,0.03 -0.05,0.06 -0.09,0.09 -0.03,0.03 -0.08,0.05 -0.13,0.06 -0.06,0.02 -0.12,0.03 -0.2,0.03 -0.07,0 -0.13,-0.01 -0.18,-0.03 -0.05,-0.01 -0.09,-0.03 -0.11,-0.06 -0.02,-0.03 -0.04,-0.06 -0.05,-0.09 -0.01,-0.03 -0.01,-0.07 -0.02,-0.12l-0.11 -1.06c-0.01,-0.05 -0.01,-0.07 -0.03,-0.07 -0.02,0 -0.03,0.02 -0.04,0.07l-0.26 1.33 -0.72 0 0.4 -1.83c0.05,-0.26 0.25,-0.38 0.59,-0.38 0.06,0 0.11,0 0.16,0.01 0.04,0 0.09,0.02 0.15,0.04 0.05,0.02 0.1,0.06 0.13,0.11 0.03,0.05 0.06,0.12 0.06,0.2l0.12 1.06c0.01,0.07 0.02,0.1 0.04,0.1 0.03,0 0.06,-0.03 0.09,-0.1l0.55 -1.06c0.05,-0.08 0.1,-0.15 0.15,-0.2 0.06,-0.06 0.12,-0.09 0.19,-0.11 0.06,-0.02 0.12,-0.04 0.17,-0.04 0.04,-0.01 0.09,-0.01 0.16,-0.01 0.32,0 0.49,0.09 0.49,0.29 0,0.03 -0.01,0.06 -0.01,0.09l-0.39 1.83 -0.72 0 0.31 -1.33c0.01,-0.02 0.01,-0.03 0.01,-0.04 0,-0.02 -0.01,-0.03 -0.02,-0.03 -0.01,0 -0.04,0.02 -0.06,0.07zm0.84 1.33l1.19 -1.95c0.06,-0.1 0.13,-0.17 0.21,-0.21 0.07,-0.03 0.19,-0.05 0.35,-0.05 0.07,0 0.12,0 0.17,0 0.04,0.01 0.09,0.02 0.13,0.04 0.05,0.01 0.09,0.04 0.11,0.08 0.03,0.03 0.05,0.08 0.06,0.14l0.4 1.95 -0.7 0 -0.09 -0.45 -0.77 0 -0.27 0.45 -0.79 0zm1.63 -1.5l-0.31 0.55 0.45 0 -0.09 -0.55c0,-0.04 -0.01,-0.05 -0.02,-0.05 -0.01,0 -0.02,0.01 -0.03,0.05zm2.61 1.5l-0.91 0c-0.09,0 -0.16,-0.02 -0.21,-0.07 -0.05,-0.05 -0.07,-0.11 -0.07,-0.19 0,-0.03 0,-0.05 0.01,-0.08l0.32 -1.5c0.02,-0.12 0.07,-0.21 0.13,-0.26 0.07,-0.06 0.16,-0.09 0.28,-0.09l0.85 0c0.28,0 0.48,0.06 0.61,0.19 0.12,0.13 0.19,0.32 0.19,0.57 0,0.14 -0.02,0.28 -0.04,0.43 -0.06,0.38 -0.17,0.65 -0.33,0.79 -0.17,0.14 -0.44,0.21 -0.83,0.21zm-0.23 -1.49l-0.17 0.79c0,0.02 -0.01,0.03 -0.01,0.06 0,0.06 0.05,0.1 0.13,0.1l0.03 0c0.12,0 0.22,-0.01 0.28,-0.02 0.07,-0.01 0.13,-0.03 0.19,-0.07 0.05,-0.03 0.1,-0.08 0.13,-0.15 0.03,-0.07 0.06,-0.16 0.08,-0.28 0.03,-0.12 0.04,-0.21 0.04,-0.27 0,-0.13 -0.04,-0.21 -0.11,-0.25 -0.08,-0.04 -0.2,-0.06 -0.37,-0.06l-0.03 0c-0.06,0 -0.1,0.01 -0.13,0.03 -0.03,0.03 -0.05,0.07 -0.06,0.12zm4.07 -0.7l-0.11 0.53 -1.08 0c-0.1,0 -0.15,0.05 -0.17,0.14l-0.03 0.16 1.19 0 -0.1 0.49 -1.2 0 -0.04 0.2c-0.01,0.03 -0.01,0.04 -0.01,0.05 0,0.06 0.04,0.09 0.12,0.09l1.09 0 -0.11 0.53 -1.6 0c-0.09,0 -0.16,-0.02 -0.2,-0.07 -0.05,-0.05 -0.08,-0.11 -0.08,-0.19 0,-0.03 0.01,-0.05 0.01,-0.08l0.32 -1.5c0.03,-0.12 0.07,-0.21 0.14,-0.26 0.06,-0.06 0.16,-0.09 0.28,-0.09l1.58 0zm3.19 0l-0.11 0.53 -1.09 0c-0.09,0 -0.14,0.05 -0.16,0.14l-0.04 0.16 1.2 0 -0.1 0.49 -1.2 0 -0.04 0.2c-0.01,0.03 -0.01,0.04 -0.01,0.05 0,0.06 0.04,0.09 0.11,0.09l1.1 0 -0.11 0.53 -1.6 0c-0.09,0 -0.16,-0.02 -0.21,-0.07 -0.04,-0.05 -0.07,-0.11 -0.07,-0.19 0,-0.03 0,-0.05 0.01,-0.08l0.32 -1.5c0.02,-0.12 0.07,-0.21 0.14,-0.26 0.06,-0.06 0.15,-0.09 0.28,-0.09l1.58 0zm-0.09 2.19l1.19 -1.95c0.06,-0.1 0.13,-0.17 0.2,-0.21 0.08,-0.03 0.2,-0.05 0.36,-0.05 0.07,0 0.12,0 0.17,0 0.04,0.01 0.08,0.02 0.13,0.04 0.05,0.01 0.09,0.04 0.11,0.08 0.03,0.03 0.05,0.08 0.06,0.14l0.4 1.95 -0.7 0 -0.09 -0.45 -0.77 0 -0.27 0.45 -0.79 0zm1.62 -1.5l-0.3 0.55 0.45 0 -0.09 -0.55c-0.01,-0.04 -0.01,-0.05 -0.02,-0.05 -0.01,0 -0.02,0.01 -0.04,0.05zm1.36 1.5l0.11 -0.54 1.21 0c0.1,0 0.14,-0.03 0.14,-0.09 0,-0.01 0,-0.03 -0.02,-0.04 -0.01,-0.01 -0.02,-0.02 -0.03,-0.03 -0.02,0 -0.04,-0.01 -0.07,-0.02l-0.73 -0.24c-0.21,-0.07 -0.32,-0.23 -0.32,-0.47 0,-0.09 0.01,-0.17 0.03,-0.25 0.04,-0.18 0.1,-0.31 0.19,-0.39 0.1,-0.08 0.24,-0.12 0.44,-0.12l1.45 0 -0.12 0.55 -1.11 0c-0.12,0 -0.17,0.02 -0.17,0.08 0,0.02 0,0.03 0.02,0.05 0.01,0.01 0.02,0.02 0.03,0.02 0.02,0.01 0.04,0.01 0.06,0.02 0.03,0.01 0.05,0.01 0.05,0.02l0.63 0.19c0.14,0.05 0.24,0.11 0.31,0.18 0.06,0.07 0.1,0.17 0.1,0.3 0,0.07 -0.01,0.15 -0.03,0.24 -0.04,0.2 -0.11,0.34 -0.2,0.42 -0.1,0.08 -0.25,0.12 -0.46,0.12l-1.51 0zm3.82 -1.24l0.74 -0.95 0.79 0 -1.28 1.58 -0.14 0.61 -0.7 0 0.13 -0.61 -0.61 -1.58 0.72 0 0.35 0.95z"/>
  </g>
 </g>
</svg>
