<?xml version="1.0" encoding="UTF-8" standalone="no"?>
<!-- Creator: CorelDRAW 2020 (64-Bit) -->

<svg
   xml:space="preserve"
   width="1456.2161"
   height="531"
   version="1.1"
   style="clip-rule:evenodd;fill-rule:evenodd;image-rendering:optimizeQuality;shape-rendering:geometricPrecision;text-rendering:geometricPrecision"
   viewBox="0 0 74.918222 27.35"
   id="svg5"
   sodipodi:docname="Logo.svg"
   xmlns:inkscape="http://www.inkscape.org/namespaces/inkscape"
   xmlns:sodipodi="http://sodipodi.sourceforge.net/DTD/sodipodi-0.dtd"
   xmlns="http://www.w3.org/2000/svg"
   xmlns:svg="http://www.w3.org/2000/svg"><sodipodi:namedview
   id="namedview5"
   pagecolor="#ffffff"
   bordercolor="#000000"
   borderopacity="0.25"
   inkscape:showpageshadow="2"
   inkscape:pageopacity="0.0"
   inkscape:pagecheckerboard="0"
   inkscape:deskcolor="#d1d1d1"><inkscape:page
     x="0"
     y="0"
     width="74.918221"
     height="27.35"
     id="page2"
     margin="0"
     bleed="0" /></sodipodi:namedview>
 <defs
   id="defs1"><style
     type="text/css"
     id="style1">
   <![CDATA[
    .fil1 {fill:#091B35;fill-rule:nonzero}
    .fil0 {fill:#857CED;fill-rule:nonzero}
    .fil2 {fill:#857CED;fill-rule:nonzero}
   ]]>
  </style></defs>
 <g
   id="Layer_x0020_1"
   inkscape:label="Layer 1"
   inkscape:groupmode="layer"
   transform="translate(-0.04330508)">
  <metadata
   id="CorelCorpID_0Corel-Layer" />
  <g
   id="_1863494501584">
   <path
   class="fil0"
   d="m 4.31,15.78 c 2.87,0 4.81,-2.67 4.81,-4.32 0,-0.87 -0.93,-1.27 -0.93,-0.89 0,1.01 -1.42,2.92 -3.1,2.92 -1.24,0 -1.88,-0.98 -1.88,-2.4 0,-4.03 3.82,-9.38 9.53,-9.38 5.03,0 8.94,1.73 11.92,1.73 2.12,0 2.72,-1.96 2.72,-2.86 C 27.38,0.26 27.21,0 27.04,0 26.69,0 26.46,0.81 24.98,0.81 19.6,0.81 16.76,0.32 13.63,0.32 4.54,0.32 0,6.51 0,11.03 c 0,2.78 2.2,4.75 4.31,4.75 z M 18.41,3.36 c -2.37,0 -4.69,2.05 -7.18,7.52 -3.79,8.34 -5.76,9.18 -7.44,9.18 -0.35,0 -0.43,-0.29 -0.58,-0.29 -0.17,0 -0.34,0.35 -0.34,0.81 0,1.04 1.18,2.66 2.77,2.66 3.48,0 5.74,-5.7 7.85,-10.88 h 3.01 c 0.12,0 0.23,-0.06 0.29,-0.17 l 0.55,-1.25 c 0.06,-0.08 0,-0.2 -0.12,-0.2 h -3.06 c 1.53,-3.65 3.06,-6.66 5,-6.66 0.29,0 0.03,-0.72 -0.75,-0.72 z m 0.12,18.23 c 1.5,0 2.69,-0.31 5.58,-5.06 0.03,-0.06 0.03,-0.15 -0.03,-0.17 -0.14,-0.18 -0.43,-0.53 -0.6,-0.67 -0.03,-0.06 -0.09,-0.03 -0.12,0 -1.85,2.87 -3.47,4.4 -4.02,4.4 -0.23,0 -0.41,-0.2 -0.41,-0.52 0,-0.84 0.12,-1.51 3.3,-8.34 C 22.26,11.12 22.2,11 22.09,11 h -2.32 c -0.11,0 -0.23,0.09 -0.26,0.17 -2.95,6.31 -3.13,7.07 -3.13,8.2 0,1.3 0.96,2.22 2.15,2.22 z M 21.31,7.03 c -0.76,0.76 -0.84,1.68 -0.24,2.29 0.61,0.61 1.57,0.52 2.29,-0.2 0.75,-0.75 0.84,-1.68 0.23,-2.29 -0.61,-0.61 -1.56,-0.52 -2.28,0.2 z m 6.54,-1.18 -1.62,3.44 h -1.16 c -0.12,0 -0.2,0.06 -0.26,0.18 l -0.49,1.01 c -0.06,0.11 0.02,0.23 0.14,0.23 h 1.13 l -0.75,1.62 c -2.35,5.07 -2.49,5.68 -2.49,6.83 0,1.28 0.95,2.43 2.14,2.43 1.68,0 3.01,-0.31 5.91,-5.06 0.02,-0.06 0.02,-0.15 0,-0.17 -0.15,-0.18 -0.47,-0.53 -0.61,-0.67 -0.06,-0.06 -0.12,-0.03 -0.15,0 -1.85,2.87 -3.41,4.17 -4.31,4.17 -0.26,0 -0.43,-0.2 -0.43,-0.52 0,-0.99 0.2,-1.57 2.66,-6.98 l 0.75,-1.65 h 1.62 c 0.12,0 0.2,-0.06 0.26,-0.17 L 30.68,9.52 C 30.74,9.41 30.66,9.29 30.54,9.29 H 28.98 L 30.57,5.88 C 30.63,5.76 30.54,5.64 30.42,5.64 h -2.28 c -0.12,0 -0.23,0.09 -0.29,0.21 z"
   id="path1"
   style="fill:#091b35;fill-opacity:1" />
   <g
   id="g3">
    <path
   class="fil1"
   d="M 40.04,16.92 C 40.21,16 39.77,15.29 38.71,14.81 l -2.22,-0.89 c -2.57,-1.16 -3.78,-2.75 -3.62,-4.78 0.06,-0.94 0.38,-1.77 0.96,-2.5 0.56,-0.72 1.37,-1.29 2.38,-1.7 1.03,-0.41 2.13,-0.61 3.31,-0.6 1.63,0.04 2.93,0.52 3.92,1.45 0.99,0.94 1.47,2.19 1.43,3.76 H 41.5 C 41.55,8.79 41.38,8.2 41.02,7.77 40.65,7.35 40.07,7.13 39.29,7.11 38.51,7.1 37.84,7.27 37.27,7.64 c -0.58,0.37 -0.92,0.87 -1.04,1.51 -0.16,0.84 0.4,1.5 1.66,2 l 1.52,0.58 0.87,0.4 c 2.26,1.13 3.31,2.71 3.13,4.74 -0.08,1 -0.41,1.86 -0.98,2.58 -0.58,0.72 -1.36,1.27 -2.34,1.66 -0.98,0.38 -2.05,0.56 -3.23,0.54 -1.19,-0.02 -2.25,-0.27 -3.17,-0.75 -0.93,-0.48 -1.63,-1.15 -2.11,-2.02 -0.44,-0.81 -0.64,-1.73 -0.6,-2.77 l 3.39,0.01 c -0.13,1.83 0.76,2.75 2.66,2.78 0.82,0 1.5,-0.18 2.04,-0.54 0.54,-0.36 0.86,-0.84 0.97,-1.44 z m 16.79,-1.73 c -0.18,1.31 -0.53,2.48 -1.07,3.49 -0.54,1.02 -1.2,1.77 -1.99,2.26 -0.78,0.5 -1.65,0.73 -2.59,0.71 -1.21,-0.03 -2.16,-0.48 -2.85,-1.35 l -1.48,7.05 h -3.26 l 3.48,-18.45 3,-0.01 -0.23,1.26 c 0.91,-1.01 1.98,-1.51 3.2,-1.47 1.23,0.03 2.17,0.47 2.84,1.33 0.67,0.86 1.02,2.02 1.04,3.5 0.01,0.47 -0.02,1.03 -0.09,1.68 z m -3.23,-0.24 0.08,-1.11 c 0.03,-0.75 -0.1,-1.34 -0.39,-1.78 -0.28,-0.44 -0.7,-0.67 -1.25,-0.68 -0.95,-0.04 -1.74,0.37 -2.37,1.2 l -1,5.16 c 0.27,0.78 0.88,1.18 1.82,1.21 0.79,0.03 1.45,-0.28 1.98,-0.91 0.53,-0.64 0.91,-1.67 1.13,-3.09 z"
   id="path2" />
    <path
   class="fil1"
   d="m 71.9,11.32 c 1.2,2.68 0.25,7.61 -2.81,8.78 3.47,-1.94 3.25,-6.35 1.41,-8.4 -1.67,-2.37 -1.65,-2.2 -4.67,-3.56 0.44,0.04 0.87,0.13 1.29,0.25 0.42,0.11 0.83,0.26 1.23,0.44 0.4,0.19 0.79,0.41 1.14,0.68 0.18,0.14 0.34,0.29 0.5,0.45 0.07,0.07 0.13,0.15 0.19,0.23 0.72,0.53 1.55,0.42 3.41,-1.44 0,0 -0.72,1.2 -1.69,2.57 z m -7.41,9.9 c -0.03,-0.01 -0.08,-0.01 -0.13,-0.02 -0.05,0 -0.11,-0.01 -0.18,-0.02 -0.26,-0.05 -0.64,-0.13 -1.07,-0.3 -0.43,-0.17 -0.93,-0.41 -1.4,-0.75 -0.24,-0.17 -0.47,-0.36 -0.7,-0.57 -0.22,-0.2 -0.44,-0.43 -0.64,-0.67 -0.19,-0.24 -0.37,-0.5 -0.53,-0.77 -0.15,-0.26 -0.29,-0.53 -0.39,-0.81 -0.22,-0.54 -0.3,-1.09 -0.33,-1.56 -0.02,-0.46 0.03,-0.85 0.08,-1.11 0.02,-0.13 0.05,-0.23 0.07,-0.3 0.02,-0.07 0.03,-0.11 0.03,-0.11 0,0 -0.01,0.04 -0.02,0.11 0,0.07 -0.02,0.17 -0.02,0.31 -0.02,0.26 -0.02,0.64 0.03,1.09 0.06,0.45 0.19,0.96 0.41,1.47 0.1,0.26 0.24,0.51 0.39,0.76 0.15,0.25 0.33,0.49 0.52,0.72 0.19,0.24 0.39,0.46 0.6,0.66 0.21,0.2 0.43,0.39 0.66,0.56 0.45,0.34 0.9,0.62 1.31,0.81 0.4,0.19 0.76,0.33 1.01,0.4 0.07,0.02 0.13,0.03 0.18,0.05 0.05,0.01 0.09,0.02 0.12,0.03 0.07,0.02 0.11,0.03 0.11,0.03 0,0 -0.04,-0.01 -0.11,-0.01 z m -6.07,-8.05 c 0.26,-1.3 0.87,-2.45 1.69,-3.35 0.02,0.11 0.03,0.21 0.05,0.31 -0.08,0.1 0.14,0.75 0.19,0.91 -0.8,0.89 -1.38,2.01 -1.64,3.28 -0.18,0.88 -0.18,1.76 -0.05,2.59 -0.4,-1.15 -0.51,-2.44 -0.24,-3.74 z m 8.82,-9.97 1.25,0.26 c 5.44,1.1 3.88,4.76 1.69,5.32 C 69.26,8.04 68.16,7.5 66.93,7.25 65.75,7.01 64.58,7.06 63.49,7.35 61.82,5.9 61.93,2.12 67.24,3.2 Z M 65.38,0.62 c 0.19,-0.02 0.46,-0.04 0.78,-0.03 0.17,0 0.34,0.01 0.53,0.02 0.19,0.01 0.38,0.03 0.58,0.06 0.41,0.05 0.84,0.12 1.26,0.2 0.43,0.09 0.85,0.2 1.24,0.31 0.19,0.06 0.38,0.12 0.56,0.18 0.08,0.04 0.17,0.07 0.25,0.1 0.08,0.03 0.16,0.06 0.24,0.09 0.3,0.12 0.54,0.26 0.7,0.36 0.09,0.04 0.14,0.09 0.19,0.12 0.04,0.03 0.06,0.05 0.06,0.05 0,0 -0.03,-0.01 -0.07,-0.03 C 71.65,2.03 71.59,1.99 71.5,1.96 71.32,1.89 71.07,1.81 70.76,1.72 70.68,1.7 70.6,1.67 70.52,1.65 70.44,1.63 70.35,1.6 70.26,1.58 70.08,1.54 69.89,1.49 69.7,1.44 69.31,1.35 68.89,1.25 68.47,1.17 68.05,1.08 67.63,1 67.24,0.93 67.04,0.9 66.85,0.87 66.66,0.83 66.48,0.81 66.31,0.78 66.15,0.76 65.83,0.72 65.57,0.69 65.38,0.68 65.19,0.67 65.08,0.67 65.08,0.67 c 0,0 0.11,-0.02 0.3,-0.05 z m -1.15,10.62 c 0,0 -0.98,1.81 -0.02,3.33 0,0 -1.17,0.58 -1.95,1.82 0,0 -2.33,-3.38 0.3,-5.54 0,0 0.12,0 0.29,0 0.21,-0.06 1.2,0.27 1.38,0.39 z m 9.81,-3.91 c 0,0 -0.05,-2.78 -2.97,-4.61 0,0 0.62,0.06 1.25,0.37 1.16,0.55 1.97,1.6 1.72,4.24 z M 69.07,0.65 67.81,0.39 c -6.63,-1.34 -7.82,2.82 -8.17,4.51 -0.26,1.28 0.75,2.8 0.75,4.11 -1.19,1.05 -2.06,2.49 -2.4,4.16 -0.84,4.11 1.81,8.11 5.92,8.95 4.1,0.83 8.11,-1.82 8.94,-5.92 0.31,-1.54 0.14,-3.06 -0.42,-4.41 0.35,-1.35 2.12,-2.42 2.4,-3.81 C 75.17,6.29 75.69,2 69.07,0.65 Z"
   id="path3" />
   </g>
   <path
   class="fil2"
   d="M 5.22,27.32 H 4.52 L 4.91,25.48 C 4.94,25.36 4.98,25.27 5.05,25.22 5.11,25.16 5.21,25.13 5.33,25.13 H 6.91 L 6.8,25.66 H 5.71 c -0.09,0 -0.14,0.05 -0.16,0.14 L 5.51,25.96 H 6.47 L 6.35,26.5 H 5.4 Z m 2.39,0 H 6.9 l 0.47,-2.19 h 0.7 z m 1.91,0 H 8.81 L 9.16,25.68 H 8.38 L 8.5,25.13 h 2.27 l -0.12,0.55 H 9.87 Z m 4.06,-2.19 -0.38,1.83 c -0.01,0.03 -0.02,0.05 -0.02,0.07 -0.01,0.02 -0.02,0.05 -0.05,0.1 -0.02,0.04 -0.05,0.08 -0.09,0.1 -0.03,0.03 -0.08,0.06 -0.15,0.08 -0.06,0.02 -0.14,0.04 -0.22,0.04 -0.1,0 -0.19,-0.02 -0.26,-0.04 -0.07,-0.03 -0.13,-0.09 -0.17,-0.18 l -0.55,-1.12 c -0.02,-0.03 -0.03,-0.05 -0.05,-0.05 -0.03,0 -0.05,0.02 -0.06,0.06 l -0.28,1.3 h -0.57 l 0.39,-1.83 c 0.05,-0.25 0.23,-0.38 0.54,-0.38 0.21,0 0.35,0.06 0.42,0.2 l 0.56,1.13 c 0.02,0.03 0.03,0.05 0.05,0.05 0.02,0 0.03,-0.02 0.04,-0.05 l 0.28,-1.31 z m 2.51,0 -0.11,0.53 H 14.9 c -0.09,0 -0.15,0.05 -0.17,0.14 l -0.03,0.16 h 1.19 l -0.1,0.49 h -1.2 l -0.04,0.2 c 0,0.03 -0.01,0.04 -0.01,0.05 0,0.06 0.04,0.09 0.12,0.09 h 1.09 l -0.11,0.53 h -1.6 c -0.09,0 -0.15,-0.02 -0.2,-0.07 -0.05,-0.05 -0.07,-0.11 -0.07,-0.19 0,-0.03 0,-0.05 0,-0.08 l 0.32,-1.5 c 0.03,-0.12 0.07,-0.21 0.14,-0.26 0.07,-0.06 0.16,-0.09 0.28,-0.09 z m 0,2.19 0.11,-0.54 h 1.22 c 0.09,0 0.14,-0.03 0.14,-0.09 0,-0.01 -0.01,-0.03 -0.02,-0.04 -0.01,-0.01 -0.03,-0.02 -0.04,-0.03 -0.01,0 -0.04,-0.01 -0.07,-0.02 L 16.7,26.36 c -0.21,-0.07 -0.31,-0.23 -0.31,-0.47 0,-0.09 0.01,-0.17 0.02,-0.25 0.04,-0.18 0.11,-0.31 0.2,-0.39 0.09,-0.08 0.24,-0.12 0.43,-0.12 h 1.45 l -0.12,0.55 h -1.11 c -0.11,0 -0.17,0.02 -0.17,0.08 0,0.02 0.01,0.03 0.02,0.05 0.01,0.01 0.03,0.02 0.04,0.02 0.01,0.01 0.03,0.01 0.06,0.02 0.02,0.01 0.04,0.01 0.04,0.02 l 0.64,0.19 c 0.14,0.05 0.24,0.11 0.3,0.18 0.07,0.07 0.1,0.17 0.1,0.3 0,0.07 -0.01,0.15 -0.03,0.24 -0.04,0.2 -0.11,0.34 -0.2,0.42 -0.09,0.08 -0.25,0.12 -0.46,0.12 z m 2.46,0 0.12,-0.54 h 1.21 c 0.09,0 0.14,-0.03 0.14,-0.09 0,-0.01 0,-0.03 -0.02,-0.04 -0.01,-0.01 -0.02,-0.02 -0.04,-0.03 -0.01,0 -0.03,-0.01 -0.06,-0.02 l -0.73,-0.24 c -0.21,-0.07 -0.32,-0.23 -0.32,-0.47 0,-0.09 0.01,-0.17 0.03,-0.25 0.03,-0.18 0.1,-0.31 0.19,-0.39 0.1,-0.08 0.24,-0.12 0.44,-0.12 h 1.44 l -0.11,0.55 h -1.12 c -0.11,0 -0.16,0.02 -0.16,0.08 0,0.02 0,0.03 0.02,0.05 0.01,0.01 0.02,0.02 0.03,0.02 0.01,0.01 0.03,0.01 0.06,0.02 0.03,0.01 0.04,0.01 0.05,0.02 l 0.63,0.19 c 0.14,0.05 0.24,0.11 0.31,0.18 0.06,0.07 0.09,0.17 0.09,0.3 0,0.07 -0.01,0.15 -0.02,0.24 -0.05,0.2 -0.11,0.34 -0.21,0.42 -0.09,0.08 -0.24,0.12 -0.45,0.12 z m 4.6,0 h -0.71 l 0.35,-1.64 h -0.78 l 0.12,-0.55 h 2.27 l -0.12,0.55 H 23.5 Z m 1.21,0 0.39,-1.84 c 0.02,-0.12 0.07,-0.2 0.15,-0.26 0.07,-0.06 0.16,-0.09 0.27,-0.09 h 1.17 c 0.37,0 0.55,0.18 0.55,0.54 0,0.09 0,0.18 -0.02,0.27 -0.02,0.08 -0.03,0.15 -0.04,0.2 -0.02,0.05 -0.04,0.11 -0.07,0.18 -0.03,0.08 -0.07,0.13 -0.11,0.18 -0.04,0.04 -0.1,0.08 -0.18,0.11 -0.07,0.03 -0.16,0.04 -0.25,0.04 h -0.06 l -0.01,0.02 0.46,0.65 H 25.82 L 25.46,26.75 C 25.45,26.74 25.44,26.73 25.43,26.71 25.42,26.69 25.41,26.68 25.41,26.68 25.4,26.67 25.4,26.66 25.39,26.65 25.38,26.64 25.38,26.63 25.38,26.62 25.37,26.61 25.37,26.6 25.37,26.59 c 0,-0.01 -0.01,-0.02 -0.01,-0.03 0,-0.02 0,-0.03 0,-0.04 0,-0.02 0,-0.04 0.01,-0.07 l 0.01,-0.04 c 0.03,-0.17 0.16,-0.25 0.37,-0.25 h 0.1 c 0.1,0 0.17,-0.02 0.21,-0.05 0.04,-0.04 0.08,-0.1 0.1,-0.2 0,-0.03 0.01,-0.06 0.01,-0.1 0,-0.05 -0.02,-0.08 -0.05,-0.1 -0.03,-0.02 -0.09,-0.03 -0.16,-0.03 h -0.41 c -0.09,0 -0.14,0.04 -0.16,0.13 l -0.33,1.51 z m 2.52,0 1.19,-1.95 c 0.06,-0.1 0.13,-0.17 0.2,-0.21 0.08,-0.03 0.19,-0.05 0.35,-0.05 0.07,0 0.13,0 0.17,0 0.05,0.01 0.09,0.02 0.14,0.04 0.05,0.01 0.08,0.04 0.11,0.08 0.03,0.03 0.05,0.08 0.06,0.14 l 0.4,1.95 h -0.7 l -0.09,-0.45 h -0.77 l -0.27,0.45 z m 1.62,-1.5 -0.3,0.55 h 0.44 l -0.08,-0.55 c -0.01,-0.04 -0.01,-0.05 -0.02,-0.05 -0.01,0 -0.02,0.01 -0.04,0.05 z m 3.12,1.5 h -0.9 c -0.55,0 -0.82,-0.26 -0.82,-0.77 0,-0.14 0.01,-0.27 0.04,-0.42 0.07,-0.38 0.19,-0.64 0.35,-0.78 0.17,-0.15 0.45,-0.22 0.84,-0.22 h 0.92 l -0.11,0.55 h -0.57 c -0.13,0 -0.23,0 -0.3,0.01 -0.07,0.01 -0.13,0.03 -0.19,0.07 -0.06,0.03 -0.1,0.09 -0.13,0.15 -0.03,0.07 -0.06,0.17 -0.09,0.28 -0.02,0.12 -0.03,0.21 -0.03,0.3 0,0.11 0.04,0.19 0.11,0.23 0.08,0.04 0.21,0.06 0.4,0.06 h 0.59 z m 2.89,0 h -0.82 l -0.51,-0.85 c -0.03,-0.05 -0.05,-0.11 -0.05,-0.18 0,-0.15 0.04,-0.27 0.13,-0.36 l 0.76,-0.8 h 0.84 l -0.95,0.94 c -0.07,0.06 -0.1,0.12 -0.1,0.19 0,0.03 0.02,0.08 0.05,0.14 z m -2.42,0 0.47,-2.19 h 0.71 l -0.47,2.19 z m 3.49,0 h -0.71 l 0.47,-2.19 h 0.71 z m 3.44,-2.19 -0.39,1.83 c -0.01,0.03 -0.01,0.05 -0.02,0.07 0,0.02 -0.02,0.05 -0.05,0.1 -0.02,0.04 -0.05,0.08 -0.08,0.1 -0.04,0.03 -0.09,0.06 -0.15,0.08 -0.07,0.02 -0.14,0.04 -0.23,0.04 -0.1,0 -0.18,-0.02 -0.26,-0.04 -0.07,-0.03 -0.12,-0.09 -0.17,-0.18 l -0.55,-1.12 c -0.02,-0.03 -0.03,-0.05 -0.05,-0.05 -0.03,0 -0.05,0.02 -0.05,0.06 l -0.28,1.3 h -0.58 l 0.39,-1.83 c 0.06,-0.25 0.24,-0.38 0.54,-0.38 0.22,0 0.36,0.06 0.42,0.2 l 0.56,1.13 c 0.02,0.03 0.04,0.05 0.05,0.05 0.02,0 0.04,-0.02 0.04,-0.05 l 0.28,-1.31 z m 2.54,0.55 h -0.94 c -0.19,0 -0.32,0.03 -0.4,0.1 -0.08,0.06 -0.15,0.2 -0.19,0.41 C 40.01,26.3 40,26.4 40,26.48 c 0,0.11 0.03,0.19 0.09,0.23 0.06,0.05 0.16,0.07 0.29,0.07 h 0.15 c 0.09,0 0.15,-0.05 0.17,-0.14 l 0.1,-0.48 h 0.71 l -0.17,0.82 c -0.03,0.11 -0.08,0.19 -0.15,0.25 -0.07,0.06 -0.16,0.09 -0.27,0.09 h -0.83 c -0.55,0 -0.83,-0.26 -0.83,-0.77 0,-0.14 0.02,-0.27 0.05,-0.42 0.07,-0.38 0.19,-0.64 0.35,-0.78 0.17,-0.15 0.45,-0.22 0.83,-0.22 h 1.19 z"
   id="path4"
   style="fill:#091b35;fill-opacity:1" />
   <path
   class="fil2"
   d="m 52.27,25.99 -0.56,1.06 c -0.03,0.05 -0.05,0.09 -0.07,0.12 -0.02,0.03 -0.05,0.06 -0.09,0.09 -0.03,0.03 -0.08,0.05 -0.13,0.06 -0.06,0.02 -0.12,0.03 -0.2,0.03 -0.07,0 -0.13,-0.01 -0.18,-0.03 -0.05,-0.01 -0.09,-0.03 -0.11,-0.06 -0.02,-0.03 -0.04,-0.06 -0.05,-0.09 -0.01,-0.03 -0.01,-0.07 -0.02,-0.12 l -0.11,-1.06 c -0.01,-0.05 -0.01,-0.07 -0.03,-0.07 -0.02,0 -0.03,0.02 -0.04,0.07 l -0.26,1.33 H 49.7 l 0.4,-1.83 c 0.05,-0.26 0.25,-0.38 0.59,-0.38 0.06,0 0.11,0 0.16,0.01 0.04,0 0.09,0.02 0.15,0.04 0.05,0.02 0.1,0.06 0.13,0.11 0.03,0.05 0.06,0.12 0.06,0.2 l 0.12,1.06 c 0.01,0.07 0.02,0.1 0.04,0.1 0.03,0 0.06,-0.03 0.09,-0.1 l 0.55,-1.06 c 0.05,-0.08 0.1,-0.15 0.15,-0.2 0.06,-0.06 0.12,-0.09 0.19,-0.11 0.06,-0.02 0.12,-0.04 0.17,-0.04 0.04,-0.01 0.09,-0.01 0.16,-0.01 0.32,0 0.49,0.09 0.49,0.29 0,0.03 -0.01,0.06 -0.01,0.09 l -0.39,1.83 h -0.72 l 0.31,-1.33 c 0.01,-0.02 0.01,-0.03 0.01,-0.04 0,-0.02 -0.01,-0.03 -0.02,-0.03 -0.01,0 -0.04,0.02 -0.06,0.07 z m 0.84,1.33 1.19,-1.95 c 0.06,-0.1 0.13,-0.17 0.21,-0.21 0.07,-0.03 0.19,-0.05 0.35,-0.05 0.07,0 0.12,0 0.17,0 0.04,0.01 0.09,0.02 0.13,0.04 0.05,0.01 0.09,0.04 0.11,0.08 0.03,0.03 0.05,0.08 0.06,0.14 l 0.4,1.95 h -0.7 l -0.09,-0.45 h -0.77 l -0.27,0.45 z m 1.63,-1.5 -0.31,0.55 h 0.45 l -0.09,-0.55 c 0,-0.04 -0.01,-0.05 -0.02,-0.05 -0.01,0 -0.02,0.01 -0.03,0.05 z m 2.61,1.5 h -0.91 c -0.09,0 -0.16,-0.02 -0.21,-0.07 -0.05,-0.05 -0.07,-0.11 -0.07,-0.19 0,-0.03 0,-0.05 0.01,-0.08 l 0.32,-1.5 c 0.02,-0.12 0.07,-0.21 0.13,-0.26 0.07,-0.06 0.16,-0.09 0.28,-0.09 h 0.85 c 0.28,0 0.48,0.06 0.61,0.19 0.12,0.13 0.19,0.32 0.19,0.57 0,0.14 -0.02,0.28 -0.04,0.43 -0.06,0.38 -0.17,0.65 -0.33,0.79 -0.17,0.14 -0.44,0.21 -0.83,0.21 z m -0.23,-1.49 -0.17,0.79 c 0,0.02 -0.01,0.03 -0.01,0.06 0,0.06 0.05,0.1 0.13,0.1 h 0.03 c 0.12,0 0.22,-0.01 0.28,-0.02 0.07,-0.01 0.13,-0.03 0.19,-0.07 0.05,-0.03 0.1,-0.08 0.13,-0.15 0.03,-0.07 0.06,-0.16 0.08,-0.28 0.03,-0.12 0.04,-0.21 0.04,-0.27 0,-0.13 -0.04,-0.21 -0.11,-0.25 -0.08,-0.04 -0.2,-0.06 -0.37,-0.06 h -0.03 c -0.06,0 -0.1,0.01 -0.13,0.03 -0.03,0.03 -0.05,0.07 -0.06,0.12 z m 4.07,-0.7 -0.11,0.53 H 60 c -0.1,0 -0.15,0.05 -0.17,0.14 l -0.03,0.16 h 1.19 l -0.1,0.49 h -1.2 l -0.04,0.2 c -0.01,0.03 -0.01,0.04 -0.01,0.05 0,0.06 0.04,0.09 0.12,0.09 h 1.09 l -0.11,0.53 h -1.6 c -0.09,0 -0.16,-0.02 -0.2,-0.07 -0.05,-0.05 -0.08,-0.11 -0.08,-0.19 0,-0.03 0.01,-0.05 0.01,-0.08 l 0.32,-1.5 c 0.03,-0.12 0.07,-0.21 0.14,-0.26 0.06,-0.06 0.16,-0.09 0.28,-0.09 z m 3.19,0 -0.11,0.53 h -1.09 c -0.09,0 -0.14,0.05 -0.16,0.14 l -0.04,0.16 h 1.2 l -0.1,0.49 h -1.2 l -0.04,0.2 c -0.01,0.03 -0.01,0.04 -0.01,0.05 0,0.06 0.04,0.09 0.11,0.09 h 1.1 l -0.11,0.53 h -1.6 c -0.09,0 -0.16,-0.02 -0.21,-0.07 -0.04,-0.05 -0.07,-0.11 -0.07,-0.19 0,-0.03 0,-0.05 0.01,-0.08 l 0.32,-1.5 c 0.02,-0.12 0.07,-0.21 0.14,-0.26 0.06,-0.06 0.15,-0.09 0.28,-0.09 z m -0.09,2.19 1.19,-1.95 c 0.06,-0.1 0.13,-0.17 0.2,-0.21 0.08,-0.03 0.2,-0.05 0.36,-0.05 0.07,0 0.12,0 0.17,0 0.04,0.01 0.08,0.02 0.13,0.04 0.05,0.01 0.09,0.04 0.11,0.08 0.03,0.03 0.05,0.08 0.06,0.14 l 0.4,1.95 h -0.7 l -0.09,-0.45 h -0.77 l -0.27,0.45 z m 1.62,-1.5 -0.3,0.55 h 0.45 l -0.09,-0.55 c -0.01,-0.04 -0.01,-0.05 -0.02,-0.05 -0.01,0 -0.02,0.01 -0.04,0.05 z m 1.36,1.5 0.11,-0.54 h 1.21 c 0.1,0 0.14,-0.03 0.14,-0.09 0,-0.01 0,-0.03 -0.02,-0.04 -0.01,-0.01 -0.02,-0.02 -0.03,-0.03 -0.02,0 -0.04,-0.01 -0.07,-0.02 l -0.73,-0.24 c -0.21,-0.07 -0.32,-0.23 -0.32,-0.47 0,-0.09 0.01,-0.17 0.03,-0.25 0.04,-0.18 0.1,-0.31 0.19,-0.39 0.1,-0.08 0.24,-0.12 0.44,-0.12 h 1.45 l -0.12,0.55 h -1.11 c -0.12,0 -0.17,0.02 -0.17,0.08 0,0.02 0,0.03 0.02,0.05 0.01,0.01 0.02,0.02 0.03,0.02 0.02,0.01 0.04,0.01 0.06,0.02 0.03,0.01 0.05,0.01 0.05,0.02 l 0.63,0.19 c 0.14,0.05 0.24,0.11 0.31,0.18 0.06,0.07 0.1,0.17 0.1,0.3 0,0.07 -0.01,0.15 -0.03,0.24 -0.04,0.2 -0.11,0.34 -0.2,0.42 -0.1,0.08 -0.25,0.12 -0.46,0.12 z m 3.82,-1.24 0.74,-0.95 h 0.79 l -1.28,1.58 -0.14,0.61 h -0.7 l 0.13,-0.61 -0.61,-1.58 h 0.72 z"
   id="path5"
   style="fill:#091b35;fill-opacity:1" />
  </g>
 </g>
</svg>
