<svg width="68" height="68" viewBox="0 0 68 68" fill="none" xmlns="http://www.w3.org/2000/svg">
<circle cx="34" cy="34" r="34" fill="#A49AF4"/>
<path fill-rule="evenodd" clip-rule="evenodd" d="M17.8106 20.0345C17.8106 25.0966 18.6137 29.9064 19.5267 34.1692C20.1487 37.0746 20.8281 41.2618 21.0948 44.4365C21.2157 45.8752 22.0208 49.2823 21.0128 50.2907C20.7588 50.5444 20.0944 50.7257 19.6677 50.8475L15.1824 52.1731C13.8633 52.5811 12 52.779 12 55.2247C12 56.0685 12.881 56.3241 13.5843 56.4932C14.3817 56.6852 15.0753 56.9216 15.8859 57.1499C18.1744 57.794 20.6227 58.3295 23.0319 58.6675C23.859 58.7834 24.8936 58.9321 25.732 58.9257C26.6771 58.9182 27.6871 59.1733 28.3366 58.779C30.1242 57.6933 28.9871 53.9378 28.9056 52.2637L28.4808 43.1777C28.4876 37.618 28.8585 38.2324 30.1504 33.0118C32.1673 24.8599 31.8079 22.871 30.4127 14.4034C30.1379 12.7353 29.7916 11.2286 29.522 9.58762C29.4046 8.87157 29.3431 7.77639 28.8838 7.37307C28.2737 6.83713 21.9003 7.03615 20.7687 7.03615C19.4797 7.03615 19.3929 8.21226 19.142 9.3191C18.8793 10.4785 18.684 11.4996 18.4532 12.646C18.0249 14.7726 17.8106 17.5176 17.8106 20.0345Z" fill="#484E68"/>
<path fill-rule="evenodd" clip-rule="evenodd" d="M36.1931 24.4729C36.1931 30.0504 38.227 34.1372 39.0471 38.9491C39.2695 40.2557 39.2643 41.5246 39.2561 43.0726C39.252 43.9041 39.3685 44.2727 39.3641 45.0784C39.3584 46.0645 39.3263 48.5168 39.4395 49.3358L39.3188 53.5956C38.9736 55.9828 39.0398 58.1569 41.8573 58.8589C43.7968 59.342 51.4473 57.1679 53.9836 56.5346C54.3954 56.4316 54.827 56.3943 55.1479 56.2199C56.3789 55.5511 55.5595 53.0663 54.0276 52.6029C52.9362 52.2728 51.7963 51.9994 50.6893 51.7149C48.3604 51.1163 46.441 51.054 46.441 47.1934C46.441 44.0868 47.6678 36.5598 48.2979 33.7279L49.408 27.2296C50.2188 20.1696 50.1663 16.3303 48.6176 9.50891C48.4894 8.94395 48.4045 8.36997 48.228 7.89055C48.0726 7.46787 47.6467 7.03617 47.0749 7.03617C46.0136 7.03617 39.5259 6.86926 38.9119 7.32515C38.375 7.72364 38.3692 8.77088 38.2277 9.49397C37.9086 11.1255 37.6138 12.6762 37.3412 14.3137C36.827 17.4017 36.1931 20.8878 36.1931 24.4729Z" fill="#484E68"/>
<path fill-rule="evenodd" clip-rule="evenodd" d="M23.7896 19.5061L23.7902 21.1968C23.7917 24.2044 24.082 36.1768 27.2131 35.8907C29.4722 34.5783 29.3502 24.295 28.8616 21.3424C28.5239 19.2996 27.0348 13.5215 26.2999 11.3315C25.9903 10.4094 25.5862 8.81636 24.7833 8.65363C23.8993 9.32723 24.0074 12.3766 23.9483 13.6952C23.8621 15.619 23.7885 17.5765 23.7896 19.5061Z" fill="#FE004F"/>
<path fill-rule="evenodd" clip-rule="evenodd" d="M38.4004 25.3182C38.4048 27.8976 38.5018 30.443 39.0316 32.9452C39.5424 35.3581 40.5537 37.3996 42.0228 34.4232C44.3201 29.7689 43.8225 16.944 43.434 10.95C43.3786 10.0956 43.3377 9.06817 42.7432 8.65143C41.5248 8.9448 40.2057 14.8988 39.8715 16.2146C39.0842 19.3139 38.3947 21.8757 38.4004 25.3182Z" fill="#FE004F"/>
<path fill-rule="evenodd" clip-rule="evenodd" d="M23.0054 19.1889C23.0076 17.4641 23.0443 15.7327 23.0892 14.0108C23.1191 12.8593 23.4867 9.70195 22.8816 9.03076C21.4099 9.28718 19.6168 16.2935 19.2048 18.2536C18.3597 22.2746 18.6549 26.097 19.5537 30.0291C19.8907 31.5025 20.5872 33.7021 21.402 34.6192C21.9409 35.2257 23.0105 35.7788 23.4174 34.6275C23.9756 33.0485 23.2446 27.6702 23.1345 25.6393C23.0173 23.4819 23.0122 21.3483 23.0054 19.1889Z" fill="#FE004F"/>
<path fill-rule="evenodd" clip-rule="evenodd" d="M44.645 9.0343C44.0622 9.59223 44.3715 11.6322 44.3999 12.5303C44.5206 16.3441 44.5898 20.2457 44.4687 24.0489C44.3893 26.5394 44.1101 28.9031 43.9302 31.3717C43.861 32.325 43.4778 36.3662 45.6044 35.0515C48.0352 33.5488 49.1041 24.3583 48.7293 20.5993C48.5255 18.5552 47.8646 16.0919 47.263 14.2463C46.8436 12.9596 45.7333 9.1878 44.645 9.0343Z" fill="#FE004F"/>
</svg>
