<svg width="68" height="68" viewBox="0 0 68 68" fill="none" xmlns="http://www.w3.org/2000/svg">
<circle cx="34" cy="34" r="34" fill="#A49AF4"/>
<path fill-rule="evenodd" clip-rule="evenodd" d="M46.0409 48.4521C46.4892 48.7513 46.6844 49.1226 47.0603 49.5444C47.4435 49.977 47.7255 50.3231 48.1051 50.7701C48.7558 51.5451 51.4021 54.9662 52.1757 55.4601C52.9747 55.9684 53.8748 56.282 54.8075 55.8963C55.1546 55.7557 55.2305 55.6656 55.4655 55.4204C55.404 54.6814 54.5219 53.6035 54.1351 53.0195L49.7789 46.1846L51.9335 48.088C55.0353 51.1882 56.2644 53.4161 59.5289 51.6929C59.5289 50.5934 59.2469 50.6836 57.9419 49.3858L51.8901 43.5927C53.2458 43.9063 57.7611 47.4499 59.5289 47.4932C60.3748 47.5112 62.0522 47.0065 61.9655 46.0224C61.792 45.3807 61.463 45.3158 60.9424 44.9337C59.7313 44.0433 53.0651 38.7657 52.2155 38.571C50.6538 39.6128 49.9271 40.8385 46.2036 40.8385V40.5141C47.1218 40.4383 48.1304 39.7895 48.7595 39.3352L50.9177 37.5977C52.3456 37.7166 54.4858 38.5962 55.9861 38.1168C57.1646 37.7455 58.8384 35.6618 57.0345 34.9012C56.3657 34.62 55.4438 34.4217 54.7967 34.2162C52.9241 33.6178 49.1354 32.3345 47.6279 32.695C45.4878 33.2105 45.0214 33.5025 42.6607 32.868C39.5771 32.0425 37.7731 30.0453 35.9909 27.6913C34.6135 25.8708 32.8638 22.4498 31.5515 20.2904C28.8655 15.8636 25.8468 11.981 20.6158 10.4598C15.898 9.08269 4.1019 9.94066 11.2381 25.3193C13.0999 28.1095 15.5329 30.0021 18.3527 31.6712C19.0396 32.0785 19.4228 32.2876 20.1856 32.5976C25.3696 34.6957 26.747 35.0814 32.1733 36.8478C36.75 38.3367 35.9619 39.4794 37.3718 42.3562L46.2325 55.2294C47.8195 57.5978 50.8454 57.4608 49.9488 55.5863C49.421 54.4867 46.2578 49.2596 46.0409 48.4521Z" fill="#484F69"/>
<path fill-rule="evenodd" clip-rule="evenodd" d="M37.1512 32.4497C37.5742 31.2168 36.8403 31.1411 35.6256 29.6739C30.6729 23.7114 30.362 19.9046 25.8865 16.0581C25.2755 15.5318 20.7711 12.4063 19.654 13.3797C18.4647 14.4143 20.3445 19.7712 20.8326 20.932C22.7414 25.4634 25.5322 28.1202 30.1415 30.2904C31.4755 30.9176 35.7196 32.8823 37.1512 32.4497Z" fill="#FE004F"/>
<path fill-rule="evenodd" clip-rule="evenodd" d="M35.9801 34.4903C36.0199 32.814 33.4857 33.1745 29.5886 31.3144C27.2894 30.2185 25.189 29.0108 23.7176 27.4571C23.3164 27.0353 22.8826 26.7217 22.503 26.2386C21.0786 24.4109 20.7822 23.9387 19.1373 22.3021C17.4635 20.6402 15.7391 21.1305 13.6532 20.4852C13.0314 20.2941 10.2622 18.4268 13.1181 23.2826C15.7572 27.7635 23.2983 30.5898 28.0305 32.7167C30.4924 33.8198 32.8277 34.6057 35.9801 34.4903Z" fill="#FE004F"/>
</svg>
