<svg width="20" height="21" viewBox="0 0 20 21" fill="none" xmlns="http://www.w3.org/2000/svg">
<path d="M9.9408 5.55338H10.0681L10.2738 5.58276L10.4501 5.64153L10.6068 5.71988L10.7439 5.81783L10.8615 5.92556L10.979 6.07248L11.0574 6.2096L11.1063 6.31734L11.1553 6.47405L11.1749 6.60137V6.88541L11.1455 7.03232L11.0867 7.20862L11.0084 7.35553L10.9104 7.49265L10.8125 7.60039L10.6754 7.70813L10.5285 7.79628L10.3522 7.86484L10.1955 7.90402L10.1171 7.91381H9.86245L9.66656 7.87463L9.50985 7.81587L9.35314 7.72772L9.22581 7.62977L9.14746 7.56121L9.05931 7.45348L8.99075 7.35553L8.9026 7.18903L8.85363 7.04212L8.82425 6.905L8.81445 6.80705V6.68952L8.83404 6.51322L8.87322 6.36631L8.95157 6.18022L9.02013 6.07248L9.11808 5.94515L9.23561 5.82762L9.37273 5.72968L9.53923 5.64153L9.68615 5.59256L9.82327 5.56317L9.9408 5.55338Z" fill="#091B35"/>
<path d="M19.9804 10.4212L20 10.431V18.2468L19.9804 18.5211L19.9314 18.7659L19.8825 18.9226L19.7943 19.1185L19.7062 19.2654L19.6082 19.4025L19.4907 19.5299L19.383 19.6376L19.2556 19.7356L19.0793 19.8433L18.8737 19.9412L18.6974 20L18.4623 20.0588H1.5475L1.23408 19.9804L1.07738 19.9216L0.920666 19.8433L0.803134 19.7747L0.685602 19.6866L0.577865 19.5984L0.450539 19.4711L0.36239 19.3634L0.274241 19.236L0.186092 19.0793L0.107738 18.903L0.0489716 18.7071L0.00979432 18.4819L0 18.3056V10.4995L0.00979432 10.431L0.0489716 10.4407L0.832517 10.8325L1.01861 10.9207L1.2047 11.0186L1.3712 11.097L1.84133 11.332L2.00784 11.4202L9.21645 15.0245L9.66699 15.24L9.87267 15.3281L9.90206 15.3379H10.0979L10.284 15.2595L10.617 15.1028L10.8717 14.9755L11.097 14.8678L17.7963 11.5181L17.9824 11.4202L19.0989 10.8619L19.285 10.7738L19.4711 10.6758L19.716 10.5583L19.951 10.4407L19.9804 10.4212Z" fill="#091B35"/>
<path d="M4.2213 0H15.8178L15.857 0.0195886L16.1312 0.0881489L16.3173 0.156709L16.5426 0.264447L16.7091 0.372184L16.8266 0.460333L16.9637 0.577865L17.1008 0.714985L17.2086 0.852106L17.3065 0.989226L17.4142 1.17532L17.5024 1.3712L17.571 1.58668L17.6199 1.81195L17.6395 1.98825L17.6493 2.2429V9.05975L17.6395 10.2938L17.5612 10.3428L17.3359 10.4505L17.0225 10.6072L16.856 10.6954L16.6307 10.8031L16.4642 10.8913L16.2389 10.999L16.0724 11.0872L15.8472 11.1949L15.6807 11.2831L15.4554 11.3908L15.2693 11.4887L10.7443 13.7512L10.519 13.859L10.3525 13.9471L10.1958 14.0255L10.0097 14.1136L9.97057 14.1038L4.70122 11.4691L4.47595 11.3614L4.32904 11.2831L4.10377 11.1753L3.712 10.9794L3.54549 10.8913L3.32022 10.7835L3.15372 10.6954L2.99701 10.617L2.77174 10.5093L2.60524 10.4212L2.44853 10.3428L2.36038 10.3036L2.35059 10.2351V2.09598L2.37017 1.86092L2.41915 1.61606L2.47791 1.42018L2.57586 1.19491L2.65421 1.04799L2.73256 0.93046L2.8501 0.773751L2.97742 0.636631L3.02639 0.587659L3.15372 0.470127L3.33002 0.342801L3.51611 0.235064L3.7022 0.146915L3.96665 0.0587659L4.13315 0.0195886L4.2213 0ZM9.90201 2.03722L9.54941 2.05681L9.24579 2.09598L8.94216 2.15475L8.64833 2.2331L8.3545 2.33105L8.11944 2.42899L7.92355 2.51714L7.70808 2.63467L7.4926 2.762L7.37507 2.84035L7.20857 2.95788L7.06165 3.07542L6.95392 3.16357L6.85597 3.25171L6.77762 3.32027L6.55235 3.54554V3.56513L6.52297 3.57493L6.43482 3.68266L6.31729 3.81978L6.19975 3.97649L6.06263 4.17238L5.9451 4.36827L5.85695 4.52498L5.7688 4.69148L5.65127 4.95593L5.56312 5.19099L5.48477 5.43585L5.40641 5.74927L5.36724 5.95495L5.32806 6.22919L5.30847 6.47404V7.00294L5.33785 7.32615L5.38682 7.63957L5.45539 7.9334L5.53374 8.20764L5.63168 8.47209L5.71983 8.67777L5.84716 8.94221L5.98428 9.17728L6.08222 9.33399L6.18016 9.47111L6.25852 9.57884L6.38585 9.73555L6.47399 9.84329L6.53276 9.91185H6.55235L6.57194 9.95103L6.807 10.1861L6.88536 10.2547L7.03227 10.382L7.19877 10.5093L7.36528 10.6268L7.5024 10.715L7.69828 10.8325L7.89417 10.9403L8.19779 11.0774L8.48183 11.1851L8.77566 11.2733L9.06949 11.3418L9.35352 11.3908L9.65715 11.4202L9.78447 11.43H10.2056L10.568 11.4006L10.8912 11.3516L11.1753 11.2928L11.5181 11.1949L11.6454 11.1459L11.7433 11.0872L11.8119 11.0284L11.8903 10.9207L11.9392 10.8129L11.9686 10.6856V10.5583L11.9294 10.4016L11.8511 10.2644L11.7825 10.1861L11.6846 10.1175L11.5475 10.0588L11.4887 10.049H11.2732L10.8716 10.1567L10.6268 10.2057L10.3232 10.2449L10.1958 10.2547H9.80406L9.50044 10.2253L9.27517 10.1861L9.00093 10.1175L8.68751 10.0098L8.43286 9.89226L8.22718 9.78452L8.07047 9.68658L7.91376 9.57884L7.77664 9.47111L7.63952 9.35357L7.51219 9.23604L7.42404 9.14789L7.41425 9.12831H7.39466L7.37507 9.08913L7.28692 8.99118L7.17919 8.85406L7.06165 8.68756L6.93433 8.48188L6.79721 8.21743L6.69926 7.98237L6.62091 7.74731L6.56214 7.52204L6.51317 7.26738L6.48379 7.00294L6.47399 6.82664V6.66014L6.49358 6.35651L6.54255 6.04309L6.62091 5.72968L6.69926 5.49461L6.807 5.23996L6.90494 5.04407L7.02248 4.84819L7.10083 4.73066L7.20857 4.58374L7.33589 4.42703L7.44363 4.3095L7.47301 4.28012V4.26053H7.4926L7.65911 4.09403L7.76684 4.00588L7.93335 3.87855L8.16841 3.72184L8.39368 3.59452L8.59936 3.49657L8.85401 3.39863L9.11846 3.32027L9.33394 3.2713L9.59838 3.23213L9.85303 3.21254H10.1273L10.3917 3.23213L10.6562 3.2713L10.9108 3.33007L11.1067 3.38883L11.3222 3.46719L11.5572 3.57493L11.7629 3.68266L11.9196 3.78061L12.0763 3.88834L12.2135 3.99608L12.3408 4.10382L12.4583 4.21156L12.615 4.36827L12.7032 4.476L12.8207 4.62292L12.9382 4.78942L13.0852 5.03428L13.1635 5.18119L13.2517 5.37708L13.3398 5.61214L13.4182 5.87659L13.4671 6.11166L13.5063 6.3859L13.5161 6.51322V6.93438L13.4965 7.11068L13.4573 7.29677L13.3986 7.47307L13.3202 7.62977L13.2419 7.72772L13.1537 7.80607L13.0558 7.85504L12.9774 7.87463H12.8795L12.7619 7.83546L12.6346 7.73751L12.5367 7.60039L12.4583 7.43389L12.3996 7.22821L12.3702 7.0715L12.3506 6.88541L12.3408 6.59158L12.3114 6.33692L12.2624 6.11166L12.1841 5.87659L12.1057 5.70029L11.998 5.50441L11.8707 5.31832L11.7629 5.19099L11.6552 5.07346L11.567 4.98531L11.4299 4.87757L11.3124 4.78942L11.1165 4.67189L10.9598 4.59354L10.7639 4.51518L10.568 4.45642L10.3721 4.41724L10.2056 4.39765L9.94118 4.38785L9.68653 4.40744L9.51023 4.43683L9.26538 4.50539L9.05969 4.58374L8.90299 4.6621L8.79525 4.72086L8.64833 4.8188L8.52101 4.91675L8.32512 5.09305L8.20759 5.22037L8.10965 5.3477L8.04109 5.44564L7.92355 5.64153L7.8354 5.82762L7.75705 6.04309L7.68849 6.31734L7.65911 6.5524V6.93438L7.69828 7.21841L7.74726 7.4143L7.81582 7.61998L7.89417 7.79628L7.98232 7.95299L8.08026 8.0999L8.188 8.23702L8.32512 8.38394L8.41327 8.47209L8.52101 8.56023L8.67772 8.67777L8.82463 8.76592L9.01072 8.86386L9.20661 8.94221L9.46126 9.02057L9.68653 9.05975L9.86283 9.07933H10.1762L10.4211 9.04995L10.666 8.99118L10.8129 8.94221L11.0186 8.85406L11.1851 8.76592L11.3907 8.6288L11.5572 8.49167L11.6258 8.43291V8.41332H11.6454V8.39373L11.6748 8.40353L11.7335 8.48188L11.8413 8.59941L11.8805 8.619V8.63859L12.0176 8.74633L12.1155 8.81489L12.2722 8.90304L12.4094 8.9618L12.615 9.02057L12.8207 9.04995H13.0558L13.2517 9.02057L13.428 8.9716L13.6336 8.88345L13.8001 8.7855L13.9373 8.67777L14.0548 8.57003L14.1234 8.50147L14.2311 8.36435L14.3192 8.23702L14.4172 8.06072L14.5053 7.86484L14.5739 7.65916L14.6327 7.4143L14.6718 7.16944L14.6914 6.93438V6.52302L14.662 6.18022L14.6229 5.91577L14.5641 5.62194L14.4857 5.3477L14.4074 5.11263L14.2997 4.84819L14.1821 4.60333L14.0744 4.39765L13.9373 4.17238L13.8001 3.97649L13.712 3.85896L13.6238 3.75122L13.5161 3.6239L13.4084 3.50637L13.1537 3.25171L13.0754 3.18315L12.9676 3.095L12.8207 2.97747L12.6248 2.84035L12.4583 2.73262L12.2037 2.5857L11.949 2.45837L11.665 2.34084L11.3124 2.22331L11.0969 2.16454L10.8129 2.10578L10.5288 2.0666L10.284 2.04701L10.0391 2.03722H9.90201Z" fill="#091B35"/>
<path d="M18.8145 8.64838L18.8537 8.66797L18.9222 8.74633L19.5197 9.34378L19.4903 9.37316L18.9222 9.6572L18.8341 9.70617H18.8145L18.8047 9.6572V8.66797L18.8145 8.64838Z" fill="#091B35"/>
<path d="M1.16509 8.64838H1.18468L1.19448 9.68658L1.18468 9.70617L1.14551 9.69638L0.920237 9.57884L0.606818 9.42214L0.479492 9.36337L0.489287 9.32419L0.58723 9.23604L1.03777 8.7855L1.04756 8.76592H1.06715L1.08674 8.72674L1.16509 8.64838Z" fill="#091B35"/>
</svg>
