<svg width="68" height="68" viewBox="0 0 68 68" fill="none" xmlns="http://www.w3.org/2000/svg">
<circle cx="34" cy="34" r="34" fill="#A49AF4"/>
<path d="M27.4303 37.1415L27.037 37.1595L26.5313 37.2313L26.1661 37.3212L25.7588 37.465L25.3936 37.6447L25.1408 37.7885L24.8318 38.0041L24.607 38.1839L24.4104 38.3636L24.2418 38.5253L24.0171 38.759L23.7362 39.0825L23.5115 39.3521L23.3148 39.6037L23.2165 39.7474L23.0901 39.9272L22.9637 40.1249L22.8092 40.3765L22.6125 40.7179L22.458 41.0235L22.3316 41.2931L22.1912 41.6166L22.0507 41.958L21.9243 42.3175L21.7838 42.7848L21.6434 43.3239L21.5029 44.0428L21.4046 44.7797L21.3624 45.3009L21.3484 45.5704L21.3344 46.3073V47.17L21.3484 47.3497L21.4186 47.4396L21.4889 47.4935L22.6687 47.5114H46.1815L46.35 47.4935L46.4343 47.4396L46.4483 47.3856H46.4764L46.5045 47.3137L46.5186 47.0262V46.4151L46.5045 45.6962L46.4624 44.9774L46.4062 44.4562L46.3079 43.8271L46.1955 43.288L46.041 42.6949L45.9005 42.2636L45.7601 41.8682L45.5915 41.4728L45.4651 41.1852L45.3387 40.9336L45.1842 40.6461L44.9876 40.3046L44.7909 39.9991L44.6364 39.7654L44.524 39.6037H44.496L44.4679 39.5318L44.1308 39.1005L44.0184 38.9746L43.8639 38.7949L43.7094 38.6332L43.5127 38.4355L43.2599 38.2018L42.979 37.9862L42.7543 37.8244L42.375 37.6088L42.066 37.465L41.7149 37.3392L41.3918 37.2493L40.9985 37.1774L40.83 37.1595H40.0996L39.6923 37.2134L39.2709 37.3032L38.99 37.3931L38.5827 37.5548L37.8944 37.8783L37.3888 38.094L36.7848 38.3276L36.2089 38.5253L35.6892 38.6691L35.1555 38.777L34.6358 38.8488L34.1161 38.8848H33.6104L33.175 38.8488L32.6694 38.777L32.1497 38.6691L31.6159 38.5253L30.9979 38.3097L30.3518 38.0581L29.8602 37.8424L29.3686 37.6088L28.8489 37.3931L28.4275 37.2673L28.0623 37.1954L27.7954 37.1595L27.4303 37.1415Z" fill="#9EAACC"/>
<path d="M40.5784 35.66H40.0424L39.6576 35.6919L39.204 35.7555L38.833 35.835L38.4894 35.9305L38.1183 36.0578L37.7197 36.2169L37.225 36.4237L36.7302 36.6147L36.3179 36.7578L35.8094 36.9169L35.3008 37.0442L34.861 37.1238L34.4625 37.1715L34.2151 37.1874H33.6653L33.2256 37.1556L32.7033 37.076L32.3185 36.9965L31.9062 36.8851L31.2877 36.6783L30.9029 36.5351L30.3394 36.3124L29.9271 36.1373L29.501 35.9782L29.1299 35.8669L28.6352 35.7555L28.3465 35.7078L27.838 35.66H27.2333L26.876 35.6919L26.4362 35.7555L26.0651 35.835L25.6803 35.9464L25.3229 36.0737L24.8969 36.2646L24.5395 36.4555L24.2234 36.6465L23.9073 36.8692L23.605 37.1079L23.4263 37.267L23.2339 37.442L23.0827 37.5852L22.9453 37.7284L22.7941 37.8716L22.6567 38.0307L22.5467 38.142L22.2718 38.4602L22.1756 38.5875L22.0245 38.7784L21.9008 38.9535L21.7496 39.1603L21.6121 39.3671L21.4335 39.6535L21.2136 40.0354L21.0899 40.274L20.9387 40.5763L20.7463 41.0059L20.5676 41.4514L20.4027 41.9446L20.2378 42.5174L20.1003 43.106L20.0041 43.6311L19.9354 44.1402L19.8667 44.8244L19.853 44.8721V48.9928H48V44.8084L47.8901 43.8856L47.8076 43.3765L47.7114 42.8992L47.6014 42.4537L47.4228 41.8491L47.2578 41.3877L47.0792 40.9422L46.8868 40.5127L46.6669 40.0831L46.4195 39.6535L46.2271 39.3512L46.1309 39.208L45.9797 38.9853L45.856 38.8262L45.7598 38.6989L45.5949 38.4762L45.2375 38.0625L45.1276 37.9511L45.0176 37.8238L44.8664 37.6806L44.729 37.5374L44.5366 37.3624L44.3304 37.1715L44.0556 36.9488L43.7944 36.7578L43.4783 36.551L43.176 36.376L42.7774 36.1851L42.3926 36.026L41.994 35.8987L41.5542 35.7873L41.0869 35.7078L40.5784 35.66ZM27.5769 37.6965L27.9342 37.7125L28.3878 37.7761L28.7451 37.8557L29.1024 37.967L29.6247 38.1739L30.1882 38.4125L30.6967 38.6034L31.4114 38.8421L31.7962 38.9535L32.2635 39.0648L32.7995 39.1603L33.363 39.2239L33.6241 39.2398H34.1189L34.6274 39.208L35.1359 39.1444L35.6582 39.0489L36.2217 38.9057L36.8264 38.7148L37.4036 38.508L37.8984 38.3171L38.5718 38.0307L38.9841 37.8875L39.3827 37.792L39.795 37.7284L39.9737 37.7125H40.6884L41.0594 37.7602L41.4443 37.8397L41.8016 37.9511L42.1315 38.0784L42.4476 38.2375L42.6675 38.3648L42.8874 38.508L43.121 38.683L43.3272 38.858L43.5196 39.033L43.712 39.2239L43.8494 39.3671L44.0281 39.5581L44.2755 39.8444V39.8763L44.3167 39.8922L44.4129 40.0194L44.5366 40.1786L44.6878 40.4013L44.8527 40.64L45.0176 40.9104L45.1413 41.1332L45.2788 41.3877L45.4712 41.7855L45.6498 42.231L45.801 42.6606L45.9522 43.1856L46.0759 43.7584L46.1583 44.2834L46.2133 44.7925L46.2408 45.2698L46.2546 45.9063V46.4472L46.2408 46.7018L46.2133 46.7654H46.1858L46.1583 46.829L46.0896 46.8609L45.9247 46.8768H22.9178L21.7633 46.8609L21.6946 46.8131L21.6259 46.7336L21.6121 46.5745V45.8108L21.6259 45.1585L21.6671 44.6016L21.7221 44.1561L21.8046 43.6629L21.9145 43.1697L22.0794 42.5969L22.2444 42.1355L22.423 41.7059L22.6017 41.34L22.7804 41.0059L22.9728 40.6877L23.1652 40.4013L23.3164 40.1945L23.4401 40.0194L23.5363 39.9081L23.6325 39.7808L23.8661 39.5103L23.9761 39.3989L24.196 39.1603L24.3884 38.9853L24.5258 38.858L24.7732 38.6512L25.0343 38.4602L25.2817 38.3011L25.6116 38.1261L25.9414 37.9829L26.34 37.8557L26.6973 37.7761L27.1921 37.7125L27.5769 37.6965Z" fill="#484F69"/>
<path d="M34.5083 18.0417H33.8573L33.2063 18.0945L32.5729 18.2001L32.0098 18.3409L31.482 18.5168L30.9541 18.7455L30.5671 18.9391L30.18 19.1678L29.8633 19.379L29.5993 19.5725L29.353 19.766L29.1419 19.9596L29.0011 20.0827L28.5437 20.5402L28.3853 20.7338L28.1918 20.9625L27.963 21.2792L27.7519 21.5959L27.488 22.0534L27.2416 22.5636L27.0305 23.1091L26.8721 23.6193L26.7314 24.2703L26.6434 24.9037L26.6258 25.2204V26.0122L26.6786 26.5752L26.7666 27.1031L26.8897 27.6309L27.1009 28.2643L27.2064 28.5283L27.4 28.9505L27.5759 29.2848L27.7871 29.6367L27.9806 29.9183L28.1918 30.1998L28.4205 30.4813L28.8076 30.9036L29.0363 31.1323L29.1771 31.2555L29.4058 31.449L29.7577 31.7129L30.18 31.9945L30.4791 32.1704L30.8134 32.3464L31.1829 32.5223L31.6403 32.6982L32.0098 32.8214L32.5729 32.9622L32.9424 33.0325L33.5054 33.1029L33.7517 33.1205H34.5787L35.1065 33.0677L35.7399 32.9622L36.2326 32.839L36.866 32.6279L37.2883 32.4519L37.8513 32.1704L38.256 31.9241L38.5375 31.7305L38.7487 31.5722L39.0302 31.3434L39.2589 31.1323L39.47 30.9388L39.6108 30.798L39.734 30.6572L39.9275 30.4461L40.1211 30.1998L40.3322 29.9183L40.5433 29.6016L40.7017 29.3376L40.8776 29.0209L41.0888 28.5811L41.2823 28.0884L41.4407 27.5781L41.5462 27.1207L41.6166 26.7512L41.687 26.153L41.7046 25.9066V25.238L41.6518 24.6574L41.5462 24.024L41.4055 23.461L41.2295 22.9331L41.036 22.4756L40.8248 22.0358L40.5785 21.6135L40.4026 21.3496L40.2266 21.1032L40.0331 20.8569L39.8395 20.6282L39.6812 20.4522L39.4349 20.1883L39.1709 19.942L38.9246 19.7309L38.6255 19.5021L38.2912 19.2734L37.9569 19.0622L37.5698 18.8511L37.1651 18.6576L36.6725 18.464L36.1798 18.3057L35.652 18.1825L35.1065 18.0945L34.5083 18.0417Z" fill="#9EAACC"/>
<path d="M33.9329 16.4545H33.5565L33.0388 16.4858L32.5054 16.5484L31.9564 16.6424L31.3289 16.799L30.7642 16.9869L30.3249 17.1591L29.7916 17.4097L29.3367 17.6602L28.9915 17.8794L28.7562 18.036L28.317 18.3648L28.1131 18.5371L27.8778 18.7407L27.6738 18.9286L27.3287 19.2731L27.2189 19.3983L27.0307 19.6176L26.8581 19.8368L26.6228 20.15L26.4032 20.4788L26.1679 20.8703L25.9796 21.2148L25.76 21.6689L25.5875 22.0917L25.3992 22.6554L25.258 23.1565L25.1482 23.7045L25.0855 24.1273L25.0541 24.4248L25.0384 24.6754V25.7245L25.0855 26.2413L25.1796 26.852L25.3051 27.3844L25.4463 27.8698L25.6031 28.3239L25.8071 28.8093L26.1051 29.4043L26.262 29.6705L26.4502 29.9681L26.6228 30.2186L26.811 30.4692L27.0307 30.751L27.1875 30.9233L27.2973 31.0485L27.4699 31.2364L27.8307 31.5966L27.9562 31.7062L28.1915 31.9098L28.4111 32.082L28.6151 32.2386L28.9759 32.4891L29.3053 32.6927L29.5876 32.8493L29.9484 33.0372L30.2465 33.1781L30.7171 33.366L31.2818 33.5539L31.6897 33.6636L32.1133 33.7575L32.7094 33.8515L33.3055 33.9141H34.1369L34.78 33.8515L35.3761 33.7575L35.8311 33.6636L36.286 33.5383L36.8037 33.366L37.2272 33.1938L37.6665 32.9902L38.0586 32.7867L38.4194 32.5674L38.7489 32.3482L39.0312 32.1446L39.2822 31.9411L39.4548 31.8002L39.6901 31.5966L39.8156 31.4713L39.9411 31.3617L40.0509 31.2521L40.1607 31.1268L40.3489 30.9233L40.4901 30.751L40.647 30.5631L40.8666 30.2656L41.0548 29.9994L41.2117 29.7488L41.3686 29.4826L41.5568 29.1381L41.7764 28.684L41.9333 28.2926L42.0902 27.8541L42.2157 27.4313L42.3255 26.9772L42.4039 26.5388L42.4667 26.0534L42.498 25.6619V24.7537L42.451 24.1899L42.3569 23.5793L42.2471 23.0782L42.1059 22.5927L41.9647 22.17L41.7451 21.6376L41.5255 21.1834L41.3215 20.8076L41.1176 20.4788L40.9921 20.2909L40.7882 19.9934L40.6313 19.8055L40.5372 19.6802L40.3489 19.461L40.2077 19.2887H40.1764L40.145 19.2261L39.7058 18.7876L39.5803 18.678L39.345 18.4745L39.1253 18.3022L38.8587 18.0986L38.6077 17.9264L38.2626 17.7072L37.9018 17.5036L37.4782 17.2844L37.0076 17.0808L36.584 16.9242L36.1291 16.7833L35.6271 16.658L35.0153 16.5484L34.4663 16.4858L33.9329 16.4545ZM34.0741 18.4745L34.6075 18.5214L35.1722 18.6154L35.6115 18.725L36.1762 18.9129L36.6468 19.1165L36.9605 19.2731L37.3056 19.4766L37.588 19.6645L37.8704 19.8681L38.0429 20.009L38.2782 20.2126L38.5449 20.4631L38.7645 20.698L38.9685 20.9329L39.1724 21.1991L39.2979 21.3714L39.4548 21.6062L39.6116 21.8724L39.7685 22.1543L39.9724 22.5927L40.1293 22.9999L40.2548 23.407L40.3646 23.8768L40.443 24.3622L40.4901 24.8789V25.474L40.443 25.9907L40.3803 26.4135L40.2705 26.8989L40.145 27.3217L40.0038 27.6975L39.8313 28.089L39.6273 28.4805L39.4077 28.8406L39.2195 29.1068L39.0155 29.373L38.843 29.5766L38.7018 29.7332L38.4822 29.9681L38.3724 30.0777L38.2469 30.1873L38.0586 30.3595L37.839 30.5318L37.5566 30.7354L37.2115 30.9546L36.9292 31.1112L36.4899 31.3304L36.0036 31.5183L35.5487 31.6592L35.0938 31.7688L34.6075 31.8471L34.1369 31.8941H33.3996L32.9133 31.8471L32.5211 31.7845L32.1446 31.7062L31.6897 31.5809L31.2191 31.4087L30.8426 31.2364L30.4975 31.0642L30.2936 30.9389L30.0426 30.7823L29.7759 30.5944L29.572 30.4378L29.368 30.2656L29.2425 30.156L29.0857 30.015L28.866 29.7958L28.7562 29.6705L28.5994 29.4983L28.4268 29.2791L28.2072 28.9816L28.0346 28.7154L27.8464 28.3865L27.6581 28.0264L27.517 27.6975L27.3758 27.3061L27.2503 26.8989L27.1405 26.3822L27.0777 25.9594L27.0464 25.5679V24.8633L27.0777 24.4405L27.1562 23.9394L27.266 23.4383L27.4228 22.9372L27.5954 22.4988L27.8464 21.982L28.0503 21.6376L28.2386 21.3557L28.4582 21.0582L28.6307 20.8546L28.7719 20.6824L29.2582 20.1969L29.3837 20.0873L29.5876 19.9151L29.8857 19.6959L30.1681 19.5079L30.4818 19.32L30.9054 19.1008L31.2975 18.9286L31.6113 18.819L32.0191 18.6937L32.427 18.5997L32.9133 18.5214L33.4937 18.4745H34.0741Z" fill="#484F69"/>
</svg>
