<svg width="68" height="68" viewBox="0 0 68 68" fill="none" xmlns="http://www.w3.org/2000/svg">
<circle cx="34" cy="34" r="34" fill="#A49AF4"/>
<path fill-rule="evenodd" clip-rule="evenodd" d="M18.6085 17.8492C18.6085 20.2446 18.6864 19.0422 17.7466 20.9955C15.6578 25.3377 14.0002 31.185 14.0002 36.0652C14.0002 38.3767 13.9835 40.4109 14.2545 42.7211C14.2965 43.0784 14.3523 43.7197 14.4217 44.1598C14.7293 46.1198 14.9297 47.9641 15.2666 49.757L16.8368 57.8811C17.0151 58.8077 16.7854 60 18.0176 60H28.77C29.8419 60 31.6472 55.0021 32.0286 53.8127C32.5612 52.1518 33.3552 49.0213 33.6205 47.1907L33.8167 46.3074C33.8234 46.2902 33.8347 46.2549 33.8509 46.2322C34.578 49.0299 34.5576 50.3439 35.6482 53.8351C36.2265 55.6867 36.8555 57.1219 37.7896 58.7997C38.0891 59.3377 38.2477 60 39.0498 60H49.6842C50.8097 60 50.6326 58.9165 50.8485 57.7601L52.4867 49.2734C54.2684 39.791 54.4523 31.3435 50.5466 22.3717C50.3115 21.8319 50.1234 21.3867 49.8414 20.8858C48.5276 18.552 49.0934 19.0153 49.0934 15.2016C49.0934 13.8083 48.9365 12.2545 49.1617 10.9207C49.4765 9.05679 49.3835 8 47.5573 8H20.2626C17.997 8 18.5089 8.75176 18.4895 12.1311C18.4838 13.1017 18.6085 13.8197 18.6085 14.884C18.6082 15.8725 18.6085 16.8607 18.6085 17.8492Z" fill="#484F69"/>
<path fill-rule="evenodd" clip-rule="evenodd" d="M44.2168 21.2957C43.4833 21.5527 43.2982 23.3156 42.9947 24.4526C42.6822 25.624 42.421 26.7408 42.1164 27.8972C41.4667 30.3619 41.06 32.8666 41.0116 35.5356C40.9528 38.7891 41.5823 43.6225 42.8533 46.6336C43.25 47.5731 44.4384 48.4567 45.8547 47.7812C46.9934 47.2379 47.0323 46.2051 47.4279 44.9511C47.7719 43.861 48.2573 42.8873 48.5994 41.7626C49.3479 39.3019 49.3744 36.4084 49.1634 33.7544C48.9163 30.6459 47.393 26.6656 46.2299 23.6993C46.0126 23.1448 45.8134 22.6983 45.5901 22.1537C45.3577 21.5864 45.0573 21.0011 44.2168 21.2957Z" fill="#FE004F"/>
<path fill-rule="evenodd" clip-rule="evenodd" d="M22.8806 21.3235C22.0126 21.7466 20.5525 26.3522 20.173 27.4066C18.5418 31.9392 17.7694 37.6496 19.3663 42.2693C19.744 43.3622 20.2011 44.348 20.5306 45.4628C20.9075 46.7387 21.1153 47.7587 22.5626 47.9685C24.1152 48.1935 24.7585 47.1916 25.1172 46.1377C27.3359 39.6169 27.2049 33.9042 25.5311 27.3131C25.2448 26.186 24.9326 25.0367 24.65 23.8679C24.4496 23.0399 24.2357 20.6627 22.8806 21.3235Z" fill="#FE004F"/>
<path fill-rule="evenodd" clip-rule="evenodd" d="M27.8376 38.2074C27.4441 39.0231 27.8634 45.1035 25.4625 48.3506C24.3921 49.7979 23.8012 50.436 23.3498 52.5976C22.9694 54.418 23.4688 56.1003 25.6346 56.5579C27.7594 57.0066 29.3432 55.6392 29.5832 54.0579C30.4642 48.2497 30.4605 44.6061 28.533 39.1375C28.3621 38.6528 28.4044 38.2548 27.8376 38.2074Z" fill="#FE014F"/>
<path fill-rule="evenodd" clip-rule="evenodd" d="M39.7591 38.2086C39.2356 38.3046 39.0091 39.4783 38.7197 40.3228C37.1531 44.8955 37.3528 49.3579 38.0836 54.0736C38.6624 57.8091 45.3271 57.5667 44.3234 52.6276C43.914 50.6134 43.2454 49.6904 42.2183 48.3698C39.7124 45.1479 40.2639 38.8224 39.7591 38.2086Z" fill="#FE014F"/>
<path fill-rule="evenodd" clip-rule="evenodd" d="M32.9617 9.02297C32.2685 8.87134 31.1205 8.92731 30.3041 8.92775C29.3613 8.92819 28.7006 9.04655 28.4343 9.7084C28.1943 10.3054 28.3466 13.5371 28.4274 14.3514C28.8044 18.1427 30.0385 20.5745 31.7871 23.6197C32.3612 24.6196 33.0689 24.2835 33.1247 23.5707C33.2383 22.1128 33.1213 20.2049 33.1213 18.6965C33.1213 17.1202 33.3165 9.82564 32.9617 9.02297Z" fill="#9EAACD"/>
<path fill-rule="evenodd" clip-rule="evenodd" d="M34.5439 9.80044V23.3564C34.5439 24.2065 35.1788 24.5616 35.6795 23.9383C36.1779 23.3177 37.6341 20.3655 37.9407 19.6078C39.2963 16.2591 39.3381 13.9344 39.3381 10.4358C39.3381 8.60459 37.6016 8.93077 35.5051 8.93077C34.7008 8.93077 34.5439 9.09496 34.5439 9.80044Z" fill="#9EAACD"/>
<path fill-rule="evenodd" clip-rule="evenodd" d="M31.0154 42.3938C31.3486 41.9731 31.8752 33.1496 31.9793 31.8429C32.2119 28.9211 31.2718 28.6538 29.1908 25.9454C27.9166 24.2867 26.8288 22.4799 27.1905 25.8037L28.0248 33.6398C28.1539 34.8773 29.9772 40.1544 30.6827 41.9768C30.8828 42.4941 30.6679 42.2528 31.0154 42.3938Z" fill="#9EAACD"/>
<path fill-rule="evenodd" clip-rule="evenodd" d="M36.5809 42.3978C36.8549 42.3246 36.7946 42.58 37.1239 41.5384C37.2453 41.1547 37.3813 40.7854 37.5161 40.4083C39.8484 33.882 39.4446 35.4829 40.1887 28.4946C40.2814 27.6245 40.3704 26.7676 40.4641 25.8988C40.5192 25.3877 40.9089 23.3039 39.8676 24.1826L37.2176 27.5379C36.0766 29.0289 35.4754 29.3372 35.6824 31.8162C35.8098 33.34 36.3528 41.6702 36.5809 42.3978Z" fill="#9EAACD"/>
<path fill-rule="evenodd" clip-rule="evenodd" d="M17.4625 30.9596C16.7524 30.9633 16.8313 31.3786 16.6813 32.0054C15.5288 36.8219 15.4098 44.6004 16.9848 49.1661C17.3959 50.358 18.7092 53.5061 19.6886 53.6637C20.9877 53.8726 20.9577 52.3748 21.0031 51.4238C21.1748 47.8365 17.0138 46.5434 17.3457 34.1679C17.3669 33.3749 17.5874 31.5635 17.4625 30.9596Z" fill="#FE014F"/>
<path fill-rule="evenodd" clip-rule="evenodd" d="M50.9438 31.1489L50.8292 31.5112C50.814 31.6212 50.8196 31.8154 50.8228 31.9311C50.9219 35.7119 50.7653 40.224 49.5083 43.7451C48.3575 46.969 46.3987 49.3667 46.4026 51.4212C46.4044 52.3019 46.3008 53.9412 47.6387 53.7194C48.5948 53.561 50.1077 50.4122 50.4904 49.3905C51.1781 47.5544 51.6087 45.6989 51.8519 43.6263C52.1071 41.4523 52.1742 39.1073 52.1128 36.9109C52.067 35.274 51.9227 33.806 51.6168 32.2046C51.5155 31.6734 51.5644 31.0305 50.9438 31.1489Z" fill="#FE014F"/>
<path fill-rule="evenodd" clip-rule="evenodd" d="M40.848 18.4733C41.4838 18.8207 41.6584 18.682 42.0467 18.2064L43.9533 16.2083C44.8317 15.368 46.111 14.0661 46.5052 12.8819C46.8922 11.7193 47.1045 8.65411 44.9895 9.17424C44.1183 9.38868 42.6093 11.5322 42.178 12.2862C41.3968 13.6524 40.4159 16.6875 40.848 18.4733Z" fill="#9EAACD"/>
<path fill-rule="evenodd" clip-rule="evenodd" d="M21.7957 9.23812C20.7364 9.67736 20.8436 11.3001 20.9951 12.2271C21.2628 13.8622 22.9799 15.5553 24.2204 16.7388C24.5526 17.0559 25.8748 18.5665 26.2233 18.6461C27.7721 19 26.6981 13.3361 24.2681 10.5519C23.6052 9.7922 22.8587 8.79733 21.7957 9.23812Z" fill="#9EAACD"/>
<path fill-rule="evenodd" clip-rule="evenodd" d="M50.8034 29.9694C52.0174 28.6821 48.2569 21.1438 47.3821 18.9605C46.7636 17.4165 47.3602 15.5504 46.9813 14.4698C46.4312 14.5143 46.0569 15.3102 45.5142 16.02C45.0232 16.6625 44.5698 17.0894 45.0311 18.1014C46.6166 21.5788 48.1962 24.319 49.7712 28.1494C50.2108 29.2186 50.246 29.9404 50.8034 29.9694Z" fill="#9EAACD"/>
<path fill-rule="evenodd" clip-rule="evenodd" d="M17.2098 29.9859C17.7532 29.8806 17.7883 29.1874 18.2046 28.1838C19.7769 24.3947 21.311 21.6511 22.9415 18.1336C23.5418 16.839 22.7173 16.4123 21.8384 15.1657C21.5933 14.8184 21.4831 14.4955 21.0093 14.4953C20.6232 15.7641 21.2321 17.3646 20.6213 18.9118C19.6593 21.3476 17.495 25.694 17.0971 27.9365C17.0349 28.2878 16.9948 28.6204 16.9791 28.9721C16.9565 29.488 16.8987 29.7413 17.2098 29.9859Z" fill="#9EAACD"/>
</svg>
