<svg width="68" height="68" viewBox="0 0 68 68" fill="none" xmlns="http://www.w3.org/2000/svg">
<circle cx="34" cy="34" r="34" fill="#A49AF4"/>
<path fill-rule="evenodd" clip-rule="evenodd" d="M27.4709 9.74248L17.7312 14.4877C12.012 16.8905 8.76288 19.861 8.76288 27.0067C8.76288 28.7287 9.03791 30.5462 9.36645 31.9567C8.43083 32.5835 7.99681 33.1599 7.31312 34.1284C6.05551 35.9105 5.1415 38.2264 4.91846 40.4253C4.68939 42.6812 4.7135 42.2827 5.61822 43.7949L11.3025 53.2001C11.9899 54.3646 12.8738 54.6789 13.5532 53.288C15.6761 48.9413 15.2788 45.5938 15.3878 45.3312L17.2118 43.0638C17.6584 44.7371 19.3842 44.621 19.3842 48.3758C19.3842 49.4049 18.7331 52.8881 18.5224 54.1538C18.0625 56.9155 18.3664 56.3075 21.8715 57.1157C25.8192 58.0259 30.2363 59 34.3504 59C37.7852 59 42.5286 57.8104 45.9874 57.1185C46.92 56.932 47.9343 56.7996 48.8089 56.5604C49.9748 56.2414 49.6478 55.3103 49.4714 54.2573C48.9221 50.9731 47.8376 47.5864 49.4109 45.0898C49.7741 44.5135 50.6015 43.6763 50.765 43.0638L52.6159 45.4026C52.8045 46.1071 52.2348 49.1586 54.6662 53.7697C54.9239 54.2581 55.1585 54.7744 55.8341 54.7744C56.678 54.7744 56.9021 53.8792 57.3647 53.0458L62.3502 43.9075C63.1839 42.297 63.3047 42.8842 63.0558 40.5486C62.8297 38.4281 61.9549 35.8683 60.7327 34.1797C60.0761 33.2722 59.4967 32.5504 58.6101 31.9567C59.51 28.0934 59.5376 23.262 57.4753 19.8117C56.1415 17.5807 53.5422 15.9406 51.2083 14.8527L40.5059 9.74248C40.5059 5.44375 40.5162 5.42617 37.1246 6.96401C34.9043 7.97073 33.1079 7.93229 30.9192 7.01778C30.4904 6.83864 28.8252 6 28.5569 6C27.0961 6 27.4709 8.29307 27.4709 9.74248Z" fill="#484F69"/>
<path fill-rule="evenodd" clip-rule="evenodd" d="M41.1221 18.0319C39.3046 18.4042 37.0803 19.5491 35.7033 20.3898C34.6776 21.0159 34.7127 21.8234 34.7147 23.2642C34.7162 24.5928 34.7054 25.9239 34.7122 27.2522C34.7268 30.0535 36.5312 29.7435 39.1745 30.6334C43.6687 32.1461 44.9542 33.3691 47.3702 30.4952C49.6659 27.7639 52.4853 28.9229 51.3659 27.2562C48.3797 22.81 50.2705 23.2745 46.7205 20.0652C45.5249 18.9843 43.4447 17.5563 41.1221 18.0319Z" fill="#9EAACC"/>
<path fill-rule="evenodd" clip-rule="evenodd" d="M24.857 18.0485C22.438 18.6879 19.2762 21.3797 18.586 23.4308C17.408 26.9326 15.4222 27.9964 17.0147 28.4021C18.2936 28.7282 18.8625 28.9249 19.7497 29.6578C20.9385 30.6394 22.0223 32.9536 24.654 32.0381C26.5207 31.3886 28.5733 30.6228 30.4491 30.1088C31.7715 29.7463 32.4727 29.7174 32.9635 28.7549C33.4759 27.7501 33.2629 26.2653 33.2629 25.0752C33.2629 21.195 33.8311 21.1855 30.8688 19.6192C29.3695 18.8266 26.8483 17.5219 24.857 18.0485Z" fill="#9EAACC"/>
<path fill-rule="evenodd" clip-rule="evenodd" d="M11.0567 31.5029C12.5203 30.5404 14.9684 28.181 15.9816 26.6203C16.5247 25.7842 16.589 25.294 16.9449 24.3235C17.9649 21.5432 20.4663 18.2889 23.5396 17.76C21.7335 17.0058 19.9029 16.2225 17.4625 16.5162C15.686 16.73 13.334 18.2766 12.625 19.1567C11.4505 20.6146 10.7982 22.1362 10.5649 24.5755C10.422 26.0723 10.4539 30.3301 11.0567 31.5029Z" fill="#9EAACC"/>
<path fill-rule="evenodd" clip-rule="evenodd" d="M44.438 17.7601C47.6043 18.3075 50.0589 21.6729 51.0315 24.3242C51.3766 25.2651 51.4723 25.8181 51.9965 26.6196C52.4845 27.3663 52.9979 27.9313 53.4962 28.5009C53.8582 28.9147 56.353 31.2776 56.9805 31.5339C57.8648 26.9706 57.8661 22.3688 55.4051 19.2248C54.7094 18.3359 52.4006 16.7727 50.6228 16.53C48.1699 16.1954 46.2494 17.0001 44.438 17.7601Z" fill="#9EAACC"/>
<path fill-rule="evenodd" clip-rule="evenodd" d="M16.3706 34.0091C16.3706 32.5203 16.7549 29.5267 15.1595 29.5936C14.8777 29.6051 13.7876 30.4948 13.4571 30.7372C12.8836 31.1575 12.3989 31.4997 11.7516 31.9278C10.9529 32.4562 11.0408 32.7248 10.6477 33.7225C10.1009 35.1101 9.54783 36.4869 9.00028 37.8687C8.18222 39.9339 8.3608 40.6595 8.63081 42.9445C8.89102 45.1479 8.98446 48.6492 12.1613 44.5301C13.8474 42.3435 16.3706 36.7477 16.3706 34.0091Z" fill="#FE014F"/>
<path fill-rule="evenodd" clip-rule="evenodd" d="M52.6235 29.6445C51.6972 29.9465 51.6 30.6243 51.605 31.7142C51.609 32.6049 51.5214 33.9603 51.6874 34.7876C52.3462 38.0676 53.8103 41.9427 55.8167 44.5285C56.3336 45.1948 57.6173 46.7904 58.6027 46.1962C59.2092 45.8304 59.1618 44.5202 59.2434 43.8172C59.861 38.5027 59.5526 39.361 57.4319 33.9819C57.2752 33.5842 57.1471 33.2578 56.9924 32.8516C56.6382 31.9212 55.8232 31.6728 54.4513 30.6849C53.6571 30.1128 53.1196 29.4827 52.6235 29.6445Z" fill="#FE014F"/>
<path fill-rule="evenodd" clip-rule="evenodd" d="M35.201 31.0734C34.3978 31.3932 34.6877 33.17 34.6851 34.7335C34.6801 37.9451 34.7502 36.0218 39.8266 38.0689C41.42 38.7116 41.4376 39.1106 42.4416 37.7551C42.9135 37.118 43.6067 35.9776 43.765 34.9636C44.0239 33.3019 42.8191 33.4569 41.5002 33.015C40.6238 32.7213 35.6828 30.8814 35.201 31.0734Z" fill="#9EAACC"/>
<path fill-rule="evenodd" clip-rule="evenodd" d="M33.073 31.1826C32.1758 30.8351 30.9356 31.5177 30.0015 31.831L25.2732 33.3849C24.5387 33.5638 24.1866 33.6138 24.174 34.4871C24.1532 35.9363 25.6919 38.3344 26.3627 38.6216C26.7465 38.7856 27.3865 38.358 27.7907 38.1932C32.3843 36.3219 33.2521 37.7053 33.234 35.2187C33.2252 33.9867 33.3928 32.1712 33.073 31.1826Z" fill="#9EAACC"/>
<path fill-rule="evenodd" clip-rule="evenodd" d="M35.3477 45.0848C34.4533 45.3257 34.7148 46.232 34.7148 47.7721C34.7148 48.8989 34.7171 50.0259 34.7145 51.1528C34.712 52.3808 34.49 53.1876 35.9116 53.1976C36.6772 53.2029 38.573 53.3174 39.1163 53.0232C39.9198 52.5881 39.8234 51.509 39.8224 50.4282C39.8201 47.8718 40.3114 45.2403 38.5394 45.0599C38.1149 45.0165 35.6316 45.0082 35.3477 45.0848Z" fill="#9EAACC"/>
<path fill-rule="evenodd" clip-rule="evenodd" d="M29.3177 45.0825C28.2231 45.3142 28.1488 46.1254 28.154 47.2892C28.1593 48.4152 28.1578 49.5433 28.155 50.6696C28.1488 53.1639 28.3841 53.4076 32.3049 53.1956C33.5585 53.1277 33.2631 51.9751 33.2624 50.9111C33.2619 49.7842 33.2621 48.6574 33.2624 47.5306C33.2626 46.447 33.5535 45.178 32.5091 45.0554C32.1313 45.0109 29.6101 45.0207 29.3177 45.0825Z" fill="#9EAACC"/>
<path fill-rule="evenodd" clip-rule="evenodd" d="M34.7147 38.9591C34.7147 39.9904 34.5384 43.0289 34.9013 43.8203C36.3121 44.0384 37.7531 43.9231 39.1783 43.9188C39.9712 43.9188 40.2266 43.8397 40.5416 43.341C40.735 43.0347 41.1088 42.3621 41.1879 42.0528C41.6922 40.0809 38.7081 38.8216 37.2508 38.3511C36.7939 38.2036 36.1712 38.041 35.6621 38.0056C34.8373 37.9481 34.7147 38.1651 34.7147 38.9591Z" fill="#9EAACC"/>
<path fill-rule="evenodd" clip-rule="evenodd" d="M33.0751 43.819C33.3945 43.1244 33.3986 38.7706 33.0728 38.0855C31.1116 37.6187 27.2313 39.7123 26.8169 40.9642C26.5449 41.7855 27.1592 43.802 28.4337 43.9125C29.2668 43.9851 32.425 43.972 33.0751 43.819Z" fill="#9EAACC"/>
<path fill-rule="evenodd" clip-rule="evenodd" d="M40.0539 11.7835C39.5343 12.0475 39.5704 11.9973 39.3188 12.8992C39.1746 13.4158 39.0354 13.8537 38.8453 14.3594C38.5502 15.1451 37.6299 16.4915 38.3733 17.0696C39.0492 17.5949 43.6055 16.4473 44.7006 16.244C45.492 16.0973 47.4095 16.0488 47.4645 15.284C47.5137 14.5986 45.852 14.1115 45.2421 13.8148C43.8609 13.1427 40.9227 11.3423 40.0539 11.7835Z" fill="#9EAACC"/>
<path fill-rule="evenodd" clip-rule="evenodd" d="M26.973 11.7489L20.7103 14.8226C19.4158 15.9756 23.4129 16.2592 24.3013 16.427L29.0457 17.2589C30.8872 17.1906 29.2026 14.6731 28.8241 13.4611C28.5152 12.4725 28.362 11.2296 26.973 11.7489Z" fill="#9EAACC"/>
<path fill-rule="evenodd" clip-rule="evenodd" d="M29.402 8.7845C28.3745 10.6922 30.7471 15.312 31.7678 17.0335C32.0745 17.5508 32.7881 19.11 33.5848 18.5196C34.1539 18.098 33.3864 16.4948 33.1814 15.8625C32.7034 14.3879 32.0253 11.7509 31.16 10.6412C30.5582 9.86936 29.981 8.77923 29.402 8.7845Z" fill="#9EAACC"/>
<path fill-rule="evenodd" clip-rule="evenodd" d="M42.6909 47.2893L42.7168 49.7356C42.7773 49.7446 42.8243 49.7233 42.8371 49.7529C42.8853 49.8652 43.3035 49.6497 43.4595 49.522C43.6893 49.3346 43.7858 49.1924 44.0199 48.9959C46.4839 46.9272 46.4288 45.9039 46.3005 41.9773L46.2658 41.4499C45.655 41.272 45.4598 41.9705 45.0303 42.3999C43.6788 43.751 42.6909 45.0196 42.6909 47.2893Z" fill="#9EAACC"/>
<path fill-rule="evenodd" clip-rule="evenodd" d="M38.5747 8.78506C38.1857 8.7813 38.2055 8.84662 38.0134 9.05967C37.8267 9.26619 37.7597 9.39935 37.5989 9.61064C35.686 12.1268 35.8854 12.4992 34.7961 15.863C34.5786 16.5343 33.8311 18.1041 34.392 18.5196C35.1937 19.1138 35.9131 17.5338 36.2099 17.0346C37.2315 15.3173 39.597 10.6832 38.5747 8.78506Z" fill="#9EAACC"/>
<path fill-rule="evenodd" clip-rule="evenodd" d="M21.7511 41.4538L21.6772 44.7539C21.6805 46.5402 22.269 47.4673 23.3528 48.5087L25.2258 49.7335C25.4933 47.7507 25.3097 45.2104 24.1442 43.7323L23.0105 42.455C22.5526 41.999 22.3155 41.2729 21.7511 41.4538Z" fill="#9EAACC"/>
<path fill-rule="evenodd" clip-rule="evenodd" d="M42.7799 55.2787C43.3699 55.4447 43.4111 55.2799 44.2653 54.4325C45.7585 52.9512 46.8459 51.406 46.2079 48.9504C45.3569 48.7406 43.927 50.438 43.4026 51.0337C42.6111 51.9321 42.4589 53.9928 42.7799 55.2787Z" fill="#9EAACC"/>
<path fill-rule="evenodd" clip-rule="evenodd" d="M21.6772 49.7038C21.6772 52.9456 22.2507 52.8217 24.2791 54.9487C25.5084 56.2376 25.2863 54.357 25.2863 53.2049C25.2863 51.2688 24.1397 50.5678 22.7196 49.2604C22.1449 48.7313 21.6772 48.5602 21.6772 49.7038Z" fill="#9EAACC"/>
<path fill-rule="evenodd" clip-rule="evenodd" d="M7.55611 44.8825C7.77839 44.4629 7.62694 40.3086 7.77337 39.3002C7.9728 37.9254 9.26432 35.4514 9.25201 34.9766C7.87334 35.0728 6.72699 38.1791 6.45196 39.4125C6.06013 41.1679 5.89788 42.3668 6.71117 43.9077C7.18312 44.8021 7.04045 44.8566 7.55611 44.8825Z" fill="#FE014F"/>
<path fill-rule="evenodd" clip-rule="evenodd" d="M60.4207 44.8831C60.9145 44.8577 60.6068 45.1655 61.2676 43.9103C61.4799 43.5075 61.6743 43.0787 61.768 42.6222C62.2201 40.4185 60.5116 35.1045 58.7228 34.9754C58.7097 35.7424 59.8802 37.1052 60.1991 39.2867C60.3506 40.3223 60.1969 44.4592 60.4207 44.8831Z" fill="#FE014F"/>
<path fill-rule="evenodd" clip-rule="evenodd" d="M54.0341 43.4125C54.0783 43.2839 52.3058 39.3897 51.9107 38.1762C51.6779 37.4617 51.7633 37.5591 51.489 37.3715C50.9186 38.2196 51.7065 40.2924 52.074 41.027C52.4959 41.8707 53.3931 43.3932 53.9736 43.4249C53.9824 43.4254 54.0158 43.4216 54.0341 43.4125Z" fill="#FE014F"/>
<path fill-rule="evenodd" clip-rule="evenodd" d="M13.9438 43.4115L14.4246 43.1879C15.8324 41.9611 17.1809 38.3983 16.4874 37.3715C16.2533 37.5338 16.2822 37.5076 16.0949 38.0845L15.1954 40.4444C14.9807 40.9587 13.8609 43.1764 13.9438 43.4115Z" fill="#FE014F"/>
</svg>
