<?xml version="1.0" encoding="UTF-8"?>
<!DOCTYPE svg PUBLIC "-//W3C//DTD SVG 1.1//EN" "http://www.w3.org/Graphics/SVG/1.1/DTD/svg11.dtd">
<!-- Creator: CorelDRAW 2020 (64-Bit) -->
<svg xmlns="http://www.w3.org/2000/svg" xml:space="preserve" width="1635px" height="1511px" version="1.1" style="shape-rendering:geometricPrecision; text-rendering:geometricPrecision; image-rendering:optimizeQuality; fill-rule:evenodd; clip-rule:evenodd"
viewBox="0 0 2195.57 2030.14"
 xmlns:xlink="http://www.w3.org/1999/xlink"
 xmlns:xodm="http://www.corel.com/coreldraw/odm/2003">
 <defs>
  <style type="text/css">
   <![CDATA[
    .fil11 {fill:#FEFEFE;fill-rule:nonzero}
    .fil30 {fill:#FAB27A;fill-rule:nonzero}
    .fil20 {fill:#F6926E;fill-rule:nonzero}
    .fil24 {fill:#F1F3F4;fill-rule:nonzero}
    .fil1 {fill:#EDEDEB;fill-rule:nonzero}
    .fil17 {fill:#E5E6E5;fill-rule:nonzero}
    .fil18 {fill:#E28A6A;fill-rule:nonzero}
    .fil21 {fill:#C8775B;fill-rule:nonzero}
    .fil15 {fill:#CECFCF;fill-rule:nonzero}
    .fil37 {fill:#C9CACB;fill-rule:nonzero}
    .fil35 {fill:#BEC3C5;fill-rule:nonzero}
    .fil26 {fill:#313D42;fill-rule:nonzero}
    .fil22 {fill:#2E373B;fill-rule:nonzero}
    .fil29 {fill:#091B35;fill-rule:nonzero}
    .fil10 {fill:#091B35;fill-rule:nonzero}
    .fil32 {fill:#102645;fill-rule:nonzero}
    .fil19 {fill:#303B3F;fill-rule:nonzero}
    .fil8 {fill:#313F44;fill-rule:nonzero}
    .fil14 {fill:#3B6BB2;fill-rule:nonzero}
    .fil13 {fill:#4B7ABC;fill-rule:nonzero}
    .fil33 {fill:#887EF1;fill-rule:nonzero}
    .fil34 {fill:#887EF1;fill-rule:nonzero}
    .fil36 {fill:#9088F1;fill-rule:nonzero}
    .fil28 {fill:#9088F1;fill-rule:nonzero}
    .fil39 {fill:#999EA0;fill-rule:nonzero}
    .fil40 {fill:#BEC3C5;fill-rule:nonzero}
    .fil16 {fill:#C97A5F;fill-rule:nonzero}
    .fil25 {fill:#DCF881;fill-rule:nonzero}
    .fil31 {fill:#E09460;fill-rule:nonzero}
    .fil7 {fill:#E0E1E2;fill-rule:nonzero}
    .fil3 {fill:#E8E7E8;fill-rule:nonzero}
    .fil6 {fill:#EDEDEB;fill-rule:nonzero}
    .fil4 {fill:#F1F1F0;fill-rule:nonzero}
    .fil5 {fill:#F3F4F4;fill-rule:nonzero}
    .fil38 {fill:#F68D4A;fill-rule:nonzero}
    .fil12 {fill:#F69775;fill-rule:nonzero}
    .fil9 {fill:#F7F7F7;fill-rule:nonzero}
    .fil23 {fill:#F7F7F7;fill-rule:nonzero}
    .fil2 {fill:#F9F8F8;fill-rule:nonzero}
    .fil27 {fill:#FAB27A;fill-rule:nonzero}
    .fil0 {fill:white;fill-rule:nonzero}
   ]]>
  </style>
 </defs>
 <g id="Layer_x0020_1">
  <metadata id="CorelCorpID_0Corel-Layer"/>
  <polygon class="fil0" points="0,0 1051.63,0 1051.63,1756.06 0,1756.06 "/>
  <polygon class="fil1" points="1493.37,1905.58 1542.02,1905.58 1542.02,1904.18 1493.37,1904.18 "/>
  <polygon class="fil2" points="47.58,61.14 47.58,1693.64 473.69,1693.64 140.93,61.14 "/>
  <polygon class="fil2" points="450.42,79.44 783.18,1711.95 1006.96,1711.95 1006.96,79.44 "/>
  <polygon class="fil3" points="37.71,81.84 1007.74,81.84 1007.74,40.44 37.71,40.44 "/>
  <polygon class="fil3" points="37.71,1720.76 1007.74,1720.76 1007.74,1679.36 37.71,1679.36 "/>
  <path class="fil4" d="M971.47 40.44l-891.3 0 0 1675.18 891.3 0 0 -1675.18zm-971.47 -40.44l1051.63 0 0 1756.06 -1051.63 0 0 -1756.06z"/>
  <polygon class="fil5" points="2146.1,1803.9 2146.1,1775.14 1776.55,1775.14 1776.55,1803.9 1727.53,1803.9 1811.31,1405.15 2111.79,1405.15 2195.57,1803.9 "/>
  <path class="fil6" d="M2119.11 1426.65l-315.13 0c-11.87,0 -21.49,-9.62 -21.49,-21.5 0,-11.87 9.62,-21.48 21.49,-21.48l315.13 0c11.87,0 21.49,9.61 21.49,21.48 0,11.88 -9.62,21.5 -21.49,21.5z"/>
  <path class="fil7" d="M2003.78 1538.91l-84.47 0c-11.88,0 -21.5,-9.62 -21.5,-21.49 0,-11.87 9.62,-21.49 21.5,-21.49l84.47 0c11.87,0 21.5,9.62 21.5,21.49 0,11.87 -9.63,21.49 -21.5,21.49z"/>
  <path class="fil5" d="M2172.58 1966.77c0,35 -485.82,63.37 -1085.12,63.37 -599.29,0 -1085.11,-28.37 -1085.11,-63.37 0,-35 485.82,-63.37 1085.11,-63.37 599.3,0 1085.12,28.37 1085.12,63.37z"/>
  <path class="fil8" d="M1262.65 1594.15c-33.13,0 -53.82,21.45 -62.14,41.52 -8.31,20.08 -8.85,49.88 14.58,73.31l37.29 37.29c12.71,12.71 29.6,19.7 47.57,19.7 17.96,0 34.85,-6.99 47.57,-19.7l37.28 -37.29c23.44,-23.43 22.9,-53.23 14.59,-73.31 -8.32,-20.07 -29.01,-41.52 -62.15,-41.52l-74.59 0zm37.3 216.66c-29.95,0 -58.09,-11.66 -79.27,-32.83l-37.29 -37.3c-32.67,-32.66 -41.99,-79.48 -24.3,-122.16 17.68,-42.69 57.36,-69.2 103.56,-69.2l74.59 0c46.2,0 85.89,26.51 103.57,69.2 17.68,42.68 8.37,89.5 -24.3,122.16l-37.3 37.3c-21.17,21.17 -49.32,32.83 -79.26,32.83z"/>
  <path class="fil8" d="M1473.41 1860.9c0,99.43 -76.57,111.12 -171.02,111.12 -94.45,0 -171.03,-11.69 -171.03,-111.12 0,-99.44 76.58,-180.05 171.03,-180.05 94.45,0 171.02,80.61 171.02,180.05z"/>
  <path class="fil9" d="M1949.55 1370.89l-374.59 0c-31.09,0 -54.81,-24.1 -54.79,-54.65 0,-1.37 0.04,-2.75 0.14,-4.15l1.85 -26.37 492.13 0 14.44 -206.56 -492.13 0 1.85 -26.54 492.14 0 14.44 -206.55 -492.15 0 1.86 -26.54 492.14 0 7.63 -109.06 -42.04 601.62c-2.28,32.49 -30.47,58.8 -62.92,58.8z"/>
  <path class="fil9" d="M2061.33 612.98l-492.16 0 12.44 -177.99 1.29 -18.19c2.28,-32.44 30.43,-58.8 62.88,-58.8l97.38 0c6.4,0 11.43,4.74 11.8,11.11l0.19 3.01c0.88,15.43 13.23,27.04 28.77,27.04l92.53 0c15.62,0 29.59,-11.61 32.6,-27.04l0.59 -3.01c1.29,-6.37 7.02,-11.11 13.38,-11.11l97.35 0c31.09,0 54.84,24.13 54.83,54.66 0,1.36 -0.05,2.75 -0.15,4.14l-1.28 18.19 -12.45 177.99 0.01 0z"/>
  <polygon class="fil10" points="1624.91,399 1632.79,399 1633.34,391.13 1625.46,391.13 "/>
  <polygon class="fil10" points="1641.22,391.13 1640.66,399 1648.54,399 1649.09,391.13 1649.65,383.25 1641.77,383.25 "/>
  <polygon class="fil10" points="1658.07,375.37 1657.52,383.25 1656.97,391.13 1656.42,399 1664.3,399 1664.85,391.13 1665.4,383.25 1665.95,375.37 "/>
  <path class="fil10" d="M2010.97 393.23l-11.55 0 0.81 -11.56 11.55 0 -0.81 11.56zm-14.19 -17.33l-0.4 5.77 -3.85 0 -0.82 11.56 3.86 0 -0.4 5.77 34.66 0 1.61 -23.1 -34.66 0z"/>
  <path class="fil10" d="M2019.12 438.22c-0.27,3.87 -3.63,7.01 -7.49,7.01 -3.88,0 -6.79,-3.14 -6.52,-7.01 0.27,-3.87 3.62,-7 7.5,-7 3.86,0 6.78,3.13 6.51,7z"/>
  <path class="fil10" d="M2017.92 455.33c-0.27,3.87 -3.62,7 -7.49,7 -3.87,0 -6.79,-3.13 -6.52,-7 0.27,-3.87 3.63,-7.01 7.5,-7.01 3.87,0 6.79,3.14 6.51,7.01z"/>
  <path class="fil10" d="M2016.73 472.43c-0.27,3.88 -3.63,7.01 -7.5,7.01 -3.87,0 -6.79,-3.13 -6.51,-7.01 0.27,-3.86 3.62,-7 7.49,-7 3.87,0 6.79,3.14 6.52,7z"/>
  <path class="fil10" d="M1654.32 457.38l-35.53 0c-1.55,0 -2.81,-1.26 -2.81,-2.81 0,-1.55 1.26,-2.81 2.81,-2.81l35.53 0c1.55,0 2.81,1.26 2.81,2.81 0,1.55 -1.26,2.81 -2.81,2.81z"/>
  <path class="fil10" d="M1626.68 472.13c-0.75,0 -1.5,-0.3 -2.06,-0.89l-15.07 -16.21 17.19 -16.07c1.13,-1.05 2.91,-1 3.97,0.14 1.06,1.13 1,2.9 -0.13,3.96l-13.1 12.25 11.26 12.1c1.05,1.13 0.99,2.91 -0.15,3.97 -0.54,0.51 -1.22,0.75 -1.91,0.75z"/>
  <polygon class="fil0" points="2046.88,819.53 1554.72,819.53 1569.17,612.98 2061.33,612.98 "/>
  <polygon class="fil11" points="1775.69,631.15 1763.77,801.5 1576.73,801.5 1588.64,631.15 "/>
  <path class="fil10" d="M1608.88 520.57l-0.76 10.78 10.29 0c5.02,0 7.99,-1.78 8.24,-5.36 0.26,-3.63 -2.46,-5.42 -7.49,-5.42l-10.28 0zm18.62 22.08c0.27,-3.92 -2.56,-5.65 -8.04,-5.65l-11.73 0 -0.79 11.29 11.73 0c5.48,0 8.55,-1.73 8.83,-5.64zm7.26 0.72c-0.47,6.71 -5.99,10.62 -16.04,10.62l-19.44 0 2.74 -39.12 18.32 0c9.38,0 14.13,3.97 13.7,10.17 -0.28,4.03 -2.5,6.99 -5.63,8.61 4.09,1.34 6.71,4.63 6.35,9.72z"/>
  <polygon class="fil10" points="1671.54,547.9 1671.12,553.99 1641.8,553.99 1644.53,514.87 1673.07,514.87 1672.65,520.96 1651.37,520.96 1650.66,531.13 1669.53,531.13 1669.12,537.11 1650.24,537.11 1649.48,547.9 "/>
  <polygon class="fil10" points="1697.38,514.87 1704.64,514.87 1702.33,547.84 1722.77,547.84 1722.35,553.99 1694.64,553.99 "/>
  <polygon class="fil10" points="1757.85,547.9 1757.43,553.99 1728.1,553.99 1730.84,514.87 1759.38,514.87 1758.96,520.96 1737.67,520.96 1736.96,531.13 1755.84,531.13 1755.43,537.11 1736.55,537.11 1735.79,547.9 "/>
  <path class="fil10" d="M1789.52 539.24l-6.18 -17.1 -8.51 17.1 14.69 0zm2 5.7l-19.54 0 -4.49 9.05 -7.49 0 20.33 -39.12 7.15 0 14.91 39.12 -7.59 0 -3.28 -9.05z"/>
  <polygon class="fil10" points="1844.85,514.87 1842.12,553.99 1836.14,553.99 1816.44,527.5 1814.58,553.99 1807.37,553.99 1810.11,514.87 1816.09,514.87 1835.79,541.36 1837.65,514.87 "/>
  <polygon class="fil0" points="2030.59,1052.62 1538.42,1052.62 1552.86,846.07 2045.03,846.07 "/>
  <polygon class="fil11" points="1759.43,863.61 1747.52,1033.97 1560.47,1033.97 1572.39,863.61 "/>
  <path class="fil12" d="M1644.04 900.97c0,0 -9.3,4.05 -13.6,2.38 -4.3,-1.66 -8,-15.1 -8,-15.1l-2.6 -3.78c-0.35,-0.52 -0.3,-1.25 0.14,-1.77l2.59 -3.08c0.36,-0.44 0.9,-0.71 1.46,-0.73l0.15 0c1.08,-0.05 1.91,0.83 1.81,1.9l-0.43 4.7c0,0 6.32,11.4 9.1,11.21 2.79,-0.18 7.45,-2.07 7.45,-2.07l1.93 6.34z"/>
  <path class="fil12" d="M1653.37 894.02c0.18,2 -4.01,7.22 -15.8,9.1l-0.49 -6.83c0,0 15.64,-9.42 16.29,-2.27z"/>
  <path class="fil13" d="M1626.41 880.01c1.07,1.49 2.87,2.01 4.01,1.16 1.14,-0.85 1.19,-2.75 0.12,-4.25 -1.08,-1.49 -2.87,-2.01 -4.01,-1.16 -1.14,0.85 -1.2,2.76 -0.12,4.25z"/>
  <path class="fil14" d="M1629.14 881.58c-0.68,0 -1.41,-0.29 -2.04,-0.81 0.74,-0.88 1.08,-1.58 0.84,-1.91 -0.09,-0.12 -0.26,-0.18 -0.49,-0.18 -0.37,0 -0.9,0.15 -1.54,0.42 -0.38,-0.96 -0.35,-1.96 0.07,-2.7 0.22,-0.11 0.45,-0.16 0.71,-0.16 0.88,0 1.96,0.64 2.74,1.73 0.85,1.17 1.08,2.52 0.69,3.38 -0.3,0.15 -0.63,0.23 -0.98,0.23z"/>
  <path class="fil13" d="M1618.38 886c0.47,0.65 2.98,-0.43 5.62,-2.4 2.64,-1.98 4.4,-4.09 3.94,-4.74 -0.46,-0.63 -2.97,0.44 -5.61,2.41 -2.64,1.97 -4.41,4.09 -3.95,4.73z"/>
  <path class="fil14" d="M1618.88 886.19c-0.23,0 -0.4,-0.06 -0.5,-0.19l0 0c0,0 0,0 0,-0.01l0 0c-0.3,-0.44 0.44,-1.58 1.79,-2.89l0.75 0.8 0.63 1.3c-1.14,0.63 -2.1,0.99 -2.67,0.99z"/>
  <path class="fil13" d="M1615.69 888.02c1.08,1.49 2.87,2.01 4.01,1.16 1.14,-0.85 1.2,-2.76 0.13,-4.25 -1.08,-1.49 -2.87,-2.02 -4.02,-1.16 -1.14,0.85 -1.19,2.75 -0.12,4.25z"/>
  <path class="fil15" d="M1646.28 900.68c0.37,-0.17 0.72,-0.33 1.06,-0.5 0,0 0,0 0,0.01 -0.34,0.16 -0.69,0.33 -1.06,0.49z"/>
  <path class="fil16" d="M1644 901.5c0.5,-5.95 2.76,-7.54 3.89,-7.96 -0.49,1.62 -0.62,3.91 -0.55,6.64 -0.34,0.17 -0.69,0.33 -1.06,0.5 -0.69,0.28 -1.44,0.56 -2.28,0.82z"/>
  <path class="fil12" d="M1657.34 961.26l-5.52 14.13c0,0 0.65,5.26 -0.84,11.99 -1.5,6.72 -9.8,42.11 -9.8,42.11l-4.41 0.53c0,0 3.82,-45.36 5.42,-55.18 1.61,-9.81 3.17,-16.83 3.17,-16.83l11.98 3.25z"/>
  <path class="fil12" d="M1664.77 950.08c0,0 0.87,17.51 1.49,26.79 0.76,11.49 10.38,29.36 19.68,51.33l4.19 -1.38c0,0 -8.64,-46.94 -13.72,-51.83l0.62 -27.69 -12.26 2.78z"/>
  <polygon class="fil17" points="1676.56,968.42 1676.77,959.09 1678.02,958.78 1678.83,968.02 "/>
  <path class="fil18" d="M1667.73 970c-1.26,-5.56 -1.69,-8.21 -1.69,-8.21l10.73 -2.7 -0.21 9.33 -8.83 1.58z"/>
  <path class="fil8" d="M1666.35 946.17c0,0 -3.76,3.27 -4.86,5.91 -0.95,2.27 -10.53,48.3 -13.24,61.35 -0.38,1.87 -2.24,3.14 -4.08,2.8l-5.51 -1c-1.67,-0.31 -2.74,-1.84 -2.47,-3.55 1.95,-12.43 9.39,-59.52 11.13,-67.75 2.02,-9.5 3.46,-15.13 3.36,-15.94l22.8 -1.92c0,0 3.4,16.62 -7.13,20.1z"/>
  <path class="fil17" d="M1661.5 952.05c0,-0.01 0,-0.01 0,-0.01 0,0 0,0 0,0.01zm0.01 -0.04l0.01 0 -0.01 0zm0.02 -0.02c0,-0.01 0,-0.01 0,-0.01 0,0 0,0 0,0.01zm0.01 -0.03c0,-0.01 0,-0.01 0,-0.01 0,0 0,0 0,0.01zm0.01 -0.03c0.01,0 0.01,-0.01 0.01,-0.01 0,0 0,0.01 -0.01,0.01zm0.02 -0.03c0,-0.01 0,-0.01 0,-0.01 0,0 0,0 0,0.01zm0.01 -0.04c0,0 0,0 0,-0.01 0,0.01 0,0.01 0,0.01zm0.01 -0.03c0,0 0,0 0.01,-0.01 -0.01,0.01 -0.01,0.01 -0.01,0.01zm0.02 -0.03c0,0 0,0 0,0 0,0 0,0 0,0zm4.42 -5.35c0.13,-0.11 0.23,-0.19 0.28,-0.24l0 0c-0.05,0.05 -0.15,0.13 -0.28,0.24z"/>
  <path class="fil19" d="M1659.95 955.96c-1.02,-9.56 0.64,-20.07 0.64,-20.07l2.62 0.89 3.1 9.43c-0.05,0.05 -0.15,0.13 -0.28,0.24 -0.89,0.82 -3.41,3.23 -4.42,5.35 0,0 0,0 0,0 0,0.01 -0.01,0.02 -0.01,0.02 -0.01,0.01 -0.01,0.01 -0.01,0.01 0,0.01 0,0.02 -0.01,0.02 0,0.01 0,0.01 0,0.01 0,0.01 -0.01,0.02 -0.01,0.03 0,0 0,0 0,0.01 -0.01,0 -0.01,0.01 -0.01,0.02 0,0 0,0.01 -0.01,0.01 0,0 -0.01,0.01 -0.01,0.02 0,0 0,0 0,0.01 -0.01,0.01 -0.01,0.01 -0.01,0.02 0,0 0,0 0,0.01 -0.01,0 -0.01,0.01 -0.01,0.02l-0.01 0c0,0.02 -0.01,0.02 -0.01,0.03 0,0 0,0 0,0.01 -0.01,0.01 -0.01,0.02 -0.01,0.03l0 0c-0.29,0.67 -0.85,2.11 -1.54,3.88z"/>
  <path class="fil8" d="M1660.86 928.06c0,0 -4.32,7.83 0.63,24.02 0.69,2.27 0.47,8.43 3.67,23.76 2.07,9.86 9.29,29.17 10.37,34.4 0.49,2.33 2.72,3.75 5.13,3.28l4.03 -0.8c2.64,-0.51 4.46,-3.12 3.97,-5.69l-9.22 -32.18 -1.66 -25c0,0 2.56,-16.7 -2.23,-23.27l-14.69 1.48z"/>
  <path class="fil13" d="M1636.89 1029.01l4.56 -0.08 0.39 0.32 1.34 4.36 -0.59 0.84 -0.15 0.01c-1.89,-0.03 -3.56,-0.13 -5.91,-0.13 -2.78,0 -2.1,0.33 -5.37,0.38 -1.97,0.02 -2.17,-2.22 -1.33,-2.32 3.85,-0.48 4.33,-1.63 5.9,-3l1.16 -0.38z"/>
  <path class="fil13" d="M1685.62 1027.26l4.44 -1.38 0.47 0.2 2.55 3.7 -0.33 0.96 -0.14 0.06c-1.86,0.51 -3.53,0.88 -5.83,1.55 -2.71,0.8 -1.95,0.92 -5.14,1.89 -1.92,0.59 -2.75,-1.46 -1.96,-1.8 3.63,-1.55 3.76,-2.76 4.91,-4.49l1.03 -0.69z"/>
  <path class="fil13" d="M1676.3 927.43c0,0 -5.2,0.46 -26.21,1.68 0,0 -0.79,-5.39 -1.63,-14.63 -0.95,-10.53 -2.2,-20.22 0.48,-22.84 3.03,-2.97 16.47,-2.56 22.66,-2.54 1.99,0.01 3.54,1.52 3.59,3.5l1.11 34.83z"/>
  <path class="fil12" d="M1658.02 897.18c0,0 -3.71,-5.44 -2.44,-7.63 2.86,-0.34 6.18,-0.44 9.26,-0.47 -0.08,1.03 -0.93,3.72 -6.82,8.1z"/>
  <path class="fil12" d="M1658.01 895.62l-2.36 -4.66c2.14,-1.45 1.74,-2.77 0.81,-4.76l5.18 -6.71c-0.03,3.31 0.21,8.09 2.85,9.63 0,0 0.08,0.54 -0.4,1.57l-6.08 4.93z"/>
  <path class="fil15" d="M1657.09 887.82c-0.12,-0.48 -0.34,-0.99 -0.6,-1.56 0.26,0.57 0.48,1.08 0.6,1.56l0 0zm-0.6 -1.56c-0.02,-0.02 -0.02,-0.04 -0.03,-0.06l0 0c0.01,0.02 0.01,0.04 0.03,0.06zm5.27 -3.32c-0.02,-0.21 -0.04,-0.42 -0.05,-0.64 0,0 0,0 0,0l0.05 0.64 0 0z"/>
  <path class="fil16" d="M1657.09 887.82c-0.12,-0.48 -0.34,-0.99 -0.6,-1.56l0 0c-0.02,-0.02 -0.02,-0.04 -0.03,-0.06l3.25 -4.21c0.6,0.2 1.65,-0.04 2,0.31 0.01,0.22 0.03,0.43 0.05,0.64 -0.38,1.64 -2.62,4.05 -4.67,4.88z"/>
  <path class="fil12" d="M1664.15 873.91c-0.15,5.05 -0.12,7.17 -2.59,9.99 -3.73,4.26 -9.91,3.39 -11.27,-1.49 -1.21,-4.4 -0.75,-11.95 4.15,-14.4 3.48,-1.8 7.56,-0.52 9.12,2.83 0.44,0.95 0.64,1.99 0.59,3.07z"/>
  <path class="fil12" d="M1665.64 877.63c-0.29,0.93 -0.93,1.73 -1.78,2.23 -1.14,0.65 -1.96,-0.24 -1.85,-1.45 0.1,-1.09 0.81,-2.74 2.05,-2.92 0.9,-0.1 1.66,0.53 1.71,1.44l-0.13 0.7z"/>
  <path class="fil14" d="M1675.47 904.54c-4.18,-3.2 -4.73,-8.43 -4.73,-8.43l1.98 -0.49 2.56 0.55 0.19 8.37z"/>
  <path class="fil12" d="M1676.54 898.18c0,0 10.35,1.07 14.72,-1.38 4.38,-2.44 7.31,-16.24 7.31,-16.24l2.47 -5.25c0.42,-0.9 0.15,-1.94 -0.64,-2.44l-1.84 -1.18 -1.32 -0.27 -0.72 0.11c-1.05,0.15 -1.87,1.09 -1.85,2.15l0.1 6.02c0,0 -3.81,11.17 -6.68,11.46 -2.96,0.29 -2.84,0.29 -9.83,0.1l-1.72 6.92z"/>
  <path class="fil12" d="M1668.7 893.34c0.69,2.11 1.99,5.68 14.19,5.05l4.21 -7.13c0,0 -20.96,-5.65 -18.4,2.08z"/>
  <path class="fil13" d="M1695.02 872.96c-0.94,1.71 -2.68,2.62 -3.88,2.02 -1.2,-0.59 -1.41,-2.46 -0.47,-4.18 0.94,-1.71 2.68,-2.62 3.88,-2.03 1.2,0.6 1.41,2.47 0.47,4.19z"/>
  <path class="fil15" d="M1694.11 874.16c0.1,-0.1 0.19,-0.19 0.28,-0.3l0 0c-0.09,0.11 -0.18,0.2 -0.28,0.3z"/>
  <path class="fil14" d="M1691.94 875.16c-0.16,0 -0.33,-0.01 -0.49,-0.06 -0.46,-0.77 -0.33,-2.15 0.41,-3.51 0.78,-1.42 1.99,-2.35 2.93,-2.35 0.13,0 0.24,0.02 0.35,0.05 0.48,0.64 0.59,1.63 0.3,2.66 -0.42,-0.08 -0.79,-0.13 -1.09,-0.13 -0.49,0 -0.82,0.11 -0.95,0.34 -0.2,0.37 0.19,0.99 0.99,1.7 -0.09,0.11 -0.18,0.2 -0.28,0.3 -0.67,0.64 -1.45,1 -2.17,1z"/>
  <path class="fil13" d="M1703.46 877.14c-0.41,0.74 -2.99,0.22 -5.76,-1.15 -2.78,-1.38 -4.7,-3.09 -4.3,-3.83 0.41,-0.74 2.99,-0.22 5.76,1.15 2.78,1.38 4.71,3.09 4.3,3.83z"/>
  <path class="fil15" d="M1703.47 877.13l0 -0.01 0 0.01zm0 -0.01l0 -0.01 0 0.01zm0.01 -0.02l0 0 0 0zm0 -0.01c0,0 0,0 0,0 0,0 0,0 0,0zm0 -0.01l0.01 0 -0.01 0zm0.01 -0.01c0,-0.01 0,-0.01 0.01,-0.01 -0.01,0 -0.01,0 -0.01,0.01zm0.01 -0.02c0,0 0,0 0,0 0,0 0,0 0,0zm0 -0.01c0,0 0,0 0,-0.01 0,0.01 0,0.01 0,0.01zm0 -0.01c0,-0.01 0,-0.01 0,-0.01 0,0 0,0 0,0.01zm0.01 -0.02l0 0 0 0z"/>
  <path class="fil14" d="M1702.52 877.47c-0.57,0 -1.36,-0.15 -2.26,-0.44l0.52 -1.42 0.68 -0.96c1.34,0.93 2.14,1.83 2.05,2.36l0 0c0,0.01 -0.01,0.01 -0.01,0.01 0,0 0,0 0,0.01l0 0c0,0.01 0,0.01 0,0.01 0,0 0,0 0,0.01 0,0 0,0 0,0 0,0 0,0 0,0.01 -0.01,0 -0.01,0 -0.01,0.01 0,0 0,0 0,0.01l-0.01 0c0,0 0,0 0,0.01 0,0 0,0 0,0 0,0 0,0 0,0.01l0 0c-0.01,0.01 -0.01,0.01 -0.01,0.01l0 0.01c0,0 0,0 0,0l0 0.01c-0.01,0 -0.01,0 -0.01,0.01l0 0c-0.13,0.23 -0.46,0.33 -0.94,0.33z"/>
  <path class="fil13" d="M1706.29 878.54c-0.94,1.72 -2.68,2.62 -3.87,2.03 -1.21,-0.59 -1.41,-2.46 -0.47,-4.18 0.94,-1.72 2.68,-2.63 3.87,-2.03 1.21,0.6 1.41,2.47 0.47,4.18z"/>
  <polygon class="fil0" points="2014.29,1285.72 1522.12,1285.72 1536.57,1079.16 2028.73,1079.16 "/>
  <polygon class="fil11" points="1743.05,1097.93 1731.13,1268.28 1544.09,1268.28 1556,1097.93 "/>
  <path class="fil12" d="M1680.35 678.55c-7.41,0.65 -17.76,3.9 -17.64,5.55l-11.51 13.18 -3.41 1.23c0,0 8.15,-17.18 10.15,-20.01 1.41,-1.97 13.86,-6.03 20.39,-8.31 2.82,-0.99 5.18,0.89 5.89,2.48 0,0 2.26,5.34 -3.87,5.88z"/>
  <path class="fil12" d="M1651.2 697.28l-0.44 2.87c-0.14,0.89 -0.61,1.72 -1.33,2.3l-2.72 2.25 -1.08 0.01 -1.65 -1.48 -0.08 -1.09 2.17 -2.97 2.58 -3.15c0,0 2.72,0.16 2.55,1.26z"/>
  <polygon class="fil12" points="1634.02,773.37 1618.94,779.13 1616.39,773.82 1629.82,767.82 "/>
  <path class="fil13" d="M1621.53 782.77c-0.45,-0.75 -1.06,-1.41 -1.78,-1.91 0.31,1.17 0.96,2.67 1.48,2.76l0.3 -0.19 0.1 -0.37 -0.09 -0.29 -0.01 0zm-2.21 -2.28l0.08 -0.17 0.18 0c0.08,0.06 2.19,1.55 2.33,2.67l-0.15 0.61 -0.62 0.32c-0.46,-0.06 -0.88,-0.74 -1.2,-1.51 -0.26,-0.61 -0.48,-1.26 -0.62,-1.92z"/>
  <path class="fil13" d="M1622.07 780.37c-0.71,-0.19 -1.49,-0.15 -2.22,0.13 0.77,0.51 2.25,1 2.61,0.71l0.05 -0.35 -0.06 -0.08 -0.38 -0.41zm-2.71 0.02l0.13 -0.11c0.07,-0.02 1.78,-0.66 2.75,-0.21l0.55 0.69 -0.2 0.72c-0.64,0.45 -2.57,-0.33 -3.21,-0.89l-0.04 -0.06 0.02 -0.14z"/>
  <path class="fil13" d="M1620.07 779.03l-0.86 -0.79c-0.96,-0.89 -1.45,-2.16 -1.37,-3.52l0.1 -1.58 -0.62 -0.32 -5.44 0.95c-0.54,0.13 -0.78,1.32 -0.77,1.38 0.95,3.75 3.59,11.55 4.56,14.08 0.98,2.53 3.69,1.72 3.52,0.58 -0.73,-5.1 0.03,-7.5 0.84,-9.59l0.04 -1.19z"/>
  <polygon class="fil15" points="1625.12,769.92 1625.12,769.92 1629.82,767.82 "/>
  <path class="fil16" d="M1627.12 776l-0.99 -1.31c-0.6,-0.8 -0.93,-1.77 -0.96,-2.78l-0.05 -1.99 4.7 -2.1 4.2 5.55 -6.9 2.63z"/>
  <path class="fil8" d="M1655.23 716.74c-0.64,1.4 -0.84,1.85 -1.23,3.33 -1.6,6.04 -4.67,26.5 -6.28,34.27 -0.35,1.67 -1.59,2.84 -3.06,3.5 -4.38,2 -7.18,2.61 -17.29,10.46 0.98,2.45 1.96,4.18 2.8,7.06 0,0 18.94,-7.09 23.4,-10.56 6.57,-5.11 16,-31.97 18.69,-38.91 1.52,-3.93 3.29,-8.64 1.23,-12.04 -1.16,-1.9 -13.36,-7.7 -18.26,2.89z"/>
  <path class="fil13" d="M1682.36 671.3c1.28,1.57 1.86,2.64 1.11,7.24 -1.45,8.94 -1.9,23.17 -2.37,25.36 -0.71,3.34 -19.43,3.76 -22.62,0.7l-4.86 -27.35c-0.67,-3.75 2.1,-7.49 5.96,-8.06 1.55,-0.23 18.87,-2.63 22.78,2.11z"/>
  <path class="fil8" d="M1681.1 703.9l0 0c0.32,3.04 0.22,6.12 -0.26,9.16 -0.86,5.28 0.38,10.53 3.34,14.72l0 0c0,0 -24.14,-3.55 -29.47,-9.87l3.77 -13.31c0,0 9.79,1.28 22.62,-0.7z"/>
  <path class="fil8" d="M1667.1 662.31l-0.38 -0.33 -0.01 -0.01c-1.06,-1.47 -1.39,-3.16 -1.71,-5.78 -0.09,-0.68 -0.17,-1.41 -0.26,-2.22 -0.14,-1.07 -0.02,-2.18 0.34,-3.24 0.19,-0.57 0.44,-1.1 0.75,-1.59 0.45,2.33 0.38,4.76 0.43,7.15 0.05,2.06 0.18,4.08 0.84,6.02z"/>
  <path class="fil12" d="M1667.81 659.49c0.11,2.7 0.05,6.46 -1.55,8.6 -0.56,0.74 -0.69,1.71 -0.24,2.46 0.76,1.3 2.6,3.25 6.96,5.49 1.44,-1.64 2.02,-2.97 2.18,-3.99 0.2,-1.18 -0.44,-2.28 -1.47,-2.78 -2.11,-1.02 -1.78,-2.32 -0.96,-4.35l-4.92 -5.43z"/>
  <path class="fil15" d="M1670.82 662.81l-1.02 -1.12c0,0 0.01,-0.01 0.01,-0.01l1.01 1.13z"/>
  <path class="fil16" d="M1672.16 666.56c-1.24,-0.29 -3.05,-1.56 -3.12,-2.99 0.11,-0.67 0.37,-1.32 0.76,-1.88l1.02 1.12 1.87 2.1c-0.22,0.54 -0.4,1.09 -0.53,1.65z"/>
  <path class="fil12" d="M1679.22 659.44c-0.62,3.49 -3.52,5.67 -6.58,5.72l-0.04 0c-1.15,0.01 -2.32,-0.27 -3.39,-0.9l-1.06 -0.75 -0.39 -0.34 -1.04 -1.19 -0.01 -0.01c-1.06,-1.47 -1.39,-3.16 -1.71,-5.78 -0.09,-0.68 -0.17,-1.41 -0.26,-2.22 -0.14,-1.07 -0.02,-2.18 0.34,-3.24 0.19,-0.57 0.44,-1.1 0.75,-1.59l0.45 -0.65c1.79,-2.34 4.81,-3.5 7.62,-2.7 2.31,0.62 3.79,2.53 4.64,4.86l0.24 0.71c0.8,2.64 0.86,5.71 0.44,8.08z"/>
  <path class="fil12" d="M1663.57 658.08c0.36,0.88 1.07,1.54 1.95,1.86 1.19,0.4 1.93,-0.69 1.73,-1.9 -0.2,-1.08 -1.04,-2.59 -2.29,-2.49 -0.9,0.1 -1.61,0.93 -1.58,1.85l0.19 0.68z"/>
  <path class="fil12" d="M1712.18 780.73l0.11 15.72c-0.5,0.29 -5.91,2.75 -6.01,1.24 -0.32,-4.58 -0.95,-14.2 -0.95,-14.2l6.85 -2.76z"/>
  <path class="fil13" d="M1716.73 794.79c-0.89,0.26 -1.73,0.7 -2.48,1.27 1.23,-0.03 2.91,-0.31 3.18,-0.79l-0.07 -0.33 -0.33 -0.18 -0.3 0.02 0 0.01zm-2.99 1.6l-0.14 -0.11 0.06 -0.17c0.1,-0.08 2.28,-1.75 3.41,-1.63l0.54 0.28 0.07 0.67c-0.21,0.42 -1.02,0.66 -1.87,0.8 -0.69,0.12 -1.38,0.17 -2.07,0.16z"/>
  <path class="fil13" d="M1714.62 793.73c-0.45,0.65 -0.69,1.4 -0.69,2.16 0.77,-0.62 1.78,-1.93 1.63,-2.34l-0.32 -0.12 -0.09 0.03 -0.53 0.27zm-0.97 2.6l-0.05 -0.15c0,-0.07 0.01,-1.85 0.79,-2.68l0.85 -0.36 0.63 0.34c0.19,0.72 -1.25,2.39 -2.01,2.87l-0.07 0.03 -0.14 -0.05z"/>
  <path class="fil13" d="M1712.6 795.35l-6.42 0.71 -0.53 0.52 -1.04 5.41c-0.07,0.55 0.98,1.05 1.05,1.04 3.94,-0.05 12.39,-0.82 15.17,-1.18 2.78,-0.37 2.98,-3.14 1.82,-3.24 -5.17,-0.44 -7.19,-1.72 -8.91,-2.96l-1.14 -0.3z"/>
  <polygon class="fil16" points="1705.65,788.25 1705.33,783.49 1705.33,783.49 1712.18,780.73 1712.15,787.17 "/>
  <path class="fil8" d="M1669.37 722.06c2.94,5.91 18.23,19.69 25.26,31.46 1.91,3.22 5.52,25.38 10.06,31.66l7.93 -0.73c3.24,-5.55 -1.5,-34.26 -1.5,-34.26 -1.48,-12.6 -14.57,-26.66 -29.08,-40.88 -2.44,-2.39 -6.25,-3.11 -10.32,-0.79 -0.74,0.43 -5.18,7.81 -2.35,13.54z"/>
  <path class="fil12" d="M1655.21 672.8c0.84,-2.08 5.22,-2.5 6.47,-0.84 5.42,7.17 11.52,13.86 11.52,13.86l16.72 -3.42 2.52 2.32c0,0 -17.62,8.52 -20.97,8.53 -3.6,0 -11.69,-8.36 -15.88,-13.37 -2.75,-3.28 -0.38,-7.08 -0.38,-7.08z"/>
  <path class="fil12" d="M1689.92 682.4l2.72 -1.17c0.83,-0.36 1.76,-0.39 2.58,-0.08l3.13 1.17 0.46 0.94 -0.61 2.25 -0.93 0.66 -3.53 -0.29 -3.86 -0.56c0,0 -1,-2.47 0.04,-2.92z"/>
  <path class="fil20" d="M1687.51 1155.05l4.8 -0.64c1.09,-0.14 2.15,0.23 2.86,1l1.44 1.56c0.75,0.81 0.78,2.07 0.08,3.01l-0.22 0.31c-0.72,0.97 -2,1.33 -3.03,0.85l-2.64 -1.23 -3.71 -0.1 0.42 -4.76z"/>
  <path class="fil20" d="M1688.56 1158.13c-1.28,1.61 -1.54,1.66 -1.68,1.51l-0.54 -0.23 -1.1 -0.46 -2.16 -0.95c-1.42,-0.66 -2.83,-1.34 -4.2,-2.07 -1.39,-0.73 -2.75,-1.49 -4.07,-2.31 -1.31,-0.82 -2.61,-1.68 -3.82,-2.66l-0.3 -0.24 -0.67 -0.73 -13.14 -19.09c-1.38,-2 -0.78,-4.85 1.32,-6.36 2.11,-1.52 4.93,-1.12 6.3,0.87l0.27 0.43 10.74 20.63 -0.97 -0.97c1.45,0.62 2.81,1.38 4.15,2.16 1.34,0.79 2.64,1.64 3.93,2.52 1.28,0.87 2.52,1.81 3.76,2.75l1.83 1.46 0.9 0.75 0.46 0.38c0.19,0.05 0.26,0.31 -0.69,2.12l-0.32 0.49z"/>
  <path class="fil13" d="M1658.97 1122.58c-7.29,-0.7 -13.11,-1.88 -20.62,-1.28 -4.27,0.59 -2.92,4.42 -1.27,12.22 2.57,12.8 4.15,24.29 4.15,24.29l21.58 0.11c0,0 4.49,-24.43 1.79,-31.13 -0.94,-2.34 -3.07,-3.94 -5.63,-4.21z"/>
  <path class="fil20" d="M1654.01 1127.62c-6.88,0.32 -11.09,-3.71 -10.43,-6.46 2.34,-0.03 3.37,-1.65 3.79,-3.93l0.05 -0.33c0.14,-0.8 0.19,-1.68 0.21,-2.59l5.65 3.54 -0.26 0.48c-0.36,0.75 -0.5,1.58 -0.41,2.39l0.18 0.36c0.7,0.93 2.96,1.14 3.66,1.88 1.14,1.18 2.45,4.45 -2.44,4.66z"/>
  <path class="fil20" d="M1646.84 1106.85c-0.05,4.79 0.02,8.07 2.66,10.1 5.26,4.06 8.78,1.44 10.25,-3.37 1.35,-4.36 1.21,-11.47 -3.38,-13.36 -3.31,-1.34 -7.29,0.33 -8.88,3.74 -0.43,0.92 -0.65,1.91 -0.65,2.89z"/>
  <path class="fil20" d="M1644.25 1111.38c0.48,1.08 1.38,1.89 2.51,2.26 1.5,0.47 1.85,-0.78 1.57,-2.26 -0.25,-1.3 -0.76,-3.27 -2.33,-3.1 -1.58,0.17 -2.33,1.78 -1.75,3.1z"/>
  <path class="fil20" d="M1607.84 1153.21l-6.73 1.2c-1.07,-0.14 -2.18,0.23 -3,1l-1.66 1.56c-0.86,0.81 -1.06,2.07 -0.5,3.01l0.18 0.31c0.58,0.97 1.81,1.33 2.91,0.85l3.52 -0.33 7.57 -3.59 -2.29 -4.01z"/>
  <polygon class="fil20" points="1654.18,1244.44 1646.88,1243.88 1645.65,1256.9 1650.93,1257.65 "/>
  <polygon class="fil15" points="1653.1,1248.84 1653.53,1247.1 1653.53,1247.1 1653.55,1247.09 1653.14,1248.84 "/>
  <polygon class="fil21" points="1646.43,1248.89 1646.54,1247.58 1646.55,1247.58 1653.53,1247.1 1653.1,1248.84 "/>
  <path class="fil8" d="M1662.24 1218.46c-1.21,5.96 -7.34,28.55 -7.34,28.55l-1.34 0.08 -0.03 0.01 -6.98 0.48 -1.28 0c0,0 0.2,-19.19 4.94,-28.21 -0.14,-0.48 -0.78,-11.23 -1.01,-23.79l0.01 0c-0.15,-7.79 -0.3,-14.7 -0.44,-16.78 -0.4,-5.74 -0.33,-10.59 0.67,-12.64 0.61,-1.21 1.44,-2.15 2.53,-2.77l11.51 -1.04c0,0 0.85,3.3 0.94,12.48 0.12,13.79 -0.67,36.22 -2.18,43.63z"/>
  <path class="fil22" d="M1649.33 1196.44l-0.13 -0.86 0 0 0.01 0 0 0c-0.15,-7.79 -0.3,-14.7 -0.44,-16.78 -0.15,-2.08 -0.23,-4.05 -0.23,-5.81 0,-3.09 0.26,-5.53 0.9,-6.83l1.22 3.02 0.02 0.5c0.1,2.03 1.41,14 -1.35,26.76z"/>
  <path class="fil13" d="M1654.26 1257.95c-0.34,0.16 -1.26,-0.21 -2.05,-0.65l-0.44 -0.27 0.36 -0.01c0.65,0 1.3,0.09 1.92,0.28l0.2 0.13 0.14 0.26 -0.13 0.26zm0.18 -0.7c-0.32,-0.29 -1.01,-0.41 -1.64,-0.45l-0.82 -0.03 -0.59 0.02 -0.13 0.08 0.04 0.14 1.02 0.62 0.4 0.2c0.61,0.29 1.3,0.49 1.65,0.33l0.28 -0.48 -0.21 -0.43z"/>
  <path class="fil13" d="M1653.88 1255.95c-0.14,0.29 -1.13,0.65 -1.92,0.78l-0.3 0.03 0.17 -0.2c0.36,-0.41 0.82,-0.72 1.34,-0.91l0.49 0.04 0.07 0.03 0.15 0.23zm-0.02 -0.43l-0.76 -0.11c-0.56,0.12 -1.1,0.6 -1.46,0.97l-0.39 0.46 0 0.13 0.05 0.04 0.02 0 0.05 0.02 0.72 -0.07 0.71 -0.16c0.62,-0.19 1.19,-0.46 1.31,-0.77l-0.25 -0.51z"/>
  <path class="fil13" d="M1651.2 1256.12l-5.34 -2.51 -0.61 0.13 -3.47 3.67 0.04 1.06 0.14 0.09c1.94,0.87 3.71,1.57 6.11,2.7 2.82,1.33 1.91,1.31 5.21,2.92 1.99,0.96 3.66,-1.03 2.88,-1.53 -3.6,-2.29 -3.33,-3.6 -4.03,-5.62l-0.93 -0.91z"/>
  <polygon class="fil20" points="1626.58,1244.14 1619.28,1241.5 1616.07,1250.53 1619.76,1257.41 "/>
  <path class="fil15" d="M1624.1 1248.96l0 0 0.28 -0.54 -0.28 0.54zm-6.62 -2.4l0 0 1.8 -5.06 0 0 -1.8 5.06z"/>
  <polygon class="fil21" points="1624.1,1248.96 1617.48,1246.56 1619.28,1241.5 1626.57,1244.14 1624.38,1248.42 "/>
  <path class="fil8" d="M1655.37 1163.22c0,0 -12.59,51.26 -14.48,56.78 -3.11,8.46 -14.51,26.9 -14.51,26.9l-1.1 -0.24 -7.25 -1.64 0 0c0,0 6.06,-20.93 11.44,-26.08 0.08,-12.25 3.36,-45.41 11.24,-55.69l14.66 -0.03z"/>
  <path class="fil13" d="M1623.81 1257.35c-0.4,0.13 -1.26,-0.51 -1.97,-1.18l-0.41 -0.41 0.38 0.07c0.68,0.13 1.33,0.38 1.92,0.73l0.19 0.19 0.08 0.34 -0.19 0.26zm0.35 -0.76c-0.27,-0.4 -0.95,-0.69 -1.6,-0.89l-0.83 -0.2 -0.63 -0.11 -0.15 0.08 0.01 0.17 0 0 0.9 0.94 0.36 0.33c0.57,0.45 1.25,0.82 1.65,0.72l0.41 -0.5 -0.12 -0.54z"/>
  <path class="fil13" d="M1623.89 1254.96c-0.21,0.31 -1.33,0.51 -2.18,0.49l-0.32 -0.02 0.22 -0.2c0.47,-0.39 1.03,-0.66 1.62,-0.78l0.49 0.16 0.06 0.05 0.11 0.3zm0.08 -0.51l-0.76 -0.29c-0.6,0.02 -1.29,0.47 -1.75,0.83l-0.52 0.44 -0.03 0.15 0.05 0.06 0 0 0.01 0.01 0.06 0.03 0.77 0.07 0.76 -0.05c0.69,-0.06 1.35,-0.27 1.54,-0.6l-0.13 -0.65z"/>
  <path class="fil13" d="M1621.06 1254.58l-4.95 -4.05 -0.66 0.01 -4.49 3.53 -0.21 1.25 0.12 0.13c1.82,1.42 3.49,2.62 5.71,4.44 2.61,2.14 1.67,1.93 4.71,4.5 1.84,1.54 4.06,-0.41 3.37,-1.17 -3.2,-3.42 -2.61,-4.88 -2.85,-7.38 -0.07,-0.51 -0.35,-0.95 -0.75,-1.26z"/>
  <path class="fil8" d="M1598.89 1159.87l-2.57 0.85 -0.54 0.09c-0.7,0 -1.31,-0.43 -1.49,-1.12 -0.23,-0.88 0.3,-1.81 1.19,-2.1l2.68 -0.89c0.72,0.84 0.99,2.05 0.73,3.17z"/>
  <polygon class="fil8" points="1594.91,1160.19 1594.56,1158.89 1594.32,1158.55 1591.39,1158.99 1591.21,1159.6 1591.75,1161.62 1592.2,1162.02 1594.87,1160.62 "/>
  <path class="fil8" d="M1693.42 1159.77l2.46 0.85 0.52 0.09c0.69,0 1.37,-0.44 1.65,-1.12 0.35,-0.88 -0.05,-1.82 -0.9,-2.1l-2.55 -0.89c-0.84,0.84 -1.28,2.05 -1.18,3.17z"/>
  <path class="fil8" d="M1693.7 1159.56l2.29 0.79c0.7,0.25 1.51,-0.16 1.8,-0.86 0.29,-0.71 -0.04,-1.5 -0.74,-1.75l-2.39 -0.82c-0.64,0.72 -1,1.7 -0.96,2.64zm2.68 1.43l-0.61 -0.11 -2.61 -0.9 -0.02 -0.16c-0.1,-1.22 0.38,-2.53 1.26,-3.41l0.14 -0.14 2.72 0.95c0.99,0.34 1.46,1.44 1.05,2.45 -0.33,0.79 -1.1,1.32 -1.93,1.32z"/>
  <polygon class="fil8" points="1697.36,1160.08 1697.89,1158.79 1698.18,1158.44 1701.04,1158.89 1701.14,1159.5 1700.32,1161.51 1699.81,1161.92 1697.34,1160.52 "/>
  <path class="fil8" d="M1697.58 1160.31l2.33 1.34 0.14 -0.22 0.83 -2.02 0.05 -0.25 -2.71 -0.42 -0.08 0.14 -0.52 1.3 -0.04 0.13zm2.3 1.91l-0.22 -0.06 -2.47 -1.4 -0.09 -0.76 0.53 -1.3 0.61 -0.52 2.86 0.43 0.32 0.23 -0.02 0.75 -0.82 2.02 -0.53 0.57 -0.17 0.04z"/>
  <path class="fil8" d="M1643.66 1268.31l-6.2 0c-12.93,-0.26 -23.44,-5.13 -31.23,-14.5 -12.71,-15.28 -16.01,-40.05 -16.54,-58.13 -0.58,-19.58 1.87,-35.77 1.9,-35.93l0.32 -0.26 0.24 0.3c-0.1,0.65 -9.64,64.61 14.52,93.65 7.7,9.25 18.07,14.06 30.83,14.31l6.2 0c12.15,0 22.6,-4.42 31.07,-13.12 27.67,-28.45 25.88,-94.17 25.85,-94.83l0.28 -0.31 0.28 0.25c0.01,0.17 0.51,16.8 -2.44,36.75 -2.72,18.42 -9.02,43.54 -23.59,58.51 -8.58,8.83 -19.18,13.31 -31.49,13.31z"/>
  <path class="fil20" d="M1608.16 1155.15c-0.7,-1.82 -0.59,-2.07 -0.39,-2.13l0.51 -0.37 1 -0.75 2.03 -1.46c1.38,-0.94 2.75,-1.88 4.16,-2.75 1.4,-0.89 2.82,-1.73 4.27,-2.53 1.45,-0.78 2.92,-1.53 4.46,-2.16l-1.38 1.41 9.15 -20.02c1.07,-2.33 3.78,-3.49 6.06,-2.59 2.28,0.91 3.25,3.54 2.18,5.88l-0.28 0.53 -11.57 18.85 -1.11 1.2 -0.26 0.2c-1.36,0.99 -2.77,1.84 -4.2,2.66 -1.44,0.82 -2.9,1.58 -4.38,2.32 -1.48,0.73 -2.99,1.4 -4.5,2.07l-2.3 0.95 -1.15 0.46 -0.58 0.23c-0.16,0.14 -0.42,0.09 -1.47,-1.53l-0.25 -0.47z"/>
  <polygon class="fil8" points="1664.22,1171.41 1651.06,1180.65 1637.54,1169.12 1641.23,1157.81 1663.11,1157.81 "/>
  <path class="fil10" d="M1903.39 730.41l-0.66 9.47 -3.87 0 0.63 -8.97c0.2,-2.94 -1.06,-4.36 -3.42,-4.36 -2.54,0 -4.42,1.68 -4.65,4.95l-0.59 8.38 -3.87 0 0.62 -8.97c0.21,-2.94 -1.05,-4.36 -3.41,-4.36 -2.57,0 -4.43,1.68 -4.66,4.95l-0.58 8.38 -3.88 0 1.16 -16.51 3.68 0 -0.14 2.1c1.34,-1.48 3.32,-2.29 5.58,-2.29 2.42,0 4.37,0.9 5.39,2.76 1.45,-1.7 3.76,-2.76 6.39,-2.76 4,0 6.64,2.26 6.28,7.23z"/>
  <path class="fil10" d="M1908.63 718.33c0.09,-1.3 1.22,-2.32 2.64,-2.32 1.43,0 2.42,0.95 2.33,2.23 -0.1,1.36 -1.19,2.41 -2.65,2.41 -1.43,0 -2.41,-1.02 -2.32,-2.32zm0.18 5.04l3.87 0 -1.15 16.51 -3.88 0 1.16 -16.51z"/>
  <path class="fil10" d="M1933.56 730.41l-0.66 9.47 -3.87 0 0.63 -8.97c0.21,-2.94 -1.15,-4.36 -3.63,-4.36 -2.76,0 -4.74,1.68 -4.97,4.98l-0.59 8.35 -3.87 0 1.15 -16.51 3.69 0 -0.15 2.14c1.38,-1.52 3.46,-2.33 5.87,-2.33 3.96,0 6.76,2.26 6.4,7.23z"/>
  <path class="fil10" d="M1954.99 723.37l-1.15 16.51 -3.69 0 0.14 -2.1c-1.35,1.51 -3.35,2.32 -5.49,2.32 -4.24,0 -6.96,-2.32 -6.62,-7.3l0.66 -9.43 3.88 0 -0.63 8.9c-0.21,3.01 1.12,4.43 3.57,4.43 2.7,0 4.64,-1.67 4.87,-4.98l0.59 -8.35 3.87 0z"/>
  <path class="fil10" d="M1968.91 738.99c-0.99,0.74 -2.4,1.11 -3.8,1.11 -3.63,0 -5.57,-1.92 -5.32,-5.57l0.56 -7.95 -2.73 0 0.22 -3.09 2.72 0 0.27 -3.77 3.87 0 -0.26 3.77 4.43 0 -0.21 3.09 -4.44 0 -0.55 7.86c-0.11,1.61 0.64,2.48 2.13,2.48 0.8,0 1.59,-0.22 2.21,-0.69l0.9 2.76z"/>
  <path class="fil10" d="M1974.61 730.3l9.4 0c-0.15,-2.39 -1.86,-4.03 -4.41,-4.03 -2.5,0 -4.45,1.61 -4.99,4.03zm12.84 2.56l-12.99 0c0.3,2.42 2.21,3.96 5.09,3.96 1.86,0 3.35,-0.59 4.62,-1.79l1.91 2.37c-1.61,1.77 -4,2.7 -6.85,2.7 -5.55,0 -8.9,-3.56 -8.55,-8.47 0.34,-4.92 4.21,-8.45 9.14,-8.45 4.84,0 8.14,3.37 7.78,8.54l-0.15 1.14z"/>
  <path class="fil10" d="M1988.94 738.24l1.7 -2.93c1.39,0.95 3.57,1.63 5.65,1.63 2.45,0 3.52,-0.68 3.6,-1.82 0.22,-3.16 -10.22,-0.19 -9.76,-6.78 0.22,-3.11 3.18,-5.16 7.65,-5.16 2.2,0 4.67,0.53 6.1,1.43l-1.69 2.93c-1.52,-0.92 -3.08,-1.23 -4.66,-1.23 -2.36,0 -3.53,0.77 -3.61,1.85 -0.23,3.34 10.21,0.37 9.76,6.84 -0.22,3.09 -3.21,5.1 -7.86,5.1 -2.76,0 -5.46,-0.81 -6.88,-1.86z"/>
  <polygon class="fil10" points="1830.45,714.46 1828.94,736.11 1824.91,736.11 1826.19,717.83 1821.6,717.83 1821.84,714.46 "/>
  <path class="fil10" d="M1848.07 725.29c0.36,-5.23 -1.51,-7.64 -4.49,-7.64 -2.95,0 -5.16,2.41 -5.53,7.64 -0.36,5.22 1.52,7.64 4.46,7.64 2.98,0 5.19,-2.42 5.56,-7.64zm-14.07 0c0.5,-7.12 4.68,-11.13 9.83,-11.13 5.17,0 8.8,4.01 8.3,11.13 -0.5,7.1 -4.68,11.13 -9.86,11.13 -5.15,0 -8.77,-4.03 -8.27,-11.13z"/>
  <path class="fil10" d="M1838.94 700.06c-13.18,0 -24.65,10.72 -25.57,23.9 -0.44,6.31 1.59,12.22 5.73,16.66 4.12,4.42 9.85,6.85 16.13,6.85 13.18,0 24.64,-10.72 25.56,-23.9l0 0c0.45,-6.31 -1.59,-12.23 -5.73,-16.66 -4.11,-4.42 -9.84,-6.85 -16.12,-6.85zm-3.71 53c-7.85,0 -15.03,-3.06 -20.22,-8.63 -5.21,-5.58 -7.77,-12.99 -7.22,-20.86 1.12,-16.05 15.09,-29.11 31.15,-29.11 7.85,0 15.03,3.06 20.22,8.63 5.2,5.58 7.77,12.99 7.22,20.87l0 0c-1.13,16.05 -15.1,29.1 -31.15,29.1z"/>
  <polygon class="fil10" points="1844.53,693.31 1836.1,693.31 1833.39,681.42 1848.89,681.42 "/>
  <polygon class="fil10" points="1856.89,699.52 1853.15,696.76 1856.2,692.83 1859.93,695.59 "/>
  <polygon class="fil10" points="1842.77,696.74 1837.39,696.74 1837.77,691.36 1843.15,691.36 "/>
  <path class="fil10" d="M1887.15 962.76l-0.66 9.46 -3.88 0 0.63 -8.97c0.2,-2.93 -1.06,-4.36 -3.41,-4.36 -2.54,0 -4.43,1.68 -4.66,4.96l-0.59 8.37 -3.87 0 0.63 -8.97c0.2,-2.93 -1.06,-4.36 -3.42,-4.36 -2.57,0 -4.42,1.68 -4.65,4.96l-0.59 8.37 -3.87 0 1.15 -16.51 3.69 0 -0.15 2.1c1.35,-1.48 3.33,-2.29 5.59,-2.29 2.41,0 4.37,0.91 5.38,2.76 1.46,-1.7 3.76,-2.76 6.4,-2.76 3.99,0 6.62,2.26 6.28,7.24z"/>
  <path class="fil10" d="M1892.39 950.68c0.09,-1.31 1.21,-2.32 2.64,-2.32 1.42,0 2.41,0.95 2.32,2.22 -0.09,1.36 -1.19,2.41 -2.65,2.41 -1.42,0 -2.4,-1.02 -2.31,-2.31zm0.17 5.03l3.88 0 -1.16 16.51 -3.87 0 1.15 -16.51z"/>
  <path class="fil10" d="M1917.32 962.76l-0.66 9.46 -3.87 0 0.62 -8.97c0.2,-2.93 -1.15,-4.36 -3.63,-4.36 -2.76,0 -4.73,1.68 -4.97,4.99l-0.58 8.34 -3.87 0 1.15 -16.51 3.69 0 -0.15 2.14c1.37,-1.52 3.45,-2.33 5.86,-2.33 3.97,0 6.76,2.26 6.41,7.24z"/>
  <path class="fil10" d="M1938.74 955.71l-1.15 16.51 -3.69 0 0.15 -2.1c-1.35,1.51 -3.36,2.32 -5.5,2.32 -4.24,0 -6.97,-2.32 -6.61,-7.3l0.65 -9.43 3.88 0 -0.63 8.91c-0.2,3 1.12,4.42 3.57,4.42 2.7,0 4.64,-1.67 4.88,-4.97l0.58 -8.36 3.87 0z"/>
  <path class="fil10" d="M1952.66 971.33c-0.98,0.74 -2.41,1.11 -3.8,1.11 -3.63,0 -5.57,-1.92 -5.32,-5.56l0.56 -7.95 -2.73 0 0.22 -3.1 2.73 0 0.27 -3.77 3.87 0 -0.27 3.77 4.44 0 -0.22 3.1 -4.43 0 -0.55 7.85c-0.11,1.61 0.63,2.48 2.11,2.48 0.82,0 1.6,-0.22 2.23,-0.68l0.89 2.75z"/>
  <path class="fil10" d="M1958.36 962.64l9.4 0c-0.15,-2.39 -1.86,-4.03 -4.4,-4.03 -2.51,0 -4.45,1.61 -5,4.03zm12.84 2.56l-12.98 0c0.29,2.42 2.2,3.96 5.08,3.96 1.86,0 3.36,-0.58 4.62,-1.79l1.91 2.38c-1.61,1.76 -4,2.69 -6.85,2.69 -5.55,0 -8.9,-3.56 -8.55,-8.47 0.34,-4.92 4.21,-8.45 9.14,-8.45 4.84,0 8.14,3.37 7.78,8.55l-0.15 1.13z"/>
  <path class="fil10" d="M1972.7 970.59l1.69 -2.94c1.39,0.95 3.57,1.64 5.66,1.64 2.44,0 3.51,-0.69 3.59,-1.83 0.22,-3.15 -10.22,-0.19 -9.76,-6.78 0.23,-3.11 3.19,-5.16 7.65,-5.16 2.2,0 4.68,0.53 6.1,1.43l-1.69 2.94c-1.52,-0.93 -3.08,-1.24 -4.66,-1.24 -2.35,0 -3.52,0.78 -3.6,1.85 -0.23,3.35 10.2,0.38 9.75,6.84 -0.22,3.09 -3.21,5.1 -7.86,5.1 -2.76,0 -5.46,-0.81 -6.87,-1.85z"/>
  <polygon class="fil10" points="1831.1,946.81 1830.92,949.5 1821.16,968.45 1816.85,968.45 1826.28,950.21 1817.75,950.21 1817.5,953.89 1813.75,953.89 1814.24,946.81 "/>
  <path class="fil10" d="M1822.69 932.4c-13.17,0 -24.65,10.72 -25.56,23.9 -0.45,6.3 1.59,12.22 5.73,16.66 4.12,4.42 9.84,6.85 16.13,6.85 13.17,0 24.64,-10.73 25.56,-23.91 0.44,-6.3 -1.59,-12.22 -5.73,-16.65 -4.12,-4.42 -9.85,-6.85 -16.13,-6.85zm-3.7 53c-7.86,0 -15.04,-3.06 -20.23,-8.63 -5.2,-5.58 -7.77,-12.99 -7.22,-20.87 1.13,-16.04 15.1,-29.1 31.15,-29.1 7.85,0 15.03,3.07 20.23,8.63 5.2,5.58 7.77,13 7.22,20.87 -1.13,16.05 -15.1,29.1 -31.15,29.1z"/>
  <polygon class="fil10" points="1828.28,925.66 1819.85,925.66 1817.15,913.76 1832.65,913.76 "/>
  <polygon class="fil10" points="1840.65,931.87 1836.91,929.1 1839.95,925.16 1843.68,927.93 "/>
  <polygon class="fil10" points="1826.52,929.08 1821.15,929.08 1821.52,923.7 1826.9,923.7 "/>
  <path class="fil10" d="M1870.89 1195.22l-0.66 9.46 -3.87 0 0.62 -8.96c0.21,-2.95 -1.05,-4.37 -3.41,-4.37 -2.54,0 -4.43,1.68 -4.66,4.96l-0.59 8.37 -3.87 0 0.63 -8.96c0.21,-2.95 -1.06,-4.37 -3.41,-4.37 -2.58,0 -4.43,1.68 -4.66,4.96l-0.58 8.37 -3.88 0 1.16 -16.51 3.68 0 -0.14 2.11c1.34,-1.49 3.32,-2.29 5.58,-2.29 2.42,0 4.37,0.89 5.39,2.75 1.45,-1.7 3.76,-2.75 6.4,-2.75 3.99,0 6.62,2.25 6.27,7.23z"/>
  <path class="fil10" d="M1876.13 1183.14c0.09,-1.31 1.22,-2.33 2.65,-2.33 1.42,0 2.41,0.96 2.32,2.23 -0.1,1.36 -1.19,2.41 -2.65,2.41 -1.43,0 -2.41,-1.02 -2.32,-2.31zm0.18 5.03l3.87 0 -1.15 16.51 -3.88 0 1.16 -16.51z"/>
  <path class="fil10" d="M1901.07 1195.22l-0.67 9.46 -3.87 0 0.62 -8.96c0.21,-2.95 -1.15,-4.37 -3.63,-4.37 -2.76,0 -4.73,1.68 -4.96,4.99l-0.59 8.34 -3.87 0 1.16 -16.51 3.68 0 -0.15 2.14c1.38,-1.52 3.45,-2.32 5.87,-2.32 3.97,0 6.75,2.25 6.41,7.23z"/>
  <path class="fil10" d="M1922.49 1188.17l-1.16 16.51 -3.69 0 0.15 -2.1c-1.34,1.52 -3.35,2.32 -5.49,2.32 -4.25,0 -6.97,-2.32 -6.62,-7.3l0.66 -9.43 3.87 0 -0.62 8.91c-0.21,3 1.12,4.42 3.57,4.42 2.69,0 4.63,-1.67 4.87,-4.98l0.58 -8.35 3.88 0z"/>
  <path class="fil10" d="M1936.4 1203.79c-0.98,0.74 -2.4,1.11 -3.8,1.11 -3.62,0 -5.57,-1.92 -5.31,-5.56l0.56 -7.95 -2.73 0 0.22 -3.1 2.72 0 0.27 -3.76 3.87 0 -0.26 3.76 4.43 0 -0.21 3.1 -4.44 0 -0.55 7.85c-0.11,1.62 0.63,2.47 2.12,2.47 0.81,0 1.6,-0.21 2.22,-0.67l0.89 2.75z"/>
  <path class="fil10" d="M1942.11 1195.1l9.39 0c-0.14,-2.38 -1.86,-4.03 -4.4,-4.03 -2.51,0 -4.45,1.62 -4.99,4.03zm12.84 2.56l-12.99 0c0.3,2.42 2.21,3.96 5.09,3.96 1.86,0 3.36,-0.58 4.61,-1.79l1.92 2.38c-1.61,1.76 -4,2.69 -6.86,2.69 -5.54,0 -8.89,-3.56 -8.55,-8.47 0.35,-4.91 4.22,-8.44 9.15,-8.44 4.84,0 8.13,3.36 7.78,8.53l-0.15 1.14z"/>
  <path class="fil10" d="M1956.44 1203.04l1.69 -2.93c1.4,0.96 3.58,1.64 5.66,1.64 2.44,0 3.52,-0.68 3.6,-1.82 0.21,-3.16 -10.22,-0.19 -9.76,-6.78 0.22,-3.12 3.18,-5.16 7.65,-5.16 2.19,0 4.67,0.52 6.1,1.42l-1.7 2.94c-1.52,-0.93 -3.07,-1.24 -4.66,-1.24 -2.35,0 -3.52,0.77 -3.59,1.85 -0.24,3.35 10.2,0.37 9.74,6.84 -0.21,3.09 -3.2,5.1 -7.85,5.1 -2.76,0 -5.47,-0.8 -6.88,-1.86z"/>
  <path class="fil10" d="M1809.76 1194.4c0.15,-2.26 -1.45,-3.68 -4.08,-3.68 -2.61,0 -4.52,1.58 -4.66,3.71 -0.15,2.04 1.35,3.65 4.23,3.65 2.52,0 4.35,-1.42 4.51,-3.68zm3.91 -0.19c-0.3,4.31 -3.99,7.03 -8.42,7.03 -5.92,0 -9.13,-3.82 -8.64,-10.77 0.52,-7.42 5.14,-11.5 11.43,-11.5 2.18,0 4.22,0.46 5.61,1.39l-1.7 3.03c-1.12,-0.77 -2.53,-1.05 -4.05,-1.05 -4.09,0 -6.84,2.53 -7.18,7.45l0 0.04c1.4,-1.53 3.53,-2.26 5.95,-2.26 4.28,0 7.29,2.59 7,6.64z"/>
  <path class="fil10" d="M1806.43 1164.87c-13.17,0 -24.64,10.72 -25.56,23.9 -0.44,6.31 1.59,12.23 5.73,16.66 4.12,4.42 9.84,6.85 16.13,6.85 13.17,0 24.64,-10.72 25.56,-23.9 0.45,-6.31 -1.59,-12.23 -5.73,-16.67 -4.12,-4.41 -9.84,-6.84 -16.13,-6.84zm-3.7 53.01c-7.85,0 -15.03,-3.07 -20.22,-8.63 -5.21,-5.58 -7.78,-13 -7.23,-20.87 1.13,-16.05 15.1,-29.11 31.15,-29.11 7.86,0 15.04,3.07 20.23,8.63 5.2,5.58 7.77,12.99 7.22,20.87 -1.13,16.05 -15.1,29.11 -31.15,29.11z"/>
  <polygon class="fil10" points="1812.02,1158.13 1803.59,1158.13 1800.89,1146.23 1816.39,1146.23 "/>
  <polygon class="fil10" points="1824.39,1164.33 1820.66,1161.57 1823.69,1157.64 1827.43,1160.4 "/>
  <polygon class="fil10" points="1810.27,1161.55 1804.89,1161.55 1805.27,1156.17 1810.64,1156.17 "/>
  <path class="fil10" d="M1598.07 578.09l-0.35 4.93 4.7 0c2.3,0 3.66,-0.81 3.77,-2.45 0.12,-1.65 -1.13,-2.48 -3.43,-2.48l-4.69 0zm8.51 10.1c0.12,-1.79 -1.17,-2.58 -3.68,-2.58l-5.36 0 -0.36 5.16 5.36 0c2.51,0 3.91,-0.79 4.04,-2.58zm3.32 0.33c-0.21,3.06 -2.74,4.86 -7.34,4.86l-8.89 0 1.26 -17.9 8.38 0c4.28,0 6.45,1.82 6.26,4.66 -0.13,1.84 -1.15,3.2 -2.58,3.93 1.87,0.62 3.07,2.13 2.91,4.45z"/>
  <polygon class="fil10" points="1626.74,590.59 1626.54,593.38 1613.13,593.38 1614.39,575.48 1627.44,575.48 1627.24,578.27 1617.51,578.27 1617.19,582.92 1625.82,582.92 1625.63,585.66 1617,585.66 1616.65,590.59 "/>
  <path class="fil10" d="M1643.04 584.23l3.14 0 -0.5 7.13c-1.97,1.51 -4.62,2.27 -7.15,2.27 -5.54,0 -9.36,-3.86 -8.99,-9.2 0.38,-5.34 4.73,-9.2 10.32,-9.2 2.99,0 5.43,1 6.98,2.91l-2.24 2.05c-1.31,-1.4 -2.87,-2.05 -4.79,-2.05 -3.8,0 -6.66,2.58 -6.92,6.29 -0.26,3.63 2.24,6.29 6.02,6.29 1.27,0 2.55,-0.26 3.74,-0.93l0.39 -5.56z"/>
  <polygon class="fil10" points="1651.18,575.48 1654.51,575.48 1653.26,593.38 1649.94,593.38 "/>
  <polygon class="fil10" points="1675.23,575.48 1673.97,593.38 1671.24,593.38 1662.23,581.26 1661.39,593.38 1658.09,593.38 1659.34,575.48 1662.08,575.48 1671.09,587.6 1671.93,575.48 "/>
  <polygon class="fil10" points="1695.94,575.48 1694.69,593.38 1691.96,593.38 1682.95,581.26 1682.1,593.38 1678.8,593.38 1680.06,575.48 1682.79,575.48 1691.8,587.6 1692.64,575.48 "/>
  <polygon class="fil10" points="1713.12,590.59 1712.93,593.38 1699.52,593.38 1700.77,575.48 1713.82,575.48 1713.63,578.27 1703.9,578.27 1703.57,582.92 1712.2,582.92 1712.01,585.66 1703.38,585.66 1703.03,590.59 "/>
  <path class="fil10" d="M1724.91 578.3l-3.88 0 -0.5 7.13 3.88 0c2.91,0 4.51,-1.33 4.67,-3.58 0.15,-2.25 -1.26,-3.55 -4.17,-3.55zm3.44 15.08l-3.29 -5.24 -0.69 0.02 -4.03 0 -0.37 5.22 -3.32 0 1.26 -17.9 7.35 0c4.7,0 7.44,2.41 7.16,6.37 -0.19,2.71 -1.7,4.7 -4.2,5.65l3.71 5.88 -3.58 0z"/>
  <polygon class="fil10" points="1749.17,571.86 1752.03,571.86 1741.92,595.93 1739.06,595.93 "/>
  <path class="fil10" d="M1770.82 590.57l-0.2 2.81 -13.17 0 0.15 -2.23 7.57 -6.75c1.85,-1.66 2.23,-2.7 2.3,-3.7 0.12,-1.64 -0.94,-2.58 -3.13,-2.58 -1.75,0 -3.24,0.59 -4.32,1.86l-2.2 -1.79c1.51,-1.86 4.06,-2.96 7,-2.96 3.88,0 6.24,1.97 6.02,5.13 -0.12,1.74 -0.72,3.33 -3.36,5.66l-5.09 4.55 8.43 0z"/>
  <path class="fil10" d="M1785.62 588.01c-0.21,3.02 -2.66,5.62 -7.47,5.62 -2.52,0 -4.99,-0.76 -6.57,-2.07l1.62 -2.58c1.2,1.07 3.09,1.76 5.11,1.76 2.37,0 3.85,-1.05 3.97,-2.7 0.11,-1.61 -0.99,-2.66 -3.7,-2.66l-1.63 0 0.16 -2.28 4.39 -4.83 -8.11 0 0.19 -2.79 12.18 0 -0.16 2.23 -4.7 5.16c3.34,0.44 4.91,2.46 4.72,5.14z"/>
  <polygon class="fil10" points="1805.14,593.38 1805.93,581.52 1799.38,591.33 1797.9,591.33 1792.7,581.67 1791.88,593.38 1788.72,593.38 1789.97,575.48 1792.7,575.48 1798.97,587.34 1806.77,575.48 1809.5,575.48 1808.27,593.38 "/>
  <polygon class="fil10" points="1814.39,575.48 1817.71,575.48 1816.46,593.38 1813.14,593.38 "/>
  <polygon class="fil10" points="1838.43,575.48 1837.18,593.38 1834.44,593.38 1825.44,581.26 1824.59,593.38 1821.29,593.38 1822.55,575.48 1825.28,575.48 1834.29,587.6 1835.13,575.48 "/>
  <path class="fil23" d="M1437.65 1019.16l-375.77 0c-2.52,0 -4.98,-0.15 -7.39,-0.46 -0.47,-0.06 -0.94,-0.12 -1.4,-0.2 -0.49,-0.07 -0.97,-0.15 -1.46,-0.24 -26,-4.63 -44.73,-26.73 -44.72,-53.92 0,-1.38 0.05,-2.77 0.15,-4.16l1.86 -26.68 493.68 0 9.66 -138.11 -493.68 0 1.68 -24.06 493.69 0 9.65 -138.12 -493.69 0 1.68 -24.07 493.69 0 9.66 -138.11 0.12 -1.6 -493.71 0 27.2 -389.12 1.29 -18.25c2.28,-32.55 30.52,-58.98 63.08,-58.98l97.69 0c6.42,0 11.46,4.75 11.83,11.13l0.19 3.02c0.88,15.49 13.27,27.13 28.87,27.13l92.82 0c15.67,0 29.68,-11.64 32.7,-27.13l0.59 -3.02c1.29,-6.38 7.04,-11.13 13.42,-11.13l97.66 0c31.18,0 55.01,24.2 55,54.82 0,1.37 -0.05,2.76 -0.15,4.16l-1.28 18.25 -61.5 879.87c-2.28,32.58 -30.56,58.98 -63.11,58.98zm-340.53 -834.93l-19.15 273.89 425.55 0 19.16 -273.89 -425.56 0z"/>
  <polygon class="fil10" points="1111.98,44.21 1119.88,44.21 1120.44,36.3 1112.54,36.3 "/>
  <polygon class="fil10" points="1128.34,36.3 1127.79,44.21 1135.69,44.21 1136.24,36.3 1136.8,28.4 1128.9,28.4 "/>
  <polygon class="fil10" points="1145.25,20.5 1144.7,28.4 1144.15,36.3 1143.59,44.21 1151.49,44.21 1152.05,36.3 1152.6,28.4 1153.15,20.5 "/>
  <path class="fil10" d="M1499.27 38.41l-11.6 0 0.82 -11.59 11.59 0 -0.81 11.59zm-14.24 -17.38l-0.4 5.79 -3.87 0 -0.81 11.59 3.86 0 -0.4 5.8 34.77 0 1.62 -23.18 -34.77 0z"/>
  <path class="fil10" d="M1507.44 83.54c-0.27,3.89 -3.64,7.03 -7.52,7.03 -3.88,0 -6.81,-3.14 -6.54,-7.03 0.27,-3.87 3.64,-7.02 7.52,-7.02 3.88,0 6.81,3.15 6.54,7.02z"/>
  <path class="fil10" d="M1506.24 100.7c-0.27,3.89 -3.65,7.03 -7.52,7.03 -3.88,0 -6.81,-3.14 -6.54,-7.03 0.27,-3.87 3.64,-7.02 7.52,-7.02 3.88,0 6.81,3.15 6.54,7.02z"/>
  <path class="fil10" d="M1505.04 117.87c-0.27,3.88 -3.64,7.03 -7.52,7.03 -3.89,0 -6.81,-3.15 -6.54,-7.03 0.27,-3.89 3.64,-7.03 7.53,-7.03 3.87,0 6.8,3.14 6.53,7.03z"/>
  <path class="fil10" d="M1141.49 102.76l-35.65 0c-1.55,0 -2.82,-1.26 -2.82,-2.81 0,-1.56 1.27,-2.82 2.82,-2.82l35.65 0c1.55,0 2.81,1.26 2.81,2.82 0,1.55 -1.26,2.81 -2.81,2.81z"/>
  <path class="fil10" d="M1113.76 117.57c-0.75,0 -1.51,-0.31 -2.06,-0.9l-15.12 -16.26 17.24 -16.12c1.13,-1.06 2.92,-1 3.98,0.13 1.07,1.14 1.01,2.93 -0.13,3.98l-13.14 12.29 11.29 12.14c1.06,1.14 0.99,2.92 -0.14,3.98 -0.55,0.5 -1.24,0.76 -1.92,0.76z"/>
  <polygon class="fil24" points="1031.59,609.14 1031.57,609.14 1031.68,607.54 1031.71,607.54 "/>
  <polygon class="fil25" points="1525.4,607.54 1031.68,607.54 1041.22,471.03 1534.94,471.03 "/>
  <path class="fil10" d="M1172.27 152.06c0.54,-7.56 6.71,-13.03 14.49,-13.03 4.13,0 7.58,1.49 9.74,4.24l-3.24 2.86c-1.71,-1.99 -3.93,-2.97 -6.57,-2.97 -5.25,0 -9.31,3.69 -9.67,8.9 -0.36,5.22 3.18,8.91 8.43,8.91 2.64,0 4.99,-0.98 6.98,-3l2.84 2.89c-2.55,2.75 -6.2,4.24 -10.36,4.24 -7.75,0 -13.16,-5.47 -12.64,-13.04z"/>
  <polygon class="fil10" points="1223.82,139.39 1222.05,164.74 1217.34,164.74 1218.1,153.88 1204.99,153.88 1204.23,164.74 1199.53,164.74 1201.3,139.39 1206.01,139.39 1205.27,149.86 1218.38,149.86 1219.11,139.39 "/>
  <path class="fil10" d="M1250.49 152.06c0.37,-5.17 -3.18,-8.9 -8.28,-8.9 -5.11,0 -9.17,3.73 -9.53,8.9 -0.36,5.18 3.18,8.91 8.28,8.91 5.11,0 9.17,-3.73 9.53,-8.91zm-22.56 0c0.53,-7.49 6.71,-13.03 14.57,-13.03 7.86,0 13.26,5.51 12.74,13.03 -0.53,7.54 -6.71,13.04 -14.56,13.04 -7.86,0 -13.27,-5.54 -12.75,-13.04z"/>
  <path class="fil10" d="M1280.99 152.06c0.36,-5.17 -3.18,-8.9 -8.29,-8.9 -5.1,0 -9.16,3.73 -9.53,8.9 -0.36,5.18 3.18,8.91 8.29,8.91 5.11,0 9.16,-3.73 9.53,-8.91zm-22.56 0c0.52,-7.49 6.7,-13.03 14.56,-13.03 7.86,0 13.27,5.51 12.74,13.03 -0.53,7.54 -6.71,13.04 -14.56,13.04 -7.86,0 -13.26,-5.54 -12.74,-13.04z"/>
  <path class="fil10" d="M1287.9 162.06l1.88 -3.66c1.91,1.63 5.05,2.79 8.17,2.79 3.95,0 5.72,-1.41 5.84,-3.29 0.39,-5.47 -14.93,-1.89 -14.27,-11.3 0.29,-4.1 3.79,-7.57 10.74,-7.57 3.04,0 6.18,0.8 8.28,2.25l-1.74 3.65c-2.19,-1.34 -4.64,-1.99 -6.85,-1.99 -3.91,0 -5.61,1.52 -5.74,3.44 -0.38,5.39 14.9,1.88 14.25,11.19 -0.29,4.05 -3.83,7.53 -10.78,7.53 -3.95,0 -7.81,-1.23 -9.78,-3.04z"/>
  <polygon class="fil10" points="1331.91,160.79 1331.63,164.74 1312.63,164.74 1314.4,139.39 1332.9,139.39 1332.62,143.34 1318.83,143.34 1318.37,149.93 1330.6,149.93 1330.33,153.8 1318.09,153.8 1317.61,160.79 "/>
  <path class="fil10" d="M1365.1 151.77l4.45 0 -0.71 10.11c-2.79,2.13 -6.56,3.22 -10.14,3.22 -7.86,0 -13.27,-5.47 -12.74,-13.04 0.53,-7.56 6.7,-13.03 14.63,-13.03 4.24,0 7.69,1.41 9.89,4.13l-3.18 2.89c-1.84,-1.99 -4.06,-2.89 -6.78,-2.89 -5.39,0 -9.45,3.66 -9.82,8.9 -0.36,5.14 3.18,8.91 8.54,8.91 1.81,0 3.61,-0.36 5.31,-1.3l0.55 -7.9z"/>
  <path class="fil10" d="M1396.47 152.06c0.37,-5.17 -3.18,-8.9 -8.29,-8.9 -5.1,0 -9.16,3.73 -9.53,8.9 -0.35,5.18 3.18,8.91 8.29,8.91 5.11,0 9.17,-3.73 9.53,-8.91zm-22.56 0c0.53,-7.49 6.71,-13.03 14.57,-13.03 7.85,0 13.26,5.51 12.73,13.03 -0.52,7.54 -6.7,13.04 -14.56,13.04 -7.86,0 -13.26,-5.54 -12.74,-13.04z"/>
  <path class="fil10" d="M1420.52 155.18l-4 -11.08 -5.52 11.08 9.52 0zm1.29 3.69l-12.67 0 -2.91 5.87 -4.85 0 13.18 -25.35 4.63 0 9.68 25.35 -4.93 0 -2.13 -5.87z"/>
  <polygon class="fil10" points="1433.86,139.39 1438.58,139.39 1437.08,160.76 1450.33,160.76 1450.05,164.74 1432.09,164.74 "/>
  <path class="fil10" d="M1164.57 533.31l-0.61 8.67 8.26 0c4.04,0 6.44,-1.43 6.64,-4.31 0.2,-2.92 -1.98,-4.36 -6.03,-4.36l-8.26 0zm14.97 17.77c0.22,-3.15 -2.06,-4.55 -6.47,-4.55l-9.43 0 -0.63 9.09 9.43 0c4.4,0 6.88,-1.4 7.1,-4.54zm5.84 0.58c-0.38,5.39 -4.82,8.54 -12.9,8.54l-15.63 0 2.19 -31.48 14.74 0c7.54,0 11.37,3.19 11.02,8.19 -0.23,3.23 -2.02,5.62 -4.53,6.92 3.29,1.08 5.4,3.73 5.11,7.83z"/>
  <polygon class="fil10" points="1214.98,555.3 1214.64,560.2 1191.06,560.2 1193.26,528.72 1216.21,528.72 1215.87,533.62 1198.76,533.62 1198.18,541.81 1213.37,541.81 1213.03,546.62 1197.84,546.62 1197.24,555.3 "/>
  <polygon class="fil10" points="1235.79,528.72 1241.63,528.72 1239.77,555.26 1256.21,555.26 1255.87,560.2 1233.59,560.2 "/>
  <polygon class="fil10" points="1284.44,555.3 1284.1,560.2 1260.52,560.2 1262.72,528.72 1285.67,528.72 1285.33,533.62 1268.22,533.62 1267.65,541.81 1282.82,541.81 1282.49,546.62 1267.31,546.62 1266.7,555.3 "/>
  <path class="fil10" d="M1309.93 548.33l-4.97 -13.76 -6.84 13.76 11.81 0zm1.62 4.59l-15.73 0 -3.6 7.28 -6.03 0 16.36 -31.48 5.74 0 12 31.48 -6.11 0 -2.63 -7.28z"/>
  <polygon class="fil10" points="1354.45,528.72 1352.26,560.2 1347.45,560.2 1331.6,538.88 1330.12,560.2 1324.32,560.2 1326.52,528.72 1331.32,528.72 1347.17,550.04 1348.66,528.72 "/>
  <polygon class="fil10" points="1469.94,541.06 1499.55,541.06 1482.91,515.56 1453.31,515.56 "/>
  <polygon class="fil10" points="1479.33,566.84 1449.72,566.84 1469.93,541.33 1499.53,541.33 "/>
  <polygon class="fil0" points="1020.23,771.33 1513.95,771.33 1523.6,633.21 1029.89,633.21 "/>
  <path class="fil10" d="M1086.28 691.85l-0.6 8.68 8.26 0c4.05,0 6.44,-1.43 6.64,-4.31 0.2,-2.93 -1.99,-4.37 -6.03,-4.37l-8.27 0zm14.98 17.77c0.22,-3.15 -2.07,-4.54 -6.46,-4.54l-9.44 0 -0.64 9.08 9.44 0c4.4,0 6.88,-1.39 7.1,-4.54zm5.84 0.58c-0.38,5.39 -4.82,8.55 -12.9,8.55l-15.63 0 2.19 -31.49 14.74 0c7.54,0 11.37,3.2 11.02,8.19 -0.23,3.24 -2.01,5.62 -4.53,6.92 3.29,1.08 5.4,3.74 5.11,7.83z"/>
  <polygon class="fil10" points="1136.7,713.85 1136.36,718.75 1112.78,718.75 1114.98,687.26 1137.93,687.26 1137.59,692.16 1120.48,692.16 1119.9,700.35 1135.09,700.35 1134.75,705.17 1119.57,705.17 1118.96,713.85 "/>
  <path class="fil10" d="M1152.89 715.42l2.34 -4.54c2.37,2.03 6.27,3.46 10.13,3.46 4.9,0 7.09,-1.75 7.25,-4.09 0.48,-6.8 -18.52,-2.34 -17.71,-14.03 0.36,-5.09 4.7,-9.41 13.33,-9.41 3.78,0 7.65,0.99 10.27,2.79l-2.16 4.54c-2.71,-1.66 -5.75,-2.47 -8.49,-2.47 -4.85,0 -6.96,1.89 -7.13,4.27 -0.47,6.71 18.48,2.34 17.67,13.9 -0.35,5.04 -4.74,9.36 -13.37,9.36 -4.9,0 -9.68,-1.53 -12.13,-3.78z"/>
  <polygon class="fil10" points="1191.37,692.21 1180.95,692.21 1181.3,687.26 1207.98,687.26 1207.63,692.21 1197.21,692.21 1195.35,718.75 1189.52,718.75 "/>
  <path class="fil10" d="M1224.73 692.21l-6.83 0 -0.88 12.55 6.83 0c5.12,0 7.93,-2.34 8.21,-6.3 0.28,-3.96 -2.21,-6.25 -7.33,-6.25zm6.05 26.54l-5.78 -9.22 -1.22 0.04 -7.09 0 -0.64 9.18 -5.85 0 2.2 -31.49 12.94 0c8.27,0 13.09,4.23 12.61,11.2 -0.33,4.77 -3.01,8.27 -7.39,9.94l6.51 10.35 -6.29 0z"/>
  <path class="fil10" d="M1269.91 703.01c0.44,-6.43 -3.94,-11.07 -10.28,-11.07 -6.33,0 -11.37,4.64 -11.82,11.07 -0.45,6.43 3.94,11.06 10.27,11.06 6.34,0 11.38,-4.63 11.83,-11.06zm-27.99 0c0.65,-9.31 8.32,-16.2 18.07,-16.2 9.75,0 16.45,6.84 15.8,16.2 -0.66,9.35 -8.32,16.19 -18.07,16.19 -9.75,0 -16.45,-6.89 -15.8,-16.19z"/>
  <polygon class="fil10" points="1311.06,687.26 1308.86,718.75 1304.06,718.75 1288.21,697.43 1286.72,718.75 1280.93,718.75 1283.13,687.26 1287.93,687.26 1303.78,708.59 1305.27,687.26 "/>
  <path class="fil10" d="M1339.94 702.65l5.52 0 -0.87 12.55c-3.47,2.65 -8.15,4 -12.59,4 -9.75,0 -16.46,-6.79 -15.8,-16.19 0.65,-9.41 8.31,-16.2 18.15,-16.2 5.26,0 9.54,1.75 12.26,5.13l-3.93 3.6c-2.3,-2.48 -5.05,-3.6 -8.42,-3.6 -6.69,0 -11.72,4.54 -12.18,11.07 -0.45,6.38 3.94,11.06 10.59,11.06 2.25,0 4.48,-0.45 6.58,-1.62l0.69 -9.8z"/>
  <polygon class="fil10" points="1458.68,702.13 1488.29,702.13 1471.65,676.63 1442.05,676.63 "/>
  <polygon class="fil10" points="1468.06,727.91 1438.46,727.91 1458.66,702.4 1488.27,702.4 "/>
  <polygon class="fil0" points="1502.6,933.5 1008.89,933.5 1018.55,795.39 1512.26,795.39 "/>
  <path class="fil10" d="M1111.48 850.56l-0.6 8.68 8.27 0c4.04,0 6.43,-1.43 6.63,-4.31 0.21,-2.93 -1.99,-4.37 -6.03,-4.37l-8.27 0zm14.98 17.77c0.22,-3.15 -2.06,-4.54 -6.47,-4.54l-9.43 0 -0.64 9.08 9.44 0c4.4,0 6.88,-1.39 7.1,-4.54zm5.84 0.58c-0.38,5.4 -4.82,8.55 -12.9,8.55l-15.63 0 2.2 -31.49 14.73 0c7.55,0 11.36,3.2 11.02,8.18 -0.23,3.24 -2.01,5.63 -4.53,6.94 3.3,1.08 5.4,3.73 5.11,7.82z"/>
  <polygon class="fil10" points="1161.9,872.56 1161.56,877.46 1137.98,877.46 1140.18,845.97 1163.14,845.97 1162.79,850.87 1145.68,850.87 1145.1,859.06 1160.29,859.06 1159.95,863.87 1144.77,863.87 1144.16,872.56 "/>
  <polygon class="fil10" points="1188.74,850.92 1178.32,850.92 1178.67,845.97 1205.35,845.97 1205,850.92 1194.58,850.92 1192.72,877.46 1186.88,877.46 "/>
  <path class="fil10" d="M1233.96 861.72c0.45,-6.44 -3.94,-11.07 -10.28,-11.07 -6.33,0 -11.37,4.63 -11.82,11.07 -0.44,6.43 3.94,11.06 10.28,11.06 6.33,0 11.37,-4.63 11.82,-11.06zm-27.98 0c0.65,-9.31 8.32,-16.2 18.06,-16.2 9.75,0 16.46,6.84 15.81,16.2 -0.66,9.35 -8.33,16.19 -18.07,16.19 -9.75,0 -16.45,-6.88 -15.8,-16.19z"/>
  <polygon class="fil10" points="1275.12,845.97 1272.92,877.46 1268.11,877.46 1252.27,856.14 1250.77,877.46 1244.98,877.46 1247.18,845.97 1251.99,845.97 1267.84,867.29 1269.32,845.97 "/>
  <polygon class="fil10" points="1305.32,872.56 1304.98,877.46 1281.4,877.46 1283.6,845.97 1306.55,845.97 1306.21,850.87 1289.1,850.87 1288.52,859.06 1303.7,859.06 1303.37,863.87 1288.19,863.87 1287.58,872.56 "/>
  <path class="fil10" d="M1325.34 872.51c7.01,0 11.84,-4.27 12.3,-10.79 0.45,-6.52 -3.78,-10.8 -10.79,-10.8l-7.64 0 -1.51 21.59 7.64 0zm-11.62 -26.54l13.74 0c10.2,0 16.73,6.3 16.06,15.75 -0.66,9.44 -8.06,15.74 -18.26,15.74l-13.74 0 2.2 -31.49z"/>
  <polygon class="fil10" points="1447.62,860.37 1477.22,860.37 1460.59,834.86 1430.98,834.86 "/>
  <polygon class="fil10" points="1457,886.14 1427.4,886.14 1447.6,860.63 1477.2,860.63 "/>
  <polygon class="fil0" points="1522.68,184.23 1503.52,458.12 1077.97,458.12 1097.12,184.23 "/>
  <polygon class="fil13" points="1196.97,281.46 1206.74,282.73 1206.95,281.71 1197.17,280.43 "/>
  <polygon class="fil13" points="1214.22,283.71 1239.46,287 1239.66,285.97 1214.42,282.68 "/>
  <polygon class="fil13" points="1158.18,364.03 1167.96,365.32 1168.17,364.29 1158.39,363.01 "/>
  <polygon class="fil13" points="1175.44,366.29 1241.84,374.9 1242.04,373.88 1175.64,365.27 "/>
  <polygon class="fil13" points="1264.1,255.78 1231.62,251.55 1231.82,250.52 1264.3,254.76 "/>
  <polygon class="fil13" points="1226.07,250.83 1221.89,250.28 1222.09,249.25 1226.28,249.8 "/>
  <path class="fil12" d="M1319.71 299.76c-19.25,-0.79 -46.94,4.23 -47.19,8.62l-34.03 30.63 -9.17 2.08c0,0 26.73,-42.25 32.84,-48.97 4.26,-4.69 37.65,-11.13 55.19,-14.92 7.58,-1.63 13.01,4.07 14.29,8.47 0,0 4.03,14.74 -11.93,14.09z"/>
  <path class="fil12" d="M1238.49 339.01l-2.11 7.36c-0.65,2.28 -2.15,4.28 -4.17,5.57l-7.77 4.99c-0.93,0.6 -2.12,0.45 -2.79,-0.34l-3.72 -4.43c-0.69,-0.81 -0.62,-2.04 0.16,-2.88l6.57 -7.05 7.7 -7.36c0,0 6.93,1.31 6.13,4.14z"/>
  <path class="fil10" d="M1283.58 419.86l-0.61 1.1 -0.3 0.58c-3.73,7.01 -10.94,21.2 -19.46,36.58l-43.82 0c6.78,-22.38 14.56,-48.48 18.61,-58.51 1.01,-2.5 1.63,-3.82 2.56,-5.43l0.09 -0.18c0.45,-0.76 0.98,-1.63 1.64,-2.71 2.58,-4.16 5.48,-7.16 8.57,-9.25 0.58,-0.39 1.18,-0.76 1.79,-1.1 7.42,-4.13 15.59,-3.45 22.46,-1.11l1.31 0.48c0.82,0.31 1.63,0.65 2.42,1.02l1.3 0.64c0.51,0.24 1,0.5 1.48,0.76l0.86 0.47 1.16 0.72c3.53,2.24 5.98,4.55 6.57,5.95 3.99,9.22 -1.57,20.43 -6.63,29.99z"/>
  <path class="fil13" d="M1327.31 281.47c2.78,4.53 3.9,7.51 0.43,19.31 -6.73,22.91 -12.67,60 -14.62,65.59 -2.96,8.5 -51.21,3.33 -58.37,-5.76l-3.3 -73.21c-0.45,-10.05 7.92,-18.89 18.05,-19.08 4.07,-0.08 49.38,-0.58 57.81,13.15z"/>
  <path class="fil10" d="M1313.12 366.37l0 0c-0.22,8.05 -1.5,16.07 -3.79,23.88 -3.95,13.52 -2.54,27.69 3.64,39.63 0,0 -60.84,-17.37 -72.42,-35.7l14.2 -33.57c0,0 24.7,6.63 58.37,5.76z"/>
  <path class="fil8" d="M1291.12 252.81l-0.85 -0.97 -0.02 -0.03c-2.24,-4.23 -2.53,-8.76 -2.46,-15.73 0.01,-1.8 0.05,-3.73 0.09,-5.89 0.01,-2.85 0.68,-5.71 1.95,-8.36 0.69,-1.42 1.52,-2.74 2.47,-3.92 0.4,6.27 -0.62,12.59 -1.3,18.87 -0.57,5.4 -0.91,10.75 0.12,16.03z"/>
  <path class="fil12" d="M1293.92 245.68c-0.62,7.08 -2.05,16.92 -6.89,21.98 -1.69,1.76 -2.34,4.24 -1.45,6.36 1.54,3.65 5.58,9.37 16.03,16.71 4.27,-3.81 6.2,-7.11 6.96,-9.72 0.9,-3.03 -0.37,-6.11 -2.84,-7.76 -5.06,-3.39 -3.78,-6.69 -1,-11.73l-10.81 -15.84z"/>
  <path class="fil15" d="M1300.35 255.1l-2.05 -3.01c0,0 0.01,-0.01 0.02,-0.02l2.03 3.03z"/>
  <path class="fil16" d="M1302.71 265.62c-3.09,-1.17 -7.33,-5.09 -7,-8.85 0.49,-1.72 1.37,-3.33 2.59,-4.68l2.05 3.01 4.28 6.4c-0.75,1.33 -1.4,2.7 -1.92,4.12z"/>
  <path class="fil12" d="M1323.26 249.36c-2.79,8.93 -10.97,13.67 -18.86,12.78l-0.1 -0.02c-2.95,-0.35 -5.85,-1.49 -8.4,-3.5 -0.87,-0.67 -1.69,-1.44 -2.46,-2.31l-0.89 -1.03c-0.92,-1.15 -1.68,-2.29 -2.28,-3.44l-0.02 -0.03c-2.24,-4.23 -2.53,-8.76 -2.46,-15.73 0.01,-1.8 0.05,-3.73 0.09,-5.89 0.01,-2.85 0.68,-5.71 1.95,-8.36 0.69,-1.42 1.52,-2.74 2.47,-3.92 0.43,-0.55 0.88,-1.05 1.37,-1.54 5.41,-5.51 13.55,-7.55 20.52,-4.51 5.71,2.4 8.88,7.88 10.28,14.28 0.15,0.64 0.27,1.28 0.37,1.93 1.17,7.19 0.29,15.23 -1.58,21.29z"/>
  <path class="fil26" d="M1293.56 240.59c-0.7,0.66 -1.7,-3.51 -2.56,-3.81 -1.03,-0.37 -2.11,-0.61 -3.21,-0.7 0.01,-1.8 0.05,-3.73 0.09,-5.89 0.01,-2.85 0.68,-5.71 1.95,-8.36 0.69,-1.42 1.52,-2.74 2.47,-3.92l-0.08 -1.05 0.02 0 1.43 -0.49c1.14,-0.26 2.29,-0.26 3.35,0.08 1.71,0.58 2.6,2.03 3.05,3.67 -6.25,7.99 -4.33,18.42 -6.51,20.47z"/>
  <path class="fil26" d="M1290.25 251.81c-4.17,-4.94 -7.55,-10.78 -8.3,-17.4 -0.8,-7.08 3.3,-15.57 9.41,-19.72l1.59 0.22 -0.82 1.02 0.09 0.93 0.08 1.05c-0.95,1.18 -1.78,2.5 -2.47,3.92 -1.27,2.65 -1.94,5.51 -1.95,8.36 -0.04,2.16 -0.08,4.09 -0.09,5.89 -0.07,6.97 0.22,11.5 2.46,15.73z"/>
  <path class="fil12" d="M1283.48 240.56c0.65,2.41 2.23,4.4 4.4,5.52 2.91,1.45 5.19,-1.16 5.07,-4.38 -0.14,-2.89 -1.8,-7.14 -5.03,-7.29 -2.36,-0.04 -4.46,1.88 -4.68,4.29 -0.05,0.64 0.03,1.27 0.24,1.86z"/>
  <path class="fil10" d="M1364.63 458.12l-57.82 0c-9.09,-13.8 -18.25,-26.7 -24.14,-36.58 -0.54,-0.92 -1.06,-1.79 -1.55,-2.63 -1.97,-3.48 -3.44,-6.48 -4.27,-8.95 -1.38,-4.08 -1.48,-8.29 -0.83,-12.3 0.15,-1.1 0.38,-2.16 0.65,-3.24l0 -0.05c1.15,-4.4 3.04,-8.42 4.95,-11.64 0.81,-1.4 1.64,-2.63 2.41,-3.69 0.74,-1.03 1.46,-1.89 2.02,-2.49l0.21 -0.21 0.59 -0.59 0.61 -0.45 0.22 -0.07 0.37 -0.16c0.54,-0.24 1.11,-0.42 1.65,-0.61 0.67,-0.21 1.32,-0.42 1.99,-0.58 8.28,-2.1 15.42,0.14 20.22,4.96 0.64,0.6 1.23,1.28 1.78,2 20.65,26.7 39.81,53.05 50.94,77.28z"/>
  <path class="fil12" d="M1257.05 276.29c2.85,-5.18 14.25,-4.82 16.92,-0.03 11.49,20.59 24.93,40.11 24.93,40.11l44.13 -3.32 5.68 6.91c0,0 -48.16,16.4 -56.78,15.29 -9.24,-1.2 -27.21,-25.79 -36.3,-40.31 -5.95,-9.51 1.42,-18.65 1.42,-18.65z"/>
  <path class="fil12" d="M1343.03 313.05l7.36 -2.15c2.28,-0.67 4.67,-0.44 6.67,0.64l7.65 4.11c0.92,0.49 1.29,1.61 0.87,2.63l-2.34 5.67c-0.43,1.04 -1.55,1.64 -2.6,1.41l-8.98 -1.94 -9.72 -2.76c0,0 -1.75,-6.79 1.09,-7.61z"/>
  <polygon class="fil8" points="1345.22,323.18 1341.8,324.97 1338.79,313.06 1342.38,311.92 "/>
  <path class="fil8" d="M1344.75 312.45l-8.02 2.52 -0.25 -0.97c-0.17,-0.72 0.27,-1.48 0.99,-1.71l5.39 -1.69c0.73,-0.23 1.46,0.15 1.64,0.87l0.25 0.98z"/>
  <path class="fil26" d="M1284.85 228.61c2.56,-4.99 8.13,-7.88 13.53,-9.08 5.41,-1.21 10.93,-1.11 16.37,-2.06 3.62,-0.64 7.78,-2.32 8.82,-5.85 0.65,-2.17 -0.15,-4.48 -1.53,-6.12 -1.37,-1.66 -3.26,-2.79 -5.12,-3.89 -1.42,-0.84 -2.93,-1.71 -4.64,-1.67 -1.7,0.04 -3.58,1.37 -3.58,3.07 -3.78,-3.33 -10.35,-3.41 -15.04,-0.8 -3.14,1.76 -5.74,5.66 -4.26,8.72 -2.1,-1.51 -6.22,-0.65 -8,1.47 -1.79,2.12 -1.69,5.49 0.2,7.25 -3.55,-0.61 -7.65,2.91 -6.96,6.43 0.69,3.51 8.5,5.85 10.21,2.53z"/>
  <path class="fil27" d="M821.58 1529.88c11.11,-124.24 21.3,-424.47 -23.59,-477.53l-239.28 5.55c0,0 75.55,366.25 114.77,482.64 38.77,115.07 153.3,381.32 153.3,381.32l64.67 -1.14c0,0 -31.75,-302.07 -69.87,-390.84z"/>
  <path class="fil28" d="M790.82 1910.63c-0.87,-0.04 -1.75,0 -2.61,0.12 -1.08,0.17 -2.06,0.78 -2.68,1.68 -1.06,1.6 -0.8,2.4 -0.53,2.93 2.38,3.8 16.58,4.86 27.02,4.14 -6.44,-4.28 -13.64,-7.27 -21.22,-8.79l0.02 -0.08zm8.08 11.54c-7.22,-0.43 -14.1,-1.91 -16,-5.29 -1.1,-1.83 -0.89,-4.15 0.49,-5.77 1.04,-1.51 2.66,-2.52 4.47,-2.78 9.5,-1.92 28.26,10.57 29.06,11.1 0.46,0.33 0.69,0.89 0.59,1.44 -0.15,0.54 -0.59,0.95 -1.14,1.04 -5.81,0.64 -11.65,0.72 -17.47,0.26z"/>
  <path class="fil28" d="M803.89 1898.19l-0.8 -0.27c-2.34,0.11 -2.55,1.02 -2.66,1.35 -1.19,3.59 7.58,13.85 14.2,18.52 -0.18,-6.42 -2.34,-12.62 -6.2,-17.75 -1.23,-1.16 -2.85,-1.82 -4.54,-1.85zm12.05 23.67l-0.56 -0.19c-6.56,-3.5 -19.11,-16.51 -17.59,-22.75 0.48,-1.44 1.54,-3.31 5.22,-3.42 2.65,-0.22 5.28,0.64 7.27,2.4 6.76,6.4 7.17,21.53 7.23,22.17l-0.43 1.28 -1.14 0.51z"/>
  <path class="fil29" d="M825.72 1912.14l66.71 0.37c2.3,0.05 4.24,1.73 4.61,4.01l9.89 45.16c0.7,4.6 -8.09,9.68 -8.6,9.66 -33.26,2.67 -117.09,3.46 -140.66,2.58 -23.57,-0.87 -25.77,-24.29 -16.05,-26.05 43.58,-7.87 60.38,-20.33 74.6,-32.22 2.6,-2.33 6,-3.59 9.5,-3.51z"/>
  <path class="fil30" d="M624.12 1314.87c-12.65,46.34 -27.59,92.56 -41.3,134.54 -14.5,44.27 -27.65,83.83 -35.43,113.88 -7.44,137.97 -56.16,356.42 -56.16,356.42l-66.4 2.57c0,0 -15.56,-234.81 -26.4,-374.36 -8.91,-114.57 10.17,-480.14 10.17,-480.14l227.89 -21.27c33.35,58.93 16.17,163.98 -12.37,268.36z"/>
  <path class="fil31" d="M582.82 1449.41c-1.49,-32.63 -1.34,-68.06 -0.42,-101.65l5.72 0.25 1.49 16.17c0,0 2.4,0.05 6.74,0.05 3.41,0 8,-0.03 13.56,-0.15 -8.91,29.47 -18.26,58.28 -27.09,85.33l0 0z"/>
  <path class="fil8" d="M406.93 1066.69l-31.07 228.22c43.41,30.47 94.63,47.9 147.63,50.24l78.78 3.49 4.34 -290.59 -199.68 8.64z"/>
  <path class="fil29" d="M588.12 1348.01l-64.63 -2.86c-45.43,-2.01 -89.56,-15.1 -128.58,-38 -6.5,-3.81 -12.86,-7.9 -19.05,-12.24l31.07 -228.22 0 0 154.77 -6.69 26.42 288.01z"/>
  <path class="fil32" d="M847.94 1285.72c-5.82,13.49 -16.51,24.73 -30.39,33.97l-0.17 0.11c-8.39,5.6 -17.9,10.47 -28.21,14.72l-0.33 0.11c-77.84,32.19 -199.23,29.55 -199.23,29.55l-28.1 -306.29 192.02 0.83 34.98 0.12 23.5 0.1c39.74,80.43 35.93,226.78 35.93,226.78z"/>
  <path class="fil33" d="M756.71 1061.53l34.41 268.82 23.44 -12.23 -28.56 -256.5 -29.29 -0.09zm29.67 277.61l-0.34 -4.45 -35.7 -278.78 40.67 0.14 29.5 264.99 -1.54 1.07 -32.59 17.03z"/>
  <path class="fil28" d="M388.48 1904.72c-0.87,-0.08 -1.74,-0.08 -2.62,0 -1.09,0.13 -2.09,0.7 -2.75,1.57 -1.13,1.56 -0.9,2.37 -0.65,2.91 2.22,3.9 16.35,5.57 26.81,5.3 -6.24,-4.55 -13.32,-7.85 -20.82,-9.69l0.03 -0.09zm7.57 11.88c-7.19,-0.74 -14,-2.51 -15.76,-5.97 -1.01,-1.88 -0.71,-4.19 0.75,-5.75 1.1,-1.47 2.76,-2.4 4.58,-2.59 9.57,-1.5 27.77,11.79 28.55,12.36 0.45,0.34 0.65,0.91 0.53,1.45 -0.17,0.54 -0.64,0.92 -1.18,1 -5.83,0.38 -11.68,0.21 -17.47,-0.5z"/>
  <path class="fil28" d="M402.07 1892.85l-0.78 -0.29c-2.35,0.01 -2.6,0.9 -2.72,1.22 -1.34,3.55 6.97,14.17 13.38,19.12 0.11,-6.41 -1.79,-12.71 -5.42,-18 -1.18,-1.22 -2.77,-1.94 -4.46,-2.05zm11.02 24.17l-0.55 -0.2c-6.41,-3.79 -18.38,-17.32 -16.59,-23.49 0.54,-1.42 1.68,-3.24 5.35,-3.2 2.66,-0.11 5.25,0.88 7.17,2.72 6.47,6.69 6.23,21.81 6.26,22.46l-0.48 1.26 -1.16 0.45z"/>
  <path class="fil29" d="M423.28 1907.74l69.66 3.25c2.3,0.16 4.16,1.92 4.44,4.21l7.93 45.54c0.17,1.62 0.81,3.26 0.22,4.7 -1.13,2.78 -3.8,4.62 -6.8,4.7 -35.94,0.92 -123.39,-1.79 -146.1,-3.61 -23.52,-1.89 -24.7,-25.39 -14.91,-26.73 43.87,-5.98 61.19,-17.69 75.91,-28.96 2.71,-2.23 6.15,-3.33 9.65,-3.1z"/>
  <path class="fil27" d="M529.16 686.61c-6.69,16.18 -14.16,31.74 -21.94,47.26 -7.83,15.47 -15.97,30.79 -24.53,45.93 -8.51,15.18 -17.4,30.2 -26.63,45.16 -9.33,15.02 -18.71,29.64 -29.78,45.41l-3.35 4.78c-4.78,6.8 -11.17,12.11 -18.1,15.63 -3.92,1.98 -8.55,3.76 -12.42,4.74 -1.88,0.48 -3.79,0.88 -5.71,1.21l-2.88 0.42 -2.42 0.21c-6.74,0.48 -11.82,-0.1 -16.18,-0.85 -8.64,-1.63 -13.36,-3.79 -17.87,-5.79 -8.41,-4.02 -13.63,-7.78 -18.31,-11.37 -9.15,-7.16 -15.79,-13.76 -22.09,-20.55 -12.42,-13.34 -22.56,-26.84 -32.19,-40.57 -9.54,-13.73 -18.19,-27.82 -26.23,-42.27 -7.9,-14.6 -15.44,-29.12 -21.67,-45.04 -3.92,-10 1.01,-21.28 11.01,-25.19 5.67,-2.22 11.75,-1.6 16.67,1.18l0.51 0.3c14.14,8.1 27.43,17.22 40.67,25.95l38.55 26.51c12.48,8.69 24.96,17.17 36.47,24.3 5.71,3.4 11.36,6.68 15.38,8.19 1.9,0.71 3.52,0.94 2.36,0 -0.88,-0.53 -1.87,-1.32 -6.6,-2.37 -2.42,-0.47 -5.53,-0.9 -10.29,-0.6l-1.69 0.16 -2.16 0.27c-1.44,0.23 -2.86,0.53 -4.27,0.91 -2.92,0.74 -6.66,2.05 -9.66,3.68l-21.45 20.42 20.33 -45.02c7.01,-15.45 14.19,-30.92 21.61,-46.31 7.35,-15.43 15.05,-30.71 22.96,-45.91 7.97,-15.14 16.18,-30.27 25.08,-44.83l0.1 -0.18c17.27,-28.3 54.22,-37.24 82.53,-19.96 25.59,15.62 35.34,47.34 24.19,74.19z"/>
  <path class="fil27" d="M247.48 691.08l-12 -24.61 -63.17 25.25c9.89,11.84 21,22.6 33.15,32.11 8.37,6.29 19.64,7.13 28.86,2.16l2.44 -1.27c12.04,-6.51 16.77,-21.37 10.72,-33.64z"/>
  <polygon class="fil13" points="128.92,714.07 196.01,712.41 179.91,569.2 112.82,570.86 "/>
  <path class="fil13" d="M100.38 563.29l18 160.26c0.49,3.86 3.85,6.8 7.78,6.71l3.93 -0.1c-3.93,0.1 -7.23,-2.85 -7.71,-6.71l-18 -160.25c-0.5,-4.44 2.88,-8.33 7.33,-8.44l-3.93 0.1c-4.44,0.11 -7.9,4 -7.4,8.43z"/>
  <path class="fil28" d="M125.97 730.26c-3.85,0 -7.11,-2.91 -7.59,-6.71l-18 -160.26c-0.03,-0.29 -0.05,-0.58 -0.05,-0.87 0.01,-4.06 3.3,-7.46 7.45,-7.56l3.93 -0.1c-4.15,0.1 -7.38,3.5 -7.38,7.56l0 0c0,0.29 0.01,0.58 0.05,0.88l18 160.25c0,0.01 0.01,0.03 0.01,0.05 0.49,3.76 3.67,6.65 7.49,6.66 0.01,0 0.02,0 0.02,0l0 0c0.07,0 0.13,0 0.19,0l-3.93 0.1c-0.06,0 -0.12,0 -0.19,0z"/>
  <path class="fil34" d="M112.82 570.86l67.09 -1.66 16.1 143.21 -67.09 1.66 -16.1 -143.21zm-8.44 -7.66l18 160.25c0.48,3.86 3.78,6.81 7.71,6.71l66.96 -1.65c4.45,-0.11 7.83,-4 7.34,-8.43l-18.01 -160.26c-0.42,-3.86 -3.77,-6.81 -7.71,-6.71l-66.96 1.65c-4.45,0.11 -7.83,4 -7.33,8.44z"/>
  <polygon class="fil8" points="112.82,570.86 128.92,714.07 196.01,712.41 179.91,569.2 "/>
  <polygon class="fil35" points="128.92,714.07 112.82,570.86 179.91,569.2 196.01,712.41 "/>
  <path class="fil13" d="M527.83 618.34c18.17,86.54 -41.4,175.77 -41.4,175.77 -32.45,7.06 -100.49,-41.75 -116.28,-74.18 0,0 13.82,-61.42 51.35,-101.9 34.74,-37.49 95.69,-50.41 106.33,0.31z"/>
  <path class="fil33" d="M409.83 763.07c-17.97,-13.81 -33.21,-29.85 -39.68,-43.14 0,0 13.82,-61.42 51.35,-101.9 18.59,-20.06 44.69,-33.09 66.57,-33.09 0.3,0 0.62,0 0.92,0.01 -14.34,5.58 -28.68,16.98 -46.21,46.27 -13.85,23.14 -25.75,66.39 -32.95,131.85z"/>
  <path class="fil36" d="M518.57 577.96c66.65,-13.52 173.67,-31.81 244.38,-28.76 44.13,1.9 56.44,26.38 59.78,116.08 1.92,51.61 -12.85,159.3 -11.61,209.63 3.17,127.07 4.48,191.78 4.48,191.78 0,0 -51.6,-20.17 -408.67,0 -13.93,-248.04 6.6,-386.61 35.85,-435.47 29.21,-48.8 49.57,-47.94 75.79,-53.26z"/>
  <path class="fil27" d="M541.6 585.21c7.86,-9.35 17.4,-5.27 20.38,-18.48 0.98,-9.41 -1.29,-18.93 -7.63,-29.02l97.93 -65.72c1.64,38.2 3.01,68.37 21.3,81.84 7.64,27.86 -42.17,61.19 -112.66,68.41 -44.78,4.58 -30.65,-23.57 -19.32,-37.03z"/>
  <path class="fil37" d="M562.2 562.33l0 0c-0.04,-4.9 -0.96,-9.84 -2.91,-14.9 1.95,5.06 2.88,10.01 2.91,14.9z"/>
  <path class="fil31" d="M569.65 563.32c-2.64,0 -5.13,-0.33 -7.45,-0.99 -0.03,-4.89 -0.96,-9.84 -2.91,-14.9 -0.84,-2.19 -1.87,-4.4 -3.11,-6.64l79.6 -28.28c-15.51,30.56 -45.18,50.81 -66.13,50.81z"/>
  <path class="fil27" d="M571.99 351.54c52.83,-17.16 103.76,23.14 98.03,73.02 -5.73,49.88 -10.76,83.64 -42.96,103.54 -63.96,39.55 -99.84,10.83 -110.25,-39.73 -9.38,-45.5 1.56,-119.43 55.18,-136.83z"/>
  <path class="fil29" d="M654.07 504.24c0,0 1.56,-38.59 -18.29,-45.76 -15,-5.46 7.23,-39.45 -11.36,-43.24 -7.98,-2.53 -8.11,-28.89 -8.11,-35.18 0,0 31.19,-12.39 52.76,-13.75l0.04 0.2c6.38,32.63 6.23,66.3 -3.54,98.08 -3.42,11.13 -7.29,24.32 -11.5,39.65z"/>
  <path class="fil30" d="M682.49 467.04c-6.38,10.92 -17.23,17.83 -27.37,20.26 -15.25,3.65 -22.42,-10.13 -17.81,-24.22 4.15,-12.68 17.09,-29.86 32.21,-27.23 14.9,2.59 20.26,18.71 12.97,31.19z"/>
  <path class="fil38" d="M548.37 447.66l-0.66 32.86c0,0 -13.34,2.35 -20.63,-5.32 20.98,-12.31 21.29,-27.54 21.29,-27.54z"/>
  <path class="fil10" d="M590.95 416.86l0.88 -0.96c0.66,-1.26 0.17,-2.81 -1.09,-3.47 -12.68,-6.61 -23.15,-0.96 -23.59,-0.71 -1.25,0.69 -1.68,2.25 -0.98,3.48 0.7,1.23 2.27,1.68 3.51,1 0.34,-0.19 8.55,-4.51 18.67,0.77 0.85,0.44 1.85,0.37 2.6,-0.11z"/>
  <path class="fil10" d="M514.6 425.86c0.79,0.27 1.69,0.15 2.39,-0.41 8.87,-7.03 17.71,-4.23 18.08,-4.11 1.35,0.45 2.8,-0.28 3.23,-1.63 0.44,-1.34 -0.28,-2.79 -1.63,-3.25 -0.48,-0.16 -11.77,-3.88 -22.88,4.93 -1.11,0.88 -1.29,2.5 -0.41,3.62l1.22 0.85z"/>
  <path class="fil39" d="M663.18 962.06c-7.75,0 -14.8,-2.22 -20.07,-6.73 -1.74,-12.24 6.64,-28.81 22.29,-41.42 11.88,-9.57 25.16,-14.64 35.94,-14.64 6.03,0 11.28,1.59 15.06,4.86 2.65,10.7 -0.87,23.7 -9.6,34.92 -8.83,-6.66 -16.37,-10.44 -21.4,-10.44 -1.68,0 -3.07,0.41 -4.15,1.28 -1.63,1.32 -2.41,3.57 -2.41,6.59 -0.01,4.97 2.08,12.01 5.92,20.34 -7.24,3.48 -14.69,5.24 -21.58,5.24z"/>
  <path class="fil39" d="M753.78 1041.89c-4.3,-3.16 -8.93,-7.03 -13.74,-11.5 3.35,-5.32 7.71,-10.39 13.18,-14.79 4.14,-3.35 8.54,-6 13.01,-8.06 3.65,6.09 6.69,11.85 9.01,17.06 -4.01,1.97 -7.95,4.46 -11.69,7.47 -3.73,3.01 -7,6.32 -9.77,9.82z"/>
  <g id="_2958121949376">
   <path class="fil40" d="M663.12 962.09c-9.43,0 -17.82,-3.29 -23.2,-9.97 -3.84,-4.77 -5.66,-10.67 -5.66,-17 0,-12.75 7.39,-27.27 20.64,-37.94 10.61,-8.55 22.84,-12.9 33.68,-12.9 9.43,0 17.81,3.28 23.19,9.97 3.84,4.77 5.67,10.67 5.67,17 0,9.04 -3.72,18.98 -10.63,27.8 0,0 0,0 -0.01,0 8.73,-11.22 12.25,-24.22 9.6,-34.92 -3.78,-3.27 -9.03,-4.86 -15.06,-4.86 -10.78,0 -24.06,5.07 -35.94,14.64 -15.65,12.61 -24.03,29.18 -22.29,41.42 5.27,4.51 12.32,6.73 20.07,6.73 6.89,0 14.34,-1.76 21.58,-5.24l0 0c-7.26,3.5 -14.73,5.27 -21.64,5.27z"/>
   <path class="fil40" d="M753.77 1041.9c-11.71,-8.59 -25.86,-22.47 -39.52,-39.43 -13.2,-16.39 -23.49,-32.6 -29.49,-45.65 -3.84,-8.33 -5.93,-15.37 -5.92,-20.34 0,-3.02 0.78,-5.27 2.41,-6.59 1.08,-0.87 2.47,-1.28 4.15,-1.28 11.58,0 36.36,19.96 59.74,48.98 13.66,16.97 24.19,33.74 30.1,47.01l0 0c-2.32,-5.21 -5.36,-10.97 -9.01,-17.06 -4.47,2.06 -8.87,4.71 -13.01,8.06 -5.47,4.4 -9.83,9.47 -13.18,14.79 4.81,4.47 9.44,8.34 13.74,11.5 0,0 -0.01,0.01 -0.01,0.01z"/>
   <path class="fil40" d="M771.77 1096.98c-3.79,0 -7.41,-0.53 -10.73,-1.6 -2.13,-0.68 -4.14,-1.59 -5.99,-2.72 -2.46,-1.48 -4.64,-3.37 -6.47,-5.65 -3.84,-4.77 -5.67,-10.67 -5.67,-17 0,-12.74 7.39,-27.26 20.64,-37.94 10.62,-8.55 22.84,-12.9 33.68,-12.9 9.43,0 17.81,3.28 23.2,9.97 3.83,4.76 5.66,10.66 5.66,17 0,12.74 -7.39,27.27 -20.64,37.94 -3.39,2.72 -6.93,5.02 -10.55,6.89 -1.77,0.92 -3.56,1.73 -5.36,2.44 -6.01,2.37 -12.08,3.57 -17.77,3.57z"/>
  </g>
  <path class="fil27" d="M757.22 948.75l19.15 20.95c13.27,30.94 -32.95,47 -32.95,47l-18.57 13.2c-6.29,4.47 -15.49,3.08 -21.73,-3.29l-15.67 -16.01c-7.16,-7.29 -7.87,-18.41 -1.59,-24.65l14.1 -14c4.11,-4.08 9.16,-7.07 14.7,-8.73l42.56 -14.47z"/>
  <path class="fil37" d="M812.57 831.19l-0.08 -0.16c0.97,-15.26 2.32,-31.92 3.72,-48.88l-3.64 49.04zm9.5 -127.85c0.74,-14.41 1.05,-27.43 0.66,-38.06 -0.13,-3.24 -0.26,-6.4 -0.4,-9.46l3.31 -0.51 -3.57 48.03z"/>
  <path class="fil33" d="M812.49 831.03l-72.66 -162.67 82.5 -12.54c0.14,3.06 0.27,6.22 0.4,9.46 0.39,10.63 0.08,23.65 -0.66,38.06l-5.86 78.81c-1.4,16.96 -2.75,33.62 -3.72,48.88z"/>
  <path class="fil27" d="M848.04 801.77c0,0 -98.71,138.9 -96.23,151.18l23.34 33.32c184.42,-118.31 170.41,-180.96 170.41,-180.96l-97.52 -3.54z"/>
  <path class="fil27" d="M945.56 805.31l-0.78 -6.31c-0.27,-2.25 -0.4,-3.79 -0.89,-7.13 -3.64,-24.7 -12.95,-48.2 -24.99,-67.55 -2.99,-4.83 -6.14,-9.59 -9.38,-14.13l-7.5 -10.62c-4.84,-6.89 -9.85,-13.6 -14.74,-20.44 -9.69,-13.66 -19.69,-27.1 -29.3,-40.38l-14.21 -19.47 -6.37 -8.91 -2.24 -3.21c0.42,0.87 0.8,1.74 1.17,2.65 0.37,0.87 0.58,1.79 0.9,2.66l-0.81 -2.05 -0.63 -1.46 -0.98 -2.06 0 -0.1 0.23 0.26c-13.28,-28.23 -46.49,-41.35 -75.66,-29.28 -51.8,38.65 -28.6,41.82 -36.11,47.57 -0.73,7.81 -0.29,10.38 -0.22,11.81 0.16,2.15 0.48,4.28 0.85,6.37l0.57 2.67 0.67 2.56 0.58 1.9 0.78 2.39c0.69,1.9 0.88,2.39 1.25,3.31l0.99 2.22c1.1,2.32 1.71,3.61 2.38,4.9 1.2,2.21 2.17,3.87 3.01,5.33 1.73,2.83 3.16,5.14 4.58,7.33 2.8,4.4 5.46,8.24 8.13,12.09 5.26,7.59 10.61,14.62 15.9,21.65 10.75,13.95 21.47,27.46 32.57,40.67 5.54,6.58 10.98,13.22 16.64,19.69l8.21 9.43c1.98,2.17 3.79,4.4 5.49,6.58 6.76,8.9 11.77,16.99 14.5,25.75l105.41 -6.69z"/>
  <path class="fil36" d="M824.68 577.8c60.28,82.82 86.63,112.69 86.63,112.69 0,0 -84.81,87.17 -157.11,62.37 0,0 -38.54,-101.04 -48.16,-138.71 -14.61,-57.2 77.4,-93 118.64,-36.35z"/>
  <path class="fil29" d="M618.63 382.03c-25.87,5.84 -51.75,11.68 -77.64,17.53 -9.22,2.08 -18.77,4.16 -28.04,2.3 -12.54,-2.53 -23.18,-12.81 -26.13,-25.26 -1.25,-5.32 -1.11,-11.24 1.81,-15.86 2.92,-4.61 9.13,-7.36 14.14,-5.18 -0.22,-11.83 6.21,-24.8 16.71,-30.25 10.49,-5.45 24.04,-4.41 33.59,2.58 2.65,-8.45 12.97,-12.67 21.75,-11.53 8.78,1.13 16.44,6.37 23.45,11.75 7.03,5.39 14.03,11.23 22.46,13.93 6.1,1.95 12.57,2.97 18.98,2.84 28.81,-0.59 31.3,15.31 29.36,21.43 -9.5,8.62 -26.69,16.66 -39.31,18.99 -2.68,0.49 -5.49,0.82 -8.09,0.01 -2.6,-0.81 -2.89,-0.56 -3.04,-3.28z"/>
  <path class="fil10" d="M562.9 500.42c0.36,4.07 -1.47,7.6 -4.09,7.89 -2.62,0.28 -5.16,-2.86 -5.59,-6.91 -0.43,-4.04 1.46,-7.59 4.08,-7.88 2.62,-0.28 5,3.06 5.6,6.9z"/>
  <path class="fil10" d="M580.05 442.56c0.36,4.07 -1.47,7.6 -4.08,7.88 -2.63,0.3 -5.17,-2.85 -5.61,-6.89 -0.43,-4.05 1.47,-7.59 4.09,-7.88 2.61,-0.29 5,3.06 5.6,6.89z"/>
  <path class="fil10" d="M529.91 447.18c0.36,4.07 -1.47,7.59 -4.09,7.88 -2.62,0.29 -5.16,-2.86 -5.59,-6.9 -0.44,-4.05 1.46,-7.59 4.08,-7.88 2.61,-0.29 5,3.06 5.6,6.9z"/>
  <path class="fil27" d="M210.39 641.6l-11.88 -18.02c-1.15,-1.76 -3.76,-1.65 -4.78,0.19l-3.04 5.55c-1.92,3.49 -2.14,7.66 -0.6,11.33l16.19 38.67 29.13 -12.83 -25.02 -24.89z"/>
 </g>
</svg>
